<svg width="72" height="72" viewBox="0 0 72 72" fill="none" xmlns="http://www.w3.org/2000/svg">
<path d="M6.5 35.1539C7.03027 35.1409 7.53883 35.1285 7.91379 35.1193C8.28875 35.1101 8.4994 35.105 8.4994 35.105C8.4994 35.105 8.28875 35.1101 7.91379 35.1193C7.53883 35.1285 7.03027 35.1409 6.5 35.1539C7.40917 35.1318 8.31391 35.1164 9.22132 35.1037C9.85203 35.1248 10.4742 34.9883 11.1102 35.171C11.7363 35.3671 12.3659 35.5305 12.9995 35.6608C14.2573 35.9215 15.5135 36.0502 16.7692 36.0456C18.4917 36.0393 20.2156 36.036 21.9393 36.0342C25.1561 36.0305 28.3588 36.0953 31.5839 36.1063C32.2952 36.1085 33.0114 36.1105 33.7268 36.1097C36.9175 36.1062 40.1068 36.1156 43.2895 36.1389C45.4548 36.1585 47.6447 36.1741 49.7666 36.2707L49.8074 36.2721C51.1136 36.2919 52.4079 36.3209 53.7037 36.3725C55.1985 36.4346 56.6808 36.5089 58.1181 36.6976C58.3612 36.7296 58.6047 36.7654 58.8543 36.8034L58.9083 36.8105C59.1624 36.8363 59.4135 36.8525 59.6601 36.8627C60.1165 36.8813 60.5568 36.8802 60.9808 36.8791C61.267 36.8784 61.5415 36.7637 61.7439 36.5608C61.9462 36.3578 62.0599 36.0833 62.0599 35.7971C62.0599 35.5109 61.9462 35.2364 61.7439 35.0334C61.5415 34.8305 61.267 34.7159 60.9808 34.7151C60.5566 34.714 60.1482 34.7131 59.757 34.6939C59.5455 34.6836 59.339 34.6682 59.137 34.6458L59.191 34.6529C58.9386 34.6121 58.6769 34.5709 58.4151 34.5337C56.8524 34.3133 55.3236 34.2211 53.7966 34.1518C52.4734 34.0945 51.1637 34.0602 49.8447 34.0357L49.8855 34.0372C47.6638 33.9288 45.4914 33.9092 43.3065 33.889C40.1069 33.8655 36.9097 33.8918 33.7121 33.9304C33.0033 33.939 32.289 33.9449 31.5795 33.9501C28.3606 33.9724 25.1556 34.0305 21.9372 34.0342C20.2123 34.036 18.4868 34.0393 16.7619 34.0456C15.5044 34.0502 14.2467 34.1913 12.991 34.4701C12.3584 34.6095 11.7307 34.7834 11.1084 34.9919C10.4762 35.1873 9.85144 35.0651 9.22132 35.1037C8.31391 35.1164 7.40917 35.1318 6.5 35.1539Z" fill="black"/>
<path d="M37 7.5C37.0191 6.96991 37.0374 6.46153 37.0509 6.0867C37.0645 5.71188 37.072 5.5013 37.072 5.5013C37.072 5.5013 37.0645 5.71188 37.0509 6.0867C37.0374 6.46153 37.0191 6.96991 37 7.5C36.9547 8.36375 36.9145 9.24464 36.8761 10.1208C37.0174 11.0827 36.3192 12.0099 36.114 12.9633C35.8435 13.914 35.6939 14.8649 35.6657 15.8246C35.6244 17.2332 35.5913 18.642 35.5715 20.0526C35.5601 20.8676 35.545 21.6828 35.5324 22.4999C35.4903 25.2135 35.4004 27.922 35.4024 30.6311C35.4059 35.6929 35.4308 40.7537 35.4308 45.8124C35.4306 47.3334 35.4275 48.843 35.4138 50.3564C35.3965 51.896 35.3838 53.4206 35.2794 54.927C35.2458 55.4616 35.2151 56.0001 35.1888 56.5371C35.1759 56.7995 35.1688 57.0645 35.166 57.327C35.1564 58.2095 35.1926 59.0913 35.2038 59.9703C35.2071 60.2146 35.3106 60.4518 35.4853 60.6298C35.6603 60.8077 35.8923 60.9118 36.1362 60.9192C36.3802 60.9267 36.618 60.837 36.8036 60.67C36.9888 60.5031 37.1066 60.2725 37.1248 60.029C37.1248 60.029 37.1248 60.029 37.1248 60.029C37.1896 59.1581 37.2867 58.2893 37.354 57.4233C37.374 57.1656 37.3916 56.9058 37.4047 56.6482C37.4316 56.1211 37.4623 55.5947 37.4959 55.0667C37.6057 53.4967 37.6187 51.9239 37.6402 50.38C37.6581 48.8559 37.6677 47.3425 37.6756 45.8181C37.7013 40.7539 37.7145 35.6908 37.711 30.6294C37.709 27.9205 37.6161 25.2128 37.574 22.4999C37.5614 21.6945 37.56 20.8879 37.5713 20.0806C37.5909 18.683 37.6238 17.2837 37.6648 15.8833C37.6929 14.9292 37.6071 13.9762 37.4073 13.0111C37.2728 12.0492 36.6516 11.0678 36.8761 10.1208C36.9145 9.24464 36.9547 8.36375 37 7.5Z" fill="black"/>
</svg>
