<?xml version="1.0" encoding="UTF-8" standalone="no"?>
<!-- Created with Inkscape (http://www.inkscape.org/) -->

<svg
   version="1.1"
   id="svg1"
   width="84.557922"
   height="110.31121"
   viewBox="0 0 84.557921 110.31121"
   xmlns="http://www.w3.org/2000/svg"
   xmlns:svg="http://www.w3.org/2000/svg">
  <defs
     id="defs1" />
  <g
     id="layer1"
     transform="translate(-12.842077,-0.08878875)">
    <path
       style="display:inline;fill:#000000"
       d="m 52.869726,109.47422 c -0.852124,-0.90704 -0.869725,-1.16302 -0.869725,-12.648788 0,-11.723008 0,-11.723008 -0.9,-11.073805 -3.666532,2.644804 -9.75807,4.659273 -14.035188,4.641429 C 26.88469,90.350585 17.181801,82.524984 14.755393,72.400001 13.419944,66.827403 14.794453,59.224622 17.952396,54.716509 19.517708,52.481952 19.517708,52.481952 17.647981,50.490442 11.182271,43.603598 11.248186,33.249894 17.8,26.611927 20.903503,23.467614 25.990057,21.2 29.939658,21.2 c 1.021068,0 1.135402,-0.170039 1.588114,-2.361853 C 33.276844,10.369981 41.383161,2.4528779 50.200001,0.60175851 63.049066,-2.0959376 76.050207,6.1222986 78.953444,18.777285 c 0.499501,2.177285 0.499501,2.177285 3.599803,2.700948 6.176812,1.043308 11.00058,4.601554 13.558109,10.001122 1.20854,2.551523 1.288645,2.994161 1.288645,7.120646 0,4.11609 -0.0822,4.573528 -1.273992,7.089331 -0.700695,1.479133 -2.108967,3.581988 -3.129492,4.673012 -1.8555,1.983679 -1.8555,1.983679 -0.211631,4.709251 5.690235,9.434536 4.365574,20.674149 -3.342813,28.363436 -4.296175,4.28553 -10.524566,6.951079 -16.242072,6.951079 -4.094539,0 -10.079829,-1.931667 -13.083123,-4.222391 -1.316877,-1.004431 -1.316877,-1.004431 -1.316877,10.23579 0,13.535451 -0.124992,14.000491 -3.76299,14.000491 -0.839136,0 -1.60483,-0.32707 -2.167285,-0.92578 z M 43.000001,82.350733 c 2.526719,-0.943425 3.503767,-1.60459 6.545943,-4.429623 2.454057,-2.278892 2.454057,-2.278892 2.454057,-5.185552 0,-2.90666 0,-2.90666 -6.8,-9.74702 -5.894203,-5.929186 -6.8,-7.007104 -6.8,-8.092143 0,-1.875163 1.537765,-3.456394 3.361382,-3.456394 1.32991,0 1.869722,0.403411 5.851837,4.373178 l 4.386781,4.373178 V 42.618959 c 0,-17.486335 0.004,-17.57167 0.869725,-18.493178 1.330332,-1.416074 3.563669,-1.276951 4.894717,0.304909 1.035558,1.230691 1.035558,1.230691 1.035558,12.253628 0,11.022937 0,11.022937 2.679835,8.36931 3.05608,-3.026193 4.811722,-3.507936 6.390834,-1.753627 2.099876,2.332847 1.493665,3.632239 -4.429029,9.493475 -4.64164,4.593475 -4.64164,4.593475 -4.61024,14 0.0314,9.406525 0.0314,9.406525 2.7,11.768656 4.458697,3.946648 9.095944,5.469653 14.16727,4.65294 13.350635,-2.150057 18.273091,-17.988127 8.626348,-27.75539 -3.520244,-3.564223 -3.265584,-5.47937 1.01718,-7.649616 4.329751,-2.194055 6.490144,-7.837798 4.846642,-12.661212 -1.739307,-5.104584 -6.884934,-7.70101 -13.076102,-6.598054 -1.774177,0.316069 -1.959929,0.263548 -3.1,-0.876523 C 72.96784,26.629378 72.799344,26.166648 72.795253,24.33077 72.761574,9.2150332 54.516191,1.3873979 43.370044,11.706764 c -3.694229,3.420205 -5.74812,8.108584 -5.764131,13.157679 -0.005,1.587204 -0.188914,2.018428 -1.236603,2.9 -1.360069,1.144423 -1.76483,1.201448 -4.330251,0.610071 -2.411063,-0.555794 -5.54336,0.144082 -7.893648,1.763745 -4.271258,2.94347 -5.648218,8.823209 -3.140413,13.409841 1.230698,2.250876 2.500904,3.411319 5.237741,4.785129 1.827206,0.917202 2.804012,2.641102 2.344295,4.137284 -0.157078,0.511218 -1.277397,1.905519 -2.4896,3.098447 C 22.583937,59.026588 21.4,61.963294 21.4,67.220746 c 0,4.07552 0.05192,4.325796 1.508938,7.273872 3.678052,7.442033 12.236817,10.788727 20.091063,7.856115 z"
       id="path1" />
  </g>
</svg>
