<svg width="72" height="72" viewBox="0 0 72 72" fill="none" xmlns="http://www.w3.org/2000/svg">
<path d="M13 65.3255C13.0166 64.7953 13.0325 64.2868 13.0442 63.9119C13.0559 63.5371 13.0625 63.3264 13.0625 63.3264C13.0625 63.3264 13.0559 63.5371 13.0442 63.9119C13.0325 64.2868 13.0166 64.7953 13 65.3255C13.0192 64.7106 13.0384 64.0971 13.0576 63.4816C13.0576 63.4814 13.0576 63.4812 13.0576 63.4811C13.0481 63.7855 13.0386 64.0919 13.029 64.3964C13.0291 64.3937 13.0293 64.3871 13.0294 64.3845C13.0302 64.351 13.0309 64.3188 13.0315 64.2839C13.0466 63.3758 13.0497 62.4621 13.0533 61.5536C12.9033 61.0982 13.4395 60.6437 13.6979 60.1887C13.9841 59.7336 14.176 59.2782 14.1825 58.8193C14.1826 58.8116 14.1826 58.8038 14.1826 58.7961C14.1778 51.7071 14.0271 44.6275 14.0641 37.5468C14.0641 37.5425 14.0642 37.5381 14.0642 37.5338C14.0953 30.8811 14.1979 24.231 14.2409 17.5665L14.2405 17.5344C14.2405 17.5333 14.2405 17.5323 14.2405 17.5313C14.1942 15.8673 14.1501 14.2061 14.1462 12.5572C14.1439 11.9072 14.1542 11.2614 14.1533 10.5878C14.1533 10.5876 14.1533 10.5874 14.1533 10.5873C14.1525 10.2856 14.1263 9.98472 14.1128 9.68336C14.102 9.44512 13.9935 9.21664 13.8175 9.04818C13.6411 8.87972 13.4117 8.78508 13.1733 8.78508C12.935 8.78508 12.7055 8.87972 12.5292 9.04818C12.3532 9.21664 12.2447 9.44512 12.2339 9.68336C12.2204 9.98472 12.1941 10.2856 12.1934 10.5873C12.1934 10.5874 12.1934 10.5876 12.1934 10.5878C12.1909 11.2272 12.1766 11.8922 12.1747 12.5548C12.1683 14.2397 12.2026 15.9138 12.2491 17.5875C12.2491 17.5886 12.2491 17.5896 12.2491 17.5907L12.2488 17.5586C12.206 24.197 12.111 30.8641 12.0798 37.5235C12.0798 37.5278 12.0798 37.5322 12.0798 37.5365C12.0424 44.6256 11.9278 51.7145 11.9326 58.796C11.9326 58.8037 11.9327 58.8114 11.9328 58.819C11.9392 59.2771 12.1305 59.7315 12.4153 60.1868C12.6723 60.6416 13.2065 61.0989 13.0533 61.5536C13.0497 62.4621 13.0466 63.3758 13.0315 64.2839C13.0309 64.3188 13.0302 64.351 13.0294 64.3845C13.0293 64.3871 13.0291 64.3937 13.029 64.3964C13.0386 64.0919 13.0481 63.7855 13.0576 63.4811C13.0576 63.4812 13.0576 63.4814 13.0576 63.4816C13.0384 64.0971 13.0192 64.7106 13 65.3255Z" fill="white"/>
<path d="M13.9534 9.59669C14.3697 9.26801 14.769 8.95279 15.0634 8.72038C15.3577 8.48797 15.5231 8.3574 15.5231 8.3574C15.5231 8.3574 15.3577 8.48797 15.0634 8.72038C14.769 8.95279 14.3697 9.26801 13.9534 9.59669C14.315 9.31121 14.6763 9.02595 15.0381 8.74031C15.041 8.73801 15.0452 8.73472 15.0484 8.73215C14.8704 8.87274 14.6909 9.01439 14.5128 9.15504C14.5096 9.15754 14.5074 9.15933 14.505 9.16117C14.4738 9.18997 14.4254 9.21174 14.4311 9.24312C14.4699 9.23824 14.5111 9.21762 14.5458 9.20373C14.6198 9.17204 14.696 9.13664 14.7682 9.10326C15.2059 8.89906 15.6422 8.69797 16.0921 8.52432C16.2045 8.48094 16.3176 8.4393 16.4313 8.40016C16.5629 8.40978 16.7335 8.55377 16.8719 8.62571C17.1541 8.79523 17.405 8.94858 17.5456 9.05771C17.679 9.11912 17.8037 9.15491 17.9266 9.15639C19.5629 9.18947 21.4094 9.8799 23.1942 10.5402C23.3001 10.5806 23.4154 10.6257 23.5221 10.6685C26.7619 12.0045 29.9287 13.7725 33.2793 15.2842C33.3642 15.322 33.4481 15.3592 33.5312 15.3956C35.7676 16.3547 38.219 17.313 40.9255 17.2936C40.9998 17.2938 41.0735 17.2934 41.1467 17.2924C44.4404 17.3631 47.0088 15.2655 49.2005 13.8191C49.2331 13.7966 49.2654 13.7742 49.2976 13.7518C51.0187 12.527 52.466 11.4154 54.2068 10.6506L54.0331 10.7154C54.0512 10.7101 54.0694 10.7048 54.0877 10.6996C55.2085 10.377 56.3902 10.2166 57.5716 10.2155C57.8597 10.2153 58.1479 10.2247 58.4353 10.2436C58.4485 10.2445 58.4545 10.2448 58.4604 10.2452C59.067 10.2788 59.6099 10.247 60.1485 10.2341C60.4699 10.2256 60.7782 10.0871 61.0055 9.85392C61.2328 9.62046 61.3605 9.31146 61.3605 8.99C61.3605 8.66854 61.2328 8.35954 61.0055 8.12607C60.7782 7.8929 60.4699 7.75436 60.1485 7.74586C59.6144 7.7314 59.0841 7.70723 58.6194 7.67784C58.6149 7.67754 58.6104 7.67725 58.606 7.67695C58.2689 7.65261 57.9238 7.63922 57.5787 7.63726C56.1637 7.6299 54.745 7.81079 53.3694 8.20624C53.347 8.21268 53.3247 8.21917 53.3024 8.22573L53.1286 8.29054C51.1573 9.15045 49.3749 10.5163 47.8161 11.6287C47.7861 11.6497 47.756 11.6706 47.7259 11.6916C45.4527 13.2254 43.4454 14.8586 41.1053 14.783C41.0467 14.7842 40.9871 14.7848 40.9263 14.785C38.8093 14.827 36.6596 14.0264 34.5158 13.1232C34.437 13.0894 34.3571 13.055 34.2763 13.02C31.0233 11.5958 27.795 9.95422 24.3132 8.61651C24.1958 8.5729 24.0679 8.52623 23.9489 8.48412C22.0663 7.85514 20.1964 7.0978 17.9032 7.11356C17.738 7.11831 17.5747 7.16649 17.4204 7.24782C17.0838 7.39139 16.8587 7.65513 16.6797 7.95616C16.5853 8.09501 16.5281 8.31203 16.4313 8.40016C16.3176 8.4393 16.2045 8.48094 16.0921 8.52432C15.6422 8.69797 15.2059 8.89906 14.7682 9.10326C14.696 9.13664 14.6198 9.17204 14.5458 9.20373C14.5111 9.21762 14.4699 9.23824 14.4311 9.24312C14.4254 9.21174 14.4738 9.18997 14.505 9.16117C14.5074 9.15933 14.5096 9.15754 14.5128 9.15504C14.6909 9.01439 14.8704 8.87274 15.0484 8.73215C15.0452 8.73472 15.041 8.73801 15.0381 8.74031C14.6763 9.02595 14.315 9.31121 13.9534 9.59669Z" fill="white"/>
<path d="M14.5601 32.0442C14.9955 31.7413 15.4131 31.4508 15.721 31.2366C16.0289 31.0224 16.2019 30.9021 16.2019 30.9021C16.2019 30.9021 16.0289 31.0224 15.721 31.2366C15.4131 31.4508 14.9955 31.7413 14.5601 32.0442C15.0021 31.7367 15.4438 31.4295 15.8857 31.122C15.8858 31.122 15.8858 31.1219 15.8857 31.122C15.6661 31.2748 15.4467 31.4274 15.2278 31.5797C15.2241 31.5823 15.2203 31.5849 15.2166 31.5875C15.1753 31.616 15.136 31.6419 15.0987 31.6654C14.9576 31.7496 14.8198 31.8396 14.6517 31.8468C14.5628 31.8539 14.5164 31.7536 14.5358 31.6757C14.5481 31.5958 14.5828 31.5177 14.6193 31.4479C14.7761 31.1614 15.0033 30.9222 15.2523 30.7132C15.7503 30.3 16.3781 30.0209 17.0319 30.0169C17.587 29.9022 18.0863 30.4419 18.5795 30.7327C19.0745 31.0549 19.5586 31.3212 20.063 31.4752C21.2707 31.8469 22.4738 32.2078 23.5275 32.7073C23.542 32.7142 23.5564 32.7211 23.5708 32.7281C27.0142 34.407 30.442 36.1979 33.9771 37.8541C33.9925 37.8613 34.0079 37.8684 34.0233 37.8755C35.9402 38.7705 38.1607 39.6462 40.1136 40.0845C40.1176 40.0858 40.121 40.0869 40.1238 40.0878C42.461 40.7347 44.3582 40.6756 46.6347 40.2254C46.6417 40.2236 46.6487 40.2218 46.6557 40.22C48.5655 39.6743 49.8662 38.5432 51.1054 37.5179C51.1073 37.5163 51.1092 37.5147 51.1111 37.5131L51.0597 37.5543C52.452 36.7567 54.7578 35.9235 56.6932 35.2017C56.8419 35.1472 56.9866 35.0945 57.1358 35.0404C57.1363 35.0402 57.1368 35.04 57.1373 35.0398L57.1098 35.0494C57.7583 34.8371 58.3321 34.6377 58.8525 34.611C59.1636 34.5853 59.4524 34.4365 59.6555 34.1983C59.8585 33.96 59.9592 33.6519 59.9353 33.3407C59.9113 33.0294 59.7647 32.7403 59.5276 32.5359C59.2905 32.3316 58.9823 32.2286 58.671 32.2508C57.7901 32.3008 57.0301 32.5643 56.3515 32.7823L56.3239 32.7919C56.3234 32.7921 56.3228 32.7922 56.3223 32.7924C56.1707 32.8472 56.0236 32.9005 55.8723 32.9557C53.7837 33.7635 51.9511 34.2801 49.6117 35.6423L49.5603 35.6835C49.5584 35.685 49.5566 35.6866 49.5548 35.6881C48.4021 36.6648 47.185 37.5782 46.0429 37.883C46.0389 37.884 46.0347 37.8851 46.0306 37.8862C44.486 38.2263 42.3325 38.2407 40.903 37.8071C40.8876 37.8018 40.8723 37.7968 40.8573 37.7919C38.6775 37.2816 36.9593 36.5756 35.0309 35.6946C35.016 35.6877 35.0011 35.6808 34.9861 35.6739C31.5252 34.0628 28.0915 32.2939 24.5872 30.6115C24.5689 30.6028 24.5505 30.5941 24.5321 30.5854C23.2005 29.9674 21.8449 29.6239 20.4818 29.4556C19.9139 29.3874 19.3265 29.4664 18.738 29.6323C18.1516 29.7726 17.5593 30.1661 17.0319 30.0169C16.3781 30.0209 15.7503 30.3 15.2523 30.7132C15.0033 30.9222 14.7761 31.1614 14.6193 31.4479C14.5828 31.5177 14.5481 31.5958 14.5358 31.6757C14.5164 31.7536 14.5628 31.8539 14.6517 31.8468C14.8198 31.8396 14.9576 31.7496 15.0987 31.6654C15.136 31.6419 15.1753 31.616 15.2166 31.5875C15.2203 31.5849 15.2241 31.5823 15.2278 31.5797C15.4467 31.4274 15.6661 31.2748 15.8857 31.122C15.8858 31.1219 15.8858 31.122 15.8857 31.122C15.4438 31.4295 15.0021 31.7367 14.5601 32.0442Z" fill="white"/>
<path d="M61.3767 6.00573C61.4134 6.53489 61.4486 7.04238 61.4746 7.41655C61.5005 7.79072 61.5151 8.00093 61.5151 8.00093C61.5151 8.00093 61.5005 7.79072 61.4746 7.41655C61.4486 7.04238 61.4134 6.53489 61.3767 6.00573C61.414 6.5425 61.4512 7.0796 61.4885 7.61643C61.5614 8.66772 61.6344 9.72059 61.7072 10.7706C61.7076 10.7757 61.7079 10.7801 61.708 10.7811C61.6533 9.99297 61.5983 9.19983 61.5436 8.41138C61.544 8.41791 61.5443 8.42145 61.5449 8.43094C61.592 9.1275 61.6347 9.82825 61.673 10.5268C61.6778 10.6146 61.6825 10.7013 61.6871 10.7892C61.6748 10.8771 61.7557 10.9614 61.6225 11.0553C61.4516 11.2394 61.2915 11.4216 61.1537 11.6024C60.878 11.9638 60.6917 12.3179 60.6868 12.6615C60.6866 12.6769 60.6867 12.6922 60.6872 12.7075C60.7526 14.4631 60.7148 16.2124 60.6706 18.0091C60.6704 18.0204 60.6701 18.0318 60.6698 18.0432C60.6051 20.7184 60.6412 23.3992 60.5182 26.0712C60.518 26.0768 60.5177 26.0823 60.5175 26.0878C60.4284 28.0088 60.3294 29.9289 60.226 31.8507C60.1971 32.3877 60.168 32.9248 60.1389 33.4621C60.1267 33.6871 60.2044 33.9077 60.3548 34.0754C60.5053 34.2432 60.7163 34.3443 60.9413 34.3564C61.1663 34.3686 61.3869 34.291 61.5546 34.1405C61.7223 33.99 61.8234 33.7791 61.8356 33.5541C61.8647 33.0167 61.8939 32.4794 61.9227 31.9419C62.0263 30.0183 62.1256 28.0928 62.2149 26.1667C62.2151 26.1611 62.2154 26.1556 62.2156 26.15C62.3401 23.4715 62.5978 20.8005 62.7386 18.1222C62.7392 18.1108 62.7398 18.0994 62.7404 18.088C62.8351 16.302 62.9223 14.4643 62.854 12.6359C62.8535 12.6201 62.8526 12.6042 62.8513 12.5883C62.8227 12.2336 62.6071 11.8869 62.299 11.5492C62.1449 11.38 61.9677 11.2133 61.779 11.0473C61.637 10.9674 61.7086 10.8754 61.6871 10.7892C61.6825 10.7013 61.6778 10.6146 61.673 10.5268C61.6347 9.82825 61.592 9.1275 61.5449 8.43094C61.5443 8.42145 61.544 8.41791 61.5436 8.41138C61.5983 9.19983 61.6533 9.99297 61.708 10.7811C61.7079 10.7801 61.7076 10.7757 61.7072 10.7706C61.6344 9.72059 61.5614 8.66772 61.4885 7.61643C61.4512 7.0796 61.414 6.5425 61.3767 6.00573Z" fill="white"/>
</svg>
