<svg width="72" height="72" viewBox="0 0 72 72" fill="none" xmlns="http://www.w3.org/2000/svg">
<path d="M12.7019 60.8302C12.8832 60.3317 13.0571 59.8536 13.1852 59.5011C13.3134 59.1486 13.3854 58.9506 13.3854 58.9506C13.3854 58.9506 13.3134 59.1486 13.1852 59.5011C13.0571 59.8536 12.8832 60.3317 12.7019 60.8302C12.773 60.6348 12.8439 60.4397 12.915 60.2442C12.915 60.2442 12.915 60.2442 12.9151 60.2441C12.8799 60.3409 12.8445 60.4382 12.8093 60.535C12.8096 60.5341 12.8104 60.5319 12.8107 60.531C12.9164 60.2233 13.0188 59.9125 13.1218 59.6027C13.2674 59.1634 13.4098 58.7316 13.5549 58.2908C14.1438 58.0042 14.6793 57.6915 14.8246 57.2541C14.8255 57.2515 14.8263 57.249 14.8272 57.2464C16.3552 52.6205 17.882 47.9889 19.4038 43.3635C19.4043 43.362 19.4048 43.3606 19.4053 43.3591C20.4434 40.2219 21.4367 37.0864 22.6381 34.0489C22.6384 34.0482 22.6387 34.0475 22.6389 34.0469C23.5133 31.8304 24.4733 29.6369 25.4595 27.4511C25.7218 26.8702 25.9861 26.2903 26.252 25.7101C26.3507 25.4949 26.3598 25.2493 26.2774 25.0274C26.195 24.8055 26.0278 24.6254 25.8126 24.5267C25.5974 24.4281 25.3518 24.419 25.1299 24.5014C24.908 24.5838 24.7279 24.751 24.6293 24.9662C24.3622 25.5488 24.0965 26.1318 23.8325 26.7164C22.8399 28.9165 21.8696 31.1328 20.9781 33.3923C20.9778 33.393 20.9776 33.3937 20.9773 33.3944C19.7489 36.5011 18.7145 39.653 17.6762 42.7899C17.6758 42.7914 17.6753 42.7929 17.6748 42.7944C16.1518 47.4233 14.6549 52.0657 13.1495 56.6962C13.1487 56.6987 13.1478 56.7013 13.147 56.7038C13.0052 57.142 13.2513 57.7105 13.5549 58.2908C13.4098 58.7316 13.2674 59.1634 13.1218 59.6027C13.0188 59.9125 12.9164 60.2233 12.8107 60.531C12.8104 60.5319 12.8096 60.5341 12.8093 60.535C12.8445 60.4382 12.8799 60.3409 12.9151 60.2441C12.915 60.2442 12.915 60.2442 12.915 60.2442C12.8439 60.4397 12.773 60.6348 12.7019 60.8302Z" fill="black"/>
<path d="M22 25C22.5288 24.9582 23.0359 24.9181 23.4098 24.8885C23.7837 24.859 23.9938 24.8424 23.9938 24.8424C23.9938 24.8424 23.7837 24.859 23.4098 24.8885C23.0359 24.9181 22.5288 24.9582 22 25C22.7894 24.9376 23.5796 24.8751 24.3685 24.8127C25.0657 24.7576 25.7649 24.7023 26.4631 24.6471C26.4656 24.6469 26.4673 24.6468 26.468 24.6467C25.7305 24.705 24.9885 24.7637 24.2508 24.822C24.2567 24.8216 24.2673 24.8207 24.2741 24.8202C24.9572 24.7668 25.6388 24.7155 26.3221 24.6657C26.4938 24.6692 26.6603 24.5881 26.8377 24.6765C27.0211 24.8419 27.2034 24.9968 27.3838 25.1298C27.7447 25.3958 28.0985 25.5743 28.4391 25.5745C28.4564 25.5745 28.4736 25.5741 28.4908 25.5732C31.0891 25.4424 33.7169 25.3212 36.3344 25.1578C36.3474 25.157 36.3604 25.1562 36.3735 25.1554C41.8558 24.8203 47.3348 24.4597 52.7882 24.2492C52.7931 24.2491 52.7979 24.2489 52.8027 24.2487C55.8768 24.133 58.8976 24.1133 61.9949 24.2151C61.9949 24.2151 61.9949 24.2151 61.9949 24.2151C62.2023 24.2193 62.4123 24.2034 62.6218 24.1776C63.0882 24.1199 63.7026 23.9961 64.1046 23.9451C64.1048 23.9451 64.105 23.945 64.1052 23.945C64.291 23.9319 64.5908 23.961 64.9044 23.9946C65.1449 24.02 65.3857 23.9487 65.5738 23.7966C65.7618 23.6444 65.8817 23.4237 65.9071 23.1832C65.9324 22.9426 65.8612 22.7018 65.709 22.5138C65.5568 22.3257 65.3362 22.2058 65.0956 22.1805C64.775 22.1495 64.4378 22.1002 63.9854 22.1247C63.9849 22.1248 63.9844 22.1248 63.9839 22.1248C63.6558 22.1542 63.5361 22.1435 63.3031 22.1167C63.0882 22.0901 62.8642 22.049 62.6372 22.0155C62.4445 21.9868 62.2475 21.9635 62.0501 21.9579C62.0501 21.9579 62.0501 21.9579 62.0501 21.9579C58.9761 21.8325 55.8219 21.8159 52.7187 21.9338C52.7138 21.934 52.7089 21.9342 52.704 21.9344C47.1851 22.1476 41.7055 22.5613 36.2301 22.9335C36.2171 22.9344 36.2041 22.9352 36.1912 22.9361C33.5765 23.1176 30.9843 23.2764 28.3552 23.4682C28.3378 23.4695 28.3204 23.4713 28.3031 23.4735C27.9612 23.5179 27.6313 23.7426 27.3093 24.056C27.1483 24.2127 26.9891 24.3916 26.8309 24.5813C26.6678 24.6939 26.4915 24.6375 26.3221 24.6657C25.6388 24.7155 24.9572 24.7668 24.2741 24.8202C24.2673 24.8207 24.2567 24.8216 24.2508 24.822C24.9885 24.7637 25.7305 24.705 26.468 24.6467C26.4673 24.6468 26.4656 24.6469 26.4631 24.6471C25.7649 24.7023 25.0657 24.7576 24.3685 24.8127C23.5796 24.8751 22.7894 24.9376 22 25Z" fill="black"/>
<path d="M20 47.2858C20.5247 47.2081 21.0279 47.1335 21.3989 47.0786C21.77 47.0236 21.9784 46.9927 21.9784 46.9927C21.9784 46.9927 21.77 47.0236 21.3989 47.0786C21.0279 47.1335 20.5247 47.2081 20 47.2858C20.4743 47.2156 20.9483 47.1453 21.4229 47.075C21.4278 47.0743 21.4337 47.0734 21.4385 47.0727C21.2088 47.1067 20.9778 47.141 20.7474 47.1751C20.7449 47.1755 20.7405 47.1761 20.7376 47.1765C20.734 47.1771 20.7288 47.1779 20.7247 47.1785C20.5096 47.2082 20.7381 47.1837 20.8318 47.1715C20.9463 47.1576 21.0584 47.1439 21.1758 47.1296C21.4027 47.102 21.6326 47.0743 21.8616 47.0471C22.3214 46.9924 22.7785 46.9393 23.2362 46.8877C24.1212 46.4734 25.1594 47.5167 26.0804 47.5104C26.2083 47.5222 26.3481 47.5214 26.4739 47.5091C31.0388 47.0569 35.5927 46.6079 40.1432 46.3229C40.2213 46.3181 40.2991 46.3133 40.3768 46.3086C44.3262 46.0705 48.2913 45.968 52.2487 45.9888C52.2821 45.9889 52.3153 45.9891 52.3482 45.9893C54.1351 45.9901 55.8732 46.0891 57.7297 46.1241L57.6896 46.1229C57.7028 46.1236 57.7161 46.1242 57.7294 46.1249C58.1815 46.1472 58.6327 46.1631 59.0833 46.1746C59.5364 46.1861 59.9881 46.1931 60.4397 46.1974L60.4202 46.1969C60.423 46.197 60.4257 46.1971 60.4285 46.1972C60.6842 46.2041 60.8544 46.2085 61.1538 46.2379C61.4014 46.2591 61.65 46.1793 61.8446 46.0199C62.0392 45.8602 62.1638 45.6339 62.1915 45.387C62.2191 45.1401 62.1475 44.8918 61.993 44.6931C61.8384 44.4946 61.6135 44.3619 61.3674 44.3279C61.1357 44.2916 60.773 44.2423 60.4938 44.2354C60.4906 44.2353 60.4874 44.2351 60.4841 44.235L60.4646 44.2346C60.0217 44.2275 59.5802 44.2173 59.1393 44.2034C58.7007 44.1897 58.2633 44.1723 57.8268 44.1507C57.8139 44.1501 57.8011 44.1495 57.7884 44.1488L57.7483 44.1476C56.0153 44.1157 54.1609 44.016 52.36 44.0167C52.3265 44.0165 52.2928 44.0164 52.2588 44.0162C48.2587 43.9979 44.2539 44.1019 40.2569 44.3474C40.1783 44.3523 40.0995 44.3572 40.0205 44.3622C35.4185 44.6563 30.8415 45.1283 26.2824 45.6027C26.157 45.6156 26.0204 45.6425 25.898 45.6792C24.981 45.856 24.1874 47.0947 23.2362 46.8877C22.7785 46.9393 22.3214 46.9924 21.8616 47.0471C21.6326 47.0743 21.4027 47.102 21.1758 47.1296C21.0584 47.1439 20.9463 47.1576 20.8318 47.1715C20.7381 47.1837 20.5096 47.2082 20.7247 47.1785C20.7288 47.1779 20.734 47.1771 20.7376 47.1765C20.7405 47.1761 20.7449 47.1755 20.7474 47.1751C20.9778 47.141 21.2088 47.1067 21.4385 47.0727C21.4337 47.0734 21.4278 47.0743 21.4229 47.075C20.9483 47.1453 20.4743 47.2156 20 47.2858Z" fill="black"/>
<path d="M12 60.6586C12.3417 60.2528 12.6693 59.8637 12.9109 59.5768C13.1525 59.2899 13.2883 59.1288 13.2883 59.1288C13.2883 59.1288 13.1525 59.2899 12.9109 59.5768C12.6693 59.8637 12.3417 60.2528 12 60.6586C12.2163 60.4017 12.4327 60.1448 12.6491 59.8877C13.0003 59.4707 13.3518 59.0533 13.7038 58.6353C13.7043 58.6347 13.7047 58.6342 13.7049 58.634C13.4235 58.9682 13.1404 59.3044 12.8589 59.6387C12.8622 59.6347 12.8655 59.6307 12.8689 59.6268C13.5748 58.7865 14.2878 57.9541 15.0174 57.1341C15.1082 57.0318 15.1992 56.9299 15.2915 56.8269C15.3972 56.7394 15.4235 56.5769 15.6189 56.569C15.9344 56.485 16.2412 56.3946 16.5311 56.2895C17.1092 56.081 17.6186 55.8144 17.9944 55.4205L17.9779 55.4375C17.9801 55.4353 17.9823 55.4331 17.9845 55.4309C19.9851 53.4216 22.0244 51.4122 24.0288 49.3761C24.2647 49.1369 24.5 48.8976 24.7355 48.6575C24.9036 48.4861 25.0011 48.2562 25.0036 48.0151C25.0062 47.7741 24.9142 47.5423 24.7471 47.3701C24.5801 47.1979 24.3512 47.0988 24.1102 47.0941C23.8692 47.0893 23.6364 47.1797 23.46 47.3425C23.2129 47.5705 22.9665 47.7985 22.7202 48.027C20.6247 49.9745 18.5467 51.9323 16.5138 53.9738C16.5116 53.976 16.5093 53.9783 16.5071 53.9805L16.4906 53.9976C16.1109 54.4021 15.8722 54.938 15.7101 55.536C15.6282 55.836 15.5656 56.1513 15.5137 56.4739C15.5256 56.6692 15.3671 56.7121 15.2915 56.8269C15.1992 56.9299 15.1082 57.0318 15.0174 57.1341C14.2878 57.9541 13.5748 58.7865 12.8689 59.6268C12.8655 59.6307 12.8622 59.6347 12.8589 59.6387C13.1404 59.3044 13.4235 58.9682 13.7049 58.634C13.7047 58.6342 13.7043 58.6347 13.7038 58.6353C13.3518 59.0533 13.0003 59.4707 12.6491 59.8877C12.4327 60.1448 12.2163 60.4017 12 60.6586Z" fill="black"/>
<path d="M61.2376 47.4438C61.2172 47.5688 61.1976 47.6887 61.1832 47.7771C61.1688 47.8655 61.1607 47.9151 61.1607 47.9151C61.1607 47.9151 61.1688 47.8655 61.1832 47.7771C61.1976 47.6887 61.2172 47.5688 61.2376 47.4438C61.3997 47.0581 61.5441 46.6454 61.6937 46.2445C61.732 46.1401 61.7703 46.0357 61.8084 45.9313C61.8077 45.9328 61.8062 45.9369 61.8053 45.9392C61.7118 46.1851 61.6191 46.4299 61.5263 46.6751C61.5241 46.6809 61.5219 46.6866 61.5199 46.692C61.5069 46.7267 61.4948 46.7588 61.4821 46.7931C61.4809 46.7976 61.5023 46.7407 61.5138 46.7107C61.5404 46.6408 61.564 46.5788 61.5909 46.5079C61.6417 46.3743 61.6937 46.2375 61.7445 46.104C61.8467 45.8352 61.9497 45.5649 62.0525 45.2956C62.104 45.1608 62.1555 45.0262 62.2071 44.8914C62.2441 44.8287 62.2213 44.742 62.3183 44.7025C62.4203 44.6639 62.5198 44.6261 62.6171 44.5855C63.0053 44.4264 63.3475 44.2502 63.581 44.0396L63.5763 44.0514C63.7064 43.9272 63.8053 43.7859 63.8619 43.6301C64.6348 41.3898 64.9103 39.2328 65.2212 37.0582L65.2259 37.0174C65.2352 36.9202 65.2446 36.8206 65.2539 36.7203C65.5966 32.9152 65.7658 29.1191 65.8317 25.3153C65.8387 24.8828 65.8441 24.4523 65.8477 24.0198C65.85 23.7488 65.7465 23.4868 65.5578 23.2915C65.3691 23.0962 65.1112 22.9836 64.8402 22.9784C64.5693 22.9732 64.3072 23.0758 64.1112 23.2637C63.9151 23.4516 63.8016 23.7094 63.7934 23.9802C63.7806 24.4079 63.7665 24.8337 63.7513 25.2614C63.6133 29.0204 63.4077 32.7907 63.0718 36.5182C63.0628 36.6161 63.0536 36.7133 63.0445 36.808L63.0492 36.7672C62.7547 38.8754 62.4551 41.035 61.814 42.8894C61.7679 43.0175 61.7584 43.1575 61.7741 43.312L61.7694 43.3237C61.7914 43.6493 61.9265 44.0099 62.1073 44.3893C62.1522 44.4848 62.2008 44.5796 62.2507 44.6765C62.2964 44.7708 62.2215 44.82 62.2071 44.8914C62.1555 45.0262 62.104 45.1608 62.0525 45.2956C61.9497 45.5649 61.8467 45.8352 61.7445 46.104C61.6937 46.2375 61.6417 46.3743 61.5909 46.5079C61.564 46.5788 61.5404 46.6408 61.5138 46.7107C61.5023 46.7407 61.4809 46.7976 61.4821 46.7931C61.4948 46.7588 61.5069 46.7267 61.5199 46.692C61.5219 46.6866 61.5241 46.6809 61.5263 46.6751C61.6191 46.4299 61.7118 46.1851 61.8053 45.9392C61.8062 45.9369 61.8077 45.9328 61.8084 45.9313C61.7703 46.0357 61.732 46.1401 61.6937 46.2445C61.5441 46.6454 61.3997 47.0581 61.2376 47.4438Z" fill="black"/>
</svg>
