<svg width="72" height="72" viewBox="0 0 72 72" fill="none" xmlns="http://www.w3.org/2000/svg">
<path d="M36.6832 28.0449C36.6832 27.3483 36.6832 26.6517 36.6832 25.9551C35.527 25.9563 34.3908 26.0335 33.2622 26.1494C32.6935 26.2082 32.133 26.3226 31.569 26.4024C31.1165 26.4664 30.6632 26.5363 30.2112 26.6122C28.5903 26.9251 27.1649 27.0606 25.3117 27.9116C22.9126 29.3185 20.7054 31.0016 18.8497 33.1578C18.7599 33.2637 18.672 33.3703 18.5855 33.4784C17.022 35.4416 15.9425 37.7269 15.362 40.153C15.2144 40.7802 15.1035 41.4184 15.0403 42.0698C14.7946 44.4392 14.9769 46.9108 15.3441 49.1636C15.3503 49.2076 15.3564 49.2506 15.362 49.2921C15.6662 51.5098 16.2707 53.6854 17.1795 55.7387C18.1436 57.8899 19.4098 59.942 21.225 61.6177C22.6386 62.8939 24.1126 64.1203 25.844 65.1231C26.5536 65.5247 27.3084 65.8954 28.193 66.1223C29.9245 66.5454 31.633 66.7885 33.3721 66.9396C35.7147 67.1328 38.0885 67.1393 40.4662 66.7743C41.5105 66.6108 42.5336 66.4387 43.5906 66.2064C44.9946 65.8908 46.5413 65.4723 47.8837 64.5232C49.199 63.5767 50.1038 62.5538 51.1464 61.6419C52.3829 60.5316 53.4717 59.2306 54.3267 57.7893C55.1585 56.3932 55.7688 54.8754 56.1761 53.3236C56.5389 52.0378 56.9269 50.5482 57.0437 49.0744C57.157 47.7784 57.1093 46.4633 56.9057 45.1786C56.7122 43.9517 56.4798 42.7342 56.1989 41.5207C55.3258 38.025 54.4157 34.5194 52.0014 31.3452L51.9353 31.2729C51.459 30.7921 50.9239 30.2275 50.3144 29.7296C48.1783 27.9854 45.6608 27.1923 43.2444 26.5547C42.83 26.4488 42.4146 26.3499 41.9896 26.2548C41.1746 26.0758 40.4025 26.0012 39.6378 25.948C38.6387 25.8819 37.6595 25.8805 36.6832 25.9102C36.6832 26.6367 36.6832 27.3633 36.6832 28.0898C37.6292 28.1206 38.5681 28.1525 39.4859 28.2134C40.1852 28.2609 40.8777 28.3328 41.4973 28.4687C41.9023 28.5583 42.2962 28.6511 42.6868 28.7496C44.9738 29.3366 47.2232 30.0877 48.889 31.463C49.3806 31.8637 49.8258 32.3294 50.3468 32.8562L50.2807 32.7839C52.1812 35.2353 53.2212 38.7245 54.0185 42.0265C54.2878 43.1862 54.5178 44.3534 54.7115 45.5316C54.8948 46.6433 54.9434 47.7691 54.8495 48.8876C54.7473 50.1789 54.4406 51.3934 54.0578 52.7689C53.6997 54.1475 53.1696 55.4675 52.4519 56.6755C51.7136 57.9225 50.7766 59.0466 49.6899 60.0244C47.484 62.1082 45.9239 63.6477 43.1207 64.0879C42.1407 64.3048 41.1488 64.4766 40.1291 64.6409C37.9879 64.9813 35.7591 64.9974 33.5489 64.818C31.9144 64.6804 30.265 64.4441 28.7089 64.064C28.1253 63.9174 27.4992 63.6255 26.8957 63.2811C25.4038 62.4203 23.9946 61.2641 22.6522 60.0486C21.1518 58.6704 19.9848 56.8239 19.1186 54.8791C18.2953 53.0197 17.7443 51.0299 17.4713 49.0057C17.4652 48.9603 17.4588 48.9141 17.4523 48.8675C17.0932 46.6081 16.9586 44.472 17.1921 42.2838C17.2478 41.7426 17.3452 41.1974 17.4757 40.6567C17.9878 38.5578 18.9738 36.5427 20.315 34.8636C20.3892 34.7709 20.4644 34.6795 20.5409 34.5888C22.1576 32.6932 24.2011 31.0363 26.368 29.7059C27.3618 29.2118 29.0919 28.853 30.5508 28.5885C30.9821 28.5127 31.416 28.444 31.8492 28.3827C32.3897 28.3062 32.9365 28.2841 33.4773 28.2281C34.5506 28.1177 35.6273 28.0458 36.6832 28.0449Z" fill="#534294"/>
<path d="M9.63532 31.7277C9.43051 31.5592 9.16715 31.479 8.90318 31.5046C8.63921 31.5303 8.39625 31.6598 8.22775 31.8646C8.05926 32.0694 7.97902 32.3328 8.0047 32.5968C8.03038 32.8607 8.15986 33.1037 8.36468 33.2722C8.36468 33.2722 8.36468 33.2722 8.36468 33.2722C9.66857 34.3448 10.9859 35.4274 12.2896 36.4986C15.1561 38.8539 18.0197 41.2056 20.8869 43.5601C22.9626 45.2647 24.9891 46.9878 27.0774 48.7037C27.1576 48.7696 27.2635 48.8566 27.3398 48.9193C27.3401 48.9196 27.3404 48.9198 27.3405 48.9199C27.3406 48.92 27.3406 48.92 27.3406 48.92C27.3406 48.92 27.3405 48.92 27.3405 48.9199C27.3404 48.9198 27.3405 48.9199 27.34 48.9195C27.3396 48.9192 27.3403 48.9198 27.3377 48.9176C27.328 48.909 27.3647 48.9418 27.2975 48.8825C27.2911 48.8766 27.2836 48.8699 27.2661 48.8525C27.2394 48.8147 27.2492 48.8731 27.0854 48.6105C26.765 48.8461 27.3354 46.6267 28.1062 47.0693C28.4858 47.1328 28.4542 47.1771 28.5141 47.1961C28.5862 47.2374 28.5936 47.2456 28.6088 47.2555C28.6505 47.2855 28.646 47.2833 28.6529 47.2883C28.6608 47.2946 28.6618 47.2954 28.6635 47.2968C28.6663 47.299 28.6669 47.2995 28.6676 47.3001C28.6697 47.3018 28.6695 47.3017 28.6699 47.302C28.6707 47.3027 28.6706 47.3026 28.6707 47.3027C28.671 47.3029 28.6709 47.3028 28.671 47.3029C28.671 47.3029 28.671 47.3029 28.6709 47.3029C28.6708 47.3027 28.6702 47.3022 28.6691 47.3014C28.6676 47.3001 28.6613 47.2949 28.6618 47.2953C28.6599 47.2938 28.6577 47.2919 28.6552 47.2899C28.6502 47.2858 28.644 47.2807 28.6367 47.2747C28.6201 47.261 28.6151 47.2569 28.6022 47.2463C28.5769 47.2255 28.5534 47.2061 28.5309 47.1876C28.4788 47.1446 28.4391 47.112 28.3869 47.069C28.2948 46.9932 28.2003 46.9154 28.102 46.8345C27.9131 46.679 27.7253 46.5244 27.5344 46.3674C27.1557 46.0558 26.7758 45.7431 26.3967 45.4313C26.018 45.1199 25.6366 44.8062 25.2588 44.4959C25.0675 44.3387 24.8782 44.1832 24.6886 44.0277C24.592 43.9484 24.4987 43.8719 24.402 43.7928C24.355 43.7543 24.3046 43.713 24.259 43.6759C24.2389 43.6595 24.2054 43.6322 24.186 43.6165C24.1746 43.6072 24.1552 43.5915 24.1434 43.5821C24.1378 43.5777 24.1449 43.5832 24.1207 43.5642C24.1147 43.5596 24.1095 43.5554 24.0908 43.5418C24.0797 43.534 24.0708 43.5266 24.0266 43.4988C23.9986 43.4834 23.9827 43.4658 23.8535 43.4127C23.7713 43.396 23.7131 43.3114 23.2935 43.3578C23.0924 43.3811 22.7023 43.5691 22.5378 43.9191C22.3768 44.2546 22.4267 44.4996 22.4529 44.6286C22.5235 44.8885 22.5787 44.9294 22.6097 44.9848C22.6422 45.0317 22.6615 45.054 22.6767 45.0722C22.7061 45.1063 22.7195 45.1194 22.7306 45.1307C22.754 45.154 22.7525 45.152 22.7578 45.1571C22.7657 45.1645 22.7706 45.1689 22.7746 45.1726C22.8013 45.1963 22.8047 45.1988 22.8188 45.2108C25.1055 47.1072 27.3737 48.9647 29.6724 50.8242C30.5061 51.4976 31.347 52.1599 32.2019 52.8134C32.8425 53.2953 33.4876 53.7897 34.35 54.1834C35.1541 54.6093 36.6057 54.6746 37.4639 54.0406C39.1135 52.8497 39.7324 51.3817 40.5284 50.0068C40.8005 49.5005 41.0463 49.017 41.299 48.504C45.5603 39.9833 50.3681 31.6703 55.2621 23.4573C56.1915 21.9077 57.0818 20.3373 57.9508 18.7604C59.4095 16.1148 60.8223 13.4561 62.2745 10.8258C63.0772 9.40248 63.9762 7.69871 64.7755 6.72348C64.9724 6.52251 65.0752 6.24955 65.065 5.96803C65.0548 5.68647 64.9317 5.41881 64.7235 5.22454C64.5152 5.03026 64.2397 4.92601 63.9581 4.9353C63.6766 4.94463 63.4114 5.06616 63.2245 5.27652C63.2245 5.27652 63.2245 5.27652 63.2245 5.27652C61.9667 6.98336 61.4111 8.38348 60.5821 9.92342C59.2049 12.6124 57.8414 15.2779 56.3941 17.9027C55.5324 19.4663 54.6519 21.019 53.7379 22.5427C48.8228 30.7916 44.0141 39.098 39.701 47.7175C39.4557 48.2154 39.2185 48.6816 38.9598 49.1629C38.2582 50.4493 37.4078 51.8676 36.4777 52.4386C35.7778 52.9734 34.6451 52.1587 33.4694 51.2034C32.6465 50.5351 31.8228 49.8596 30.9931 49.1895C28.7098 47.3426 26.4197 45.4686 24.1724 43.6075C24.1661 43.6022 24.1568 43.5938 24.178 43.6127C24.1814 43.6157 24.1857 43.6196 24.1932 43.6266C24.1982 43.6315 24.1966 43.6294 24.2196 43.6522C24.2304 43.6634 24.2438 43.6763 24.2731 43.7104C24.2883 43.7285 24.3074 43.7507 24.3399 43.7976C24.3709 43.853 24.4261 43.8938 24.4967 44.1538C24.5229 44.2827 24.5728 44.5277 24.4118 44.8632C24.2473 45.2132 23.8573 45.4012 23.6561 45.4245C23.2365 45.4709 23.1784 45.3863 23.0962 45.3696C22.9671 45.3165 22.9513 45.299 22.9234 45.2837C22.8795 45.2561 22.8711 45.2489 22.8606 45.2416C22.8431 45.2289 22.8396 45.226 22.8361 45.2233C22.8274 45.2165 22.8341 45.2218 22.8339 45.2217C22.8381 45.2249 22.8547 45.2383 22.8647 45.2465C22.8816 45.2602 22.9137 45.2862 22.9332 45.3021C22.9773 45.338 23.0271 45.3787 23.0736 45.4168C23.1693 45.495 23.2623 45.5711 23.3586 45.6501C23.5476 45.8049 23.7368 45.96 23.928 46.1169C24.3055 46.4266 24.6869 46.7398 25.0656 47.0508C25.4448 47.3622 25.8249 47.6744 26.2037 47.9857C26.3946 48.1425 26.5825 48.2969 26.7715 48.4522C26.8698 48.533 26.9643 48.6107 27.0565 48.6865C27.1087 48.7294 27.1484 48.762 27.2005 48.8049C27.223 48.8234 27.2466 48.8427 27.2718 48.8635C27.2848 48.8741 27.2898 48.8782 27.3064 48.8919C27.3137 48.8978 27.3198 48.9029 27.3248 48.907C27.3273 48.9091 27.3295 48.9109 27.3315 48.9125C27.3309 48.9121 27.3372 48.9172 27.3388 48.9185C27.3398 48.9193 27.3404 48.9198 27.3406 48.92C27.3406 48.92 27.3406 48.92 27.3407 48.9201C27.3407 48.9201 27.3406 48.92 27.3409 48.9203C27.341 48.9204 27.3409 48.9203 27.3417 48.9209C27.3421 48.9212 27.342 48.9211 27.3441 48.9228C27.3448 48.9234 27.3454 48.9239 27.3481 48.9261C27.3499 48.9275 27.3509 48.9284 27.3588 48.9346C27.3656 48.9397 27.3612 48.9375 27.4028 48.9674C27.418 48.9774 27.4254 48.9856 27.4975 49.0268C27.5575 49.0458 27.5258 49.0901 27.9054 49.1537C28.6762 49.5962 29.2466 47.3768 28.9262 47.6124C28.7624 47.3498 28.7722 47.4082 28.7455 47.3705C28.728 47.3531 28.7205 47.3463 28.7142 47.3404C28.6469 47.2811 28.6837 47.3139 28.674 47.3054C28.6713 47.3032 28.672 47.3037 28.6716 47.3034C28.6711 47.303 28.6712 47.3031 28.6712 47.303C28.6711 47.303 28.6711 47.303 28.6711 47.303C28.671 47.3029 28.671 47.3029 28.6709 47.3028C28.6708 47.3027 28.6705 47.3025 28.6702 47.3022C28.5905 47.2368 28.4868 47.1518 28.406 47.0855C26.3163 45.3712 24.2318 43.719 22.1561 42.0145C19.289 39.6601 16.4255 37.3084 13.5593 34.9533C12.2558 33.8823 10.9385 32.7998 9.63532 31.7277Z" fill="#534294"/>
</svg>
