<svg width="72" height="72" viewBox="0 0 72 72" fill="none" xmlns="http://www.w3.org/2000/svg">
<path d="M12.6946 10.0082C12.518 9.80641 12.2686 9.68306 12.0011 9.66523C11.7337 9.64739 11.4701 9.73655 11.2683 9.91307C11.0666 10.0896 10.9432 10.339 10.9254 10.6065C10.9076 10.874 10.9967 11.1376 11.1732 11.3393C11.1732 11.3393 11.1732 11.3393 11.1732 11.3393C11.8912 12.1803 12.691 12.9645 13.4455 13.7215C14.9703 15.2408 16.4796 16.7298 18.0076 18.2418C18.0079 18.242 18.0081 18.2422 18.0083 18.2424C27.0274 27.2063 36.0175 36.2506 44.8555 45.3886C44.8563 45.3895 44.8571 45.3903 44.8579 45.3912C47.9407 48.6419 51.4933 51.4911 54.1934 54.9984C54.3544 55.2204 54.5079 55.448 54.6566 55.6808C54.6566 55.6809 54.6567 55.681 54.6568 55.6811C55.0816 56.3483 55.4812 56.9994 55.7723 57.7149C55.8113 57.8058 55.8848 57.8775 55.9767 57.9143C56.0685 57.951 56.1712 57.9498 56.2622 57.9108C56.3531 57.8718 56.4248 57.7983 56.4616 57.7065C56.4983 57.6146 56.4971 57.5119 56.4581 57.421C56.4581 57.421 56.4581 57.421 56.4581 57.421C56.1495 56.6623 55.7137 55.951 55.2851 55.2789C55.2851 55.2787 55.285 55.2786 55.2849 55.2785C55.1331 55.0408 54.9746 54.7983 54.8129 54.5625C52.1278 50.8784 49.3213 47.364 46.2313 44.0749C46.2305 44.074 46.2297 44.0732 46.2289 44.0723C37.4059 34.8724 28.47 25.7902 19.4297 16.8051C19.4295 16.8049 19.4293 16.8047 19.4291 16.8045C17.9018 15.2932 16.3898 13.8016 14.8735 12.2907C14.1115 11.5259 13.3746 10.8049 12.6946 10.0082Z" fill="black"/>
<path d="M13.7609 55.8772C13.5695 56.0608 13.4588 56.3129 13.4532 56.578C13.4476 56.8432 13.5476 57.0997 13.7312 57.2911C13.9147 57.4826 14.1668 57.5932 14.432 57.5988C14.6971 57.6044 14.9537 57.5044 15.1451 57.3208C15.1451 57.3208 15.1451 57.3208 15.1451 57.3208C16.1686 56.3395 17.1934 55.3569 18.216 54.3764C24.3437 48.501 30.4692 42.6277 36.5979 36.7514C36.739 36.6161 36.9163 36.4462 37.0518 36.3165C37.0525 36.3157 37.0531 36.3152 37.0533 36.315C37.0534 36.3149 37.0536 36.3147 37.0534 36.3149C37.0532 36.3151 37.0534 36.3149 37.0525 36.3158C37.052 36.3163 37.0523 36.3159 37.0494 36.3187C37.0483 36.3197 37.048 36.3201 37.0426 36.3251C37.035 36.3316 37.0503 36.3197 36.9974 36.3647C36.9871 36.373 36.9768 36.3822 36.9403 36.4083C36.92 36.4222 36.8982 36.4395 36.8285 36.4772C36.7906 36.4961 36.7453 36.5224 36.6312 36.5558C36.5226 36.5693 36.2957 36.6959 35.8258 36.4374C35.602 36.3037 35.4343 36.0347 35.3918 35.838C35.3436 35.639 35.3623 35.5049 35.3773 35.4141C35.4136 35.2354 35.4525 35.1773 35.4766 35.1263C35.5263 35.0352 35.5469 35.013 35.5639 34.9892C35.5953 34.9482 35.6054 34.9381 35.6148 34.9272C35.6456 34.8933 35.6452 34.8949 35.6507 34.8889C35.6708 34.869 35.6634 34.8764 35.6662 34.8737C35.6687 34.8713 35.6681 34.8718 35.6685 34.8715C35.669 34.871 35.6688 34.8711 35.6689 34.8711C35.6688 34.8712 35.6675 34.8724 35.6655 34.8743C35.6632 34.8765 35.6477 34.8914 35.6494 34.8897C35.6454 34.8936 35.6408 34.898 35.6356 34.9029C35.6253 34.9129 35.6126 34.925 35.5976 34.9394C35.5592 34.9762 35.5516 34.9835 35.5242 35.0097C35.4737 35.0581 35.419 35.1106 35.374 35.1537C35.2683 35.255 35.1785 35.3411 35.0726 35.4426C34.8755 35.6315 34.6771 35.8216 34.4731 36.0172C34.0765 36.3974 33.6785 36.7788 33.2761 37.1648C32.4831 37.9252 31.6806 38.6954 30.8861 39.4607C30.0889 40.2287 29.2963 40.9946 28.5012 41.7712C28.1036 42.1597 27.7141 42.5421 27.3156 42.9393C27.1163 43.1381 26.9137 43.3417 26.7238 43.5369C26.6127 43.6515 26.5248 43.7425 26.4133 43.864C26.3898 43.8898 26.3624 43.9199 26.3245 43.9635C26.3071 43.9837 26.2901 44.0038 26.2724 44.0256C26.2512 44.0543 26.2518 44.0422 26.1639 44.176C26.1434 44.2097 26.1183 44.2501 26.084 44.3299C26.0563 44.4153 25.9834 44.5206 26.0074 44.8535C26.0249 45.0115 26.0916 45.2732 26.3325 45.4991C26.5657 45.7156 26.8346 45.7688 26.9887 45.7752C27.3046 45.7777 27.3831 45.7137 27.4599 45.6885C27.713 45.5621 27.6487 45.5794 27.6919 45.5554C27.7401 45.5212 27.7811 45.4895 27.8274 45.4528C28.0902 45.2409 28.2981 45.0564 28.5207 44.8618C37.5768 36.7014 46.3847 28.4264 55.2518 20.1364C56.2871 19.1661 57.3209 18.196 58.3558 17.2239C58.5509 17.0407 58.6654 16.7876 58.674 16.52C58.6827 16.2525 58.5847 15.9925 58.4018 15.7971C58.2188 15.6018 57.9657 15.4872 57.6981 15.4784C57.4306 15.4696 57.1705 15.5675 56.975 15.7502C56.975 15.7502 56.975 15.7502 56.975 15.7502C55.9381 16.7193 54.9025 17.6864 53.8655 18.654C44.9928 26.9124 36.1398 35.2094 27.1544 43.3064C26.9453 43.4897 26.72 43.6871 26.539 43.8331C26.5118 43.8549 26.4938 43.8681 26.4965 43.8662C26.5195 43.8556 26.4288 43.8943 26.6365 43.7901C26.7051 43.7685 26.7775 43.7061 27.0892 43.7084C27.2412 43.7147 27.5086 43.7673 27.7406 43.9828C27.9804 44.2076 28.0466 44.468 28.0639 44.6245C28.0876 44.9541 28.0157 45.0549 27.9905 45.1344C27.9586 45.2085 27.9374 45.2417 27.9221 45.267C27.8167 45.4158 27.927 45.2688 27.9419 45.258C28.0235 45.1686 28.1064 45.0818 28.2085 44.976C28.3852 44.7933 28.5823 44.5938 28.7765 44.3985C29.1656 44.0076 29.5501 43.6261 29.9426 43.2381C30.7281 42.462 31.513 41.6925 32.3026 40.9208C33.0897 40.1517 33.8855 39.3771 34.673 38.6133C35.0727 38.2258 35.4683 37.8429 35.8629 37.4617C36.066 37.2657 36.2635 37.0752 36.4597 36.8861C36.5652 36.7845 36.6547 36.6983 36.76 36.597C36.8048 36.5538 36.8593 36.5015 36.9096 36.4531C36.9369 36.4269 36.9445 36.4195 36.9827 36.3828C36.9976 36.3685 37.0103 36.3564 37.0206 36.3465C37.0257 36.3415 37.0303 36.3371 37.0343 36.3333C37.0325 36.3349 37.048 36.3201 37.0502 36.318C37.0523 36.316 37.0533 36.315 37.0538 36.3145C37.0539 36.3144 37.0538 36.3145 37.0544 36.314C37.0547 36.3136 37.0542 36.3142 37.0566 36.3118C37.0594 36.309 37.0521 36.3165 37.0721 36.2965C37.0777 36.2906 37.0773 36.2922 37.108 36.2583C37.1174 36.2474 37.1276 36.2372 37.159 36.1963C37.1759 36.1725 37.1966 36.1503 37.2462 36.0591C37.2703 36.0081 37.3092 35.9501 37.3455 35.7714C37.3606 35.6806 37.3793 35.5464 37.3311 35.3474C37.2886 35.1508 37.1208 34.8817 36.897 34.748C36.4271 34.4895 36.2002 34.6162 36.0916 34.6296C35.9775 34.663 35.9323 34.6894 35.8944 34.7083C35.8246 34.7459 35.8028 34.7633 35.7825 34.7771C35.7461 34.8033 35.7357 34.8125 35.7254 34.8208C35.6725 34.8657 35.6878 34.8538 35.6803 34.8603C35.6749 34.8653 35.6745 34.8657 35.6734 34.8668C35.6705 34.8695 35.6708 34.8692 35.6704 34.8697C35.6694 34.8705 35.6696 34.8704 35.6694 34.8705C35.6692 34.8708 35.6691 34.8709 35.6689 34.871C35.6686 34.8713 35.6681 34.8718 35.6673 34.8726C35.532 35.0025 35.3549 35.1724 35.2137 35.3077C29.085 41.1841 22.9596 47.0574 16.8319 52.9327C15.8092 53.9133 14.7844 54.8959 13.7609 55.8772Z" fill="black"/>
</svg>
