<svg width="72" height="72" viewBox="0 0 72 72" fill="none" xmlns="http://www.w3.org/2000/svg">
<path d="M15.7712 56.4092C15.6956 55.8842 15.6231 55.3807 15.5696 55.0094C15.5161 54.6382 15.4861 54.4296 15.4861 54.4296C15.4861 54.4296 15.5161 54.6382 15.5696 55.0094C15.6231 55.3807 15.6956 55.8842 15.7712 56.4092C15.7165 56.0295 15.6619 55.6502 15.6072 55.2705C15.6072 55.2705 15.6072 55.2705 15.6072 55.2704C15.6343 55.4584 15.6615 55.6475 15.6886 55.8355C15.6883 55.8336 15.6878 55.8298 15.6875 55.8276C15.6709 55.7103 15.6555 55.5934 15.6408 55.4762C15.6337 55.4191 15.6267 55.3619 15.6199 55.3047C15.6166 55.2761 15.6132 55.2474 15.61 55.2188C15.6083 55.2044 15.6068 55.1903 15.6051 55.1759C15.6057 55.1686 15.5989 55.162 15.6069 55.1539C15.6328 55.1439 15.6583 55.1338 15.6835 55.1239C16.0867 54.964 16.3973 54.8241 16.4202 54.716C16.4213 54.7107 16.4217 54.7055 16.4214 54.7004C16.4391 52.5021 16.6503 50.0289 16.6921 47.6713C16.6922 47.6674 16.6923 47.6635 16.6924 47.6595C16.8786 39.4343 17.0805 31.1948 17.2155 22.9599C17.2155 22.9583 17.2155 22.9567 17.2155 22.9551C17.2381 21.2864 17.2669 19.6498 17.2372 17.9512C17.2289 17.5912 17.2189 17.2402 17.1884 16.8505C17.1715 16.6539 17.1544 16.4613 17.1033 16.2083C17.0768 16.0837 17.0416 15.9398 16.9691 15.7677C16.9002 15.5974 16.7726 15.4099 16.7111 15.3316C16.5482 15.1154 16.3061 14.9725 16.038 14.9345C15.7698 14.8965 15.4976 14.9666 15.2811 15.1293C15.0647 15.292 14.9217 15.534 14.8837 15.8021C14.8456 16.0702 14.9156 16.3425 15.078 16.5591C15.1218 16.6189 15.0905 16.5769 15.0882 16.5667C15.0836 16.5548 15.093 16.5791 15.1019 16.6236C15.1212 16.7167 15.1379 16.8623 15.1498 17.0137C15.1737 17.3233 15.1837 17.655 15.1908 17.9938C15.2169 19.6183 15.1877 21.2662 15.165 22.9242C15.165 22.9258 15.1649 22.9274 15.1649 22.929C15.0302 31.1448 14.8283 39.388 14.6421 47.6128C14.6421 47.6168 14.642 47.6207 14.6419 47.6246C14.6027 50.0351 14.5873 52.2876 14.7087 54.844C14.7094 54.8502 14.7107 54.8562 14.7128 54.8621C14.7553 54.9835 15.089 55.0729 15.5172 55.1421C15.544 55.1464 15.5711 55.1507 15.5986 55.1549C15.6082 55.161 15.603 55.1689 15.6051 55.1759C15.6068 55.1903 15.6083 55.2044 15.61 55.2188C15.6132 55.2474 15.6166 55.2761 15.6199 55.3047C15.6267 55.3619 15.6337 55.4191 15.6408 55.4762C15.6555 55.5934 15.6709 55.7103 15.6875 55.8276C15.6878 55.8298 15.6883 55.8336 15.6886 55.8355C15.6615 55.6475 15.6343 55.4584 15.6072 55.2704C15.6072 55.2705 15.6072 55.2705 15.6072 55.2705C15.6619 55.6502 15.7165 56.0295 15.7712 56.4092Z" fill="white"/>
<path d="M13.7327 14.0844C14.2245 14.2832 14.6961 14.4739 15.0438 14.6145C15.3915 14.7551 15.5869 14.8341 15.5869 14.8341C15.5869 14.8341 15.3915 14.7551 15.0438 14.6145C14.6961 14.4739 14.2245 14.2832 13.7327 14.0844C13.9431 14.1695 14.1538 14.2547 14.364 14.3396C14.3675 14.3411 14.3705 14.3423 14.3733 14.3434C14.2707 14.3019 14.1673 14.2601 14.0646 14.2186C14.0612 14.2172 14.0582 14.216 14.0554 14.2149C14.0073 14.1952 13.9682 14.1795 13.9262 14.1587C13.8997 14.1501 13.9077 14.1335 13.9386 14.143C13.9577 14.1463 13.9847 14.1522 14.005 14.157C14.0949 14.178 14.1853 14.2021 14.2748 14.2259C14.4538 14.2737 14.631 14.3223 14.8098 14.371C15.2886 14.5014 15.7697 14.6304 16.252 14.7501C16.3124 14.7651 16.3727 14.7799 16.4331 14.7946C16.4633 14.8019 16.4934 14.8092 16.5237 14.8164C16.55 14.84 16.5722 14.8811 16.5966 14.9129C16.693 15.0468 16.792 15.1751 16.895 15.2946C17.1009 15.5333 17.3219 15.7372 17.568 15.8781C17.7012 15.9666 17.8853 16.0391 18.0563 16.0701C19.4036 16.3038 20.6795 16.4336 21.9861 16.5591C22.1257 16.5721 22.2781 16.5859 22.4195 16.5983C27.5993 17.0463 32.778 17.4277 37.9892 17.6411C38.0656 17.6441 38.1417 17.647 38.2174 17.6498C41.9135 17.7917 45.6364 17.7779 49.3179 17.6368L49.2932 17.6373C49.32 17.637 49.3466 17.6368 49.3731 17.6366C50.652 17.6284 51.9476 17.609 53.1917 17.6343C53.3682 17.6389 53.5565 17.6457 53.685 17.6573L53.7127 17.6598C53.72 17.6603 53.7273 17.6607 53.7346 17.6612C54.2446 17.6889 54.7042 17.5634 55.2195 17.5667C55.3782 17.568 55.5437 17.4988 55.6766 17.3903C55.8098 17.2808 55.8994 17.141 55.9289 16.9855C55.9583 16.8301 55.9261 16.6671 55.8422 16.5165C55.7582 16.3669 55.6295 16.2419 55.4813 16.1851C54.9746 15.9922 54.4022 15.736 53.8739 15.7033C53.8676 15.7028 53.8613 15.7023 53.8553 15.7018L53.883 15.7043C53.6377 15.6802 53.4526 15.6743 53.2531 15.6664C51.9277 15.6259 50.6495 15.6325 49.3573 15.6406C49.3306 15.6408 49.3038 15.641 49.2769 15.6412L49.2521 15.6417C45.586 15.782 41.945 15.7949 38.292 15.6551C38.2173 15.6523 38.1422 15.6494 38.0668 15.6465C32.9175 15.4351 27.75 15.0285 22.5968 14.5827C22.4562 14.5703 22.3045 14.5571 22.1656 14.5453C20.8777 14.432 19.5584 14.349 18.3299 14.229C18.1761 14.2127 18.0384 14.2266 17.8484 14.2578C17.6062 14.3139 17.3399 14.4172 17.0606 14.5484C16.9207 14.614 16.7776 14.6865 16.6321 14.7632C16.5962 14.7807 16.5579 14.8073 16.5237 14.8164C16.4934 14.8092 16.4633 14.8019 16.4331 14.7946C16.3727 14.7799 16.3124 14.7651 16.252 14.7501C15.7697 14.6304 15.2886 14.5014 14.8098 14.371C14.631 14.3223 14.4538 14.2737 14.2748 14.2259C14.1853 14.2021 14.0949 14.178 14.005 14.157C13.9847 14.1522 13.9577 14.1463 13.9386 14.143C13.9077 14.1335 13.8997 14.1501 13.9262 14.1587C13.9682 14.1795 14.0073 14.1952 14.0554 14.2149C14.0582 14.216 14.0612 14.2172 14.0646 14.2186C14.1673 14.2601 14.2707 14.3019 14.3733 14.3434C14.3705 14.3423 14.3675 14.3411 14.364 14.3396C14.1538 14.2547 13.9431 14.1695 13.7327 14.0844Z" fill="white"/>
<path d="M13.2987 55.0261C13.8292 55.0261 14.3379 55.0261 14.713 55.0261C15.088 55.0261 15.2987 55.0261 15.2987 55.0261C15.2987 55.0261 15.088 55.0261 14.713 55.0261C14.3379 55.0261 13.8292 55.0261 13.2987 55.0261C13.5714 55.0261 13.8439 55.0261 14.1165 55.0261C14.1135 55.0261 14.1091 55.0261 14.1059 55.0261C13.9739 55.0261 13.8424 55.0261 13.7107 55.0261C13.702 55.0261 13.6942 55.0261 13.6872 55.0261C13.6234 55.0261 13.6741 55.0261 13.7122 55.0261C13.7496 55.0261 13.7912 55.0261 13.828 55.0261C13.9055 55.0261 13.9826 55.0261 14.0601 55.0261C14.2156 55.0261 14.3697 55.0261 14.5242 55.0261C14.6025 55.0261 14.6804 55.0261 14.7585 55.0261C14.7977 55.0261 14.8365 55.0261 14.8757 55.0261C14.9146 54.9986 14.954 55.1507 14.9928 55.2095C15.149 55.5127 15.3059 55.7736 15.4611 55.9295C15.5585 56.0272 15.656 56.0837 15.7542 56.0838C17.2404 56.0842 18.7254 56.0847 20.2166 56.0847C20.2993 56.0847 20.3835 56.0847 20.4692 56.0847C25.3584 56.0847 30.2502 56.0797 35.1376 56.077C35.1821 56.077 35.2265 56.0769 35.2707 56.0769C38.476 56.0751 41.6858 56.0739 44.8912 56.0711C44.9099 56.0711 44.9285 56.0711 44.9471 56.0711C46.4936 56.0697 48.0405 56.0098 49.5875 55.968C49.5932 55.9678 49.5988 55.9677 49.6045 55.9675C50.9542 55.9312 52.2986 55.8868 53.6485 55.8399C54.186 55.8212 54.7242 55.8021 55.2628 55.783C55.2719 55.7826 55.2805 55.782 55.2889 55.7811C55.4664 55.7625 55.6437 55.6289 55.8212 55.5574C55.9163 55.5185 56.0075 55.4285 56.0748 55.3295C56.142 55.2292 56.1798 55.1282 56.1798 55.0261C56.1798 54.9241 56.142 54.8231 56.0748 54.7228C56.0075 54.6238 55.9163 54.5338 55.8212 54.4949C55.6437 54.4233 55.4664 54.2897 55.2889 54.2712C55.2805 54.2703 55.2719 54.2696 55.2628 54.2693C54.7242 54.2502 54.186 54.2311 53.6485 54.2123C52.2986 54.1655 50.9542 54.121 49.6045 54.0847C49.5988 54.0846 49.5932 54.0844 49.5875 54.0843C48.0405 54.0425 46.4936 53.9826 44.9471 53.9812C44.9285 53.9812 44.9099 53.9812 44.8912 53.9812C41.6858 53.9783 38.476 53.9771 35.2707 53.9754C35.2265 53.9753 35.1821 53.9753 35.1376 53.9753C30.2502 53.9725 25.3584 53.9675 20.4692 53.9675C20.3835 53.9675 20.2993 53.9675 20.2166 53.9675C18.7254 53.9676 17.2404 53.9681 15.7542 53.9685C15.656 53.9685 15.5585 54.0251 15.4611 54.1227C15.3059 54.2787 15.149 54.5396 14.9928 54.8428C14.954 54.9016 14.9146 55.0536 14.8757 55.0261C14.8365 55.0261 14.7977 55.0261 14.7585 55.0261C14.6804 55.0261 14.6025 55.0261 14.5242 55.0261C14.3697 55.0261 14.2156 55.0261 14.0601 55.0261C13.9826 55.0261 13.9055 55.0261 13.828 55.0261C13.7912 55.0261 13.7496 55.0261 13.7122 55.0261C13.6741 55.0261 13.6234 55.0261 13.6872 55.0261C13.6942 55.0261 13.702 55.0261 13.7107 55.0261C13.8424 55.0261 13.9739 55.0261 14.1059 55.0261C14.1091 55.0261 14.1135 55.0261 14.1165 55.0261C13.8439 55.0261 13.5714 55.0261 13.2987 55.0261Z" fill="white"/>
<path d="M56.6529 11.2929C56.72 11.8191 56.7844 12.3237 56.8318 12.6958C56.8793 13.0678 56.906 13.2768 56.906 13.2768C56.906 13.2768 56.8793 13.0678 56.8318 12.6958C56.7844 12.3237 56.72 11.8191 56.6529 11.2929C56.7397 11.9732 56.8265 12.6538 56.9132 13.3338C56.9147 13.3452 56.9162 13.357 56.9174 13.3668C56.9083 13.2956 56.899 13.2223 56.8898 13.1502C56.8567 12.8906 56.8236 12.6312 56.7905 12.3718C56.7891 12.3606 56.7874 12.3477 56.7862 12.3377C56.7801 12.2907 56.7766 12.2629 56.7705 12.2184C56.7685 12.2075 56.7649 12.1663 56.7616 12.1741C56.7625 12.2003 56.7633 12.2084 56.7651 12.2346C56.7706 12.3093 56.7775 12.3922 56.7835 12.4664C56.796 12.621 56.809 12.7813 56.821 12.9348C56.8459 13.2503 56.8688 13.5578 56.8909 13.8714C56.9346 14.4934 56.9732 15.1205 57.006 15.7433C57.0225 16.0586 57.0373 16.3665 57.0509 16.6812C56.9024 16.9986 56.7311 17.3197 56.5898 17.6346C56.3019 18.2667 56.0769 18.8902 55.994 19.5079C55.9707 19.6772 55.9591 19.8615 55.9608 20.0314C56.009 25.5405 56.0675 31.064 55.9601 36.5693C55.9582 36.6612 55.9563 36.7528 55.9543 36.8441C55.8596 41.1764 55.6651 45.5055 55.3847 49.8308C55.383 49.8569 55.3813 49.8827 55.3797 49.9083C55.3218 50.8251 55.359 51.7202 55.3181 52.6627C55.3143 52.7689 55.311 52.88 55.3081 52.9858C55.3078 52.9962 55.3076 53.0067 55.3073 53.0172C55.2911 53.709 55.2951 54.363 55.2942 55.0261C55.2942 55.281 55.3955 55.5254 55.5757 55.7056C55.7559 55.8858 56.0003 55.9871 56.2552 55.9871C56.51 55.9871 56.7544 55.8858 56.9346 55.7056C57.1149 55.5254 57.2161 55.281 57.2161 55.0261C57.2168 54.3676 57.2135 53.6999 57.2284 53.0702C57.2287 53.0609 57.2289 53.0517 57.2292 53.0427C57.2322 52.9499 57.2373 52.8638 57.2448 52.7722C57.325 51.8895 57.4928 50.9591 57.551 50.0485C57.5526 50.0228 57.5543 49.9969 57.556 49.9707C57.8412 45.6208 58.0365 41.2565 58.1373 36.8933C58.1394 36.8013 58.1415 36.7091 58.1436 36.6165C58.2634 31.077 58.3587 25.5481 58.3103 20.0075C58.3086 19.8364 58.293 19.6512 58.2657 19.4811C58.168 18.8475 57.9136 18.2192 57.5839 17.6013C57.4218 17.2932 57.2262 16.9845 57.0509 16.6812C57.0373 16.3665 57.0225 16.0586 57.006 15.7433C56.9732 15.1205 56.9346 14.4934 56.8909 13.8714C56.8688 13.5578 56.8459 13.2503 56.821 12.9348C56.809 12.7813 56.796 12.621 56.7835 12.4664C56.7775 12.3922 56.7706 12.3093 56.7651 12.2346C56.7633 12.2084 56.7625 12.2003 56.7616 12.1741C56.7649 12.1663 56.7685 12.2075 56.7705 12.2184C56.7766 12.2629 56.7801 12.2907 56.7862 12.3377C56.7874 12.3477 56.7891 12.3606 56.7905 12.3718C56.8236 12.6312 56.8567 12.8906 56.8898 13.1502C56.899 13.2223 56.9083 13.2956 56.9174 13.3668C56.9162 13.357 56.9147 13.3452 56.9132 13.3338C56.8265 12.6538 56.7397 11.9732 56.6529 11.2929Z" fill="white"/>
<path d="M14.9359 53.2806C14.4733 53.0211 14.0297 52.7722 13.7026 52.5887C13.6208 52.5428 13.548 52.502 13.4847 52.4665C13.4685 52.4583 13.455 52.4469 13.438 52.4429C13.4124 52.4544 13.389 52.4633 13.3676 52.47C13.325 52.4833 13.2907 52.4876 13.2634 52.4853C13.1553 52.4747 13.1527 52.3716 13.1917 52.3021C13.2306 52.2326 13.32 52.1811 13.3854 52.2679C13.4016 52.29 13.4158 52.3215 13.4267 52.3648C13.4321 52.3865 13.4367 52.4111 13.4402 52.4389C13.4525 52.4513 13.4693 52.457 13.4847 52.4665C13.548 52.502 13.6208 52.5428 13.7026 52.5887C14.0297 52.7722 14.4733 53.0211 14.9359 53.2806C14.7865 53.1968 14.6371 53.113 14.4877 53.0292C14.4866 53.0285 14.4856 53.028 14.4848 53.0276C14.559 53.0691 14.6336 53.111 14.7077 53.1526C14.7082 53.1529 14.7086 53.1531 14.7087 53.1532C14.7211 53.1613 14.7453 53.17 14.7397 53.1769C14.7234 53.1738 14.7102 53.1689 14.6947 53.164C14.6652 53.1543 14.6364 53.1444 14.6063 53.1341C14.5481 53.1142 14.489 53.0944 14.4299 53.0755C14.3115 53.0376 14.1924 53.0028 14.0716 52.9739C14.029 52.9638 13.9864 52.9544 13.9433 52.9459C13.9221 52.9412 13.9 52.9395 13.8791 52.9326C13.8673 52.8722 13.8531 52.8134 13.8373 52.757C13.7729 52.5318 13.6739 52.3395 13.5107 52.2367C13.4206 52.1676 13.3229 52.1348 13.2326 52.1474C11.9003 52.4006 11.3237 53.3385 10.8302 54.0439C10.802 54.0876 10.7743 54.1312 10.7471 54.1748C10.367 54.7841 10.0232 55.4181 9.73217 56.0983C9.58762 56.4384 9.45538 56.79 9.34836 57.171C9.25748 57.5803 9.10466 57.8819 9.22667 58.6446C9.23412 58.6767 9.24221 58.7084 9.25092 58.7398C9.55611 59.7894 10.3929 60.277 10.9471 60.5938C10.9627 60.6025 10.9783 60.611 10.9939 60.6194C12.5959 61.5154 14.4471 61.187 15.7832 60.8942C15.8141 60.8878 15.8448 60.881 15.8752 60.8737C16.8628 60.6274 17.5296 59.9927 18.0186 59.3878C18.0348 59.3674 18.0507 59.3469 18.0662 59.3262C18.5825 58.6117 18.7483 57.8087 18.5002 56.88C18.4675 56.7933 18.4434 56.6828 18.2724 56.4892C18.1762 56.3877 18.0446 56.2833 17.8409 56.2193C17.6412 56.1579 17.4534 56.1703 17.3141 56.2054C17.0593 56.2763 16.974 56.3626 16.9013 56.4182C16.7751 56.5291 16.7421 56.584 16.7009 56.6385C16.6312 56.7381 16.598 56.8034 16.5654 56.8671C16.5038 56.991 16.4629 57.0953 16.4249 57.2013C16.351 57.4153 16.2921 57.6095 16.2531 57.8933C16.2433 57.9713 16.2396 58.0431 16.2391 58.1097C16.2911 59.0141 16.54 59.4095 16.715 59.9209C16.7289 59.9566 16.7437 59.9918 16.7593 60.0265C17.1237 60.8388 17.8833 61.2077 18.4189 61.3891C18.9813 61.578 19.4885 61.6562 19.9462 61.7461C19.9903 61.7545 20.0341 61.7618 20.0779 61.7682C21.1614 61.8892 22.0022 61.6216 22.8657 61.056L23.098 60.8885L23.2036 60.6111C23.2202 60.5673 23.2359 60.5225 23.2499 60.4797C23.5227 59.5687 23.4853 58.8342 23.4495 58.0928C23.4384 57.9214 23.4238 57.7512 23.4062 57.5824L23.4086 57.6083C23.4079 57.5997 23.4072 57.591 23.4066 57.5825C23.3832 57.2775 23.3767 56.9812 23.3723 56.642C23.3683 56.3855 23.2652 56.1396 23.0828 55.9582C22.9004 55.7768 22.6541 55.6749 22.3977 55.6749C22.1412 55.6749 21.8949 55.7768 21.7126 55.9582C21.5301 56.1396 21.427 56.3855 21.423 56.642C21.4169 56.9791 21.4185 57.3596 21.4472 57.7291C21.448 57.7395 21.4488 57.7499 21.4496 57.7605L21.452 57.7864C21.4672 57.9324 21.4801 58.0783 21.49 58.2229C21.5329 58.8323 21.5216 59.4845 21.3974 59.8795C21.392 59.8967 21.3863 59.9135 21.3809 59.9286L21.7187 59.4837C21.3763 59.7338 20.7235 59.9392 20.3468 59.8741C20.3307 59.872 20.3149 59.8695 20.2993 59.8667C19.3531 59.7311 18.469 59.4304 18.4835 59.2462C18.4813 59.2414 18.4791 59.2364 18.4769 59.2311C18.2987 58.7948 18.1107 58.2414 18.1219 58.1222C18.1219 58.12 18.1222 58.123 18.1211 58.1332C18.1269 58.0874 18.1625 57.9604 18.2031 57.8623C18.2231 57.8128 18.2467 57.7629 18.2608 57.7391C18.2664 57.7288 18.2742 57.7211 18.2524 57.7536C18.2365 57.7732 18.2285 57.7967 18.1342 57.8802C18.0781 57.9219 18.0104 57.9964 17.7751 58.0623C17.6466 58.0947 17.4686 58.107 17.2791 58.0487C17.0858 57.988 16.9618 57.8889 16.8735 57.7956C16.7168 57.6177 16.7015 57.5272 16.6763 57.4633C16.6776 57.4659 16.6957 57.6998 16.6629 57.8132C16.6343 57.9458 16.5835 58.0541 16.5081 58.155C16.5035 58.1612 16.4987 58.1674 16.4938 58.1736C16.1526 58.6092 15.7606 58.929 15.4265 59.0029C15.4159 59.0054 15.4054 59.0078 15.3948 59.01C14.018 59.3153 12.8412 59.4402 11.9144 58.9168C11.9049 58.9117 11.8955 58.9065 11.8861 58.9013C11.3953 58.6407 11.1214 58.3792 11.0894 58.2215C11.0876 58.2157 11.0859 58.2098 11.0844 58.2038C11.0938 58.2798 11.0796 58.1562 11.0976 58.0513C11.1122 57.9395 11.1405 57.8058 11.1764 57.6701C11.2485 57.3976 11.3509 57.1091 11.4673 56.8245C11.7021 56.2519 11.9955 55.685 12.3214 55.1345C12.3447 55.0951 12.3683 55.0555 12.3921 55.0156C12.7621 54.3803 13.2056 53.8113 13.5252 53.716C13.5496 53.7072 13.5676 53.6601 13.5942 53.5838C13.6048 53.4706 13.6821 53.2925 13.7907 53.0912C13.8178 53.0408 13.8476 52.9888 13.8785 52.9357C13.9006 52.936 13.9219 52.9423 13.9433 52.9459C13.9864 52.9544 14.029 52.9638 14.0716 52.9739C14.1924 53.0028 14.3115 53.0376 14.4299 53.0755C14.489 53.0944 14.5481 53.1142 14.6063 53.1341C14.6364 53.1444 14.6652 53.1543 14.6947 53.164C14.7102 53.1689 14.7234 53.1738 14.7397 53.1769C14.7453 53.17 14.7211 53.1613 14.7087 53.1532C14.7086 53.1531 14.7082 53.1529 14.7077 53.1526C14.6336 53.111 14.559 53.0691 14.4848 53.0276C14.4856 53.028 14.4866 53.0285 14.4877 53.0292C14.6371 53.113 14.7865 53.1968 14.9359 53.2806Z" fill="white"/>
<path d="M23.261 57.2129C23.261 57.3677 23.261 57.5163 23.261 57.6258C23.261 57.7353 23.261 57.7968 23.261 57.7968C23.261 57.7968 23.261 57.7353 23.261 57.6258C23.261 57.5163 23.261 57.3677 23.261 57.2129C23.1838 57.6066 23.0833 57.9958 22.9889 58.3861C22.9839 58.4063 22.9789 58.4265 22.9739 58.4467C23.0144 58.2709 23.0552 58.0942 23.0959 57.9178C23.1027 57.8883 23.1097 57.8579 23.1164 57.829C23.1538 57.6192 23.1524 57.8634 23.1408 57.9483C23.1319 58.0602 23.1224 58.1728 23.1137 58.2851C23.0964 58.51 23.0815 58.7346 23.0743 58.9599C23.1848 59.1118 22.774 59.2524 22.6163 59.4308C22.4351 59.622 22.2502 59.7688 22.3235 60.2013C22.3416 60.3294 22.3881 60.4538 22.4554 60.5579C22.9458 61.2425 23.4173 61.381 23.7619 61.5955C23.8288 61.6321 23.8959 61.6651 23.9616 61.6945C25.5503 62.2866 26.7906 62.0871 28.0888 61.9267C28.1181 61.9222 28.1472 61.9172 28.176 61.9118C29.2865 61.7806 30.0489 60.5688 30.2261 59.9889C30.229 59.9821 30.2319 59.9752 30.2347 59.9683C30.59 59.063 30.3972 58.1969 29.9629 57.4695C29.9484 57.4468 29.9326 57.4227 29.9126 57.3945C29.8769 57.3474 29.8876 57.3507 29.7836 57.2358C29.7487 57.2022 29.7578 57.2013 29.6449 57.1134C29.5694 57.0646 29.4722 56.9745 29.1852 56.9271C29.0346 56.9113 28.8683 56.902 28.6121 57.0223C28.3685 57.1416 28.2168 57.3531 28.1537 57.4978C28.0313 57.7862 28.0713 57.9478 28.0652 57.9548C28.0671 57.9971 28.0707 58.0294 28.0746 58.0568C28.0821 58.1103 28.0915 58.1497 28.0977 58.175C28.1384 58.3254 28.1586 58.3615 28.1788 58.4155C28.2206 58.5185 28.2582 58.6011 28.2958 58.6824C28.3714 58.8448 28.4473 58.9971 28.525 59.1482C28.6807 59.4505 28.8418 59.7431 29.0116 60.0342C29.3542 60.6163 29.7136 61.1852 30.186 61.7531C30.2576 61.838 30.3347 61.9163 30.4151 61.9875C32.353 63.2716 33.7689 62.6521 35.147 62.5574C35.2315 62.5448 35.3152 62.527 35.3987 62.5036C36.3332 62.2228 36.7152 61.4959 36.9542 61.085C36.9764 61.045 36.9975 61.0048 37.0174 60.9644C37.6011 59.7376 37.2409 58.5664 37.0228 57.78C37.0219 57.7765 37.0209 57.7731 37.02 57.7697C37.0122 57.7419 37.0041 57.7143 36.9932 57.6814C36.9847 57.6558 36.9749 57.6276 36.9584 57.5878C36.9488 57.5668 36.946 57.5526 36.901 57.4701C36.8791 57.4319 36.8514 57.3841 36.7934 57.3134C36.764 57.2781 36.7264 57.2365 36.6703 57.1881C36.6686 57.1963 36.4277 56.9253 35.9502 56.9387C35.4513 56.9607 35.1707 57.318 35.0969 57.4594C34.9953 57.6581 35.0287 57.6115 35.0078 57.6631C34.9874 57.7284 34.9789 57.7731 34.9727 57.8095C34.9613 57.8775 34.9592 57.9335 34.9587 57.9443C34.9569 57.9841 34.9572 58.0122 34.9578 58.0374C34.9589 58.0793 34.9605 58.1035 34.9625 58.1323C34.9695 58.2262 34.9773 58.2897 34.9856 58.3591C35.0022 58.4922 35.0201 58.6143 35.0391 58.7364C35.0773 58.9801 35.1201 59.2199 35.1688 59.4616C35.2758 59.9533 35.3554 60.4013 35.6291 61.0152C35.6719 61.1049 35.7182 61.192 35.7677 61.2767C36.8491 62.9684 38.47 63.4346 39.8106 63.9097C39.8531 63.9234 39.8957 63.9363 39.9383 63.9483C41.4738 64.3345 42.733 63.842 43.8132 63.3112C43.8273 63.3039 43.8413 63.2965 43.8551 63.2889C45.1337 62.4333 45.1159 61.4374 45.282 60.678C45.3913 59.8877 45.3913 59.1421 45.3672 58.4198C45.3661 58.3874 45.3645 58.3561 45.3627 58.326C45.3441 58.0233 45.2665 57.7943 45.0888 57.5352C45.0429 57.4722 44.9917 57.4057 44.894 57.3175C44.8434 57.2735 44.7827 57.2216 44.6668 57.158C44.5488 57.1079 44.3719 56.9709 43.9061 57.0443C43.6935 57.0817 43.3605 57.2351 43.1588 57.5054C42.9558 57.7717 42.9116 58.0198 42.8938 58.1838C42.8694 58.5104 42.9199 58.6675 42.9531 58.8139C43.0285 59.094 43.1121 59.2801 43.1952 59.4653C43.3622 59.8265 43.5353 60.1351 43.7079 60.4362C43.724 60.4641 43.7402 60.492 43.7561 60.5195C45.0898 62.3184 46.6419 62.2135 47.9096 62.4692C47.9661 62.4765 48.0246 62.4839 48.0803 62.4908C48.7499 62.5765 49.421 62.4542 49.9434 62.2867C50.018 62.2634 50.0894 62.2395 50.1562 62.2164C50.6796 62.0473 51.1046 61.6343 51.3292 61.2611C51.4026 61.1439 51.4626 61.0277 51.5135 60.9143C52.0056 59.4859 51.4516 58.7428 51.1975 58.0518C51.1497 57.9472 51.1003 57.8436 51.06 57.7574C51.0505 57.7373 51.0452 57.7246 51.0472 57.7296C51.0489 57.7346 51.0551 57.7478 51.0688 57.7943C51.0662 57.8149 51.1218 57.8679 51.1034 58.1945C51.0938 58.2821 51.0752 58.4 51.0036 58.5547C50.9368 58.7892 50.4446 59.2023 50.0859 59.1909C49.7312 59.2093 49.5788 59.1122 49.4805 59.0674C49.3701 59.0062 49.3768 59.0039 49.3545 58.9896C49.1347 58.8101 49.2257 58.8706 49.21 58.8624C49.2157 58.869 49.2266 58.8825 49.2419 58.9018C49.2959 58.9705 49.3665 59.0653 49.4329 59.155C49.5693 59.3395 49.7085 59.5296 49.8497 59.72C50.1331 60.1025 50.4237 60.4863 50.7275 60.8668C51.3623 61.6286 51.9043 62.3792 52.9705 63.1079C53.0791 63.1756 53.192 63.2344 53.3103 63.2847C54.5013 63.7495 55.4549 63.3116 56.1362 62.9918C56.8364 62.639 57.4164 62.2116 57.9429 61.8314C58.0737 61.7373 58.1903 61.6248 58.2846 61.5096C58.6461 61.0479 58.6955 60.6613 58.7514 60.3687C58.7776 60.2064 58.7935 60.0617 58.8103 59.9271L58.8134 59.6459C58.8067 59.5968 58.8002 59.5496 58.7935 59.5003C58.6804 58.7019 58.4856 57.8131 57.9128 56.9927L57.8785 56.9466C57.8722 56.9385 57.8659 56.9306 57.8595 56.9227C57.6894 56.7036 57.4545 56.5072 57.3397 56.4154C57.1244 56.2392 56.8496 56.1462 56.5699 56.1635C56.2902 56.1807 56.0293 56.3057 55.8436 56.5123C55.6578 56.7189 55.5612 56.9916 55.5738 57.2715C55.5863 57.5516 55.7079 57.8149 55.906 58.0103C56.0645 58.1633 56.1095 58.2078 56.1658 58.2792C56.1682 58.2821 56.1707 58.2852 56.1732 58.2884L56.1388 58.2423C56.4035 58.6098 56.5751 59.1664 56.6588 59.7904C56.664 59.8284 56.6682 59.8651 56.672 59.9037L56.6751 59.6225C56.6558 59.7408 56.6333 59.8488 56.6091 59.9369C56.5706 60.101 56.4938 60.1844 56.557 60.091C56.5741 60.07 56.6018 60.0426 56.6336 60.0198C56.0966 60.4114 55.6099 60.7644 55.1347 61.0074C54.6638 61.2629 54.2341 61.3051 54.1745 61.2486C54.1633 61.2438 54.1527 61.2383 54.1405 61.2308C53.6522 60.9148 53.0072 60.169 52.4664 59.4852C52.1885 59.1334 51.9163 58.7699 51.6441 58.3981C51.508 58.2122 51.3735 58.0261 51.2313 57.8316C51.1605 57.7351 51.0886 57.6365 51.0027 57.5258C50.9767 57.4924 50.9552 57.4652 50.9239 57.4275C50.8655 57.3692 50.9207 57.3862 50.6586 57.1736C50.6341 57.1578 50.6393 57.1542 50.5226 57.0894C50.4192 57.0421 50.2627 56.9438 49.9048 56.9624C49.5429 56.9511 49.0482 57.3663 48.9802 57.6036C48.9078 57.76 48.8886 57.8801 48.8788 57.9703C48.8584 58.3048 48.9209 58.3876 48.9211 58.4163C48.941 58.4842 48.957 58.5249 48.9723 58.5637C48.9946 58.6189 49.0105 58.6541 49.0309 58.6985C49.0787 58.8019 49.1209 58.8915 49.16 58.9783C49.2839 59.2514 49.3799 59.5056 49.4263 59.7139C49.4796 59.9218 49.4395 60.0596 49.4586 59.985C49.4442 60.0159 49.4303 60.0404 49.4191 60.0572C49.3759 60.116 49.3996 60.0656 49.4346 60.0547C49.374 60.0742 49.3176 60.0922 49.2637 60.109C48.8904 60.2267 48.6107 60.27 48.3408 60.2427C48.2895 60.2372 48.2364 60.2313 48.1856 60.2254C47.0679 60.1283 45.795 59.7294 45.6615 59.3974C45.6462 59.3718 45.6308 59.346 45.6155 59.3204C45.4533 59.0473 45.2971 58.7768 45.1808 58.5361C45.1238 58.4197 45.0762 58.2992 45.0651 58.2577C45.0571 58.2448 45.0745 58.2333 45.0648 58.3952C45.055 58.4761 45.0336 58.6412 44.8818 58.8415C44.7306 59.0455 44.4755 59.1584 44.3453 59.1794C43.8958 59.2497 43.7358 59.1189 43.6321 59.0765C43.5308 59.0207 43.4835 58.9792 43.4451 58.946C43.3721 58.8799 43.3424 58.8391 43.3157 58.8029C43.2193 58.6595 43.1889 58.5699 43.1761 58.4083C43.1765 58.4366 43.1771 58.4658 43.1781 58.4957C43.2012 59.1521 43.1949 59.794 43.1149 60.3728C43.0752 60.6592 43.0135 60.9301 42.9354 61.1275C42.8609 61.3314 42.7595 61.4088 42.8053 61.3731C42.8061 61.3727 42.8069 61.3723 42.8077 61.3719C42.0104 61.7927 41.0848 62.0264 40.5218 61.8593C40.5057 61.8549 40.4898 61.8502 40.4741 61.8453C39.2363 61.4616 38.0238 60.9104 37.6084 60.1916C37.5871 60.1563 37.5676 60.121 37.5496 60.0851C37.4415 59.8687 37.31 59.4149 37.2162 59.0156C37.1676 58.8097 37.1232 58.5991 37.0855 58.3922C37.0668 58.2895 37.0494 58.1859 37.036 58.0911C37.0293 58.0445 37.0236 57.9962 37.0219 57.9773C37.0215 57.9734 37.0215 57.972 37.0219 57.9854C37.022 57.9941 37.0223 58.0078 37.0211 58.0359C37.0207 58.043 37.0195 58.0851 37.0093 58.1473C37.0036 58.1803 36.9958 58.222 36.9762 58.2849C36.9558 58.335 36.9889 58.2886 36.8891 58.4838C36.8166 58.6229 36.5375 58.979 36.0403 59.001C35.5644 59.014 35.3263 58.7451 35.3249 58.7536C35.2696 58.7059 35.2329 58.6652 35.2043 58.6309C35.1481 58.5623 35.1223 58.5175 35.1024 58.4828C35.0621 58.4088 35.0618 58.4008 35.0544 58.3849C35.0426 58.3564 35.0381 58.3424 35.0352 58.334C35.0318 58.3234 35.032 58.323 35.0333 58.3278C35.0345 58.3319 35.0356 58.3359 35.0368 58.3399C35.2867 59.1292 35.3444 59.7373 35.174 60.0568C35.1684 60.0683 35.1626 60.0796 35.1565 60.0908C34.9689 60.4578 34.8036 60.5654 34.8406 60.5383C34.8414 60.5383 34.8419 60.5385 34.8411 60.5389C33.6237 60.7577 32.0654 60.8277 31.7319 60.4938C31.7204 60.4841 31.7116 60.4752 31.704 60.4667C31.3558 60.0571 31.0213 59.5492 30.7149 59.0333C30.5615 58.7741 30.4141 58.5096 30.2758 58.2435C30.2071 58.1111 30.1403 57.9777 30.081 57.8509C30.0522 57.7893 30.0232 57.7244 30.005 57.6795C29.9984 57.6663 29.9856 57.6189 30.0076 57.6971C30.0112 57.7117 30.0179 57.7385 30.0242 57.783C30.0274 57.8058 30.0306 57.8338 30.0323 57.8724C30.0261 57.8781 30.0663 58.0275 29.9459 58.3128C29.8838 58.4553 29.7334 58.6653 29.4915 58.7838C29.2371 58.9033 29.0721 58.8939 28.9234 58.8783C28.6401 58.8314 28.5476 58.7436 28.4778 58.6989C28.3752 58.619 28.3868 58.6211 28.3594 58.5951C28.2904 58.5188 28.3123 58.5389 28.3069 58.5337C28.3017 58.5263 28.3014 58.5256 28.302 58.5266C28.3512 58.6022 28.423 58.7923 28.4348 58.9127C28.451 59.0431 28.4358 59.1349 28.4021 59.2173C28.4016 59.2187 28.401 59.22 28.4004 59.2214C28.14 59.8492 28.0583 59.8961 27.8096 59.9615C27.8017 59.963 27.7935 59.9644 27.7849 59.9658C26.7164 60.1337 25.4476 60.1753 24.7639 59.8944C24.7413 59.8845 24.7211 59.8746 24.7044 59.8657C24.338 59.678 24.0194 59.4674 24.0187 59.4739C24.0146 59.4752 23.9998 59.4897 23.9691 59.5024C23.9332 59.6552 23.7314 59.4957 23.5334 59.3891C23.3624 59.2683 22.9546 59.108 23.0743 58.9599C23.0815 58.7346 23.0964 58.51 23.1137 58.2851C23.1224 58.1728 23.1319 58.0602 23.1408 57.9483C23.1524 57.8634 23.1538 57.6192 23.1164 57.829C23.1097 57.8579 23.1027 57.8883 23.0959 57.9178C23.0552 58.0942 23.0144 58.2709 22.9739 58.4467C22.9789 58.4265 22.9839 58.4063 22.9889 58.3861C23.0833 57.9958 23.1838 57.6066 23.261 57.2129Z" fill="white"/>
<path d="M13.2093 52.5196C13.1241 52.6519 13.0425 52.7788 12.9823 52.8724C12.9221 52.9659 12.8883 53.0185 12.8883 53.0185C12.8883 53.0185 12.9221 52.9659 12.9823 52.8724C13.0425 52.7788 13.1241 52.6519 13.2093 52.5196C13.0468 52.7127 12.8432 52.8719 12.6265 53.0012C12.6226 53.0029 12.6172 53.005 12.6133 53.006C12.6929 52.8935 12.8733 52.7868 13.0119 52.6902C13.0295 52.6777 13.0147 52.6975 13.0079 52.7027C12.8176 52.8683 12.6091 53.0164 12.3792 53.1211C12.3525 53.1327 12.3248 53.1424 12.2968 53.1503C12.1781 53.1837 12.0531 53.1863 11.9309 53.1754C11.8634 53.2139 11.8236 53.0477 11.781 52.9775C11.7399 52.8896 11.7041 52.8023 11.6702 52.7179C11.5369 52.3802 11.425 52.0909 11.2251 51.97C11.2125 51.9608 11.1993 51.9531 11.1853 51.9471C10.9983 51.867 10.8115 51.7435 10.6329 51.5829C9.73487 50.7939 9.05945 48.9876 9.04284 47.9409C9.04291 47.9403 9.04296 47.9399 9.043 47.9396C9.04986 47.8063 9.1995 47.6225 9.73849 47.2918C9.75032 47.2842 9.76227 47.2764 9.77432 47.2685C10.0095 47.0759 11.008 47.0872 11.7733 47.3012C11.7886 47.3051 11.8037 47.3089 11.8185 47.3124C11.8334 47.3155 11.8555 47.3206 11.8934 47.3311C11.9133 47.3366 11.9348 47.3431 11.9801 47.3553C12.005 47.3616 12.0287 47.3694 12.1025 47.3828C12.1457 47.3879 12.1802 47.4028 12.3461 47.3967C12.4424 47.3725 12.5672 47.4381 12.9478 47.1469C13.1218 47.0114 13.2715 46.6798 13.2743 46.5027C13.2906 46.3028 13.2562 46.1921 13.235 46.1162C13.1203 45.81 13.0845 45.8292 13.0508 45.7724C13.0213 45.7362 13.0025 45.7163 12.9858 45.6987C11.6059 44.4081 10.2201 43.9283 9.1712 43.1104C9.14819 43.0928 9.12572 43.0754 9.10382 43.0581C8.68592 42.7822 8.47648 41.7433 8.5755 40.7479C8.58057 40.6861 8.58672 40.624 8.59379 40.5621C8.60215 40.5473 8.59372 40.5125 8.86481 40.351C8.91179 40.324 8.9651 40.2956 9.02512 40.265C9.6918 39.9371 10.9473 39.9613 12.1671 39.9562C12.2569 39.955 12.3509 39.9531 12.4452 39.9498C12.5157 39.947 12.5894 39.9413 12.677 39.9255C12.7365 39.9145 12.8092 39.8975 12.8928 39.8661C12.9635 39.8371 13.1055 39.7879 13.279 39.6192C13.4419 39.4761 13.6088 39.1169 13.5824 38.84C13.558 38.5495 13.5009 38.4777 13.4469 38.3653C13.3377 38.1792 13.2858 38.1398 13.2228 38.072C13.0137 37.8721 12.9071 37.8125 12.7754 37.7213C12.5306 37.5603 12.3075 37.4322 12.0837 37.3045C11.638 37.052 11.2045 36.819 10.7764 36.5841C9.93699 36.1198 9.03063 35.63 8.43902 35.1505C8.38624 35.1058 8.34119 35.0613 8.30058 35.0143C7.8569 34.5927 7.99003 33.4275 8.32783 32.2183C8.31374 32.275 8.27997 32.3361 8.25233 32.3686C8.11757 32.4796 8.33827 32.3239 8.58995 32.3008C8.84878 32.2589 9.15715 32.2461 9.47221 32.2516C10.1045 32.264 10.7747 32.3427 11.4228 32.4595C11.4311 32.4613 11.4501 32.4649 11.5058 32.4892C11.5308 32.5 11.5602 32.5146 11.6186 32.5421C11.6492 32.5561 11.6846 32.5733 11.7546 32.5993C11.8355 32.6179 11.897 32.6853 12.2645 32.6669C12.4224 32.6541 12.7616 32.5676 12.9948 32.2621C13.2187 31.9597 13.2155 31.7033 13.214 31.567C13.1946 31.2914 13.1412 31.209 13.1076 31.1192C13.035 30.9583 12.9765 30.8766 12.9185 30.7953C12.9069 30.7795 12.8954 30.7644 12.8837 30.7496C12.7794 30.618 12.6638 30.5118 12.5613 30.4132C11.9837 29.886 11.5376 29.6031 11.0775 29.2366C11.0092 29.1838 10.9425 29.1314 10.8749 29.0777C9.89426 28.296 8.85618 27.2758 8.34038 26.4128C8.3311 26.3952 8.32216 26.3761 8.31371 26.3553C8.08758 25.863 8.40057 24.6586 8.93993 23.8655C8.93411 23.8743 8.92796 23.8829 8.92165 23.891C8.72507 24.0651 8.89057 23.9115 9.14956 23.9291C9.40637 23.9243 9.72443 23.9624 10.0424 24.0222C10.6839 24.144 11.358 24.3462 11.9966 24.583C12.0295 24.5952 12.0636 24.6072 12.1053 24.6199C12.1215 24.6248 12.1677 24.6382 12.2135 24.6477C12.2821 24.6546 12.2503 24.6794 12.5472 24.6679C12.6479 24.6567 12.7942 24.637 12.9887 24.5227C13.0857 24.4716 13.2963 24.289 13.3851 24.0894C13.4849 23.886 13.4994 23.6791 13.485 23.5371C13.4355 23.2166 13.4018 23.2332 13.3755 23.1606C13.3477 23.1061 13.3229 23.0675 13.3012 23.0358C13.2029 22.9014 13.2026 22.9134 13.1657 22.8724C13.1057 22.8121 13.0855 22.7958 13.0505 22.765C12.9974 22.7191 12.9514 22.6822 12.9067 22.6467C12.823 22.5805 12.7403 22.5178 12.6648 22.4608C12.5093 22.3436 12.3589 22.232 12.2092 22.1202C11.9094 21.8964 11.6168 21.6754 11.3296 21.4511C10.7551 21.002 10.1985 20.5404 9.70248 20.0589C9.60406 19.9632 9.50957 19.867 9.41941 19.7699C9.03365 19.3557 8.73737 18.922 8.50227 18.4265C8.47577 18.3705 8.45376 18.3106 8.43572 18.2438C8.35217 17.9504 8.37731 17.5087 8.45875 16.9633C8.46387 16.9271 8.47269 16.8897 8.48659 16.849C8.54498 16.6652 8.74269 16.4024 9.02746 16.1604C9.031 16.1574 9.03725 16.1525 9.05089 16.1452C9.39688 15.9185 10.9261 16.2913 11.9028 16.8285C11.7909 16.772 11.6688 16.6563 11.605 16.5079C11.5925 16.4792 11.5826 16.4483 11.5741 16.4056C11.5698 16.3831 11.5658 16.3593 11.5614 16.3195C11.5592 16.298 11.5568 16.2756 11.5551 16.2306C11.5544 16.2074 11.5532 16.1786 11.5562 16.1243C11.5577 16.099 11.5609 16.0498 11.5737 15.9838C11.5811 15.9469 11.5956 15.8752 11.6357 15.7795C11.6609 15.7271 11.6662 15.6889 11.776 15.5416C11.8732 15.4155 12.0768 15.2323 12.3752 15.1719C12.4318 15.1904 12.4813 15.2486 12.5094 15.2549C12.6417 15.3244 12.3508 15.1326 12.1979 14.8549C12.0223 14.5795 11.8599 14.2404 11.7145 13.8906C11.4209 13.1827 11.1917 12.4288 10.9499 11.6332C10.9361 11.5852 10.9253 11.5345 10.9176 11.4802C10.8126 10.8198 11.3059 9.75099 11.8865 8.79472C11.9021 8.76875 11.9189 8.7435 11.9372 8.71857C12.0678 8.53668 12.308 8.33864 12.6738 8.1691C12.7011 8.1561 12.7281 8.14455 12.7557 8.13408C13.4534 7.81986 14.7275 8.4106 15.7762 9.23017C15.8385 9.27748 15.9011 9.32589 15.963 9.37461L15.7948 9.2065C15.8199 9.23793 15.8447 9.2693 15.8693 9.30061C16.5552 10.176 17.138 11.1229 17.6277 12.1417L17.6879 12.2488C17.6935 12.2576 17.6993 12.2664 17.7051 12.2752C17.9805 12.6939 18.6261 12.6162 18.9432 12.5415C19.0073 12.527 19.0868 12.4783 19.1529 12.428C19.2197 12.3764 19.2677 12.3273 19.2975 12.2698C19.3273 12.2123 19.3398 12.1448 19.3435 12.0605C19.3466 11.9775 19.3405 11.8845 19.3154 11.8237C19.2672 11.6822 19.2673 11.4967 19.309 11.3632C19.3474 11.2259 19.4327 11.161 19.4185 11.1411C19.4178 11.1401 19.4171 11.1389 19.4163 11.1377L19.4765 11.2449C18.9427 10.1194 18.2772 9.02788 17.5021 8.02775C17.4742 7.99179 17.4461 7.95572 17.4176 7.91957L17.2494 7.75147C17.179 7.69534 17.1073 7.63909 17.0352 7.58362C15.8182 6.71069 14.2285 5.4718 12.0265 6.15265C11.9514 6.17999 11.8781 6.20945 11.8046 6.24184C11.2759 6.47373 10.65 6.81716 10.1942 7.43599C10.134 7.51785 10.0774 7.60327 10.0254 7.69142C9.41537 8.8019 8.6441 10.0299 8.8794 11.8263C8.90636 11.9759 8.94465 12.1266 8.9954 12.2753C9.26093 13.049 9.55661 13.8748 9.93369 14.681C10.1246 15.0859 10.3335 15.4933 10.6138 15.9075C10.9217 16.3004 11.1739 16.831 12.1331 17.0998C12.3324 17.1412 12.5587 17.2007 12.789 17.1833C13.0878 17.1228 13.2918 16.9393 13.3894 16.8128C13.4995 16.6649 13.505 16.6264 13.5304 16.5736C13.5708 16.4771 13.5857 16.4042 13.5932 16.3663C13.6063 16.2988 13.6097 16.247 13.6114 16.22C13.6145 16.1619 13.6132 16.129 13.6123 16.1018C13.61 16.0488 13.6066 16.0187 13.6031 15.989C13.5962 15.9336 13.5887 15.8944 13.5801 15.8564C13.5632 15.7831 13.5424 15.722 13.517 15.6642C13.3831 15.3562 13.1328 15.1095 12.8661 14.9736C11.5031 14.3992 10.2852 13.5093 8.07328 14.2937C7.93158 14.3684 7.79047 14.4623 7.66062 14.5743C7.2236 14.9568 6.76229 15.4416 6.50545 16.1716C6.45113 16.3303 6.40975 16.4985 6.38549 16.6711C6.30784 17.2488 6.1996 17.9716 6.41411 18.7886C6.4633 18.9714 6.53022 19.1551 6.61577 19.3323C6.93931 20.0111 7.3974 20.6537 7.90139 21.1862C8.01912 21.3119 8.1389 21.4326 8.25964 21.549C8.84427 22.1111 9.44982 22.6066 10.0611 23.0816C10.366 23.318 10.673 23.5481 10.9786 23.7744C11.1305 23.8872 11.2821 23.9988 11.4274 24.1074C11.4972 24.1597 11.5722 24.2163 11.6318 24.2632C11.663 24.2875 11.692 24.3112 11.7052 24.3225C11.7114 24.3276 11.7175 24.3344 11.6959 24.3127C11.6777 24.2913 11.6855 24.3108 11.6064 24.2027C11.5882 24.1762 11.5664 24.1424 11.5408 24.0922C11.5165 24.0242 11.4849 24.0437 11.4366 23.7317C11.4225 23.5931 11.4366 23.3892 11.5352 23.1882C11.6229 22.991 11.8309 22.8109 11.926 22.7607C12.1172 22.6485 12.2588 22.6302 12.3535 22.6195C12.629 22.6091 12.5866 22.6309 12.6394 22.6348C12.6713 22.6415 12.6924 22.648 12.6977 22.6495C12.7128 22.6542 12.7156 22.6555 12.7125 22.6544C11.967 22.3827 11.2231 22.161 10.4136 22.0102C10.0078 21.9379 9.58818 21.8802 9.10701 21.8885C8.6469 21.929 7.9905 21.874 7.31326 22.6376C7.28613 22.6725 7.26021 22.7086 7.2357 22.7459C6.51871 23.9592 5.82557 25.2787 6.41788 27.127C6.45085 27.208 6.48837 27.289 6.53037 27.3685C7.44219 28.8591 8.46953 29.7309 9.61618 30.6694C9.69279 30.7297 9.76867 30.7882 9.84653 30.8471C10.3226 31.2117 10.876 31.5788 11.1727 31.858C11.2225 31.9059 11.2517 31.9551 11.2766 31.9909C11.2781 31.9932 11.2794 31.995 11.2804 31.9964C11.285 32.0009 11.2853 32.009 11.2565 31.9451C11.2442 31.9039 11.2097 31.8726 11.1931 31.6501C11.1927 31.5404 11.1856 31.3118 11.3931 31.0309C11.61 30.7469 11.9222 30.6704 12.0536 30.6602C12.3753 30.6457 12.3924 30.6986 12.4306 30.7025C12.4573 30.713 12.4514 30.7121 12.4404 30.7076C12.4159 30.6977 12.3625 30.6732 12.3042 30.648C12.1651 30.5873 11.9816 30.5211 11.7804 30.4852C11.0355 30.3529 10.2911 30.2637 9.50625 30.2484C9.1116 30.2431 8.71111 30.2538 8.26806 30.3244C7.833 30.422 7.30841 30.4448 6.7019 31.1022C6.56399 31.2693 6.44864 31.486 6.39061 31.712C6.12437 32.9136 5.43996 34.6724 6.76249 36.341C6.87831 36.4752 7.0008 36.5945 7.13165 36.7045C8.07716 37.4524 8.94274 37.865 9.82659 38.3466C10.2641 38.5787 10.7005 38.8051 11.1169 39.0336C11.3232 39.1471 11.5293 39.2638 11.6951 39.3703C11.7735 39.4187 11.8626 39.4902 11.8334 39.4644C11.8189 39.4458 11.8019 39.4443 11.7265 39.3169C11.6887 39.2352 11.6404 39.1825 11.6188 38.9276C11.5942 38.6829 11.7478 38.3521 11.8903 38.2288C12.0427 38.0817 12.1514 38.0486 12.1987 38.0282C12.2561 38.0068 12.2957 37.9986 12.3204 37.994C12.3568 37.9876 12.3694 37.988 12.3682 37.9881C12.2934 37.9914 12.2129 37.9938 12.1328 37.9956C10.9584 38.0504 9.69635 37.8458 8.13718 38.5411C8.06008 38.5811 7.97651 38.6259 7.89004 38.6766C7.44876 38.9143 6.76328 39.5252 6.70185 40.3643C6.69453 40.4399 6.68772 40.5163 6.68146 40.5927C6.62575 41.7909 6.49431 43.3505 7.88581 44.5879C7.91644 44.6125 7.94732 44.6367 7.97845 44.6608C9.29705 45.6551 10.7749 46.2776 11.5623 47.0586C11.5537 47.0494 11.5423 47.0377 11.5196 47.0098C11.493 46.962 11.464 46.9899 11.353 46.6943C11.3324 46.6207 11.2984 46.5124 11.3145 46.3149C11.3173 46.1401 11.4657 45.811 11.638 45.677C12.0147 45.389 12.1347 45.4552 12.2261 45.4314C12.3824 45.4258 12.4071 45.4393 12.4408 45.4428C12.4954 45.4528 12.5004 45.4556 12.5068 45.4568C12.5148 45.4587 12.499 45.4534 12.4822 45.4474C12.4463 45.4348 12.3943 45.4169 12.3344 45.3998C12.3145 45.394 12.2942 45.3884 12.2736 45.3829C11.2174 45.1679 10.144 44.8107 8.68299 45.5972C8.67315 45.6036 8.66289 45.6103 8.65222 45.6172C8.17065 45.9176 7.20669 46.5787 7.09563 47.7263C7.09468 47.735 7.0938 47.7436 7.09297 47.7523C7.18776 49.9988 7.84366 51.5193 9.33228 53.0351C9.64069 53.3111 10.0044 53.5607 10.4201 53.7377C10.4511 53.7509 10.4831 53.7619 10.516 53.7706C10.7737 53.8292 11.1244 53.7117 11.4667 53.4989C11.5519 53.4455 11.636 53.3859 11.7157 53.321C11.7938 53.2738 11.8758 53.1258 11.9309 53.1754C12.0531 53.1863 12.1781 53.1837 12.2968 53.1503C12.3248 53.1424 12.3525 53.1327 12.3792 53.1211C12.6091 53.0164 12.8176 52.8683 13.0079 52.7027C13.0147 52.6975 13.0295 52.6777 13.0119 52.6902C12.8733 52.7868 12.6929 52.8935 12.6133 53.006C12.6172 53.005 12.6226 53.0029 12.6265 53.0012C12.8432 52.8719 13.0468 52.7127 13.2093 52.5196Z" fill="white"/>
<path d="M19.1909 12.3728C19.1909 11.8424 19.1909 11.3337 19.1909 10.9586C19.1909 10.5836 19.1909 10.3728 19.1909 10.3728C19.1909 10.3728 19.1909 10.5836 19.1909 10.9586C19.1909 11.3337 19.1909 11.8424 19.1909 12.3728C19.1909 12.0428 19.1909 11.7126 19.1909 11.3824C19.1909 11.3609 19.1909 11.3398 19.1909 11.3184C19.1909 11.4629 19.1909 11.6082 19.1909 11.7531C19.1909 11.7825 19.1909 11.8127 19.1909 11.8417C19.1869 12.0062 19.2056 11.829 19.2085 11.7592C19.2145 11.6714 19.2202 11.5846 19.2261 11.4973C19.2381 11.3222 19.2509 11.1479 19.2656 10.9738C19.2729 10.8865 19.2808 10.7995 19.2893 10.7125C19.4047 10.636 19.6046 10.5697 19.7417 10.5027C20.0318 10.375 20.2636 10.2245 20.3407 10.192C20.3551 10.188 20.3645 10.1828 20.3688 10.1746C20.3967 10.1201 20.4588 10.0299 20.5567 9.93427C20.7759 9.71633 21.1433 9.49309 21.546 9.31186C21.5473 9.31127 21.5486 9.31067 21.5499 9.31008C22.2882 8.92246 23.3821 9.26631 23.9665 9.92979C23.9754 9.94049 23.9839 9.95158 23.9889 9.95844C24.4703 10.6144 24.6497 11.5154 24.6058 12.4758C24.6044 12.5134 24.6028 12.5507 24.601 12.5959C24.6016 12.6558 24.5898 12.6313 24.6049 12.861C24.6081 12.8919 24.6118 12.9231 24.6173 12.9589C24.6211 12.9831 24.6263 13.0136 24.6344 13.05C24.6449 13.0829 24.6416 13.1313 24.7277 13.3133C24.7394 13.3362 24.7532 13.3616 24.7708 13.3902C24.795 13.4255 24.7853 13.4242 24.8788 13.5353C24.9584 13.6238 25.0886 13.7446 25.3065 13.823C25.521 13.9047 25.8121 13.896 26.0077 13.8177C26.2375 13.7211 26.2422 13.6922 26.3174 13.6365C26.3764 13.5863 26.4179 13.5405 26.4505 13.5006C26.515 13.4206 26.5465 13.3629 26.5707 13.3168C26.6389 13.1757 26.6341 13.1647 26.6512 13.115C26.6704 13.0489 26.6767 13.0165 26.6836 12.9848C26.7071 12.8692 26.7155 12.8066 26.727 12.7311C26.7479 12.5895 26.7649 12.4597 26.7823 12.3301C26.8167 12.0717 26.8503 11.8214 26.8871 11.5744C26.9606 11.0833 27.0452 10.5897 27.1601 10.1846C27.1637 10.1717 27.1674 10.1591 27.1711 10.1468C27.2843 9.64905 28.0856 9.06038 28.9896 8.78094C29.0404 8.76446 29.0917 8.74854 29.1427 8.73342C29.0678 8.73914 29.1892 8.71741 29.3601 8.7793C29.5318 8.83508 29.7422 8.93548 29.9549 9.05391C30.3839 9.29315 30.8317 9.59991 31.2846 9.91887C31.3659 9.97619 31.4477 10.0341 31.53 10.0923C32.3044 10.624 32.6037 11.7281 32.6441 12.9625C32.6509 13.1058 32.6535 13.2461 32.6637 13.4321C32.6738 13.5742 32.6743 13.6594 32.708 13.8767C32.7142 13.9095 32.7143 13.9177 32.7327 13.9929C32.7411 14.0253 32.7516 14.0622 32.7693 14.1102C32.7783 14.1342 32.7891 14.1612 32.8039 14.1927C32.8117 14.2046 32.8467 14.3035 32.97 14.4433C33.0788 14.5745 33.3923 14.8028 33.7812 14.7675C34.1667 14.7174 34.2597 14.5987 34.375 14.5084C34.562 14.3279 34.5954 14.2079 34.6152 14.1748C34.6481 14.1016 34.6628 14.0543 34.676 14.0113C34.7127 13.884 34.7227 13.8204 34.7368 13.7489C34.7852 13.4832 34.813 13.2719 34.8455 13.0452C34.9074 12.6038 34.967 12.17 35.0344 11.7426C35.1017 11.3165 35.1752 10.8963 35.2659 10.498C35.3111 10.3004 35.3607 10.109 35.4158 9.93918C35.4632 9.77901 35.5558 9.60002 35.5372 9.63595C35.578 9.58345 35.6213 9.53314 35.6673 9.48494C35.9638 9.17216 36.3801 8.93637 36.881 8.79762C36.8951 8.79344 36.9103 8.79026 36.9289 8.78827C37.1193 8.73943 37.7456 9.0172 38.2781 9.38304C38.3087 9.40325 38.339 9.42361 38.3688 9.44411C39.753 10.3909 40.4694 11.8077 40.8199 13.7271C40.8286 13.7606 40.8388 13.7975 40.8504 13.8353C40.8914 13.949 40.9006 14.0419 41.0673 14.2853C41.1268 14.3649 41.2093 14.4594 41.3446 14.549C41.4872 14.6539 41.8075 14.7525 42.0529 14.7062C42.2829 14.6731 42.4548 14.565 42.5452 14.4937C42.6245 14.4313 42.6786 14.3732 42.7223 14.3211C42.9767 13.9771 42.9671 13.894 43.0366 13.7426C43.1396 13.4736 43.2092 13.2454 43.2814 13.0163C43.4226 12.5616 43.5537 12.1265 43.6977 11.7016C43.9803 10.8676 44.3235 10.018 44.7477 9.50844C44.7925 9.45521 44.8387 9.40794 44.886 9.36631C45.1353 9.14702 45.4492 9.04473 45.913 9.073C45.9342 9.07413 45.9572 9.07762 45.9844 9.08505C46.35 9.15776 46.9927 9.97736 47.457 10.7468C47.4741 10.7743 47.4908 10.8021 47.5072 10.83C48.0296 11.7251 48.1525 12.8341 48.1771 14.1673C48.1787 14.1989 48.1806 14.2349 48.1828 14.2685C48.1862 14.321 48.1887 14.3575 48.194 14.4153C48.202 14.4794 48.1965 14.5029 48.2348 14.6759C48.2425 14.7069 48.2522 14.7431 48.2706 14.7938C48.2804 14.82 48.2904 14.8458 48.3095 14.8862C48.3589 14.9724 48.4052 15.1226 48.6934 15.3173C48.836 15.4096 49.0692 15.4874 49.2994 15.4693C49.5489 15.4462 49.6557 15.384 49.7722 15.3164C49.9844 15.1774 50.0505 15.0606 50.1014 14.9848C50.1997 14.8112 50.1788 14.8273 50.1989 14.7821C50.2446 14.6465 50.2424 14.6299 50.2534 14.5837C50.2682 14.5117 50.2759 14.4616 50.283 14.417C50.3111 14.2331 50.3297 14.0817 50.3502 13.9266C50.3903 13.6193 50.4303 13.3201 50.4759 13.0261C50.5634 12.4581 50.6897 11.8151 50.8333 11.5001C50.8617 11.4392 50.8925 11.3826 50.9269 11.3282C51.2814 10.7128 52.3083 10.3826 53.4724 10.2716C53.5037 10.2683 53.5346 10.2665 53.5656 10.2663C53.8258 10.2616 54.1472 10.3882 54.4834 10.6544C54.4949 10.6634 54.5062 10.6731 54.5176 10.6836C54.7082 10.8437 54.8362 11.3293 54.9684 12.003C54.9684 12.0033 54.9685 12.0038 54.9687 12.0046C55.0158 12.17 54.9237 12.9025 54.7738 13.4995C54.7666 13.5302 54.7591 13.5617 54.7517 13.5927C54.7297 13.6895 54.7152 13.7374 54.6978 13.9073C54.6942 13.982 54.6789 14.0688 54.7164 14.2785C54.7268 14.3295 54.7397 14.3809 54.7638 14.4479C54.7972 14.5393 54.8488 14.6454 54.9321 14.7522C55.0898 14.971 55.4213 15.1483 55.6741 15.1656C55.9495 15.187 56.0408 15.1439 56.1406 15.1178C56.2322 15.089 56.3121 15.0494 56.3456 15.0315C56.4275 14.9886 56.5005 14.9378 56.537 14.9109C56.6247 14.8461 56.6832 14.7939 56.7375 14.7447C56.9445 14.5523 57.0789 14.4007 57.2228 14.2437C57.5025 13.9345 57.7621 13.6368 58.0241 13.3518C58.2847 13.0682 58.5463 12.7957 58.8043 12.5622C59.0401 12.3353 59.3867 12.1212 59.3749 12.1387C59.389 12.1335 59.4293 12.1267 59.4999 12.1348C59.9054 12.175 60.6359 12.6274 61.295 13.0825C61.3212 13.0997 61.345 13.1198 61.3732 13.1539C61.5926 13.3799 61.7075 14.2567 61.7601 15.0997L61.7599 14.9591C61.7549 15.0309 61.7482 15.1013 61.7397 15.1713C61.7215 15.3206 61.6927 15.4657 61.6541 15.6042C61.4937 16.1797 61.1735 16.6164 60.7497 16.9906L60.8294 16.9259C60.8109 16.9393 60.7919 16.9529 60.773 16.9663C60.3056 17.2941 59.8619 17.7293 59.3388 18.3048C59.2707 18.3765 59.2081 18.4549 59.1709 18.5431C59.1337 18.6313 59.125 18.7224 59.1497 18.8062C59.1744 18.8901 59.231 18.962 59.31 19.016C59.389 19.07 59.4841 19.1021 59.5802 19.1255C60.4139 19.3006 61.2742 19.1394 61.9651 18.6518C61.9931 18.6319 62.0215 18.6114 62.0492 18.5909L62.1289 18.5262C62.8444 17.8927 63.3267 16.9594 63.514 16.0561C63.5625 15.8363 63.5979 15.6169 63.6242 15.4003C63.6366 15.2988 63.6463 15.1983 63.6539 15.0976L63.6537 14.957C63.5501 14.1176 63.7063 13.1534 62.8974 11.9578C62.7622 11.7833 62.5929 11.618 62.4008 11.4843C61.6854 11.0152 61.0305 10.4144 59.7696 10.1679C59.516 10.1313 59.2223 10.1265 58.917 10.1969C57.511 10.7069 57.1793 11.3586 56.5336 11.9517C56.2447 12.2526 55.9676 12.5563 55.7037 12.8344C55.5743 12.9705 55.4372 13.1111 55.3423 13.1935C55.321 13.2121 55.3019 13.2259 55.3107 13.2185C55.314 13.2159 55.3311 13.2021 55.3754 13.1784C55.3924 13.1693 55.4401 13.1446 55.5094 13.1226C55.5854 13.1036 55.6564 13.0656 55.9033 13.0845C56.1304 13.099 56.4414 13.2649 56.5839 13.4642C56.6595 13.5613 56.7048 13.6554 56.733 13.7327C56.7535 13.7893 56.7637 13.8309 56.7717 13.8703C56.7998 14.0308 56.7866 14.0647 56.7869 14.0929C56.7819 14.1448 56.783 14.125 56.7895 14.1047C56.7978 14.0733 56.8063 14.041 56.8147 14.0091C56.9653 13.3209 57.2663 12.7356 57.1133 11.5738C57.1103 11.5588 57.1072 11.5439 57.1038 11.5288C56.949 10.8847 56.7651 9.9439 55.9362 9.14898C55.8845 9.10126 55.8307 9.05531 55.7745 9.01115C55.2183 8.57166 54.4466 8.16881 53.5503 8.17754C53.449 8.17831 53.3476 8.18422 53.247 8.19519C51.965 8.34993 50.2037 8.62073 49.1635 10.223C49.0803 10.3561 49.0074 10.4926 48.943 10.6338C48.5999 11.4632 48.5453 12.0726 48.4425 12.7295C48.3981 13.0522 48.3615 13.3718 48.3268 13.6805C48.3096 13.8326 48.2922 13.9914 48.2749 14.1178C48.2712 14.1453 48.266 14.1775 48.2656 14.1806C48.2682 14.1752 48.2589 14.1925 48.2913 14.0957C48.308 14.0591 48.2861 14.0798 48.3768 13.9195C48.4247 13.8486 48.4878 13.7352 48.697 13.5981C48.8119 13.5314 48.9176 13.4697 49.1651 13.4468C49.3934 13.4288 49.6249 13.5061 49.7657 13.5973C50.0502 13.7897 50.093 13.9351 50.1389 14.014C50.1564 14.051 50.1651 14.0738 50.1734 14.0962C50.1891 14.1394 50.1961 14.1664 50.2011 14.1865C50.2264 14.3199 50.2019 14.1779 50.2005 14.1265C50.1989 14.1061 50.1971 14.081 50.1956 14.0569C50.1493 12.7949 50.0312 11.1917 49.19 9.81962C49.1634 9.77601 49.136 9.73257 49.1077 9.68934C48.4957 8.85953 48.0311 7.83556 46.4815 7.26905C46.3432 7.23113 46.1966 7.2047 46.0465 7.19369C45.2889 7.12102 44.3016 7.31091 43.6252 7.92616C43.5012 8.0346 43.3879 8.15121 43.2855 8.27215C42.5243 9.21662 42.2073 10.1627 41.8788 11.0844C41.7214 11.5461 41.5824 12.0055 41.4459 12.443C41.3782 12.6587 41.3084 12.8786 41.2435 13.0463C41.2253 13.1124 41.1369 13.2424 41.244 13.09C41.2671 13.0627 41.3009 13.0248 41.3602 12.9781C41.4268 12.9256 41.5696 12.8325 41.7739 12.8028C41.9916 12.7611 42.2803 12.8512 42.3991 12.9399C42.5133 13.0156 42.5751 13.0895 42.6141 13.1414C42.7172 13.2958 42.6876 13.2813 42.6896 13.271C42.6884 13.2672 42.6852 13.256 42.6814 13.2413C42.3856 11.4059 41.3191 9.06383 39.453 7.86669C39.413 7.83919 39.3725 7.81192 39.3315 7.78489C38.6764 7.396 38.0106 6.82722 36.7401 6.87764C36.6194 6.88938 36.4964 6.91124 36.3754 6.94393C35.6343 7.14022 34.8558 7.51153 34.2589 8.13738C34.1676 8.23265 34.0809 8.33278 33.9995 8.43703C33.5109 9.16875 33.4992 9.57504 33.3627 10.0607C33.2546 10.5316 33.1753 10.9849 33.1029 11.4365C33.0309 11.8876 32.9686 12.3368 32.9071 12.771C32.876 12.9879 32.8448 13.21 32.8121 13.3873C32.8052 13.426 32.7928 13.4755 32.7999 13.4488C32.8036 13.4373 32.8091 13.4156 32.8331 13.362C32.8485 13.3393 32.8698 13.2411 33.0489 13.0669C33.1596 12.9805 33.2496 12.8641 33.6291 12.8147C34.0124 12.7798 34.3203 13.0054 34.4236 13.1306C34.5417 13.265 34.5703 13.3512 34.5772 13.361C34.5898 13.388 34.5986 13.4099 34.6055 13.4284C34.6191 13.4652 34.6254 13.4886 34.6298 13.5054C34.6386 13.5412 34.6367 13.5366 34.6379 13.5418C34.6357 13.5325 34.6247 13.4182 34.6191 13.3152C34.6126 13.2023 34.6084 13.0323 34.601 12.8736C34.5518 11.4527 34.1339 9.60584 32.6114 8.55212C32.5308 8.49594 32.4499 8.4391 32.3686 8.38177C31.9131 8.06193 31.4556 7.72141 30.9271 7.39613C30.3754 7.11791 29.8617 6.60111 28.6131 6.81659C28.5434 6.83483 28.4733 6.85432 28.4038 6.8748C27.2254 7.25381 25.7692 7.84511 25.1852 9.55489C25.1794 9.57423 25.1737 9.59363 25.1681 9.61308C25.0016 10.2086 24.9206 10.7429 24.8431 11.2791C24.8056 11.5452 24.7726 11.8093 24.7407 12.0674C24.7248 12.1956 24.709 12.3241 24.6933 12.4385C24.6857 12.4942 24.6761 12.5546 24.6734 12.5684C24.6736 12.5689 24.6726 12.5689 24.6829 12.5333C24.6941 12.5026 24.6862 12.5019 24.7464 12.3771C24.7682 12.3357 24.7974 12.2817 24.8595 12.2045C24.891 12.166 24.9314 12.1214 24.9893 12.0721C25.0632 12.0175 25.0674 11.9891 25.2948 11.8935C25.4885 11.8159 25.7777 11.8073 25.9903 11.8883C26.2063 11.9659 26.3345 12.0854 26.4124 12.1719C26.5035 12.2802 26.4936 12.2784 26.5169 12.3123C26.5337 12.3396 26.5468 12.3636 26.5577 12.3851C26.6376 12.5551 26.6287 12.5811 26.6367 12.6025C26.6416 12.6248 26.6434 12.6369 26.6443 12.6428C26.6456 12.6517 26.6452 12.6506 26.6444 12.6439C26.6535 12.797 26.647 12.6838 26.6497 12.6668C26.6508 12.6289 26.6523 12.5862 26.6535 12.5422C26.6972 11.3095 26.4464 9.91372 25.6103 8.77413C25.5809 8.73383 25.5471 8.69064 25.5184 8.65585C24.3676 7.33138 22.4293 6.63396 20.6991 7.42911C20.6973 7.42993 20.6955 7.43074 20.6937 7.43156C20.1423 7.68646 19.5809 8.00309 19.0756 8.55335C18.8527 8.80203 18.6396 9.10765 18.5058 9.49695C18.4861 9.55457 18.4743 9.6156 18.4704 9.67835C18.459 9.98358 18.6469 10.18 18.8935 10.4009C19.0099 10.5064 19.1911 10.6153 19.2893 10.7125C19.2808 10.7995 19.2729 10.8865 19.2656 10.9738C19.2509 11.1479 19.2381 11.3222 19.2261 11.4973C19.2202 11.5846 19.2145 11.6714 19.2085 11.7592C19.2056 11.829 19.1869 12.0062 19.1909 11.8417C19.1909 11.8127 19.1909 11.7825 19.1909 11.7531C19.1909 11.6082 19.1909 11.4629 19.1909 11.3184C19.1909 11.3398 19.1909 11.3609 19.1909 11.3824C19.1909 11.7126 19.1909 12.0428 19.1909 12.3728Z" fill="white"/>
<path d="M59.3979 19.5396C59.3054 19.6347 59.2168 19.7259 59.1514 19.7931C59.0861 19.8604 59.0493 19.8981 59.0493 19.8981C59.0493 19.8981 59.0861 19.8604 59.1514 19.7931C59.2168 19.7259 59.3054 19.6347 59.3979 19.5396C59.4326 19.3446 59.5485 19.1223 59.6335 18.9178C59.6337 18.9186 59.6308 18.9259 59.6295 18.9298C59.5941 19.0271 59.5579 19.1242 59.5218 19.2209C59.519 19.2282 59.5166 19.2346 59.5145 19.2404C59.4935 19.2844 59.524 19.2595 59.5377 19.2319C59.554 19.2061 59.5696 19.1801 59.5853 19.154C59.6165 19.102 59.6477 19.0497 59.6793 18.9975C59.7418 18.894 59.806 18.7904 59.8726 18.6887C59.9059 18.638 59.9398 18.5876 59.9747 18.5378C59.992 18.5131 60.0099 18.4881 60.0277 18.4638C60.0482 18.4404 60.1697 18.4943 60.2365 18.5098C60.5365 18.6046 60.8112 18.6894 60.876 18.8255C60.9354 18.8762 60.9649 18.9118 60.9755 18.9116C61.0219 18.9109 61.227 18.8815 61.5672 18.9066C61.5247 18.9053 61.508 18.9005 61.5054 18.9006C61.5049 18.9005 61.5049 18.9006 61.5053 18.9009C61.6261 18.9303 62.1154 19.3129 62.446 19.6788C62.8033 20.0588 63.1428 20.4883 63.4615 20.9378C63.4717 20.9525 63.4809 20.9661 63.4899 20.9801C63.6333 21.2562 63.617 21.2082 63.5235 21.4983C63.5206 21.5052 63.5178 21.512 63.5149 21.5188C63.0246 22.7534 61.6187 23.4907 59.9669 23.7486C59.9721 23.7478 59.9773 23.747 59.9825 23.7463C60.129 23.7279 60.222 23.7706 60.2631 23.7991C60.3092 23.8341 60.3103 23.8378 60.379 23.9148C60.3801 23.9161 60.3812 23.9175 60.3824 23.9189C60.4225 23.9753 60.4813 24.0257 60.5439 24.2455C60.5707 24.3551 60.5996 24.5408 60.5218 24.7783C60.4468 25.018 60.2525 25.2146 60.1185 25.2939C59.8436 25.4508 59.7586 25.4238 59.6998 25.4384C59.6449 25.4438 59.6274 25.4442 59.6185 25.4474C59.5958 25.4584 59.6799 25.4928 59.7588 25.5208C59.7594 25.521 59.7599 25.5212 59.7604 25.5214C60.9474 25.9227 62.2449 26.625 62.9677 27.3466C62.9776 27.3575 62.9873 27.3685 62.9937 27.3762C63.3275 27.7739 63.6077 28.2332 63.8174 28.7179C63.8344 28.7573 63.8512 28.7972 63.8673 28.8367C63.9179 28.9287 63.9282 29.2492 63.8156 29.67C63.8006 29.7296 63.7841 29.7913 63.7664 29.8553C63.845 30.1939 62.272 30.7043 60.9228 30.8256C60.8488 30.8353 60.7737 30.8474 60.6992 30.86C60.6048 30.8796 60.53 30.8844 60.5519 30.8857C60.5606 30.8855 60.6054 30.8999 60.5851 30.8911C60.6047 30.8989 60.6233 30.908 60.6497 30.9281C60.6837 30.9572 60.7381 30.9989 60.8055 31.1454C60.8283 31.1979 60.8466 31.2571 60.8572 31.3203C60.8915 31.5165 60.8411 31.7495 60.6889 31.929C60.3691 32.2663 60.1864 32.2239 60.1251 32.2454C60.0551 32.2518 60.0445 32.2466 60.0431 32.2467C60.0453 32.2454 60.0967 32.2531 60.1519 32.2673C60.2665 32.2959 60.4128 32.3461 60.5594 32.4044C60.8563 32.5225 61.1656 32.6731 61.4722 32.8382C61.5483 32.8793 61.625 32.9216 61.7022 32.9652C63.1492 33.7531 63.7684 35.1064 63.7252 36.9341C63.7268 37.0439 63.7279 37.1565 63.7328 37.2853C63.8695 37.6139 62.9449 38.3408 61.875 38.7744C61.7734 38.82 61.6686 38.866 61.5631 38.9124C61.3324 39.0152 61.0705 39.0411 60.8177 38.9896C60.7594 38.9791 60.6737 38.9491 60.6845 38.9518C60.687 38.9531 60.685 38.9509 60.7209 38.9704C60.7315 38.9763 60.7451 38.9842 60.7644 38.9966C60.7898 39.0159 60.7842 38.9998 60.9018 39.1054C60.9538 39.1599 61.0373 39.2291 61.1279 39.4399C61.1495 39.4942 61.169 39.5534 61.1835 39.6345C61.2067 39.7619 61.2051 39.9286 61.1547 40.0884C61.0517 40.4227 60.8 40.6022 60.664 40.6677C60.3495 40.7987 60.3762 40.75 60.3235 40.7655C60.285 40.7691 60.2571 40.7696 60.2345 40.7696C60.0199 40.7569 60.1149 40.7572 60.1012 40.7591C60.1201 40.7638 60.1598 40.7747 60.2001 40.7869C60.2804 40.8112 60.3695 40.841 60.4579 40.8724C60.6343 40.9352 60.8129 41.006 60.9858 41.0812C61.3284 41.2303 61.6673 41.4061 61.8986 41.5735C61.9162 41.5862 61.9327 41.5986 61.9479 41.6104C62.5726 42.0763 62.867 42.9398 62.9743 43.9981C62.9815 44.0656 62.988 44.1334 62.994 44.2022C63.0099 44.0787 62.973 44.2988 62.8197 44.5032C62.6748 44.7175 62.4731 44.9579 62.2591 45.2038C62.1994 45.2724 62.1384 45.3419 62.0764 45.4124C61.8407 45.7219 61.1834 45.8618 60.538 45.7312C60.4893 45.7229 60.398 45.6951 60.4434 45.7097C60.4296 45.7052 60.4042 45.6903 60.4682 45.7229C60.4918 45.7383 60.5381 45.7518 60.6611 45.8661C60.6919 45.9074 60.8729 46.0317 60.9402 46.4191C60.9717 46.6107 60.9237 46.8707 60.8119 47.0476C60.6884 47.2371 60.6364 47.2625 60.5565 47.3276C60.2645 47.5203 60.1564 47.4896 60.1052 47.5052C59.9719 47.5166 59.9759 47.508 59.9644 47.5092C59.9506 47.5078 60.0189 47.5181 60.065 47.5279C60.1709 47.5491 60.2895 47.5769 60.4071 47.6063C60.6442 47.6659 60.8851 47.7339 61.1214 47.8064C61.5786 47.9466 62.1089 48.1334 62.364 48.2783C62.3783 48.2868 62.3919 48.2958 62.4056 48.3059C62.6603 48.4288 62.9829 49.3166 63.0788 50.2102C63.0798 50.2131 63.0806 50.2157 63.0813 50.2183C63.14 50.2376 62.9196 50.6265 62.4568 51.072C62.4502 51.0791 62.4435 51.086 62.4367 51.0929C61.9517 51.6043 61.0633 51.73 59.9617 51.7255C59.9701 51.7253 59.9783 51.7252 59.9864 51.7254C60.2672 51.7799 60.117 51.7435 60.1271 51.6971C60.1306 51.7032 60.1345 51.71 60.1386 51.7179C60.157 51.7626 60.1937 51.797 60.2208 52.0047C60.2301 52.0798 60.2313 52.2979 60.122 52.4995C60.0174 52.7061 59.8175 52.8535 59.6762 52.9085C59.4459 52.9963 59.3576 52.9719 59.3079 52.9742C59.2514 52.9703 59.2406 52.9671 59.2249 52.9647C59.1849 52.9569 59.2294 52.9709 59.2659 52.9895C59.3457 53.0276 59.4523 53.0858 59.5565 53.1478C59.7681 53.2735 59.9848 53.419 60.1949 53.5706C60.6147 53.8745 61.0233 54.211 61.3491 54.5416C61.3536 54.547 61.3574 54.5518 61.3628 54.5599C61.4263 54.597 61.4992 55.1072 61.4141 55.6589C61.4106 55.6905 61.4058 55.7225 61.3996 55.755C61.3277 56.1552 61.0498 56.6295 60.657 57.0404C60.6449 57.0531 60.6326 57.0655 60.62 57.0777C60.5863 57.1102 60.5505 57.1411 60.5121 57.1705C60.2697 57.3591 59.9072 57.4895 59.4829 57.5665L59.7186 57.552C59.7064 57.5512 59.6943 57.5504 59.6823 57.5494C59.3212 57.5195 58.9822 57.4813 58.7025 57.2669L58.7338 57.305C58.7298 57.3013 58.7258 57.2975 58.7219 57.2938C58.6063 57.1843 58.4654 57.0727 58.3189 56.8963C58.224 56.7841 58.0734 56.7086 57.9156 56.6782C57.7569 56.6483 57.604 56.666 57.4751 56.7356C57.3462 56.8053 57.2476 56.9235 57.1856 57.0726C57.1245 57.2212 57.1051 57.3885 57.1469 57.5294C57.21 57.744 57.2867 58.0213 57.441 58.2649C57.4461 58.2731 57.4513 58.2813 57.4566 58.2896L57.4879 58.3277C57.9603 58.9833 58.7495 59.4334 59.5252 59.4884C59.5505 59.4904 59.5759 59.4922 59.6013 59.4937L59.837 59.4792C60.441 59.3658 61.1045 59.1526 61.6951 58.6937C61.7863 58.6225 61.8747 58.5459 61.959 58.4645C61.9907 58.4339 62.0217 58.4028 62.0522 58.3709C62.5911 57.8007 63.1196 57.1119 63.3412 56.1743C63.3584 56.0988 63.3733 56.0222 63.3856 55.9445C63.4623 55.2926 63.6942 54.4649 63.0818 53.4273C63.003 53.3075 62.9098 53.1928 62.8062 53.0896C62.3229 52.6149 61.8188 52.2557 61.2904 51.9247C61.0254 51.7606 60.7568 51.6074 60.4645 51.4611C60.317 51.3879 60.1682 51.3173 59.9859 51.2465C59.8874 51.2099 59.7996 51.1739 59.6203 51.1348C59.5658 51.1244 59.5292 51.1164 59.4309 51.1094C59.347 51.1093 59.2184 51.0862 58.959 51.1863C58.7993 51.249 58.5859 51.4079 58.4734 51.6296C58.3559 51.8455 58.3553 52.0865 58.3663 52.1757C58.3973 52.4197 58.4472 52.4847 58.4824 52.5631C58.4901 52.5778 58.4977 52.5917 58.5052 52.605C58.7904 53.0274 59.0856 53.4387 59.935 53.5255C59.96 53.5262 59.9853 53.5261 60.0107 53.5254C61.0668 53.5033 62.601 53.452 63.7023 52.3353C63.7167 52.3206 63.731 52.3058 63.7451 52.2908C64.0767 51.8949 64.8677 51.3972 64.9137 50.1724C64.9131 50.1212 64.9105 50.0716 64.906 50.0208C64.7759 49.0579 64.913 47.796 63.6081 46.6774C63.5334 46.6221 63.4551 46.571 63.3737 46.5244C62.7041 46.1699 62.2125 46.0579 61.6619 45.9027C61.392 45.8316 61.1233 45.7671 60.8474 45.7074C60.7089 45.6777 60.5717 45.6493 60.417 45.6221C60.3377 45.609 60.2701 45.5952 60.1264 45.5821C60.0855 45.5807 60.0489 45.5698 59.89 45.5841C59.8293 45.6007 59.7099 45.5727 59.4136 45.7688C59.3325 45.8349 59.2797 45.8608 59.1552 46.052C59.0424 46.2305 58.9941 46.4922 59.0259 46.6856C59.0934 47.0765 59.2788 47.2066 59.3128 47.2508C59.443 47.3724 59.5066 47.397 59.5464 47.4212C59.664 47.4822 59.6968 47.4906 59.7528 47.5131C59.9612 47.5868 60.0358 47.5962 60.1572 47.6229C61.2139 47.8206 62.5672 47.7579 63.5323 46.6999C63.5949 46.6296 63.6583 46.5583 63.7224 46.4856C63.9528 46.2226 64.1933 45.9491 64.4318 45.6059C64.6491 45.257 64.9791 44.8514 64.9494 44.0406C64.9431 43.96 64.936 43.8796 64.928 43.7985C64.8185 42.5885 64.4403 41.0061 63.1731 40.0408C63.1379 40.0134 63.1025 39.9868 63.0667 39.9609C62.6099 39.6361 62.1804 39.4424 61.7452 39.2634C61.5275 39.1755 61.3099 39.0963 61.0872 39.0231C60.9748 38.9862 60.862 38.951 60.7402 38.9168C60.6758 38.8989 60.6185 38.8832 60.5318 38.8636C60.4669 38.8544 60.5086 38.8418 60.2415 38.827C60.2155 38.8269 60.1846 38.8276 60.1435 38.8313C60.0885 38.8472 60.1122 38.7985 59.7931 38.9314C59.6554 38.9979 59.4026 39.1785 59.2991 39.5141C59.2486 39.6746 59.2469 39.842 59.2703 39.9702C59.2849 40.0517 59.3045 40.1114 59.3263 40.1662C59.4177 40.3789 59.503 40.4504 59.5576 40.5075C59.6823 40.6195 59.6807 40.6057 59.7109 40.6283C59.7351 40.6438 59.7544 40.6551 59.7716 40.6647C59.8336 40.6986 59.8486 40.7043 59.8812 40.7194C60.108 40.8174 60.2537 40.8515 60.4275 40.8894C61.0618 41.0204 61.7414 40.9546 62.3406 40.6916C62.4458 40.6459 62.5548 40.5986 62.6639 40.5505C63.2416 40.2926 63.8546 40.0184 64.4673 39.5614C65.0542 39.1397 65.7842 38.2803 65.7333 37.2195C65.7312 37.1331 65.7313 37.028 65.731 36.9178C65.9023 34.9162 64.792 32.1945 62.7268 31.1744C62.6393 31.1237 62.5519 31.0741 62.4644 31.0256C62.1105 30.83 61.7501 30.6444 61.3504 30.4757C61.1494 30.3918 60.9426 30.312 60.6944 30.2426C60.5678 30.2085 60.4374 30.1756 60.2508 30.155C60.1566 30.1461 60.052 30.137 59.8883 30.1538C59.7358 30.186 59.4527 30.168 59.0713 30.5775C58.8056 30.8917 58.7096 31.311 58.7748 31.68C58.795 31.799 58.8302 31.9127 58.8765 32.0169C59.0134 32.3158 59.1849 32.4835 59.3505 32.6146C59.4755 32.7105 59.6027 32.7825 59.7364 32.84C59.8622 32.8958 60.0605 32.9581 60.2273 32.9818C60.5434 33.0275 60.7666 33.0118 60.9666 32.9954C61.0434 32.9891 61.1216 32.9818 61.1991 32.972C61.9387 32.8754 62.7085 32.7743 63.5345 32.515C64.3013 32.264 65.4777 31.7651 65.8649 30.4415C65.8863 30.3654 65.9077 30.2867 65.9285 30.2053C66.0634 29.6428 66.2399 28.8883 65.9021 28.0137C65.8797 27.9578 65.8563 27.9019 65.8325 27.8468C65.5393 27.1705 65.1548 26.5373 64.6753 25.965C64.6469 25.931 64.6152 25.8951 64.5878 25.8652C63.2734 24.5857 61.95 23.985 60.4618 23.4494C60.4608 23.449 60.4599 23.4487 60.4589 23.4484C60.3025 23.398 60.1496 23.3605 59.8822 23.339C59.8129 23.3347 59.7322 23.3303 59.6159 23.3381C59.496 23.3555 59.3475 23.3366 59.0195 23.5256C58.8591 23.621 58.643 23.8417 58.5581 24.1109C58.4704 24.3778 58.5009 24.5956 58.5349 24.7351C58.6129 25.0152 58.7057 25.1187 58.7846 25.2231C58.7867 25.2257 58.7889 25.2284 58.7911 25.231C59.1743 25.6434 59.545 25.9223 60.2778 25.8645C60.2904 25.8628 60.303 25.8609 60.3157 25.8589C62.2084 25.6055 64.6327 24.6495 65.5596 22.3801C65.5646 22.3683 65.5695 22.3565 65.5744 22.3447C65.9386 21.6432 65.7968 20.3833 65.3053 19.7738C65.2793 19.7352 65.2543 19.6997 65.2275 19.663C64.4062 18.6603 63.8971 17.6589 62.1336 16.8723C62.113 16.866 62.0932 16.8603 62.0711 16.8543C61.9542 16.8228 61.8207 16.7963 61.6612 16.7897C61.2432 16.7827 60.6464 16.7589 60.0098 17.1268C59.9066 17.1882 59.8273 17.2948 59.7846 17.4251C59.6597 17.7121 59.7772 17.9865 59.9285 18.2719C59.9577 18.3361 60.0435 18.4376 60.0277 18.4638C60.0099 18.4881 59.992 18.5131 59.9747 18.5378C59.9398 18.5876 59.9059 18.638 59.8726 18.6887C59.806 18.7904 59.7418 18.894 59.6793 18.9975C59.6477 19.0497 59.6165 19.102 59.5853 19.154C59.5696 19.1801 59.554 19.2061 59.5377 19.2319C59.524 19.2595 59.4935 19.2844 59.5145 19.2404C59.5166 19.2346 59.519 19.2282 59.5218 19.2209C59.5579 19.1242 59.5941 19.0271 59.6295 18.9298C59.6308 18.9259 59.6337 18.9186 59.6335 18.9178C59.5485 19.1223 59.4326 19.3446 59.3979 19.5396Z" fill="white"/>
</svg>
