<svg width="72" height="72" viewBox="0 0 72 72" fill="none" xmlns="http://www.w3.org/2000/svg">
<path d="M36.9907 8.04492C36.9907 7.34831 36.9907 6.65169 36.9907 5.95508C35.3299 5.95681 33.6891 6.06923 32.0587 6.23855C31.2371 6.32454 30.4243 6.4711 29.6086 6.58776C28.954 6.68142 28.2994 6.78387 27.6459 6.89572C25.3437 7.34108 23.2171 7.59044 20.7367 8.74867C17.3063 10.7901 14.1427 13.2462 11.5098 16.3335C11.3676 16.5025 11.2287 16.6731 11.092 16.8463C8.8869 19.6543 7.35654 22.9252 6.53991 26.3848C6.33507 27.2669 6.1808 28.1643 6.09246 29.0753C5.73957 32.4934 5.9918 36.0235 6.5222 39.3166C6.53157 39.3834 6.54075 39.4498 6.5494 39.5136C6.98126 42.6945 7.83914 45.817 9.12899 48.7643C10.504 51.8695 12.3196 54.8354 14.8943 57.2302C16.915 59.0702 19.0251 60.8365 21.466 62.2677C22.4815 62.8506 23.561 63.385 24.794 63.7032C27.2621 64.3112 29.7239 64.6649 32.2196 64.8828C35.5901 65.1629 39.0035 65.1675 42.4015 64.6391C43.9253 64.3975 45.4211 64.1426 46.9485 63.802C48.9664 63.3434 51.1322 62.7376 52.9822 61.4085C54.8011 60.0846 56.1255 58.5904 57.6378 57.2543C59.4147 55.6457 60.9699 53.7649 62.1865 51.6839C63.3508 49.7005 64.2057 47.5483 64.7792 45.3429C65.3121 43.4356 65.857 41.3152 66.0215 39.1973C66.179 37.3515 66.1091 35.4819 65.8198 33.6516C65.5403 31.8765 65.2054 30.1154 64.8028 28.3608C63.5543 23.2935 62.2091 18.172 58.8176 13.6861L58.7519 13.6135C58.065 12.9148 57.3275 12.1306 56.4897 11.4348C53.5102 8.95423 49.8992 7.78925 46.4162 6.86526C45.8076 6.70838 45.1998 6.56253 44.5761 6.4222C43.444 6.17152 42.3467 6.06294 41.2582 5.98639C39.8213 5.89002 38.4053 5.88083 36.9907 5.91016C36.9907 6.63672 36.9907 7.36328 36.9907 8.08984C38.3747 8.12088 39.7498 8.16065 41.1041 8.25166C42.1267 8.32244 43.1437 8.42812 44.0799 8.63523C44.6831 8.77002 45.269 8.90949 45.853 9.05876C49.2061 9.93189 52.5395 11.0505 55.0505 13.1568C55.774 13.7566 56.4266 14.4466 57.1571 15.1906L57.0914 15.118C59.9723 18.8797 61.448 23.9881 62.6214 28.8621C63.0126 30.5636 63.3454 32.275 63.6251 34.0019C63.8947 35.661 63.9656 37.3437 63.827 39.0139C63.6769 40.9502 63.2124 42.796 62.6599 44.7923C62.1345 46.8274 61.3576 48.785 60.3047 50.5819C59.204 52.4672 57.8009 54.1685 56.1749 55.6425C53.0784 58.6016 50.5573 61.062 46.4726 61.6849C45.0244 62.0093 43.5605 62.2639 42.0617 62.5063C38.9022 63.0095 35.6351 63.0274 32.3981 62.7614C30.0077 62.5571 27.6055 62.2103 25.3137 61.6459C24.3878 61.4104 23.4373 60.9566 22.5282 60.4318C20.3236 59.1423 18.278 57.446 16.3277 55.6667C14.0682 53.5724 12.3499 50.812 11.0717 47.9128C9.86568 45.1579 9.06016 42.2191 8.65895 39.2294C8.64987 39.1616 8.64032 39.0919 8.6307 39.0225C8.10856 35.7241 7.9033 32.5259 8.24451 29.2876C8.32572 28.4843 8.46701 27.678 8.65545 26.8806C9.40544 23.7459 10.8452 20.7433 12.8312 18.2193C12.9542 18.0634 13.0791 17.9098 13.2065 17.7577C15.6014 14.931 18.6011 12.5021 21.7988 10.5385C23.4193 9.74112 25.8491 9.26762 27.9892 8.87136C28.6217 8.75974 29.2567 8.65848 29.8919 8.5676C30.6837 8.45435 31.4827 8.40008 32.2761 8.31705C33.8507 8.15329 35.4313 8.04631 36.9907 8.04492Z" fill="#534294"/>
<path d="M26.1201 19.0597C25.9268 19.2413 25.8136 19.4923 25.8054 19.7574C25.7971 20.0224 25.8945 20.28 26.0762 20.4732C26.2578 20.6665 26.5087 20.7797 26.7738 20.7879C27.0389 20.7962 27.2964 20.6987 27.4897 20.5171C27.4897 20.5171 27.4897 20.5171 27.4897 20.5171C28.2361 19.8157 28.9813 19.1154 29.7283 18.4134C30.2249 17.9467 30.7221 17.4795 31.2176 17.0137C31.219 17.0124 31.2272 17.0047 31.2275 17.0045C31.2276 17.0044 31.2277 17.0043 31.2277 17.0042C31.2278 17.0042 31.2278 17.0042 31.2278 17.0042C31.2278 17.0042 31.2278 17.0042 31.2278 17.0042C31.2278 17.0042 31.2278 17.0042 31.2278 17.0042C31.2278 17.0042 31.2278 17.0042 31.2278 17.0042C31.2279 17.0041 31.2275 17.0045 31.2283 17.0037C31.2286 17.0035 31.2283 17.0038 31.2299 17.0022C31.2309 17.0012 31.2298 17.0024 31.2362 16.9962C32.0568 17.7465 29.0868 14.7482 29.8626 15.5426C29.8591 15.5459 29.8598 15.5453 29.8592 15.5458C29.8584 15.5466 29.8585 15.5464 29.8584 15.5465C29.8583 15.5466 29.8583 15.5467 29.8583 15.5467C29.8582 15.5467 29.8582 15.5467 29.8582 15.5467C29.8582 15.5468 29.8582 15.5468 29.8582 15.5468C29.8582 15.5468 29.8582 15.5468 29.8582 15.5468C29.8581 15.5468 29.8581 15.5468 29.8581 15.5468C29.8581 15.5468 29.8581 15.5468 29.8581 15.5468C29.858 15.5469 29.8577 15.5472 29.8572 15.5476C29.8562 15.5487 29.8546 15.5501 29.8545 15.5502C29.8537 15.551 29.8528 15.5518 29.8517 15.5528C29.8496 15.5548 29.8469 15.5573 29.8438 15.5603C29.8385 15.5653 29.8352 15.5683 29.83 15.5732C29.8185 15.584 29.8111 15.591 29.8009 15.6006C29.7794 15.6208 29.7628 15.6363 29.7423 15.6557C29.7046 15.6911 29.6647 15.7286 29.6266 15.7644C29.5492 15.8371 29.4712 15.9104 29.3945 15.9825C29.2395 16.1282 29.0851 16.2733 28.9304 16.4186C28.6215 16.7089 28.311 17.0007 28.003 17.2902C28.0029 17.2903 28.0028 17.2904 28.0026 17.2905C28.0025 17.2906 28.0025 17.2906 28.0019 17.2912C28.0017 17.2914 28.0015 17.2916 28.0006 17.2924C28.0001 17.2929 27.9998 17.2932 27.9974 17.2955C27.9955 17.2973 27.9963 17.2965 27.985 17.3075C27.9812 17.3113 27.9783 17.3139 27.9626 17.3303C27.9521 17.3423 27.9484 17.3423 27.8969 17.4069C27.8823 17.4262 27.8641 17.4483 27.8277 17.5086C27.8093 17.5404 27.7854 17.5801 27.7532 17.6628C27.7281 17.749 27.657 17.8694 27.7033 18.1961C27.7293 18.3557 27.8231 18.5798 27.9968 18.7424C28.1683 18.9076 28.3769 18.9821 28.5202 19.0051C28.8141 19.0449 28.9224 18.9886 29.0035 18.968C29.1515 18.915 29.1801 18.888 29.2152 18.8686C29.3771 18.758 29.3225 18.7883 29.3451 18.7726C29.3523 18.7662 29.355 18.7638 29.3573 18.7617C29.3807 18.7403 29.3677 18.7522 29.3711 18.7491C29.3722 18.748 29.3718 18.7484 29.3722 18.748C29.3726 18.7476 29.3747 18.7457 29.3748 18.7456C29.3754 18.745 29.3761 18.7443 29.3769 18.7436C29.3785 18.7421 29.3805 18.7403 29.3828 18.7381C30.4023 17.7907 31.4474 16.8333 32.5047 15.9768C32.5159 15.9678 32.527 15.9589 32.5381 15.95C33.3736 15.2844 34.2138 14.7197 35.1234 14.3894C35.1336 14.3856 35.1436 14.3818 35.1534 14.3782C35.7142 14.088 36.6143 14.4415 37.6248 14.7546C37.6325 14.7571 37.6403 14.7597 37.648 14.7622C40.2938 15.6613 42.9994 16.7943 45.2336 18.2929C45.2354 18.2942 45.2372 18.2954 45.239 18.2967C46.722 19.317 47.8572 20.6145 48.5992 22.2493C48.6 22.251 48.6008 22.2527 48.6016 22.2545C49.4016 23.9159 49.5036 25.5314 49.0393 27.45C49.0382 27.4552 49.0371 27.4604 49.036 27.4656C48.9163 28.236 48.1557 28.9918 47.3132 29.9685C47.3172 29.9639 47.321 29.9598 47.3244 29.9561C47.4266 29.8703 47.2183 30.0262 47.0365 30.0995C46.8443 30.1873 46.6166 30.2752 46.3825 30.3586C45.9138 30.5251 45.4105 30.6795 44.9047 30.8279C43.8875 31.1249 42.8462 31.402 41.7984 31.6755C41.7894 31.6778 41.7805 31.6801 41.7716 31.6824C39.7237 32.2888 37.9107 32.505 35.5734 33.9577L35.3417 34.2153C35.3351 34.2255 35.3286 34.2357 35.3223 34.2458C35.067 34.6921 35.0397 34.908 34.9632 35.1702C34.8995 35.4205 34.8532 35.6537 34.812 35.8851C34.7308 36.3461 34.6733 36.7934 34.6251 37.2383C34.6211 37.2762 34.617 37.3146 34.613 37.3533L34.6088 37.3949C34.6086 37.3978 34.6085 37.4007 34.6083 37.4036C34.5412 38.4445 34.5871 39.4676 34.6613 40.4839C34.6809 40.7436 34.8059 40.9883 35.0035 41.1645C35.2014 41.3407 35.4557 41.4338 35.7158 41.4233C35.9759 41.4128 36.2219 41.2993 36.4049 41.1078C36.5876 40.9162 36.6924 40.6621 36.6909 40.4017C36.6909 40.4017 36.6909 40.4017 36.6909 40.4017C36.6868 39.4519 36.7465 38.5041 36.8354 37.5831C36.8357 37.5805 36.8359 37.578 36.8362 37.5754L36.832 37.617C36.8369 37.5809 36.8418 37.5452 36.8466 37.51C36.9038 37.0976 36.9666 36.6878 37.0425 36.2994C37.0805 36.1058 37.122 35.9171 37.1678 35.7485C37.2045 35.5947 37.294 35.3884 37.2602 35.4623C37.2587 35.4647 37.257 35.4673 37.2552 35.4702L37.0236 35.7278C38.1729 35.0264 40.4805 34.4411 42.3511 33.9675C42.3598 33.9654 42.3685 33.9633 42.3772 33.9611C43.4332 33.7006 44.4894 33.4473 45.5605 33.1588C46.0952 33.0137 46.6338 32.8609 47.1873 32.6733C47.4658 32.5781 47.7484 32.4748 48.0473 32.3418C48.3578 32.1866 48.6479 32.1057 49.1315 31.6295C49.1451 31.6147 49.1588 31.5996 49.1724 31.5839C49.8944 30.6963 51.0828 29.6844 51.4292 27.9679C51.4311 27.9584 51.4331 27.9489 51.435 27.9393C51.9606 25.9084 51.81 23.2185 50.7494 21.2225C50.7483 21.2203 50.7473 21.2181 50.7462 21.216C49.8588 19.2876 48.3037 17.5482 46.5398 16.3894C46.5376 16.388 46.5355 16.3865 46.5333 16.3851C43.907 14.6851 41.1726 13.6016 38.3117 12.6737C38.3032 12.6711 38.2947 12.6685 38.2863 12.6659C37.7433 12.501 37.1941 12.351 36.5652 12.2528C35.9875 12.1369 34.9991 12.1861 34.416 12.473C34.4035 12.478 34.391 12.483 34.3787 12.488C33.2032 12.9521 32.1987 13.6836 31.2989 14.4001C31.2867 14.4098 31.2745 14.4196 31.2623 14.4294C30.1221 15.3536 29.0694 16.2998 28.0157 17.2783C28.0131 17.2807 28.011 17.2827 28.0092 17.2844C28.0083 17.2852 28.0075 17.2859 28.0068 17.2866C28.0067 17.2867 28.0042 17.289 28.0038 17.2894C28.0036 17.2896 28.0028 17.2903 28.0039 17.2893C28.0073 17.2862 27.9943 17.2981 28.0177 17.2767C28.02 17.2746 28.0227 17.2721 28.0299 17.2658C28.0525 17.25 27.9979 17.2804 28.1598 17.1697C28.1949 17.1504 28.2235 17.1234 28.3715 17.0704C28.4526 17.0498 28.5609 16.9935 28.8548 17.0333C28.9981 17.0563 29.2067 17.1308 29.3782 17.296C29.5519 17.4586 29.6457 17.6827 29.6717 17.8423C29.718 18.169 29.6469 18.2894 29.6218 18.3756C29.5896 18.4583 29.5657 18.4979 29.5473 18.5298C29.5109 18.5901 29.4927 18.6121 29.4781 18.6315C29.4266 18.6961 29.4229 18.6961 29.4124 18.708C29.3967 18.7244 29.3938 18.7271 29.39 18.7309C29.3787 18.7419 29.3795 18.741 29.3776 18.7429C29.3752 18.7452 29.3749 18.7455 29.3744 18.746C29.3735 18.7468 29.3733 18.7469 29.3731 18.7471C29.3725 18.7477 29.3726 18.7477 29.3725 18.7477C29.3724 18.7478 29.3725 18.7477 29.3726 18.7476C29.6806 18.4582 29.9912 18.1663 30.3 17.8761C30.4547 17.7307 30.6091 17.5856 30.7642 17.4399C30.8408 17.3678 30.9189 17.2945 30.9962 17.2218C31.0343 17.186 31.0742 17.1485 31.1119 17.1131C31.1325 17.0938 31.149 17.0782 31.1705 17.058C31.1807 17.0484 31.1882 17.0414 31.1996 17.0307C31.2049 17.0257 31.2081 17.0227 31.2134 17.0177C31.2166 17.0147 31.2192 17.0123 31.2213 17.0103C31.2224 17.0093 31.2233 17.0084 31.2241 17.0076C31.2242 17.0076 31.2258 17.0061 31.2269 17.0051C31.2273 17.0046 31.2276 17.0043 31.2277 17.0043C31.2278 17.0042 31.2278 17.0042 31.2278 17.0042C31.2278 17.0042 31.2278 17.0042 31.2278 17.0042C31.2278 17.0042 31.2278 17.0042 31.2278 17.0042C31.2278 17.0042 31.2278 17.0042 31.2277 17.0043C31.2277 17.0043 31.2277 17.0043 31.2277 17.0043C31.2276 17.0043 31.2276 17.0044 31.2275 17.0045C31.2274 17.0046 31.2275 17.0044 31.2267 17.0052C31.2262 17.0057 31.2268 17.0051 31.2233 17.0083C31.9991 17.8028 29.0291 14.8045 29.8497 15.5548C29.8561 15.5486 29.855 15.5498 29.856 15.5488C29.8577 15.5472 29.8573 15.5475 29.8576 15.5473C29.8584 15.5465 29.858 15.5469 29.8581 15.5468C29.8582 15.5468 29.8581 15.5468 29.8581 15.5468C29.8581 15.5468 29.8581 15.5468 29.8581 15.5468C29.8581 15.5468 29.8581 15.5468 29.8581 15.5468C29.8581 15.5468 29.8581 15.5468 29.8581 15.5468C29.8581 15.5469 29.858 15.5469 29.8578 15.5471C29.8576 15.5473 29.8494 15.555 29.848 15.5563C29.3524 16.022 28.8552 16.4893 28.3586 16.9559C27.6116 17.658 26.8665 18.3582 26.1201 19.0597Z" fill="#534294"/>
<path d="M36.8796 47.7759C36.8952 47.5112 36.8049 47.2511 36.6287 47.0528C36.4525 46.8546 36.2048 46.7345 35.9401 46.7189C35.6753 46.7034 35.4152 46.7936 35.217 46.9698C35.0187 47.146 34.8986 47.3937 34.8831 47.6585C34.8831 47.6585 34.8831 47.6585 34.8831 47.6585C34.872 47.8468 34.8609 48.0353 34.8498 48.2233C34.821 48.7136 34.7922 49.2037 34.7633 49.6939C34.763 49.6994 34.7628 49.7035 34.7625 49.7073C34.7625 49.7073 34.7625 49.7074 34.7625 49.7074C34.7625 49.7074 34.7625 49.7074 34.7625 49.7074C34.7625 49.7074 34.7625 49.7074 34.7625 49.7074C34.7625 49.7074 34.7625 49.7074 34.7625 49.7074C34.7625 49.7074 34.7625 49.7074 34.7625 49.7074C34.7625 49.7074 34.7625 49.7074 34.7625 49.7074C34.7625 49.7074 34.7625 49.7074 34.7625 49.7074C34.7625 49.7074 34.7625 49.7075 34.7625 49.7073C34.7625 49.7073 34.7625 49.7073 34.7626 49.7071C33.6534 49.6404 37.8683 49.8901 36.7591 49.8247C36.7591 49.8248 36.7591 49.8248 36.7591 49.8248C36.7591 49.8249 36.7591 49.8249 36.7591 49.8249C36.7591 49.8249 36.7591 49.8249 36.7591 49.8249C36.7591 49.8249 36.7591 49.8249 36.7591 49.8249C36.7591 49.8249 36.7591 49.8249 36.7591 49.8249C36.7591 49.8249 36.7591 49.8249 36.7591 49.8249C36.7591 49.8249 36.7591 49.8249 36.7591 49.8249C36.7591 49.8248 36.7591 49.8247 36.7591 49.8244C36.7591 49.8238 36.7592 49.8229 36.7592 49.8229C36.7592 49.8225 36.7593 49.822 36.7593 49.8214C36.7594 49.8202 36.7594 49.8188 36.7595 49.8171C36.7597 49.8141 36.7598 49.8124 36.76 49.8095C36.7603 49.8033 36.7606 49.7992 36.7609 49.7937C36.7616 49.7819 36.7621 49.773 36.7628 49.7617C36.764 49.7412 36.7653 49.7194 36.7665 49.6986C36.769 49.6563 36.7715 49.6139 36.774 49.572C36.7789 49.4874 36.7839 49.4033 36.7888 49.3188C36.7988 49.1501 36.8087 48.9817 36.8186 48.8128C36.8187 48.8111 36.8189 48.8084 36.8189 48.808C36.8189 48.808 36.8189 48.8079 36.8189 48.8082C36.8189 48.8083 36.8189 48.8085 36.8188 48.8092C36.8188 48.8096 36.8188 48.81 36.8187 48.8116C36.8186 48.8126 36.8186 48.8134 36.8183 48.8176C36.8181 48.8205 36.8181 48.8212 36.8169 48.8359C36.8113 48.8641 36.8314 48.7898 36.7907 48.992C36.7705 49.0414 36.7977 49.0659 36.6454 49.3147C36.5985 49.3798 36.5338 49.4727 36.3749 49.5815C36.2258 49.6887 35.9119 49.7964 35.6152 49.7278C35.3185 49.6636 35.1452 49.4984 35.057 49.3947C34.9661 49.2852 34.9316 49.2091 34.9055 49.1522C34.8213 48.9391 34.838 48.9136 34.8278 48.8689C34.8235 48.8321 34.8228 48.8144 34.8219 48.8C34.8198 48.7487 34.8208 48.7444 34.8208 48.7338C34.8237 48.6498 34.8218 48.7055 34.8222 48.6928C34.8222 48.6931 34.8222 48.694 34.8221 48.695C34.8221 48.6957 34.822 48.696 34.822 48.6966C34.822 48.6977 34.8219 48.6989 34.8218 48.7003C34.8216 48.7034 34.8215 48.7061 34.8214 48.708C34.8212 48.712 34.8209 48.7186 34.8207 48.7224C34.8203 48.7304 34.8198 48.7417 34.8195 48.7494C34.8187 48.7681 34.8182 48.7848 34.8176 48.8028C34.8166 48.8383 34.8159 48.8724 34.8155 48.9073C34.8147 48.977 34.8152 49.046 34.8166 49.1152C34.8195 49.2535 34.8262 49.3932 34.8361 49.5351C34.8592 49.8245 34.877 50.096 34.9585 50.4833C34.9589 50.4852 34.9594 50.4872 34.9598 50.4891C35.0275 50.7375 35.0953 51.1407 35.5731 51.5076C36.0791 51.8541 36.5207 51.7839 36.7022 51.7881C36.7055 51.7879 36.7089 51.7878 36.7123 51.7876C36.9109 51.7774 37.2776 51.7567 37.6608 51.5267C38.0451 51.2975 38.2768 50.9384 38.39 50.6681C38.3915 50.6647 38.3929 50.6614 38.3943 50.658C38.6149 50.1381 38.7415 49.5692 38.742 48.9815C38.7416 48.6874 38.7121 48.3904 38.6342 48.0782C38.5945 47.9214 38.5437 47.7618 38.4642 47.5869C38.3725 47.4071 38.3103 47.2286 37.9952 46.9422L37.6263 46.7371C37.6187 46.7346 37.6111 46.7322 37.6035 46.7298C36.8086 46.5022 36.2029 46.6494 35.6551 46.8115L35.6009 46.8279C35.5989 46.8286 35.5969 46.8294 35.5949 46.8301C35.5172 46.8595 35.4261 46.9062 35.3285 46.973C35.0033 47.1804 34.7857 47.5807 34.7097 47.8367C34.6772 47.9812 34.7085 48.1619 34.7709 48.3217C34.8348 48.4826 34.9247 48.6094 35.0466 48.6917C35.1685 48.7741 35.3197 48.8101 35.4928 48.8094C35.6644 48.8076 35.8437 48.7692 35.9656 48.6851C35.9656 48.6851 35.9656 48.6851 35.9656 48.6851C36.0976 48.6276 36.1595 48.7531 36.1808 48.8064C36.1942 48.8216 36.2182 48.8259 36.2566 48.8166C36.2576 48.8163 36.2586 48.8161 36.2596 48.8158L36.2054 48.8322C36.5299 48.7624 36.8647 48.785 36.9477 48.8208C36.9485 48.821 36.9492 48.8213 36.9499 48.8215L36.5811 48.6163C36.4283 48.4719 36.473 48.4841 36.4721 48.4989C36.4815 48.5188 36.4981 48.5638 36.5112 48.6152C36.5383 48.7198 36.5549 48.8519 36.5558 48.9864C36.558 49.2583 36.5009 49.5438 36.3886 49.8146C36.3879 49.8164 36.3872 49.8181 36.3865 49.8199C36.3715 49.8548 36.4084 49.7851 36.5095 49.7356C36.6109 49.6885 36.638 49.7251 36.5075 49.7471C36.5054 49.7475 36.5034 49.7479 36.5013 49.7483C36.3589 49.7839 36.4428 49.7359 36.6683 49.8913C36.8674 50.068 36.8092 50.1363 36.8026 50.0667C36.8026 50.0662 36.8025 50.0658 36.8024 50.0654C36.7766 49.9546 36.7713 49.7125 36.7809 49.4926C36.7852 49.3798 36.792 49.2637 36.799 49.1476C36.8026 49.0895 36.8061 49.0312 36.8096 48.9728C36.8113 48.9436 36.8129 48.9152 36.8145 48.8862C36.8154 48.8716 36.8161 48.8581 36.8169 48.8436C36.8173 48.8376 36.8177 48.8291 36.818 48.8233C36.8182 48.8205 36.8184 48.816 36.8186 48.8135C36.8187 48.8122 36.8188 48.8105 36.8188 48.8089C36.8189 48.8081 36.8189 48.8075 36.8189 48.8071C36.819 48.8068 36.819 48.8067 36.819 48.8064C36.819 48.8061 36.819 48.806 36.819 48.8058C36.8195 48.7929 36.8175 48.8485 36.8205 48.7645C36.8204 48.7538 36.8215 48.7495 36.8193 48.6983C36.8185 48.6838 36.8177 48.6661 36.8134 48.6294C36.8033 48.5847 36.82 48.5592 36.7358 48.346C36.7096 48.2891 36.6751 48.213 36.5843 48.1035C36.496 47.9999 36.3227 47.8346 36.0261 47.7705C35.7294 47.7018 35.4154 47.8096 35.2664 47.9168C35.1075 48.0256 35.0427 48.1184 34.9959 48.1836C34.8436 48.4323 34.8708 48.4568 34.8506 48.5063C34.8098 48.7085 34.83 48.6342 34.8244 48.6623C34.8232 48.677 34.8232 48.6777 34.823 48.6806C34.8227 48.6849 34.8227 48.6856 34.8226 48.6866C34.8225 48.6883 34.8225 48.6887 34.8224 48.6891C34.8224 48.6898 34.8224 48.69 34.8224 48.6902C34.8224 48.6905 34.8224 48.6905 34.8223 48.6906C34.8223 48.6909 34.8222 48.6937 34.8221 48.6954C34.8121 48.8642 34.8022 49.0326 34.7923 49.2014C34.7873 49.2858 34.7824 49.3699 34.7774 49.4546C34.7749 49.4965 34.7724 49.5389 34.77 49.5811C34.7687 49.602 34.7675 49.6237 34.7662 49.6442C34.7656 49.6555 34.7651 49.6644 34.7644 49.6762C34.764 49.6817 34.7638 49.6859 34.7634 49.6921C34.7633 49.6949 34.7632 49.6967 34.763 49.6996C34.7629 49.7013 34.7628 49.7028 34.7627 49.7039C34.7627 49.7045 34.7627 49.705 34.7626 49.7055C34.7626 49.7055 34.7626 49.7064 34.7626 49.7069C34.7625 49.7072 34.7625 49.7074 34.7625 49.7074C34.7625 49.7074 34.7625 49.7074 34.7625 49.7074C34.7625 49.7074 34.7625 49.7074 34.7625 49.7074C34.7625 49.7074 34.7625 49.7074 34.7625 49.7074C34.7625 49.7074 34.7625 49.7074 34.7625 49.7075C34.7625 49.7075 34.7625 49.7075 34.7625 49.7075C34.7625 49.7075 34.7625 49.7075 34.7625 49.7075C34.7625 49.7075 34.7625 49.7075 34.7625 49.7077C33.6533 49.6422 37.8682 49.892 36.7591 49.8252C36.7591 49.825 36.7591 49.825 36.7591 49.825C36.7591 49.8248 36.7591 49.8249 36.7591 49.8249C36.7591 49.8249 36.7591 49.8249 36.7591 49.8249C36.7591 49.8249 36.7591 49.8249 36.7591 49.8249C36.7591 49.8249 36.7591 49.8249 36.7591 49.8249C36.7591 49.8249 36.7591 49.8249 36.7591 49.8249C36.7591 49.8249 36.7591 49.8249 36.7591 49.8249C36.7591 49.8249 36.7591 49.8249 36.7591 49.8249C36.7591 49.8248 36.7591 49.8248 36.7591 49.8247C36.7593 49.821 36.7596 49.8168 36.7599 49.8114C36.7887 49.3212 36.8175 48.8311 36.8464 48.3408C36.8574 48.1527 36.8685 47.9642 36.8796 47.7759Z" fill="#534294"/>
</svg>
