<svg width="72" height="72" viewBox="0 0 72 72" fill="none" xmlns="http://www.w3.org/2000/svg">
<path d="M29.6168 47.3707C29.635 47.9008 29.6526 48.4092 29.6655 48.7841C29.6784 49.1589 29.6857 49.3695 29.6857 49.3695C29.6857 49.3695 29.6784 49.1589 29.6655 48.7841C29.6526 48.4092 29.635 47.9008 29.6168 47.3707C29.6341 47.8741 29.6515 48.3773 29.6688 48.8806C29.6846 49.3366 29.7003 49.7928 29.716 50.2481C29.7183 50.3164 29.7208 50.3864 29.7231 50.4537C29.7088 50.0405 29.6945 49.6246 29.6802 49.21C29.6769 49.1143 29.6736 49.0191 29.6703 48.9238C29.6635 48.726 29.6575 48.551 29.6518 48.3827C29.6483 48.2798 29.6455 48.1972 29.6428 48.1119C29.6398 48.0211 29.6439 48.1092 29.6457 48.1541C29.6474 48.1955 29.6491 48.2381 29.6512 48.2903C29.6652 48.6399 29.6797 49.0085 29.6941 49.3665C29.7231 50.0902 29.7525 50.8085 29.7832 51.5276C30.1975 52.9725 28.9669 54.3743 28.9706 55.9817C29 56.237 29.1347 56.4589 29.2347 56.5708C29.3209 56.6708 29.4021 56.7344 29.472 56.7825C29.5915 56.8631 29.6666 56.8954 29.7326 56.9249C29.8481 56.975 29.9292 57.0002 30.0019 57.0225C30.1406 57.0643 30.249 57.0888 30.3561 57.1102C30.565 57.1511 30.7519 57.1727 30.9362 57.1839C33.2408 57.2836 35.3944 57.2138 37.6001 57.224C37.7984 57.2241 37.9968 57.2253 38.1927 57.2282C38.7143 57.2381 39.1428 57.2468 39.6602 57.3163L40.5495 57.4089L40.8275 56.5645C40.8882 56.3806 40.9371 56.1969 40.9773 56.0251C41.3777 54.1125 41.3714 52.3893 41.3996 50.6265C41.402 50.3294 41.4016 50.0196 41.4051 49.7501L41.4029 49.6606C41.4018 49.6427 41.4004 49.6242 41.3989 49.6049C41.3874 49.3321 41.2789 48.9216 41.1704 48.6873C41.0577 48.4194 40.8401 48.2107 40.5688 48.1057C40.2974 48.0008 39.994 48.0084 39.7258 48.1266C39.4576 48.2448 39.2473 48.4637 39.1417 48.7348C39.0362 49.0058 39.0435 49.3072 39.1651 49.5711C39.2167 49.6907 39.2116 49.6603 39.224 49.7754C39.2246 49.784 39.2253 49.7932 39.226 49.8032L39.2238 49.7137C39.2197 50.0294 39.22 50.3134 39.2168 50.6079C39.1932 52.2943 39.1486 54.0461 38.8255 55.5171C38.7959 55.6411 38.7617 55.7644 38.7271 55.8674L39.8944 55.1156C39.3771 55.0416 38.7575 55.0186 38.2361 55.006C38.0276 55.001 37.8197 54.9977 37.6134 54.9953C35.4157 54.9623 33.1688 54.9818 31.0722 54.8901C30.9153 54.8807 30.759 54.8774 30.6254 54.8775C30.5593 54.8777 30.497 54.8777 30.4696 54.8834C30.4571 54.8871 30.4522 54.8899 30.4922 54.9115C30.516 54.9251 30.5518 54.9397 30.6365 54.9977C30.6861 55.0326 30.751 55.0826 30.8248 55.1685C30.91 55.2638 31.0337 55.465 31.0607 55.7004C30.8197 54.45 29.5025 52.9577 29.7832 51.5276C29.7525 50.8085 29.7231 50.0902 29.6941 49.3665C29.6797 49.0085 29.6652 48.6399 29.6512 48.2903C29.6491 48.2381 29.6474 48.1955 29.6457 48.1541C29.6439 48.1092 29.6398 48.0211 29.6428 48.1119C29.6455 48.1972 29.6483 48.2798 29.6518 48.3827C29.6575 48.551 29.6635 48.726 29.6703 48.9238C29.6736 49.0191 29.6769 49.1143 29.6802 49.21C29.6945 49.6246 29.7088 50.0405 29.7231 50.4537C29.7208 50.3864 29.7183 50.3164 29.716 50.2481C29.7003 49.7928 29.6846 49.3366 29.6688 48.8806C29.6515 48.3773 29.6341 47.8741 29.6168 47.3707Z" fill="white"/>
<path d="M29.6168 54.8843C29.6168 54.3539 29.6168 53.8452 29.6168 53.4701C29.6168 53.095 29.6168 52.8843 29.6168 52.8843C29.6168 52.8843 29.6168 53.095 29.6168 53.4701C29.6168 53.8452 29.6168 54.3539 29.6168 54.8843C29.6168 54.7648 29.6168 54.6455 29.6168 54.526C29.6168 54.3623 29.6168 54.1983 29.6168 54.0343C29.6168 54.0341 29.6168 54.0339 29.6168 54.0338C29.6168 54.1742 29.6168 54.3154 29.6168 54.4559C29.6168 54.4541 29.6168 54.4524 29.6168 54.4507C29.6167 53.7762 29.6168 53.1016 29.6199 52.4271C29.6207 52.2584 29.6216 52.0898 29.6229 51.9212C29.7078 51.7531 29.9238 51.5864 30.0468 51.4197C30.3194 51.0863 30.5038 50.755 30.5116 50.4227L30.5109 50.4434C30.5109 50.4429 30.5109 50.4424 30.5109 50.4419C30.5318 49.9784 30.4517 49.4818 30.2388 48.9652C30.1873 48.8403 30.128 48.7157 30.061 48.5901C30.0294 48.5324 29.9936 48.4766 29.9476 48.4341C29.9014 48.3915 29.8481 48.3656 29.7916 48.3616C29.735 48.3575 29.6786 48.3755 29.6268 48.411C29.5752 48.4465 29.5318 48.4966 29.4922 48.5492C29.408 48.6626 29.3309 48.7751 29.2608 48.8888C28.972 49.3553 28.7993 49.8406 28.7755 50.3624C28.7754 50.363 28.7754 50.3635 28.7754 50.364L28.7747 50.3848C28.7678 50.7263 28.9425 51.0696 29.2079 51.4108C29.3272 51.5813 29.5404 51.7519 29.6229 51.9212C29.6216 52.0898 29.6207 52.2584 29.6199 52.4271C29.6168 53.1016 29.6167 53.7762 29.6168 54.4507C29.6168 54.4524 29.6168 54.4541 29.6168 54.4559C29.6168 54.3154 29.6168 54.1742 29.6168 54.0338C29.6168 54.0339 29.6168 54.0341 29.6168 54.0343C29.6168 54.1983 29.6168 54.3623 29.6168 54.526C29.6168 54.6455 29.6168 54.7648 29.6168 54.8843Z" fill="white"/>
<path d="M29.6967 46.7312C29.6967 46.6017 29.6967 46.4776 29.6967 46.386C29.6967 46.2944 29.6967 46.243 29.6967 46.243C29.6967 46.243 29.6967 46.2944 29.6967 46.386C29.6967 46.4776 29.6967 46.6017 29.6967 46.7312C29.7115 46.2186 29.731 45.7047 29.7493 45.1916C29.7495 45.1865 29.7496 45.1813 29.7498 45.1762C29.7413 45.428 29.7327 45.6815 29.7242 45.9336C29.7239 45.9413 29.7237 45.9483 29.7235 45.9547C29.7221 45.9921 29.7209 46.0232 29.7177 46.052C29.7042 46.105 29.7017 46.0175 29.6973 45.9982C29.6894 45.9314 29.684 45.8719 29.6778 45.8033C29.6661 45.6735 29.6554 45.5465 29.6443 45.417C29.622 45.157 29.5993 44.9005 29.574 44.6419C29.5535 44.4323 29.5315 44.2226 29.5074 44.0133C29.4954 43.909 29.4828 43.8042 29.4695 43.6998C29.4756 43.5925 29.375 43.5007 29.5124 43.3747C29.847 42.899 30.1167 42.414 30.1404 41.8951C30.1471 41.703 30.1219 41.5216 30.0635 41.3552C29.1228 38.9324 27.7954 37.0551 26.5632 35.0492C26.4964 34.9432 26.4317 34.8386 26.3674 34.7326C25.5525 33.3902 24.9216 31.9843 24.5298 30.4937C24.5053 30.4024 24.4831 30.3102 24.4632 30.2172C24.0986 28.5166 24.5135 26.5888 25.1461 24.7393C25.1699 24.67 25.1957 24.6011 25.2236 24.5324C25.5805 23.6225 26.3232 22.8708 27.1298 21.742C27.1574 21.7014 27.1911 21.6565 27.2284 21.6111C27.9164 20.8145 29.2362 20.0155 30.3935 19.1741C30.4453 19.1371 30.4974 19.1012 30.5499 19.0664C32.2033 17.9457 34.4865 17.9257 36.8031 18.1374C36.8366 18.1403 36.873 18.1447 36.9101 18.1507C38.2184 18.4224 39.8692 19.7547 41.3807 20.8184C41.4171 20.8446 41.4532 20.8707 41.489 20.8967C42.9798 21.9853 44.4134 23.3194 45.1558 24.7703C45.1676 24.7946 45.1794 24.8189 45.191 24.8432C45.7707 26.056 46.2575 27.4443 46.3995 28.63C46.4004 28.6399 46.4013 28.65 46.4022 28.6603C46.4596 29.6361 46.2158 30.926 45.9895 32.116C45.9891 32.1178 45.9887 32.1197 45.9884 32.1215C45.5949 34.3926 44.1838 35.6516 42.1179 37.7225C42.0993 37.7458 42.0809 37.769 42.0625 37.7923C41.0208 39.0572 40.2816 40.6526 39.7846 42.1184C39.7313 42.2711 39.6798 42.4223 39.6284 42.576L39.5907 42.7188C39.5887 42.7296 39.5866 42.7403 39.5846 42.751C39.3921 43.6786 39.3575 44.8211 39.4124 45.6818L39.4148 45.5882C39.4147 45.5895 39.4147 45.5908 39.4146 45.5921C39.4111 45.6654 39.4328 45.843 39.4859 46.0134C39.5382 46.1844 39.6157 46.3327 39.6779 46.4638C39.7579 46.6053 39.9153 46.7277 40.0835 46.8095C40.2537 46.891 40.4208 46.925 40.5802 46.899C40.7395 46.873 40.8871 46.7875 41.0225 46.6561C41.156 46.525 41.2663 46.3589 41.2971 46.1993C41.3506 45.9909 41.5076 46.021 41.5332 45.7442C41.5334 45.7418 41.5336 45.7394 41.5338 45.7369L41.5362 45.6433C41.5117 44.6929 41.5595 44.0119 41.7305 43.1606C41.7323 43.1513 41.7341 43.142 41.736 43.1326L41.6982 43.2754C41.7478 43.1304 41.7972 42.9888 41.8479 42.847C42.3409 41.4504 42.9045 40.2534 43.7954 39.1669C43.8114 39.1467 43.8276 39.1265 43.844 39.1061C45.2704 37.7309 47.807 35.3719 48.1793 32.5501C48.1797 32.5477 48.1802 32.5454 48.1807 32.5431C48.4125 31.253 48.6681 30.0357 48.5941 28.4807C48.5925 28.4618 48.5909 28.443 48.5891 28.4243C48.3728 26.7088 47.8381 25.313 47.1753 23.8903C47.162 23.8627 47.1486 23.835 47.1351 23.8072C46.0552 21.7359 44.4638 20.3387 42.7982 19.0982C42.7585 19.0693 42.7184 19.0403 42.678 19.0114C41.0561 17.9366 39.7034 16.6449 37.2452 16.0443C37.162 16.0311 37.0741 16.02 36.9867 16.0125C34.6122 15.8099 31.7644 15.6733 29.3577 17.2674C29.2837 17.3164 29.2103 17.367 29.1373 17.4192C28.0009 18.2719 26.7805 18.9008 25.5676 20.2605C25.4954 20.3496 25.4224 20.4471 25.3534 20.5505C24.788 21.3851 23.8109 22.3962 23.2732 23.742C23.2312 23.8458 23.1918 23.9513 23.1551 24.0588C22.4836 26.0669 21.9228 28.3046 22.4125 30.6585C22.4401 30.7861 22.471 30.9134 22.5053 31.04C22.9533 32.7281 23.7041 34.3423 24.595 35.8063C24.6655 35.9226 24.7362 36.0372 24.8089 36.1531C26.0148 38.1076 27.3128 40.1308 28.0513 42.0623C28.0948 42.1862 28.1619 42.2957 28.2466 42.3976C28.4834 42.6933 28.8891 43.0404 29.3429 43.3986C29.5098 43.4815 29.4369 43.598 29.4695 43.6998C29.4828 43.8042 29.4954 43.909 29.5074 44.0133C29.5315 44.2226 29.5535 44.4323 29.574 44.6419C29.5993 44.9005 29.622 45.157 29.6443 45.417C29.6554 45.5465 29.6661 45.6735 29.6778 45.8033C29.684 45.8719 29.6894 45.9314 29.6973 45.9982C29.7017 46.0175 29.7042 46.105 29.7177 46.052C29.7209 46.0232 29.7221 45.9921 29.7235 45.9547C29.7237 45.9483 29.7239 45.9413 29.7242 45.9336C29.7327 45.6815 29.7413 45.428 29.7498 45.1762C29.7496 45.1813 29.7495 45.1865 29.7493 45.1916C29.731 45.7047 29.7115 46.2186 29.6967 46.7312Z" fill="white"/>
<path d="M30.0799 43C30.0799 43.1191 30.0799 43.2334 30.0799 43.3176C30.0799 43.4019 30.0799 43.4492 30.0799 43.4492C30.0799 43.4492 30.0799 43.4019 30.0799 43.3176C30.0799 43.2334 30.0799 43.1191 30.0799 43C30.0802 43.0814 30.0823 43.164 30.0843 43.2462C30.0964 43.6906 30.1134 44.135 30.1324 44.5793C30.1326 44.5848 30.1328 44.5903 30.1331 44.5958C30.1249 44.3279 30.1156 44.0495 30.1067 43.7765C30.1068 43.7802 30.107 43.7855 30.1072 43.7904C30.1139 44.0033 30.1186 44.2168 30.1214 44.4298C30.1217 44.4563 30.122 44.4831 30.1223 44.5097C30.1126 44.5365 30.1626 44.5627 30.0314 44.5902C29.8509 44.6445 29.6814 44.6975 29.5349 44.749C29.2418 44.8523 29.0401 44.9492 29.0234 45.043C29.0227 45.0467 29.0224 45.0503 29.0223 45.054C29.0153 45.3405 28.994 45.5771 28.9494 45.8756C28.9382 45.9531 28.9258 46.0354 28.9135 46.1213C28.8721 46.4095 28.947 46.7023 29.1215 46.9353C29.296 47.1683 29.556 47.3224 29.8441 47.3637C30.1323 47.4051 30.4251 47.3303 30.6581 47.1557C30.8911 46.9812 31.0452 46.7212 31.0865 46.4331C31.0975 46.3562 31.1096 46.2763 31.1219 46.1913C31.1728 45.8593 31.2101 45.46 31.2169 45.1089C31.217 45.1043 31.2169 45.0997 31.2164 45.095C31.2047 44.9764 31.0048 44.8598 30.7119 44.7499C30.5654 44.6949 30.3957 44.6413 30.2144 44.589C30.0829 44.5631 30.1324 44.5364 30.1223 44.5097C30.122 44.4831 30.1217 44.4563 30.1214 44.4298C30.1186 44.2168 30.1139 44.0033 30.1072 43.7904C30.107 43.7855 30.1068 43.7802 30.1067 43.7765C30.1156 44.0495 30.1249 44.3279 30.1331 44.5958C30.1328 44.5903 30.1326 44.5848 30.1324 44.5793C30.1134 44.135 30.0964 43.6906 30.0843 43.2462C30.0823 43.164 30.0802 43.0814 30.0799 43Z" fill="white"/>
<path d="M22.6627 44.5731C23.0814 44.2474 23.4829 43.9351 23.779 43.7048C24.0751 43.4746 24.2414 43.3452 24.2414 43.3452C24.2414 43.3452 24.0751 43.4746 23.779 43.7048C23.4829 43.9351 23.0814 44.2474 22.6627 44.5731C22.7184 44.5297 22.7742 44.4864 22.83 44.443C22.9336 44.3624 23.0369 44.2821 23.1407 44.2013C23.1409 44.2011 23.141 44.201 23.1411 44.201C23.0621 44.2624 22.9827 44.3242 22.9037 44.3856C22.9046 44.385 22.9054 44.3843 22.9063 44.3836C23.2134 44.1442 23.5194 43.9018 23.8239 43.6591C23.9 43.5984 23.9762 43.5376 24.0524 43.4765C24.1928 43.4963 24.3956 43.5932 24.5501 43.629C24.8717 43.7172 25.1379 43.734 25.2909 43.6106L25.3041 43.5997C25.3043 43.5994 25.3046 43.5992 25.3049 43.599C25.5136 43.423 25.7114 43.2096 25.8716 42.9765C25.9151 42.9134 25.9552 42.8498 25.992 42.7868C26.0828 42.6302 26.1396 42.4497 26.131 42.2662C26.1224 42.0828 26.0509 41.913 25.9267 41.7887C25.8024 41.6644 25.6326 41.5929 25.4492 41.5844C25.2657 41.5758 25.0852 41.6326 24.9286 41.7234C24.8655 41.7602 24.8057 41.7965 24.7485 41.8322C24.5405 41.9621 24.3532 42.0942 24.1665 42.2519C24.1663 42.2521 24.166 42.2523 24.1658 42.2525L24.1789 42.2416C24.0291 42.3642 23.9922 42.6259 24.0104 42.9582C24.0128 43.1164 24.0638 43.3352 24.0524 43.4765C23.9762 43.5376 23.9 43.5984 23.8239 43.6591C23.5194 43.9018 23.2134 44.1442 22.9063 44.3836C22.9054 44.3843 22.9046 44.385 22.9037 44.3856C22.9827 44.3242 23.0621 44.2624 23.1411 44.201C23.141 44.201 23.1409 44.2011 23.1407 44.2013C23.0369 44.2821 22.9336 44.3624 22.83 44.443C22.7742 44.4864 22.7184 44.5297 22.6627 44.5731Z" fill="white"/>
<path d="M18.1066 41.5357C18.5382 41.2274 18.9522 40.9317 19.2574 40.7137C19.5626 40.4957 19.734 40.3732 19.734 40.3732C19.734 40.3732 19.5626 40.4957 19.2574 40.7137C18.9522 40.9317 18.5382 41.2274 18.1066 41.5357C18.203 41.4668 18.2995 41.3979 18.396 41.3289C18.5473 41.2208 18.6987 41.1127 18.8502 41.0045C18.8505 41.0043 18.8506 41.0042 18.8507 41.0041C18.7279 41.0919 18.6043 41.1801 18.4814 41.2679C18.483 41.267 18.4845 41.266 18.486 41.265C19.2229 40.8068 19.9758 40.3719 20.7335 39.9484C20.9247 39.8454 21.108 39.7278 21.3084 39.6419C21.5815 39.6889 21.8482 39.7274 22.1033 39.7472C22.6117 39.7883 23.083 39.7475 23.4416 39.5732L23.5054 39.5393C23.5056 39.5392 23.5057 39.5391 23.5059 39.539C23.5781 39.4971 23.6429 39.4456 23.6974 39.3877C23.8106 39.2675 23.8759 39.124 23.9012 38.9674C23.9265 38.8058 23.948 38.6475 23.9411 38.5023C23.9338 38.3567 23.8955 38.2321 23.8172 38.1342C23.7389 38.0363 23.6257 37.9716 23.4852 37.9325C23.3451 37.8939 23.1859 37.8802 23.0228 37.8693C22.863 37.8608 22.7429 37.8653 22.6607 37.8793C22.6205 37.8865 22.5884 37.8969 22.5611 37.9127C22.5611 37.9127 22.561 37.9128 22.5609 37.9128L22.6248 37.8789C22.2066 38.0827 21.9072 38.4496 21.6497 38.8994C21.5218 39.1241 21.4068 39.3693 21.299 39.6246C21.1185 39.747 20.9216 39.8396 20.7335 39.9484C19.9758 40.3719 19.2229 40.8068 18.486 41.265C18.4845 41.266 18.483 41.267 18.4814 41.2679C18.6043 41.1801 18.7279 41.0919 18.8507 41.0041C18.8506 41.0042 18.8505 41.0043 18.8502 41.0045C18.6987 41.1127 18.5473 41.2208 18.396 41.3289C18.2995 41.3979 18.203 41.4668 18.1066 41.5357Z" fill="white"/>
<path d="M48.4807 34.5816C48.7029 34.5816 48.916 34.5816 49.0732 34.5816C49.2303 34.5816 49.3186 34.5816 49.3186 34.5816C49.3186 34.5816 49.2303 34.5816 49.0732 34.5816C48.916 34.5816 48.7029 34.5816 48.4807 34.5816C48.6216 34.6344 48.7433 34.7243 48.8723 34.803C49.7565 35.3746 50.6184 35.9833 51.4756 36.5951C51.4786 36.5972 51.4816 36.5994 51.4845 36.6015C50.9789 36.283 50.4847 35.9386 49.9878 35.6043C49.9865 35.6034 49.9805 35.5993 49.9802 35.5991C50.8465 36.187 51.7156 36.7767 52.5832 37.3655C52.708 37.4501 52.8322 37.5344 52.9569 37.619C52.5179 37.3212 52.097 37.0355 51.7866 36.8249C51.4763 36.6143 51.3019 36.496 51.3019 36.496C51.3019 36.496 51.4763 36.6143 51.7866 36.8249C52.097 37.0355 52.5179 37.3212 52.9569 37.619C52.8322 37.5344 52.708 37.4501 52.5832 37.3655C51.7156 36.7767 50.8465 36.187 49.9802 35.5991C49.9805 35.5993 49.9865 35.6034 49.9878 35.6043C50.4847 35.9386 50.9789 36.283 51.4845 36.6015C51.4816 36.5994 51.4786 36.5972 51.4756 36.5951C50.6184 35.9833 49.7565 35.3746 48.8723 34.803C48.7433 34.7243 48.6216 34.6344 48.4807 34.5816Z" fill="white"/>
<path d="M36.2511 16.2772C36.2697 15.7471 36.2875 15.2387 36.3007 14.8639C36.3138 14.489 36.3212 14.2784 36.3212 14.2784C36.3212 14.2784 36.3138 14.489 36.3007 14.8639C36.2875 15.2387 36.2697 15.7471 36.2511 16.2772C36.2577 16.0896 36.2643 15.902 36.2708 15.7144C36.2996 14.8939 36.3285 14.0725 36.3572 13.2533C36.3573 13.2501 36.3574 13.2481 36.3574 13.2474C36.3399 13.7474 36.3222 14.2507 36.3047 14.7509C36.3048 14.7464 36.305 14.742 36.3051 14.7375C36.3339 13.9168 36.3637 13.0952 36.3957 12.2742C36.2483 11.8571 36.8429 11.4695 37.1245 11.072C37.4399 10.676 37.6574 10.2757 37.6798 9.87435L37.6787 9.89147C37.6788 9.89032 37.6789 9.88916 37.679 9.88801C37.705 9.49924 37.7313 9.1397 37.7716 8.77543C37.7901 8.60659 37.8111 8.43654 37.8341 8.26335C37.8736 7.97587 37.8094 7.67989 37.6439 7.43822C37.4786 7.19657 37.2275 7.02938 36.9434 6.97297C36.6594 6.91657 36.3634 6.97511 36.1183 7.13525C35.8731 7.29537 35.7006 7.54435 35.6272 7.82509C35.5771 8.02056 35.5318 8.21956 35.4927 8.42198C35.4074 8.85915 35.3569 9.30794 35.3289 9.72859C35.3288 9.72985 35.3287 9.7311 35.3286 9.73236L35.3276 9.74948C35.3068 10.1656 35.4871 10.5894 35.7672 11.0136C36.0135 11.4369 36.575 11.8701 36.3957 12.2742C36.3637 13.0952 36.3339 13.9168 36.3051 14.7375C36.305 14.742 36.3048 14.7464 36.3047 14.7509C36.3222 14.2507 36.3399 13.7474 36.3574 13.2474C36.3574 13.2481 36.3573 13.2501 36.3572 13.2533C36.3285 14.0725 36.2996 14.8939 36.2708 15.7144C36.2643 15.902 36.2577 16.0896 36.2511 16.2772Z" fill="white"/>
<path d="M46.4024 24.0306C46.8317 23.719 47.2434 23.4202 47.547 23.1999C47.8505 22.9796 48.021 22.8558 48.021 22.8558C48.021 22.8558 47.8505 22.9796 47.547 23.1999C47.2434 23.4202 46.8317 23.719 46.4024 24.0306C46.5675 23.9108 46.7327 23.7909 46.8978 23.6711C47.8282 22.9958 48.7593 22.32 49.6898 21.6446C49.6919 21.6431 49.6976 21.6389 49.698 21.6386C49.1541 22.0334 48.6067 22.4307 48.0626 22.8256C48.0665 22.8228 48.0705 22.8199 48.0744 22.8171C48.7929 22.2962 49.5199 21.7853 50.2546 21.2865C50.3464 21.2243 50.4378 21.1626 50.5307 21.1002C50.5768 21.0693 50.6224 21.0388 50.669 21.0077C50.7219 20.9861 50.8059 21.0149 50.8749 21.017C51.16 21.0464 51.4371 21.0681 51.6993 21.0731C52.2152 21.0891 52.7175 21.0052 52.9847 20.8759L52.954 20.8898C52.9545 20.8896 52.9551 20.8893 52.9557 20.8891C53.0042 20.8679 53.0499 20.8485 53.0925 20.8311C53.2317 20.7747 53.3163 20.7454 53.4911 20.7009C53.7654 20.633 54.0079 20.4658 54.1636 20.2275C54.3192 19.9894 54.3756 19.7011 54.32 19.4244C54.2643 19.1478 54.1008 18.9037 53.8652 18.7443C53.6295 18.5848 53.3412 18.5244 53.062 18.5678C52.8364 18.6015 52.5259 18.6795 52.2862 18.7745C52.2107 18.8034 52.1403 18.8327 52.0725 18.8622C52.0717 18.8626 52.0709 18.8629 52.0701 18.8632L52.0394 18.8772C51.5141 19.1389 51.2651 19.5391 51.0313 20.0304C50.9195 20.275 50.8253 20.5395 50.7404 20.814C50.7153 20.8785 50.7092 20.9672 50.669 21.0077C50.6224 21.0388 50.5768 21.0693 50.5307 21.1002C50.4378 21.1626 50.3464 21.2243 50.2546 21.2865C49.5199 21.7853 48.7929 22.2962 48.0744 22.8171C48.0705 22.8199 48.0665 22.8228 48.0626 22.8256C48.6067 22.4307 49.1541 22.0334 49.698 21.6386C49.6976 21.6389 49.6919 21.6431 49.6898 21.6446C48.7593 22.32 47.8282 22.9958 46.8978 23.6711C46.7327 23.7909 46.5675 23.9108 46.4024 24.0306Z" fill="white"/>
<path d="M41.8369 37C42.199 37.3876 42.5463 37.7593 42.8024 38.0334C43.0584 38.3075 43.2023 38.4614 43.2023 38.4614C43.2023 38.4614 43.0584 38.3075 42.8024 38.0334C42.5463 37.7593 42.199 37.3876 41.8369 37C41.9761 37.149 42.1155 37.2982 42.2547 37.4472C43.0396 38.2873 43.825 39.128 44.61 39.9682C44.6117 39.97 44.6166 39.9752 44.6169 39.9756C44.1581 39.4845 43.6963 38.9903 43.2373 38.499C43.2407 38.5025 43.244 38.5061 43.2473 38.5096C43.8535 39.1578 44.4699 39.7978 45.0962 40.4272C45.1745 40.5058 45.2525 40.5838 45.3318 40.6627C45.3712 40.7019 45.4102 40.7405 45.45 40.7799C45.4978 40.8111 45.5858 40.7989 45.6539 40.8099C45.9393 40.8353 46.2155 40.8668 46.4739 40.9118C46.9834 40.9943 47.4606 41.1723 47.6982 41.3501L47.6707 41.3305C47.6712 41.3309 47.6717 41.3312 47.6723 41.3316C47.7159 41.3616 47.7571 41.3894 47.7955 41.4146C47.9214 41.4964 47.9989 41.5413 48.1621 41.6183C48.4184 41.7372 48.6247 41.9475 48.7321 42.211C48.8396 42.4744 48.8401 42.7682 48.7328 43.0292C48.6255 43.2902 48.4185 43.4987 48.1568 43.6103C47.8951 43.722 47.6006 43.7265 47.3348 43.6306C47.1197 43.5547 46.8297 43.419 46.6125 43.28C46.5439 43.2373 46.4803 43.1952 46.4194 43.1533C46.4187 43.1528 46.4179 43.1523 46.4172 43.1518L46.3897 43.1322C45.9238 42.7754 45.7556 42.335 45.6196 41.8083C45.5564 41.5469 45.5143 41.2692 45.4832 40.9836C45.4708 40.9154 45.4818 40.8273 45.45 40.7799C45.4102 40.7405 45.3712 40.7019 45.3318 40.6627C45.2525 40.5838 45.1745 40.5058 45.0962 40.4272C44.4699 39.7978 43.8535 39.1578 43.2473 38.5096C43.244 38.5061 43.2407 38.5025 43.2373 38.499C43.6963 38.9903 44.1581 39.4845 44.6169 39.9756C44.6166 39.9752 44.6117 39.97 44.61 39.9682C43.825 39.128 43.0396 38.2873 42.2547 37.4472C42.1155 37.2982 41.9761 37.149 41.8369 37Z" fill="white"/>
<path d="M25.3804 21.8724C25.0216 21.4818 24.6775 21.1071 24.4238 20.8308C24.1701 20.5546 24.0276 20.3994 24.0276 20.3994C24.0276 20.3994 24.1701 20.5546 24.4238 20.8308C24.6775 21.1071 25.0216 21.4818 25.3804 21.8724C25.173 21.6466 24.9657 21.4209 24.7583 21.195C23.3792 19.6934 22.0028 18.1946 20.6227 16.6919C20.6132 16.6815 20.6027 16.6701 20.5964 16.6633C21.3847 17.5216 22.1753 18.3824 22.9667 19.2442C22.9686 19.2462 22.9698 19.2476 22.9704 19.2483C22.3662 18.5902 21.761 17.9307 21.1562 17.2711C21.0804 17.1885 21.0051 17.1063 20.9293 17.0237C20.8539 16.9411 20.7688 16.8673 20.7828 16.7027C20.7649 16.4158 20.7381 16.1368 20.6939 15.8739C20.6064 15.3492 20.4466 14.8863 20.1495 14.5553C20.1463 14.5517 20.1431 14.5482 20.1399 14.5447C19.8003 14.1728 19.4605 13.8074 19.1186 13.4433C18.9086 13.2198 18.711 13.0096 18.4955 12.7792C18.3062 12.5789 18.047 12.4558 17.7703 12.441C17.4937 12.4261 17.2231 12.5201 17.0172 12.703C16.8112 12.8859 16.686 13.1435 16.6681 13.4199C16.6501 13.6964 16.7417 13.9684 16.9183 14.18C17.1073 14.4086 17.3188 14.6574 17.5195 14.8878C17.8529 15.271 18.1867 15.644 18.5278 16.0174C18.531 16.021 18.5342 16.0245 18.5375 16.028C18.8415 16.3548 19.289 16.5554 19.8042 16.6888C20.0623 16.756 20.338 16.807 20.6223 16.8499C20.7874 16.8502 20.8536 16.9414 20.9293 17.0237C21.0051 17.1063 21.0804 17.1885 21.1562 17.2711C21.761 17.9307 22.3662 18.5902 22.9704 19.2483C22.9698 19.2476 22.9686 19.2462 22.9667 19.2442C22.1753 18.3824 21.3847 17.5216 20.5964 16.6633C20.6027 16.6701 20.6132 16.6815 20.6227 16.6919C22.0028 18.1946 23.3792 19.6934 24.7583 21.195C24.9657 21.4209 25.173 21.6466 25.3804 21.8724Z" fill="white"/>
<path d="M44 32.724C44.5033 32.8914 44.986 33.0521 45.3419 33.1705C45.6978 33.2889 45.8977 33.3554 45.8977 33.3554C45.8977 33.3554 45.6978 33.2889 45.3419 33.1705C44.986 33.0521 44.5033 32.8914 44 32.724C44.2909 32.8208 44.5817 32.9175 44.8727 33.0143C46.8072 33.658 48.7381 34.3005 50.674 34.9446C50.6874 34.9491 50.702 34.954 50.7108 34.9569C49.6051 34.589 48.4961 34.22 47.3859 33.8506C47.3833 33.8497 47.3815 33.8491 47.3806 33.8488C48.2283 34.131 49.0775 34.4139 49.9265 34.6971C50.0328 34.7326 50.1386 34.7678 50.2449 34.8033C50.3509 34.8389 50.4611 34.8622 50.5287 35.0129C50.6837 35.255 50.8425 35.486 51.0087 35.6944C51.3399 36.1107 51.7043 36.4379 52.1246 36.5831C52.1291 36.5847 52.1337 36.5862 52.1382 36.5877C52.6156 36.748 53.09 36.9026 53.5656 37.0551C53.8577 37.1486 54.1325 37.2365 54.4328 37.3333C54.6955 37.4166 54.9819 37.3984 55.231 37.2771C55.48 37.1559 55.671 36.9424 55.7623 36.6825C55.8536 36.4227 55.8381 36.1366 55.7196 35.8862C55.6011 35.6358 55.389 35.4425 55.1319 35.3432C54.8557 35.235 54.5501 35.1201 54.2628 35.016C53.7854 34.8428 53.3124 34.6786 52.833 34.5176C52.8285 34.5161 52.8239 34.5146 52.8194 34.5131C52.3949 34.3749 51.9064 34.4167 51.3911 34.5501C51.1329 34.6166 50.867 34.7058 50.5977 34.8063C50.4531 34.8861 50.351 34.8386 50.2449 34.8033C50.1386 34.7678 50.0328 34.7326 49.9265 34.6971C49.0775 34.4139 48.2283 34.131 47.3806 33.8488C47.3815 33.8491 47.3833 33.8497 47.3859 33.8506C48.4961 34.22 49.6051 34.589 50.7108 34.9569C50.702 34.954 50.6874 34.9491 50.674 34.9446C48.7381 34.3005 46.8072 33.658 44.8727 33.0143C44.5817 32.9175 44.2909 32.8208 44 32.724Z" fill="white"/>
<path d="M25.7109 29C25.1861 29.0774 24.6829 29.1517 24.3118 29.2064C23.9407 29.2612 23.7323 29.2919 23.7323 29.2919C23.7323 29.2919 23.9407 29.2612 24.3118 29.2064C24.6829 29.1517 25.1861 29.0774 25.7109 29C25.425 29.0422 25.1391 29.0844 24.8533 29.1265C22.9883 29.4017 21.1275 29.6762 19.2609 29.9516C19.2484 29.9535 19.2342 29.9556 19.226 29.9568C20.2948 29.7991 21.3668 29.6409 22.4399 29.4826C22.442 29.4823 22.4433 29.4821 22.4441 29.482C21.6135 29.6046 20.7832 29.7273 19.9516 29.8504C19.8472 29.8659 19.744 29.8811 19.6397 29.8966C19.5871 29.8992 19.5384 29.9288 19.4817 29.9045C19.4227 29.8652 19.3639 29.8265 19.3052 29.7885C19.0703 29.6365 18.8373 29.4965 18.6075 29.3807C18.1496 29.1488 17.702 29.0138 17.2872 29.0712C17.2824 29.0719 17.2777 29.0726 17.2729 29.0733C16.7404 29.1528 16.2138 29.2316 15.6788 29.3137C15.3924 29.3577 15.0977 29.4038 14.809 29.4523C14.5049 29.503 14.2335 29.6724 14.0544 29.9232C13.8752 30.174 13.803 30.4857 13.8537 30.7897C13.9044 31.0937 14.0737 31.3651 14.3245 31.5443C14.5753 31.7234 14.887 31.7956 15.191 31.7449C15.4715 31.6978 15.7474 31.6547 16.0319 31.6109C16.5592 31.53 17.0851 31.4513 17.616 31.3721C17.6207 31.3714 17.6254 31.3706 17.6302 31.3699C18.0426 31.3039 18.4312 31.0447 18.8018 30.6898C18.9879 30.5122 19.1702 30.3107 19.3509 30.0971C19.3961 30.0437 19.4411 29.9896 19.4862 29.9348C19.5334 29.8951 19.5886 29.9093 19.6397 29.8966C19.744 29.8811 19.8472 29.8659 19.9516 29.8504C20.7832 29.7273 21.6135 29.6046 22.4441 29.482C22.4433 29.4821 22.442 29.4823 22.4399 29.4826C21.3668 29.6409 20.2948 29.7991 19.226 29.9568C19.2342 29.9556 19.2484 29.9535 19.2609 29.9516C21.1275 29.6762 22.9883 29.4017 24.8533 29.1265C25.1391 29.0844 25.425 29.0422 25.7109 29Z" fill="white"/>
<path d="M44.8038 37.1394C44.7146 37.2286 44.6291 37.3141 44.566 37.3772C44.5029 37.4403 44.4675 37.4757 44.4675 37.4757C44.4675 37.4757 44.5029 37.4403 44.566 37.3772C44.6291 37.3141 44.7146 37.2286 44.8038 37.1394C44.8301 37.3513 44.9805 37.5407 45.0834 37.7297C45.8945 39.0519 46.792 40.3169 47.6974 41.5747C47.6983 41.576 47.6992 41.5772 47.7001 41.5784C47.2603 40.8229 46.7557 40.0957 46.2765 39.3619C46.2759 39.3609 46.2804 39.3678 46.281 39.3687C47.1322 40.6532 47.9832 41.9374 48.8341 43.2216C48.9563 43.4059 49.078 43.5895 49.2001 43.7738C48.9071 43.3316 48.6261 42.9075 48.4189 42.5949C48.2117 42.2822 48.0953 42.1066 48.0953 42.1066C48.0953 42.1066 48.2117 42.2822 48.4189 42.5949C48.6261 42.9075 48.9071 43.3316 49.2001 43.7738C49.078 43.5895 48.9563 43.4059 48.8341 43.2216C47.9832 41.9374 47.1322 40.6532 46.281 39.3687C46.2804 39.3678 46.2759 39.3609 46.2765 39.3619C46.7557 40.0957 47.2603 40.8229 47.7001 41.5784C47.6992 41.5772 47.6983 41.576 47.6974 41.5747C46.792 40.3169 45.8945 39.0519 45.0834 37.7297C44.9805 37.5407 44.8301 37.3513 44.8038 37.1394Z" fill="white"/>
<path d="M43.6848 41.216C43.624 41.0943 43.5656 40.9777 43.5226 40.8917C43.4796 40.8057 43.4555 40.7574 43.4555 40.7574C43.4555 40.7574 43.4796 40.8057 43.5226 40.8917C43.5656 40.9777 43.624 41.0943 43.6848 41.216C43.7177 41.218 43.7775 41.3034 43.8226 41.3505C44.1529 41.7321 44.4705 42.1245 44.7874 42.5176C44.7832 42.5168 44.7726 42.5031 44.7663 42.4965C44.5905 42.2948 44.419 42.0894 44.2471 41.8854C44.2557 41.8956 44.2665 41.9085 44.2753 41.9189C44.5925 42.2966 44.9084 42.6726 45.225 43.0496C45.2712 43.1046 45.3172 43.1593 45.3633 43.2142C45.0222 42.8081 44.695 42.4186 44.4537 42.1314C44.2125 41.8442 44.077 41.6828 44.077 41.6828C44.077 41.6828 44.2125 41.8442 44.4537 42.1314C44.695 42.4186 45.0222 42.8081 45.3633 43.2142C45.3172 43.1593 45.2712 43.1046 45.225 43.0496C44.9084 42.6726 44.5925 42.2966 44.2753 41.9189C44.2665 41.9085 44.2557 41.8956 44.2471 41.8854C44.419 42.0894 44.5905 42.2948 44.7663 42.4965C44.7726 42.5031 44.7832 42.5168 44.7874 42.5176C44.4705 42.1245 44.1529 41.7321 43.8226 41.3505C43.7775 41.3034 43.7177 41.218 43.6848 41.216Z" fill="white"/>
</svg>
