<svg width="72" height="72" viewBox="0 0 72 72" fill="none" xmlns="http://www.w3.org/2000/svg">
<path d="M26.9921 53.7173C27.0104 54.2474 27.0279 54.7558 27.0408 55.1307C27.0538 55.5055 27.061 55.7161 27.061 55.7161C27.061 55.7161 27.0538 55.5055 27.0408 55.1307C27.0279 54.7558 27.0104 54.2474 26.9921 53.7173C27.0123 54.3026 27.0324 54.8874 27.0526 55.4725C27.0709 56.0027 27.0892 56.5331 27.1074 57.0623C27.1102 57.1417 27.113 57.2231 27.1157 57.3013C27.0991 56.821 27.0824 56.3375 27.0658 55.8556C27.062 55.7443 27.0582 55.6336 27.0544 55.5228C27.0464 55.2929 27.0394 55.0894 27.0328 54.8937C27.0287 54.7741 27.0255 54.6781 27.0224 54.579C27.0189 54.4734 27.0237 54.5758 27.0257 54.628C27.0277 54.6762 27.0297 54.7257 27.0322 54.7864C27.0484 55.1928 27.0653 55.6212 27.082 56.0374C27.1157 56.8788 27.1499 57.7138 27.1856 58.5497C27.6107 60.2283 26.3872 61.8652 26.4107 63.7048C26.4403 63.9618 26.5759 64.1853 26.6771 64.2986C26.7644 64.3997 26.8469 64.4644 26.9184 64.5135C27.0407 64.596 27.119 64.6297 27.1885 64.6606C27.3101 64.7129 27.3982 64.74 27.4778 64.7638C27.63 64.8085 27.7523 64.8351 27.8734 64.8581C28.1101 64.9024 28.3249 64.926 28.5369 64.9388C31.1992 65.0541 33.7103 64.9771 36.2738 64.9907C36.505 64.991 36.7365 64.9926 36.9652 64.9962C37.5716 65.0079 38.0852 65.0191 38.6867 65.1004L39.5756 65.1932L39.854 64.3486C39.9224 64.1413 39.9781 63.9327 40.0239 63.7368C40.4831 61.5493 40.48 59.5437 40.5123 57.5007C40.5152 57.1555 40.5148 56.7975 40.5189 56.4804L40.5167 56.3909C40.5154 56.3707 40.5139 56.35 40.5122 56.3285C40.4987 56.0241 40.3818 55.5827 40.2603 55.3196C40.147 55.052 39.9293 54.8434 39.6581 54.7384C39.3868 54.6334 39.0836 54.6409 38.8158 54.759C38.5479 54.877 38.3378 55.0958 38.2323 55.3669C38.1268 55.6379 38.134 55.9393 38.2551 56.2035C38.2551 56.2035 38.2551 56.2035 38.2551 56.2035C38.3196 56.3519 38.3229 56.3523 38.3373 56.499C38.3381 56.5098 38.3389 56.5212 38.3397 56.5335L38.3376 56.444C38.3329 56.8072 38.3332 57.1396 38.3296 57.4821C38.3017 59.4488 38.254 61.4829 37.8721 63.2289C37.8369 63.3769 37.796 63.5251 37.7535 63.6514L38.9209 62.8996C38.3195 62.814 37.6148 62.7883 37.0086 62.7739C36.7673 62.7683 36.5263 62.7646 36.2872 62.7621C33.7317 62.7256 31.1272 62.7523 28.673 62.645C28.4884 62.634 28.3041 62.6286 28.1427 62.6254C28.0625 62.6239 27.9864 62.6219 27.9455 62.6247C27.9261 62.6269 27.9142 62.6279 27.948 62.6472C27.9685 62.6594 28.0011 62.6726 28.0829 62.7288C28.1309 62.7626 28.1945 62.8115 28.2673 62.8962C28.3512 62.9902 28.4741 63.1897 28.5008 63.4236C28.24 61.9409 26.9157 60.2135 27.1856 58.5497C27.1499 57.7138 27.1157 56.8788 27.082 56.0374C27.0653 55.6212 27.0484 55.1928 27.0322 54.7864C27.0297 54.7257 27.0277 54.6762 27.0257 54.628C27.0237 54.5758 27.0189 54.4734 27.0224 54.579C27.0255 54.6781 27.0287 54.7741 27.0328 54.8937C27.0394 55.0894 27.0464 55.2929 27.0544 55.5228C27.0582 55.6336 27.062 55.7443 27.0658 55.8556C27.0824 56.3375 27.0991 56.821 27.1157 57.3013C27.113 57.2231 27.1102 57.1417 27.1074 57.0623C27.0892 56.5331 27.0709 56.0027 27.0526 55.4725C27.0324 54.8874 27.0123 54.3026 26.9921 53.7173Z" fill="white"/>
<path d="M26.9921 62.4519C26.9921 61.9215 26.9921 61.4128 26.9921 61.0377C26.9921 60.6626 26.9921 60.4519 26.9921 60.4519C26.9921 60.4519 26.9921 60.6626 26.9921 61.0377C26.9921 61.4128 26.9921 61.9215 26.9921 62.4519C26.9921 62.3131 26.9921 62.1744 26.9921 62.0354C26.9921 61.8451 26.9921 61.6544 26.9921 61.4638C26.9921 61.4635 26.9921 61.4634 26.9921 61.4633C26.9921 61.6264 26.9921 61.7906 26.9921 61.9539C26.9921 61.9519 26.9921 61.9499 26.9921 61.9478C26.9921 61.1638 26.9922 60.3796 26.9958 59.5954C26.9967 59.3994 26.9978 59.2033 26.9992 59.0073C27.0843 58.8118 27.3006 58.6177 27.4239 58.4236C27.6971 58.0354 27.8822 57.6492 27.8912 57.2622L27.8905 57.2829C27.8905 57.2823 27.8906 57.2818 27.8906 57.2812C27.9151 56.7376 27.8425 56.1612 27.6357 55.5647C27.5858 55.4204 27.528 55.2766 27.4624 55.1316C27.4346 55.0717 27.4006 55.0137 27.3542 54.9695C27.3077 54.9252 27.2523 54.8982 27.1935 54.894C27.1348 54.8898 27.0762 54.9086 27.0238 54.9457C26.9715 54.9829 26.9296 55.0354 26.8935 55.0907C26.8935 55.0907 26.8935 55.0907 26.8935 55.0907C26.8079 55.2235 26.7294 55.3552 26.6577 55.4883C26.3628 56.0347 26.1826 56.5998 26.1551 57.2017C26.1551 57.2023 26.155 57.2029 26.155 57.2035L26.1543 57.2243C26.1462 57.6206 26.3201 58.0187 26.5849 58.4146C26.704 58.6126 26.9169 58.8106 26.9992 59.0073C26.9978 59.2033 26.9967 59.3994 26.9958 59.5954C26.9922 60.3796 26.9921 61.1638 26.9921 61.9478C26.9921 61.9499 26.9921 61.9519 26.9921 61.9539C26.9921 61.7906 26.9921 61.6264 26.9921 61.4633C26.9921 61.4634 26.9921 61.4635 26.9921 61.4638C26.9921 61.6544 26.9921 61.8451 26.9921 62.0354C26.9921 62.1744 26.9921 62.3131 26.9921 62.4519Z" fill="white"/>
<path d="M27.085 52.974C27.085 52.8445 27.085 52.7203 27.085 52.6287C27.085 52.5371 27.085 52.4857 27.085 52.4857C27.085 52.4857 27.085 52.5371 27.085 52.6287C27.085 52.7203 27.085 52.8445 27.085 52.974C27.085 52.974 27.085 52.974 27.085 52.974C27.1022 52.378 27.1249 51.7806 27.1462 51.1842C27.1464 51.1782 27.1466 51.1722 27.1468 51.1662C27.1369 51.459 27.1269 51.7536 27.117 52.0467C27.1167 52.0557 27.1164 52.0638 27.1161 52.0712C27.1145 52.1147 27.1132 52.1508 27.1094 52.1843C27.0938 52.2459 27.0908 52.1443 27.0858 52.1218C27.0766 52.0441 27.0703 51.9749 27.063 51.8952C27.0494 51.7444 27.0371 51.5967 27.0241 51.4461C26.9982 51.1439 26.9718 50.8456 26.9424 50.5451C26.9229 50.0535 26.7464 49.5842 26.8571 49.0738C27.1819 48.5304 27.4405 47.9778 27.447 47.3928C27.4473 47.1767 27.4147 46.9717 27.3479 46.7817C26.2708 44.0051 24.7301 41.8108 23.2998 39.4831C23.2216 39.3592 23.1459 39.2367 23.0707 39.1126C22.1172 37.5422 21.3741 35.891 20.914 34.1421C20.8847 34.0331 20.8582 33.9231 20.8345 33.8121C20.4004 31.782 20.8946 29.5158 21.6332 27.3529C21.6619 27.2692 21.693 27.1861 21.7266 27.1034C22.1561 26.0103 23.0386 25.1153 23.9567 23.8269C23.9921 23.7746 24.0345 23.7182 24.0806 23.6619C24.9231 22.6901 26.4493 21.775 27.793 20.796C27.8549 20.7517 27.9173 20.7088 27.98 20.6672C29.9633 19.3258 32.6634 19.3154 35.3612 19.5607C35.4045 19.5644 35.4511 19.5702 35.4979 19.5776C37.1123 19.9202 39.0071 21.4658 40.7732 22.7032C40.8158 22.7339 40.8581 22.7645 40.9 22.795C42.6473 24.0728 44.3267 25.6288 45.2171 27.366C45.231 27.3945 45.2448 27.423 45.2585 27.4515C45.9391 28.8784 46.509 30.493 46.6801 31.9144C46.6812 31.9266 46.6823 31.939 46.6834 31.9518C46.7514 33.1331 46.4671 34.6268 46.2035 36.0183C46.2031 36.0205 46.2027 36.0226 46.2022 36.0248C45.7465 38.7097 44.0147 40.2628 41.665 42.6137C41.6436 42.6405 41.6223 42.6672 41.6011 42.694C40.4024 44.1501 39.5574 45.9723 38.9799 47.6707C38.9182 47.8473 38.8585 48.0223 38.7989 48.2003L38.7612 48.3431C38.7588 48.3555 38.7565 48.3679 38.7542 48.3802C38.5321 49.4523 38.4908 50.7429 38.5521 51.7508L38.5546 51.6572C38.5545 51.6588 38.5544 51.6604 38.5543 51.6621C38.5495 51.7533 38.5693 51.9489 38.6227 52.1373C38.6752 52.3263 38.7547 52.4927 38.8198 52.6416C38.8956 52.7913 39.0494 52.9217 39.2186 53.0087C39.3895 53.0954 39.5619 53.1316 39.7266 53.1047C39.8914 53.0778 40.0433 52.9886 40.1777 52.852C40.3104 52.7157 40.4148 52.5431 40.439 52.3771C40.439 52.3771 40.439 52.3771 40.439 52.3771C40.4861 52.1331 40.6436 52.1268 40.6729 51.8141C40.6731 51.8114 40.6733 51.8087 40.6735 51.806L40.676 51.7124C40.645 50.6148 40.6995 49.7856 40.9 48.7897C40.9021 48.7788 40.9043 48.7679 40.9064 48.7569L40.8687 48.8996C40.9265 48.7304 40.9841 48.565 41.0432 48.3993C41.6167 46.7701 42.2861 45.3463 43.334 44.0687C43.3529 44.045 43.3719 44.0212 43.3911 43.9973C45.1013 42.342 47.9586 39.6891 48.3931 36.4534C48.3937 36.4507 48.3942 36.448 48.3947 36.4454C48.6638 34.9538 48.96 33.5328 48.8752 31.7722C48.8735 31.7509 48.8716 31.7298 48.8697 31.7087C48.6243 29.7575 48.0066 28.1355 47.2428 26.4986C47.2275 26.4667 47.2121 26.4348 47.1965 26.4028C45.9685 24.0454 44.1313 22.4263 42.2092 20.9965C42.1634 20.9631 42.1171 20.9297 42.0705 20.8963C40.194 19.6476 38.5972 18.1427 35.833 17.4713C35.74 17.4565 35.642 17.4442 35.5448 17.4358C32.7891 17.1995 29.5244 17.0535 26.7878 18.8682C26.7036 18.924 26.6199 18.9816 26.5368 19.0411C25.2141 20.0314 23.7873 20.7764 22.4199 22.3113C22.3388 22.4113 22.2571 22.5204 22.1803 22.6355C21.5034 23.6296 20.3866 24.7839 19.7762 26.313C19.7285 26.4308 19.6838 26.5505 19.6422 26.6724C18.8647 28.9939 18.2246 31.57 18.7837 34.2534C18.8152 34.399 18.8504 34.544 18.8895 34.6884C19.4057 36.6348 20.2688 38.4943 21.2983 40.1864C21.3798 40.3207 21.4615 40.4532 21.5455 40.5871C22.9495 42.8634 24.4609 45.2035 25.3358 47.4889C25.3876 47.6363 25.4621 47.7694 25.5532 47.8952C25.8073 48.2571 26.2241 48.6718 26.6875 49.0977C26.9347 49.5576 26.8664 50.0615 26.9424 50.5451C26.9718 50.8456 26.9982 51.1439 27.0241 51.4461C27.0371 51.5967 27.0494 51.7444 27.063 51.8952C27.0703 51.9749 27.0766 52.0441 27.0858 52.1218C27.0908 52.1443 27.0938 52.2459 27.1094 52.1843C27.1132 52.1508 27.1145 52.1147 27.1161 52.0712C27.1164 52.0638 27.1167 52.0557 27.117 52.0467C27.1269 51.7536 27.1369 51.459 27.1468 51.1662C27.1466 51.1722 27.1464 51.1782 27.1462 51.1842C27.1249 51.7806 27.1022 52.378 27.085 52.974Z" fill="white"/>
<path d="M27.5305 48.6364C27.5305 48.7555 27.5305 48.8698 27.5305 48.954C27.5305 49.0383 27.5305 49.0856 27.5305 49.0856C27.5305 49.0856 27.5305 49.0383 27.5305 48.954C27.5305 48.8698 27.5305 48.7555 27.5305 48.6364C27.5308 48.7309 27.5333 48.827 27.5357 48.9226C27.5497 49.4392 27.5695 49.9558 27.5915 50.4723C27.5918 50.4787 27.5921 50.4851 27.5923 50.4915C27.5829 50.1801 27.572 49.8564 27.5617 49.5391C27.5618 49.5433 27.562 49.5496 27.5622 49.5552C27.57 49.8027 27.5755 50.0509 27.5787 50.2985C27.5791 50.3293 27.5794 50.3604 27.5797 50.3913C27.5701 50.4225 27.6202 50.453 27.489 50.4849C27.3085 50.5478 27.1391 50.6095 26.9926 50.6696C26.6994 50.7902 26.4976 50.9046 26.4805 51.0156C26.4798 51.02 26.4794 51.0243 26.4793 51.0286C26.4713 51.367 26.4452 51.6552 26.3928 52.0049C26.3797 52.0956 26.3653 52.1911 26.3511 52.2903C26.3097 52.5784 26.3846 52.8712 26.5591 53.1042C26.7336 53.3372 26.9936 53.4913 27.2817 53.5327C27.5699 53.574 27.8627 53.4992 28.0957 53.3247C28.3287 53.1501 28.4828 52.8902 28.5242 52.602C28.5242 52.602 28.5242 52.602 28.5242 52.602C28.5371 52.5119 28.5511 52.4188 28.5653 52.3206C28.624 51.9374 28.6661 51.4865 28.674 51.0836C28.6741 51.0783 28.6739 51.073 28.6735 51.0676C28.6622 50.9317 28.4625 50.7978 28.1696 50.6705C28.0231 50.6069 27.8533 50.5446 27.672 50.4837C27.5404 50.4534 27.5899 50.4224 27.5797 50.3913C27.5794 50.3604 27.5791 50.3293 27.5787 50.2985C27.5755 50.0509 27.57 49.8027 27.5622 49.5552C27.562 49.5496 27.5618 49.5433 27.5617 49.5391C27.572 49.8564 27.5829 50.1801 27.5923 50.4915C27.5921 50.4851 27.5918 50.4787 27.5915 50.4723C27.5695 49.9558 27.5497 49.4392 27.5357 48.9226C27.5333 48.827 27.5308 48.7309 27.5305 48.6364Z" fill="white"/>
<path d="M18.908 50.4651C19.3267 50.1394 19.7282 49.8271 20.0243 49.5968C20.3203 49.3666 20.4867 49.2372 20.4867 49.2372C20.4867 49.2372 20.3203 49.3666 20.0243 49.5968C19.7282 49.8271 19.3267 50.1394 18.908 50.4651C18.908 50.4651 18.908 50.4651 18.908 50.4651C18.9728 50.4147 19.0376 50.3643 19.1024 50.3138C19.2229 50.2201 19.3429 50.1268 19.4637 50.0328C19.4639 50.0327 19.464 50.0326 19.4641 50.0325C19.3723 50.1039 19.2799 50.1758 19.1881 50.2472C19.1891 50.2464 19.1902 50.2456 19.1912 50.2448C19.5482 49.9664 19.9039 49.6847 20.2579 49.4026C20.3464 49.332 20.4349 49.2613 20.5235 49.1903C20.6762 49.2002 20.8913 49.2872 21.0582 49.3131C21.4045 49.3814 21.6954 49.3783 21.8729 49.2349L21.8861 49.224C21.8864 49.2237 21.8867 49.2235 21.887 49.2232C22.1278 49.0201 22.3569 48.7787 22.5471 48.5161C22.5988 48.4449 22.647 48.3732 22.6919 48.3021C22.7891 48.1473 22.849 47.9656 22.8415 47.78C22.8341 47.5944 22.7615 47.4218 22.6352 47.2954C22.5088 47.169 22.3361 47.0965 22.1506 47.0891C21.9649 47.0815 21.7833 47.1415 21.6285 47.2386C21.6285 47.2386 21.6285 47.2386 21.6285 47.2386C21.5573 47.2836 21.4894 47.328 21.4239 47.3718C21.1861 47.5311 20.9675 47.6913 20.7487 47.8761C20.7484 47.8764 20.7481 47.8766 20.7478 47.8768L20.761 47.866C20.5865 48.0085 20.525 48.2901 20.5185 48.6423C20.5086 48.8104 20.5472 49.0391 20.5235 49.1903C20.4349 49.2613 20.3464 49.332 20.2579 49.4026C19.9039 49.6847 19.5482 49.9664 19.1912 50.2448C19.1902 50.2456 19.1891 50.2464 19.1881 50.2472C19.2799 50.1758 19.3723 50.1039 19.4641 50.0325C19.464 50.0326 19.4639 50.0327 19.4637 50.0328C19.3429 50.1268 19.2229 50.2201 19.1024 50.3138C19.0376 50.3643 18.9728 50.4147 18.908 50.4651Z" fill="white"/>
<path d="M13.6114 46.9341C14.043 46.6258 14.457 46.3301 14.7622 46.1121C15.0674 45.8941 15.2389 45.7716 15.2389 45.7716C15.2389 45.7716 15.0674 45.8941 14.7622 46.1121C14.457 46.3301 14.043 46.6258 13.6114 46.9341C13.7235 46.854 13.8357 46.7739 13.9478 46.6938C14.1238 46.5681 14.2997 46.4424 14.4759 46.3166C14.4762 46.3164 14.4764 46.3162 14.4765 46.3161C14.3337 46.4181 14.19 46.5208 14.0472 46.6228C14.049 46.6217 14.0507 46.6206 14.0525 46.6195C14.9091 46.0868 15.7843 45.5812 16.6652 45.0888C16.8873 44.9686 17.1014 44.834 17.3328 44.7311C17.6369 44.7612 17.9346 44.7829 18.2208 44.7861C18.7914 44.794 19.3254 44.72 19.747 44.515L19.8108 44.4812C19.811 44.481 19.8112 44.4809 19.8114 44.4808C19.8917 44.4342 19.9643 44.3777 20.0265 44.3145C20.1556 44.1834 20.236 44.0278 20.2764 43.8592C20.3133 43.7008 20.3439 43.5428 20.3402 43.3934C20.3362 43.2437 20.2959 43.1121 20.2135 43.009C20.131 42.906 20.0115 42.8379 19.8663 42.8011C19.7214 42.7646 19.5605 42.7598 19.3979 42.7611C19.2231 42.7647 19.0879 42.7811 18.9898 42.8061C18.9419 42.8186 18.9019 42.834 18.8666 42.8545C18.8665 42.8545 18.8665 42.8546 18.8664 42.8546L18.9302 42.8208C18.4489 43.0553 18.0869 43.4553 17.7672 43.9382C17.6082 44.1796 17.4621 44.4416 17.3233 44.7139C17.1119 44.8532 16.8841 44.9628 16.6652 45.0888C15.7843 45.5812 14.9091 46.0868 14.0525 46.6195C14.0507 46.6206 14.049 46.6217 14.0472 46.6228C14.19 46.5208 14.3337 46.4181 14.4765 46.3161C14.4764 46.3162 14.4762 46.3164 14.4759 46.3166C14.2997 46.4424 14.1238 46.5681 13.9478 46.6938C13.8357 46.7739 13.7235 46.854 13.6114 46.9341Z" fill="white"/>
<path d="M48.9215 38.8499C49.1437 38.8499 49.3569 38.8499 49.514 38.8499C49.6711 38.8499 49.7594 38.8499 49.7594 38.8499C49.7594 38.8499 49.6711 38.8499 49.514 38.8499C49.3569 38.8499 49.1437 38.8499 48.9215 38.8499C49.0853 38.9113 49.2267 39.0158 49.3768 39.1073C50.4046 39.7718 51.4066 40.4794 52.4031 41.1906C52.4066 41.1931 52.41 41.1956 52.4135 41.1981C51.8257 40.8278 51.2512 40.4275 50.6736 40.0388C50.672 40.0378 50.665 40.033 50.6647 40.0328C51.6718 40.7162 52.6821 41.4018 53.6907 42.0862C53.8358 42.1846 53.9802 42.2826 54.1251 42.3809C53.6862 42.0831 53.2652 41.7975 52.9549 41.5869C52.6445 41.3763 52.4702 41.2579 52.4702 41.2579C52.4702 41.2579 52.6445 41.3763 52.9549 41.5869C53.2652 41.7975 53.6862 42.0831 54.1251 42.3809C53.9802 42.2826 53.8358 42.1846 53.6907 42.0862C52.6821 41.4018 51.6718 40.7162 50.6647 40.0328C50.665 40.033 50.672 40.0378 50.6736 40.0388C51.2512 40.4275 51.8257 40.8278 52.4135 41.1981C52.41 41.1956 52.4066 41.1931 52.4031 41.1906C51.4066 40.4794 50.4046 39.7718 49.3768 39.1073C49.2267 39.0158 49.0853 38.9113 48.9215 38.8499Z" fill="white"/>
<path d="M34.7045 17.5709C34.7231 17.0408 34.741 16.5324 34.7541 16.1576C34.7673 15.7827 34.7747 15.5721 34.7747 15.5721C34.7747 15.5721 34.7673 15.7827 34.7541 16.1576C34.741 16.5324 34.7231 17.0408 34.7045 17.5709C34.7122 17.3528 34.7198 17.1347 34.7275 16.9166C34.761 15.9628 34.7945 15.008 34.8279 14.0556C34.828 14.0518 34.8281 14.0495 34.8281 14.0487C34.8077 14.63 34.7872 15.215 34.7668 15.7966C34.767 15.7914 34.7671 15.7862 34.7673 15.781C34.8008 14.8269 34.8355 13.8718 34.8726 12.9174C34.7278 12.4335 35.3251 11.9793 35.6095 11.515C35.9279 11.0524 36.1484 10.5851 36.1742 10.1174L36.1732 10.1345C36.1733 10.1332 36.1734 10.1318 36.1735 10.1305C36.2039 9.67593 36.2365 9.25071 36.287 8.82131C36.3101 8.62231 36.3365 8.42227 36.3655 8.21913C36.4075 7.93093 36.3438 7.63388 36.1783 7.39133C36.0129 7.1488 35.7609 6.98095 35.4757 6.92431C35.1905 6.86767 34.8934 6.92648 34.6479 7.08741C34.4023 7.24832 34.2299 7.49849 34.1586 7.78087C34.1586 7.78087 34.1586 7.78087 34.1586 7.78087C34.1025 8.00629 34.0518 8.23528 34.008 8.46786C33.9126 8.97016 33.8558 9.48463 33.8234 9.97105C33.8233 9.9725 33.8232 9.97395 33.8231 9.9754L33.8221 9.99252C33.7978 10.4751 33.975 10.9659 34.2523 11.4567C34.4957 11.9466 35.0546 12.4466 34.8726 12.9174C34.8355 13.8718 34.8008 14.8269 34.7673 15.781C34.7671 15.7862 34.767 15.7914 34.7668 15.7966C34.7872 15.215 34.8077 14.63 34.8281 14.0487C34.8281 14.0495 34.828 14.0518 34.8279 14.0556C34.7945 15.008 34.761 15.9628 34.7275 16.9166C34.7198 17.1347 34.7122 17.3528 34.7045 17.5709Z" fill="white"/>
<path d="M46.5056 26.5843C46.9348 26.2727 47.3465 25.9739 47.6501 25.7536C47.9536 25.5333 48.1242 25.4095 48.1242 25.4095C48.1242 25.4095 47.9536 25.5333 47.6501 25.7536C47.3465 25.9739 46.9348 26.2727 46.5056 26.5843C46.6974 26.445 46.8895 26.3056 47.0814 26.1663C48.163 25.3813 49.2454 24.5957 50.3272 23.8105C50.3295 23.8088 50.3363 23.8039 50.3367 23.8036C49.7044 24.2625 49.0681 24.7244 48.4355 25.1835C48.4401 25.1802 48.4446 25.1769 48.4492 25.1736C49.2845 24.568 50.1296 23.974 50.9837 23.3943C51.0904 23.3219 51.1967 23.2502 51.3047 23.1777C51.3583 23.1417 51.4113 23.1063 51.4655 23.0701C51.5259 23.0435 51.6173 23.0674 51.6939 23.0645C52.009 23.0739 52.3163 23.0759 52.6089 23.0614C53.1857 23.0388 53.7491 22.9156 54.0806 22.7545L54.0499 22.7684C54.0506 22.7681 54.0513 22.7679 54.052 22.7676C54.11 22.7423 54.1651 22.7189 54.2172 22.6977C54.3872 22.629 54.504 22.591 54.7114 22.5401C54.9868 22.4737 55.2302 22.3066 55.3864 22.0681C55.5426 21.8296 55.5992 21.5405 55.5434 21.263C55.4876 20.9855 55.3236 20.7408 55.0873 20.5814C54.851 20.4218 54.5619 20.3618 54.2822 20.4071C54.2822 20.4071 54.2822 20.4071 54.2822 20.4071C54.0241 20.4471 53.6815 20.5338 53.411 20.6412C53.3259 20.6738 53.246 20.707 53.1688 20.7407C53.1679 20.7411 53.167 20.7415 53.1661 20.7419L53.1353 20.7558C52.5456 21.0493 52.2357 21.4888 51.9409 22.0187C51.7987 22.2828 51.6744 22.5671 51.5594 22.8615C51.5266 22.9311 51.5133 23.0246 51.4655 23.0701C51.4113 23.1063 51.3583 23.1417 51.3047 23.1777C51.1967 23.2502 51.0904 23.3219 50.9837 23.3943C50.1296 23.974 49.2845 24.568 48.4492 25.1736C48.4446 25.1769 48.4401 25.1802 48.4355 25.1835C49.0681 24.7244 49.7044 24.2625 50.3367 23.8036C50.3363 23.8039 50.3295 23.8088 50.3272 23.8105C49.2454 24.5957 48.163 25.3813 47.0814 26.1663C46.8895 26.3056 46.6974 26.445 46.5056 26.5843Z" fill="white"/>
<path d="M41.1981 41.6613C41.5602 42.0489 41.9075 42.4206 42.1636 42.6947C42.4196 42.9688 42.5635 43.1228 42.5635 43.1228C42.5635 43.1228 42.4196 42.9688 42.1636 42.6947C41.9075 42.4206 41.5602 42.0489 41.1981 41.6613C41.1981 41.6613 41.1981 41.6613 41.1981 41.6613C41.36 41.8346 41.522 42.008 41.6838 42.1812C42.5962 43.1578 43.5093 44.1351 44.4218 45.1119C44.4238 45.114 44.4295 45.1201 44.4298 45.1205C43.8964 44.5495 43.3597 43.975 42.8261 43.4039C42.83 43.408 42.8338 43.4121 42.8377 43.4162C43.5424 44.1697 44.259 44.9137 44.9871 45.6455C45.0781 45.7369 45.1687 45.8275 45.2609 45.9192C45.3068 45.9647 45.352 46.0096 45.3984 46.0554C45.4526 46.0931 45.5468 46.087 45.6215 46.1045C45.9327 46.1552 46.2347 46.2117 46.5192 46.2817C47.0811 46.4137 47.6108 46.6419 47.9056 46.8631L47.8781 46.8436C47.8787 46.844 47.8793 46.8444 47.8799 46.8448C47.932 46.8807 47.9817 46.9142 48.0289 46.9448C48.1827 47.0447 48.2901 47.1042 48.484 47.1936C48.7417 47.3112 48.9488 47.5217 49.0568 47.7856C49.1648 48.0494 49.1653 48.344 49.0577 48.6058C48.95 48.8676 48.7425 49.0766 48.4801 49.1881C48.2178 49.2998 47.9226 49.3037 47.6566 49.206C47.6566 49.206 47.6566 49.206 47.6566 49.206C47.4109 49.1176 47.091 48.9672 46.8458 48.8103C46.7686 48.7621 46.6964 48.7142 46.627 48.6665C46.6262 48.666 46.6254 48.6654 46.6246 48.6648L46.5971 48.6453C46.074 48.2449 45.8534 47.7544 45.6649 47.1781C45.5756 46.8918 45.5077 46.5891 45.4508 46.2781C45.4319 46.2036 45.4366 46.1092 45.3984 46.0554C45.352 46.0096 45.3068 45.9647 45.2609 45.9192C45.1687 45.8275 45.0781 45.7369 44.9871 45.6455C44.259 44.9137 43.5424 44.1697 42.8377 43.4162C42.8338 43.4121 42.83 43.408 42.8261 43.4039C43.3597 43.975 43.8964 44.5495 44.4298 45.1205C44.4295 45.1201 44.4238 45.114 44.4218 45.1119C43.5093 44.1351 42.5962 43.1578 41.6838 42.1812C41.522 42.008 41.36 41.8346 41.1981 41.6613Z" fill="white"/>
<path d="M22.0673 24.0754C21.7085 23.6847 21.3644 23.31 21.1107 23.0338C20.857 22.7575 20.7145 22.6023 20.7145 22.6023C20.7145 22.6023 20.857 22.7575 21.1107 23.0338C21.3644 23.31 21.7085 23.6847 22.0673 24.0754C22.0673 24.0754 22.0673 24.0754 22.0673 24.0754C21.8262 23.8129 21.5852 23.5505 21.3441 23.2879C19.7409 21.5422 18.1408 19.7999 16.5365 18.053C16.5254 18.0409 16.5132 18.0276 16.5059 18.0197C17.4222 19.0175 18.3413 20.0182 19.2613 21.02C19.2635 21.0224 19.265 21.024 19.2657 21.0248C18.5633 20.2598 17.8597 19.4931 17.1566 18.7263C17.0685 18.6303 16.9809 18.5347 16.8929 18.4386C16.8052 18.3427 16.7078 18.2555 16.7096 18.0775C16.6671 17.7638 16.6157 17.458 16.5469 17.1683C16.4104 16.5901 16.2013 16.0733 15.8554 15.6888C15.8517 15.6847 15.8479 15.6805 15.8442 15.6765C15.4493 15.2441 15.0548 14.8187 14.658 14.3939C14.4146 14.1335 14.1838 13.8859 13.9354 13.6183C13.7466 13.4167 13.4871 13.2931 13.2101 13.278C12.9331 13.263 12.662 13.3571 12.4556 13.5404C12.2492 13.7237 12.1237 13.9818 12.106 14.2586C12.0883 14.5355 12.1804 14.8077 12.3583 15.019C12.3583 15.019 12.3583 15.019 12.3583 15.019C12.5801 15.285 12.8248 15.571 13.0589 15.8384C13.4471 16.2822 13.8357 16.7153 14.2321 17.1492C14.2358 17.1533 14.2396 17.1574 14.2434 17.1615C14.5962 17.5418 15.093 17.7963 15.6573 17.9831C15.9399 18.0771 16.2402 18.155 16.549 18.2247C16.7265 18.2384 16.8049 18.343 16.8929 18.4386C16.9809 18.5347 17.0685 18.6303 17.1566 18.7263C17.8597 19.4931 18.5633 20.2598 19.2657 21.0248C19.265 21.024 19.2635 21.0224 19.2613 21.02C18.3413 20.0182 17.4222 19.0175 16.5059 18.0197C16.5132 18.0276 16.5254 18.0409 16.5365 18.053C18.1408 19.7999 19.7409 21.5422 21.3441 23.2879C21.5852 23.5505 21.8262 23.8129 22.0673 24.0754Z" fill="white"/>
<path d="M43.7127 36.6904C44.216 36.8579 44.6987 37.0185 45.0546 37.1369C45.4105 37.2553 45.6104 37.3218 45.6104 37.3218C45.6104 37.3218 45.4105 37.2553 45.0546 37.1369C44.6987 37.0185 44.216 36.8579 43.7127 36.6904C43.7127 36.6904 43.7127 36.6904 43.7127 36.6904C44.0509 36.8029 44.3889 36.9154 44.7272 37.0279C46.9761 37.7762 49.2207 38.5231 51.4712 39.2719C51.4868 39.2771 51.5039 39.2828 51.5141 39.2862C50.2287 38.8585 48.9394 38.4295 47.6489 38.0001C47.6458 37.9991 47.6437 37.9984 47.6427 37.9981C48.6281 38.326 49.6154 38.6549 50.6023 38.9842C50.7258 39.0254 50.8488 39.0664 50.9725 39.1077C51.0957 39.149 51.2231 39.178 51.308 39.3345C51.4974 39.5881 51.6907 39.8306 51.8914 40.0505C52.2914 40.4898 52.7251 40.8402 53.2141 41.0085C53.2193 41.0103 53.2246 41.0121 53.2298 41.0138C53.785 41.2002 54.3364 41.3808 54.8894 41.5596C55.2286 41.6692 55.5506 41.7736 55.8977 41.8871C56.1605 41.9717 56.4474 41.9538 56.697 41.8325C56.9465 41.7113 57.1378 41.4974 57.2293 41.237C57.3208 40.9766 57.3052 40.69 57.1864 40.4394C57.0676 40.1887 56.8549 39.9953 56.5968 39.8969C56.5968 39.8969 56.5968 39.8969 56.5968 39.8969C56.2738 39.7721 55.921 39.6407 55.5866 39.5206C55.0318 39.3209 54.4818 39.1308 53.9247 38.9438C53.9194 38.942 53.9141 38.9402 53.9088 38.9385C53.4158 38.7772 52.8579 38.7958 52.2739 38.9063C51.9811 38.9613 51.6808 39.0389 51.377 39.1279C51.2151 39.202 51.0958 39.1486 50.9725 39.1077C50.8488 39.0664 50.7258 39.0254 50.6023 38.9842C49.6154 38.6549 48.6281 38.326 47.6427 37.9981C47.6437 37.9984 47.6458 37.9991 47.6489 38.0001C48.9394 38.4295 50.2287 38.8585 51.5141 39.2862C51.5039 39.2828 51.4868 39.2771 51.4712 39.2719C49.2207 38.5231 46.9761 37.7762 44.7272 37.0279C44.3889 36.9154 44.0509 36.8029 43.7127 36.6904Z" fill="white"/>
<path d="M22.4515 32.3612C21.9267 32.4387 21.4234 32.5129 21.0524 32.5677C20.6813 32.6224 20.4729 32.6532 20.4729 32.6532C20.4729 32.6532 20.6813 32.6224 21.0524 32.5677C21.4234 32.5129 21.9267 32.4387 22.4515 32.3612C22.1191 32.4103 21.7868 32.4593 21.4545 32.5083C19.2865 32.8282 17.1232 33.1474 14.9533 33.4675C14.9388 33.4697 14.9222 33.4721 14.9128 33.4735C16.1553 33.2902 17.4014 33.1063 18.6489 32.9223C18.6513 32.9219 18.6529 32.9217 18.6538 32.9216C17.6882 33.0641 16.723 33.2067 15.7562 33.3499C15.2951 33.5748 14.7331 33.1056 14.2095 32.9101C13.6843 32.6882 13.1687 32.5633 12.6868 32.6308C12.6812 32.6316 12.6757 32.6324 12.6702 32.6332C12.0512 32.7257 11.4391 32.8172 10.8178 32.9126C10.485 32.9637 10.144 33.017 9.80895 33.0734C9.50493 33.124 9.2335 33.2934 9.05435 33.5442C8.87521 33.795 8.80303 34.1067 8.8537 34.4107C8.90437 34.7147 9.07374 34.9862 9.32454 35.1653C9.57534 35.3445 9.88703 35.4166 10.191 35.366C10.191 35.366 10.191 35.366 10.191 35.366C10.5178 35.311 10.84 35.2607 11.1709 35.2098C11.7845 35.1157 12.3959 35.0242 13.0132 34.932C13.0187 34.9312 13.0242 34.9303 13.0297 34.9295C13.5094 34.8535 13.9659 34.5841 14.4038 34.2193C14.8478 33.8802 15.2497 33.2681 15.7562 33.3499C16.723 33.2067 17.6882 33.0641 18.6538 32.9216C18.6529 32.9217 18.6513 32.9219 18.6489 32.9223C17.4014 33.1063 16.1553 33.2902 14.9128 33.4735C14.9222 33.4721 14.9388 33.4697 14.9533 33.4675C17.1232 33.1474 19.2865 32.8282 21.4545 32.5083C21.7868 32.4593 22.1191 32.4103 22.4515 32.3612Z" fill="white"/>
<path d="M44.6471 41.8234C44.558 41.9126 44.4724 41.9981 44.4094 42.0612C44.3463 42.1242 44.3109 42.1597 44.3109 42.1597C44.3109 42.1597 44.3463 42.1242 44.4094 42.0612C44.4724 41.9981 44.558 41.9126 44.6471 41.8234C44.6471 41.8234 44.6471 41.8234 44.6471 41.8234C44.6778 42.0697 44.8526 42.2899 44.9722 42.5096C45.915 44.0466 46.9585 45.5172 48.011 46.9794C48.0121 46.9809 48.0131 46.9823 48.0142 46.9838C47.5029 46.1055 46.9163 45.26 46.3592 44.4071C46.3584 44.4059 46.3637 44.4138 46.3644 44.4149C47.3539 45.9081 48.3432 47.4011 49.3325 48.8939C49.4745 49.1083 49.6159 49.3217 49.7578 49.5359C49.4648 49.0937 49.1838 48.6696 48.9766 48.357C48.7695 48.0443 48.6531 47.8687 48.6531 47.8687C48.6531 47.8687 48.7695 48.0443 48.9766 48.357C49.1838 48.6696 49.4648 49.0937 49.7578 49.5359C49.7578 49.5359 49.7578 49.5359 49.7578 49.5359C49.6159 49.3217 49.4745 49.1083 49.3325 48.8939C48.3432 47.4011 47.3539 45.9081 46.3644 44.4149C46.3637 44.4138 46.3584 44.4059 46.3592 44.4071C46.9163 45.26 47.5029 46.1055 48.0142 46.9838C48.0131 46.9823 48.0121 46.9809 48.011 46.9794C46.9585 45.5172 45.915 44.0466 44.9722 42.5096C44.8526 42.2899 44.6778 42.0697 44.6471 41.8234Z" fill="white"/>
<path d="M43.3463 46.5624C43.2854 46.4408 43.2271 46.3241 43.1841 46.2381C43.1411 46.1521 43.117 46.1038 43.117 46.1038C43.117 46.1038 43.1411 46.1521 43.1841 46.2381C43.2271 46.3241 43.2854 46.4408 43.3463 46.5624C43.3846 46.5648 43.4541 46.664 43.5065 46.7188C43.8905 47.1623 44.2596 47.6186 44.6281 48.0756C44.6232 48.0747 44.6109 48.0587 44.6036 48.051C44.3992 47.8166 44.1998 47.5777 44 47.3406C44.01 47.3525 44.0226 47.3675 44.0327 47.3796C44.4015 47.8187 44.7687 48.2557 45.1368 48.694C45.1905 48.7579 45.244 48.8216 45.2976 48.8854C44.9564 48.4793 44.6292 48.0897 44.388 47.8025C44.1467 47.5153 44.0112 47.354 44.0112 47.354C44.0112 47.354 44.1467 47.5153 44.388 47.8025C44.6292 48.0897 44.9564 48.4793 45.2976 48.8854C45.244 48.8216 45.1905 48.7579 45.1368 48.694C44.7687 48.2557 44.4015 47.8187 44.0327 47.3796C44.0226 47.3675 44.01 47.3525 44 47.3406C44.1998 47.5777 44.3992 47.8166 44.6036 48.051C44.6109 48.0587 44.6232 48.0747 44.6281 48.0756C44.2596 47.6186 43.8905 47.1623 43.5065 46.7188C43.4541 46.664 43.3846 46.5648 43.3463 46.5624Z" fill="white"/>
</svg>
