<svg width="72" height="73" viewBox="0 0 72 73" fill="none" xmlns="http://www.w3.org/2000/svg">
<path d="M36.5761 3.04492C36.5761 2.34831 36.5761 1.65169 36.5761 0.955078C34.7903 0.956872 33.0241 1.07526 31.2685 1.25391C30.3839 1.34461 29.508 1.49683 28.6294 1.61993C27.925 1.71865 27.2182 1.82707 26.5148 1.94503C23.9975 2.42145 21.6566 2.69655 18.9721 3.93004C15.2641 6.10624 11.8347 8.72936 8.97685 12.0322C8.85358 12.1767 8.73247 12.3223 8.61307 12.4695C6.20311 15.456 4.51715 18.9595 3.6129 22.673C3.38055 23.6424 3.20614 24.628 3.10727 25.6303C2.72324 29.288 2.99785 33.0636 3.57418 36.5903C3.58375 36.6577 3.59296 36.7234 3.60175 36.7874C4.074 40.2163 5.01673 43.5798 6.43212 46.7456C7.92291 50.0431 9.88686 53.1819 12.6425 55.7055C14.8605 57.6951 17.1754 59.6027 19.8482 61.1325C20.9254 61.7359 22.064 62.2835 23.354 62.6111C26.0336 63.2613 28.7097 63.6396 31.4209 63.872C35.0692 64.1695 38.7625 64.1729 42.4363 63.6096C44.0598 63.3558 45.6437 63.09 47.275 62.7352C49.4638 62.2484 51.8143 61.6166 53.8305 60.2072C55.8176 58.7978 57.275 57.1731 58.9341 55.7298C60.8215 54.046 62.4826 52.0797 63.7927 49.8983C65.0852 47.7551 66.0349 45.4177 66.6678 43.0182C67.2429 40.9885 67.8297 38.7438 68.0111 36.4948C68.1864 34.5108 68.1116 32.4991 67.7955 30.5316C67.4896 28.6197 67.1227 26.7234 66.6817 24.8344C65.328 19.424 63.8538 13.9472 60.205 9.19923L60.1386 9.12706C59.3627 8.34863 58.5276 7.47557 57.5843 6.71672C54.3442 4.10786 50.475 2.89307 46.7145 1.91375C46.0811 1.75369 45.4429 1.60315 44.7905 1.45856C43.5577 1.18975 42.3603 1.07396 41.1693 0.992367C39.6253 0.891526 38.0995 0.880843 36.5761 0.910156C36.5761 1.63672 36.5761 2.36328 36.5761 3.08984C38.0696 3.1209 39.5554 3.16213 41.0192 3.25791C42.1452 3.33391 43.2638 3.44707 44.3014 3.67307C44.9342 3.81241 45.5514 3.95694 46.1618 4.10991C49.7935 5.03891 53.4024 6.21524 56.171 8.45995C56.9935 9.12086 57.734 9.89067 58.5556 10.7159L58.4893 10.6437C61.6213 14.6704 63.2249 20.1279 64.5022 25.344C64.9314 27.1788 65.2957 29.0242 65.6016 30.887C65.897 32.6798 65.9727 34.5001 65.8172 36.3049C65.6508 38.3705 65.1458 40.3399 64.5505 42.4599C63.9677 44.6837 63.1001 46.8206 61.9241 48.7743C60.7314 50.7625 59.2218 52.5542 57.4831 54.1072C54.1104 57.3021 51.2692 59.9616 46.8103 60.6156C45.254 60.9556 43.7007 61.2211 42.1014 61.4758C38.6625 62.015 35.113 62.034 31.5962 61.7503C28.9889 61.5313 26.3716 61.1597 23.8665 60.552C22.8723 60.3027 21.8623 59.8322 20.8907 59.2853C18.4604 57.8976 16.2106 56.0603 14.0642 54.1315C11.623 51.9027 9.76005 48.9698 8.36804 45.8789C7.03959 42.9083 6.15133 39.7323 5.71076 36.499C5.70154 36.4312 5.69199 36.3624 5.68214 36.2924C5.11381 32.758 4.88734 29.3211 5.25875 25.8458C5.34991 24.956 5.51028 24.065 5.72493 23.1835C6.55908 19.7994 8.14914 16.5679 10.334 13.8653C10.4422 13.7319 10.5519 13.5999 10.6632 13.469C13.2812 10.4269 16.5472 7.82922 20.0234 5.72815C21.849 4.84809 24.4958 4.35039 26.8512 3.92187C27.534 3.80397 28.2216 3.69663 28.907 3.60057C29.7623 3.48074 30.6246 3.42073 31.4816 3.33286C33.1824 3.15957 34.8896 3.04638 36.5761 3.04492Z" fill="white"/>
<path d="M29.6168 48.3707C29.635 48.9008 29.6526 49.4092 29.6655 49.7841C29.6784 50.1589 29.6857 50.3695 29.6857 50.3695C29.6857 50.3695 29.6784 50.1589 29.6655 49.7841C29.6526 49.4092 29.635 48.9008 29.6168 48.3707C29.6341 48.8741 29.6515 49.3773 29.6688 49.8806C29.6846 50.3366 29.7003 50.7928 29.716 51.2481C29.7183 51.3164 29.7208 51.3864 29.7231 51.4537C29.7088 51.0405 29.6945 50.6246 29.6802 50.21C29.6769 50.1143 29.6736 50.0191 29.6703 49.9238C29.6635 49.726 29.6575 49.551 29.6518 49.3827C29.6483 49.2798 29.6455 49.1972 29.6428 49.1119C29.6398 49.0211 29.6439 49.1092 29.6457 49.1541C29.6474 49.1955 29.6491 49.2381 29.6512 49.2903C29.6652 49.6399 29.6797 50.0085 29.6941 50.3665C29.7231 51.0902 29.7525 51.8085 29.7832 52.5276C30.1975 53.9725 28.9669 55.3743 28.9706 56.9817C29 57.237 29.1347 57.4589 29.2347 57.5708C29.3209 57.6708 29.4021 57.7344 29.472 57.7825C29.5915 57.8631 29.6666 57.8954 29.7326 57.9249C29.8481 57.975 29.9292 58.0002 30.0019 58.0225C30.1406 58.0643 30.249 58.0888 30.3561 58.1102C30.565 58.1511 30.7519 58.1727 30.9362 58.1839C33.2408 58.2836 35.3944 58.2138 37.6001 58.224C37.7984 58.2241 37.9968 58.2253 38.1927 58.2282C38.7143 58.2381 39.1428 58.2468 39.6602 58.3163L40.5495 58.4089L40.8275 57.5645C40.8882 57.3806 40.9371 57.1969 40.9773 57.0251C41.3777 55.1125 41.3714 53.3893 41.3996 51.6265C41.402 51.3294 41.4016 51.0196 41.4051 50.7501L41.4029 50.6606C41.4018 50.6427 41.4004 50.6242 41.3989 50.605C41.3874 50.3321 41.2789 49.9216 41.1704 49.6873C41.0577 49.4194 40.8401 49.2107 40.5688 49.1057C40.2974 49.0008 39.994 49.0084 39.7258 49.1266C39.4576 49.2448 39.2473 49.4637 39.1417 49.7348C39.0362 50.0058 39.0435 50.3072 39.1651 50.5711C39.1651 50.5711 39.1651 50.5711 39.1651 50.5711C39.2167 50.6907 39.2116 50.6603 39.224 50.7754C39.2246 50.784 39.2253 50.7932 39.226 50.8032L39.2238 50.7137C39.2197 51.0294 39.22 51.3134 39.2168 51.6079C39.1932 53.2943 39.1486 55.0461 38.8255 56.5171C38.7959 56.6411 38.7617 56.7644 38.7271 56.8674L39.8944 56.1156C39.3771 56.0416 38.7575 56.0186 38.2361 56.006C38.0276 56.001 37.8197 55.9977 37.6134 55.9953C35.4157 55.9623 33.1688 55.9818 31.0722 55.8901C30.9153 55.8807 30.759 55.8774 30.6254 55.8775C30.5593 55.8777 30.497 55.8777 30.4696 55.8834C30.4571 55.8871 30.4522 55.8899 30.4922 55.9115C30.516 55.9251 30.5518 55.9397 30.6365 55.9977C30.6861 56.0326 30.751 56.0826 30.8248 56.1685C30.91 56.2638 31.0337 56.465 31.0607 56.7004C30.8197 55.45 29.5025 53.9577 29.7832 52.5276C29.7525 51.8085 29.7231 51.0902 29.6941 50.3665C29.6797 50.0085 29.6652 49.6399 29.6512 49.2903C29.6491 49.2381 29.6474 49.1955 29.6457 49.1541C29.6439 49.1092 29.6398 49.0211 29.6428 49.1119C29.6455 49.1972 29.6483 49.2798 29.6518 49.3827C29.6575 49.551 29.6635 49.726 29.6703 49.9238C29.6736 50.0191 29.6769 50.1143 29.6802 50.21C29.6945 50.6246 29.7088 51.0405 29.7231 51.4537C29.7208 51.3864 29.7183 51.3164 29.716 51.2481C29.7003 50.7928 29.6846 50.3366 29.6688 49.8806C29.6515 49.3773 29.6341 48.8741 29.6168 48.3707Z" fill="white"/>
<path d="M29.6168 55.8843C29.6168 55.3539 29.6168 54.8452 29.6168 54.4701C29.6168 54.095 29.6168 53.8843 29.6168 53.8843C29.6168 53.8843 29.6168 54.095 29.6168 54.4701C29.6168 54.8452 29.6168 55.3539 29.6168 55.8843C29.6168 55.7648 29.6168 55.6455 29.6168 55.526C29.6168 55.3623 29.6168 55.1983 29.6168 55.0343C29.6168 55.0341 29.6168 55.0339 29.6168 55.0338C29.6168 55.1742 29.6168 55.3154 29.6168 55.4559C29.6168 55.4541 29.6168 55.4524 29.6168 55.4507C29.6167 54.7762 29.6168 54.1016 29.6199 53.4271C29.6207 53.2584 29.6216 53.0898 29.6229 52.9212C29.7078 52.7531 29.9238 52.5864 30.0468 52.4197C30.3194 52.0863 30.5038 51.755 30.5116 51.4227L30.5109 51.4434C30.5109 51.4429 30.5109 51.4424 30.5109 51.4419C30.5318 50.9784 30.4517 50.4818 30.2388 49.9652C30.1873 49.8403 30.128 49.7157 30.061 49.5901C30.0294 49.5324 29.9936 49.4766 29.9476 49.4341C29.9014 49.3915 29.8481 49.3656 29.7916 49.3616C29.735 49.3575 29.6786 49.3755 29.6268 49.411C29.5752 49.4465 29.5318 49.4966 29.4922 49.5492C29.4922 49.5492 29.4922 49.5492 29.4922 49.5492C29.408 49.6626 29.3309 49.7751 29.2608 49.8888C28.972 50.3553 28.7993 50.8406 28.7755 51.3624C28.7754 51.363 28.7754 51.3635 28.7754 51.364L28.7747 51.3848C28.7678 51.7263 28.9425 52.0696 29.2079 52.4108C29.3272 52.5813 29.5404 52.7519 29.6229 52.9212C29.6216 53.0898 29.6207 53.2584 29.6199 53.4271C29.6168 54.1016 29.6167 54.7762 29.6168 55.4507C29.6168 55.4524 29.6168 55.4541 29.6168 55.4559C29.6168 55.3154 29.6168 55.1742 29.6168 55.0338C29.6168 55.0339 29.6168 55.0341 29.6168 55.0343C29.6168 55.1983 29.6168 55.3623 29.6168 55.526C29.6168 55.6455 29.6168 55.7648 29.6168 55.8843Z" fill="white"/>
<path d="M29.6967 47.7312C29.6967 47.6017 29.6967 47.4776 29.6967 47.386C29.6967 47.2944 29.6967 47.243 29.6967 47.243C29.6967 47.243 29.6967 47.2944 29.6967 47.386C29.6967 47.4776 29.6967 47.6017 29.6967 47.7312C29.7115 47.2186 29.731 46.7047 29.7493 46.1916C29.7495 46.1865 29.7496 46.1813 29.7498 46.1762C29.7413 46.428 29.7327 46.6815 29.7242 46.9336C29.7239 46.9413 29.7237 46.9483 29.7235 46.9547C29.7221 46.9921 29.7209 47.0232 29.7177 47.052C29.7042 47.105 29.7017 47.0175 29.6973 46.9982C29.6894 46.9314 29.684 46.8719 29.6778 46.8033C29.6661 46.6735 29.6554 46.5465 29.6443 46.417C29.622 46.157 29.5993 45.9005 29.574 45.6419C29.5535 45.4323 29.5315 45.2226 29.5074 45.0133C29.4954 44.909 29.4828 44.8042 29.4695 44.6998C29.4756 44.5925 29.375 44.5007 29.5124 44.3747C29.847 43.899 30.1167 43.414 30.1404 42.8951C30.1471 42.703 30.1219 42.5216 30.0635 42.3552C29.1228 39.9324 27.7954 38.0551 26.5632 36.0492C26.4964 35.9432 26.4317 35.8386 26.3674 35.7326C25.5525 34.3902 24.9216 32.9843 24.5298 31.4937C24.5053 31.4024 24.4831 31.3102 24.4632 31.2172C24.0986 29.5166 24.5135 27.5888 25.1461 25.7393C25.1699 25.67 25.1957 25.6011 25.2236 25.5324C25.5805 24.6225 26.3232 23.8708 27.1298 22.742C27.1574 22.7014 27.1911 22.6565 27.2284 22.6111C27.9164 21.8145 29.2362 21.0155 30.3935 20.1741C30.4453 20.1371 30.4974 20.1012 30.5499 20.0664C32.2033 18.9457 34.4865 18.9257 36.8031 19.1374C36.8366 19.1403 36.873 19.1447 36.9101 19.1507C38.2184 19.4224 39.8692 20.7547 41.3807 21.8184C41.4171 21.8446 41.4532 21.8707 41.489 21.8967C42.9798 22.9853 44.4134 24.3194 45.1558 25.7703C45.1676 25.7946 45.1794 25.8189 45.191 25.8432C45.7707 27.056 46.2575 28.4443 46.3995 29.63C46.4004 29.6399 46.4013 29.65 46.4022 29.6603C46.4596 30.6361 46.2158 31.926 45.9895 33.116C45.9891 33.1178 45.9887 33.1197 45.9884 33.1215C45.5949 35.3926 44.1838 36.6516 42.1179 38.7225C42.0993 38.7458 42.0808 38.769 42.0625 38.7923C41.0208 40.0572 40.2816 41.6526 39.7846 43.1184C39.7313 43.2711 39.6798 43.4223 39.6284 43.576L39.5907 43.7188C39.5887 43.7296 39.5866 43.7403 39.5846 43.751C39.3921 44.6786 39.3575 45.8211 39.4124 46.6818L39.4148 46.5882C39.4147 46.5895 39.4147 46.5908 39.4146 46.5921C39.4111 46.6654 39.4328 46.843 39.4859 47.0134C39.5382 47.1844 39.6157 47.3327 39.6779 47.4638C39.7579 47.6053 39.9153 47.7277 40.0835 47.8095C40.2537 47.891 40.4208 47.925 40.5802 47.899C40.7395 47.873 40.8871 47.7875 41.0225 47.6561C41.156 47.525 41.2663 47.3589 41.2971 47.1993C41.2971 47.1993 41.2971 47.1993 41.2971 47.1993C41.3506 46.9909 41.5076 47.021 41.5332 46.7442C41.5334 46.7418 41.5336 46.7394 41.5338 46.737L41.5362 46.6433C41.5117 45.6929 41.5595 45.0119 41.7305 44.1606C41.7323 44.1513 41.7341 44.142 41.736 44.1326L41.6982 44.2754C41.7478 44.1304 41.7972 43.9888 41.8479 43.847C42.3409 42.4504 42.9045 41.2534 43.7954 40.1669C43.8114 40.1467 43.8276 40.1265 43.844 40.1061C45.2704 38.7309 47.807 36.3719 48.1793 33.5501C48.1797 33.5477 48.1802 33.5454 48.1807 33.5431C48.4125 32.253 48.6681 31.0357 48.5941 29.4807C48.5925 29.4618 48.5909 29.443 48.5891 29.4243C48.3728 27.7088 47.8381 26.313 47.1753 24.8903C47.162 24.8627 47.1486 24.835 47.1351 24.8072C46.0552 22.7359 44.4638 21.3387 42.7982 20.0982C42.7585 20.0693 42.7184 20.0403 42.678 20.0114C41.0561 18.9366 39.7034 17.6449 37.2452 17.0443C37.162 17.0311 37.0741 17.02 36.9867 17.0125C34.6122 16.8099 31.7644 16.6733 29.3577 18.2674C29.2837 18.3164 29.2103 18.367 29.1373 18.4192C28.0009 19.2719 26.7805 19.9008 25.5676 21.2605C25.4954 21.3496 25.4224 21.4471 25.3534 21.5505C24.788 22.3851 23.8109 23.3962 23.2732 24.742C23.2312 24.8458 23.1918 24.9513 23.1551 25.0588C22.4836 27.0669 21.9228 29.3046 22.4125 31.6585C22.4401 31.7861 22.471 31.9134 22.5053 32.04C22.9533 33.7281 23.7041 35.3423 24.595 36.8063C24.6655 36.9226 24.7362 37.0372 24.8089 37.1531C26.0148 39.1076 27.3128 41.1308 28.0513 43.0623C28.0948 43.1862 28.1619 43.2957 28.2466 43.3976C28.4834 43.6933 28.8891 44.0404 29.3429 44.3986C29.5098 44.4815 29.4369 44.598 29.4695 44.6998C29.4828 44.8042 29.4954 44.909 29.5074 45.0133C29.5315 45.2226 29.5535 45.4323 29.574 45.6419C29.5993 45.9005 29.622 46.157 29.6443 46.417C29.6554 46.5465 29.6661 46.6735 29.6778 46.8033C29.684 46.8719 29.6894 46.9314 29.6973 46.9982C29.7017 47.0175 29.7042 47.105 29.7177 47.052C29.7209 47.0232 29.7221 46.9921 29.7235 46.9547C29.7237 46.9483 29.7239 46.9413 29.7242 46.9336C29.7327 46.6815 29.7413 46.428 29.7498 46.1762C29.7496 46.1813 29.7495 46.1865 29.7493 46.1916C29.731 46.7047 29.7115 47.2186 29.6967 47.7312Z" fill="white"/>
<path d="M30.0799 44C30.0799 44.1191 30.0799 44.2334 30.0799 44.3176C30.0799 44.4019 30.0799 44.4492 30.0799 44.4492C30.0799 44.4492 30.0799 44.4019 30.0799 44.3176C30.0799 44.2334 30.0799 44.1191 30.0799 44C30.0802 44.0814 30.0823 44.164 30.0843 44.2462C30.0964 44.6906 30.1134 45.135 30.1324 45.5793C30.1326 45.5848 30.1328 45.5903 30.1331 45.5958C30.1249 45.3279 30.1156 45.0495 30.1067 44.7765C30.1068 44.7802 30.107 44.7855 30.1072 44.7904C30.1139 45.0033 30.1186 45.2168 30.1214 45.4298C30.1217 45.4563 30.122 45.4831 30.1223 45.5097C30.1126 45.5365 30.1626 45.5627 30.0314 45.5902C29.8509 45.6445 29.6814 45.6975 29.5349 45.749C29.2418 45.8523 29.0401 45.9492 29.0234 46.043C29.0227 46.0467 29.0224 46.0503 29.0223 46.054C29.0153 46.3405 28.994 46.5771 28.9494 46.8756C28.9382 46.9531 28.9258 47.0354 28.9135 47.1213C28.8721 47.4095 28.947 47.7023 29.1215 47.9353C29.296 48.1683 29.556 48.3224 29.8441 48.3637C30.1323 48.4051 30.4251 48.3303 30.6581 48.1557C30.8911 47.9812 31.0452 47.7212 31.0865 47.4331C31.0865 47.4331 31.0865 47.4331 31.0865 47.4331C31.0975 47.3562 31.1096 47.2763 31.1219 47.1913C31.1728 46.8593 31.2101 46.46 31.2169 46.1089C31.217 46.1043 31.2169 46.0997 31.2164 46.095C31.2047 45.9764 31.0048 45.8598 30.7119 45.7499C30.5654 45.6949 30.3957 45.6413 30.2144 45.589C30.0829 45.5631 30.1324 45.5364 30.1223 45.5097C30.122 45.4831 30.1217 45.4563 30.1214 45.4298C30.1186 45.2168 30.1139 45.0033 30.1072 44.7904C30.107 44.7855 30.1068 44.7802 30.1067 44.7765C30.1156 45.0495 30.1249 45.3279 30.1331 45.5958C30.1328 45.5903 30.1326 45.5848 30.1324 45.5793C30.1134 45.135 30.0964 44.6906 30.0843 44.2462C30.0823 44.164 30.0802 44.0814 30.0799 44Z" fill="white"/>
<path d="M22.6627 45.5731C23.0814 45.2474 23.4829 44.9351 23.779 44.7048C24.0751 44.4746 24.2414 44.3452 24.2414 44.3452C24.2414 44.3452 24.0751 44.4746 23.779 44.7048C23.4829 44.9351 23.0814 45.2474 22.6627 45.5731C22.7184 45.5297 22.7742 45.4864 22.83 45.443C22.9336 45.3624 23.0369 45.2821 23.1407 45.2013C23.1409 45.2011 23.141 45.201 23.1411 45.201C23.0621 45.2624 22.9827 45.3242 22.9037 45.3856C22.9046 45.385 22.9054 45.3843 22.9063 45.3836C23.2134 45.1442 23.5194 44.9018 23.8239 44.6591C23.9 44.5984 23.9762 44.5376 24.0524 44.4765C24.1928 44.4963 24.3956 44.5932 24.5501 44.629C24.8717 44.7172 25.1379 44.734 25.2909 44.6106L25.3041 44.5997C25.3043 44.5994 25.3046 44.5992 25.3049 44.599C25.5136 44.423 25.7114 44.2096 25.8716 43.9765C25.9151 43.9134 25.9552 43.8498 25.992 43.7868C26.0828 43.6302 26.1396 43.4497 26.131 43.2662C26.1224 43.0828 26.0509 42.913 25.9267 42.7887C25.8024 42.6644 25.6326 42.5929 25.4492 42.5844C25.2657 42.5758 25.0852 42.6326 24.9286 42.7234C24.9286 42.7234 24.9286 42.7234 24.9286 42.7234C24.8655 42.7602 24.8057 42.7965 24.7485 42.8322C24.5405 42.9621 24.3532 43.0942 24.1665 43.2519C24.1663 43.2521 24.166 43.2523 24.1658 43.2525L24.1789 43.2416C24.0291 43.3642 23.9922 43.6259 24.0104 43.9582C24.0128 44.1164 24.0638 44.3352 24.0524 44.4765C23.9762 44.5376 23.9 44.5984 23.8239 44.6591C23.5194 44.9018 23.2134 45.1442 22.9063 45.3836C22.9054 45.3843 22.9046 45.385 22.9037 45.3856C22.9827 45.3242 23.0621 45.2624 23.1411 45.201C23.141 45.201 23.1409 45.2011 23.1407 45.2013C23.0369 45.2821 22.9336 45.3624 22.83 45.443C22.7742 45.4864 22.7184 45.5297 22.6627 45.5731Z" fill="white"/>
<path d="M18.1066 42.5357C18.5382 42.2274 18.9522 41.9317 19.2574 41.7137C19.5626 41.4957 19.734 41.3732 19.734 41.3732C19.734 41.3732 19.5626 41.4957 19.2574 41.7137C18.9522 41.9317 18.5382 42.2274 18.1066 42.5357C18.203 42.4668 18.2995 42.3979 18.396 42.3289C18.5473 42.2208 18.6987 42.1127 18.8502 42.0045C18.8505 42.0043 18.8506 42.0042 18.8507 42.0041C18.7279 42.0919 18.6043 42.1801 18.4814 42.2679C18.483 42.267 18.4845 42.266 18.486 42.265C19.2229 41.8068 19.9758 41.3719 20.7335 40.9484C20.9247 40.8454 21.108 40.7278 21.3084 40.6419C21.5815 40.6889 21.8482 40.7274 22.1033 40.7472C22.6117 40.7883 23.083 40.7475 23.4416 40.5732L23.5054 40.5393C23.5056 40.5392 23.5057 40.5391 23.5059 40.539C23.5781 40.4971 23.6429 40.4456 23.6974 40.3877C23.8106 40.2675 23.8759 40.124 23.9012 39.9674C23.9265 39.8058 23.948 39.6475 23.9411 39.5023C23.9338 39.3567 23.8955 39.2321 23.8172 39.1342C23.7389 39.0363 23.6257 38.9716 23.4852 38.9325C23.3451 38.8939 23.1859 38.8802 23.0228 38.8693C23.0228 38.8693 23.0228 38.8693 23.0228 38.8693C22.863 38.8608 22.7429 38.8653 22.6607 38.8793C22.6205 38.8865 22.5884 38.8969 22.5611 38.9127C22.5611 38.9127 22.561 38.9128 22.5609 38.9128L22.6248 38.8789C22.2066 39.0827 21.9072 39.4496 21.6497 39.8994C21.5218 40.1241 21.4068 40.3693 21.299 40.6246C21.1185 40.747 20.9216 40.8396 20.7335 40.9484C19.9758 41.3719 19.2229 41.8068 18.486 42.265C18.4845 42.266 18.483 42.267 18.4814 42.2679C18.6043 42.1801 18.7279 42.0919 18.8507 42.0041C18.8506 42.0042 18.8505 42.0043 18.8502 42.0045C18.6987 42.1127 18.5473 42.2208 18.396 42.3289C18.2995 42.3979 18.203 42.4668 18.1066 42.5357Z" fill="white"/>
<path d="M48.4807 35.5816C48.7029 35.5816 48.916 35.5816 49.0732 35.5816C49.2303 35.5816 49.3186 35.5816 49.3186 35.5816C49.3186 35.5816 49.2303 35.5816 49.0732 35.5816C48.916 35.5816 48.7029 35.5816 48.4807 35.5816C48.6216 35.6344 48.7433 35.7243 48.8723 35.803C49.7565 36.3746 50.6184 36.9833 51.4756 37.5951C51.4786 37.5972 51.4816 37.5994 51.4845 37.6015C50.9789 37.283 50.4847 36.9386 49.9878 36.6043C49.9865 36.6034 49.9805 36.5993 49.9802 36.5991C50.8465 37.187 51.7156 37.7767 52.5832 38.3655C52.708 38.4501 52.8322 38.5344 52.9569 38.619C52.5179 38.3212 52.097 38.0355 51.7866 37.8249C51.4763 37.6143 51.3019 37.496 51.3019 37.496C51.3019 37.496 51.4763 37.6143 51.7866 37.8249C52.097 38.0355 52.5179 38.3212 52.9569 38.619C52.8322 38.5344 52.708 38.4501 52.5832 38.3655C51.7156 37.7767 50.8465 37.187 49.9802 36.5991C49.9805 36.5993 49.9865 36.6034 49.9878 36.6043C50.4847 36.9386 50.9789 37.283 51.4845 37.6015C51.4816 37.5994 51.4786 37.5972 51.4756 37.5951C50.6184 36.9833 49.7565 36.3746 48.8723 35.803C48.7433 35.7243 48.6216 35.6344 48.4807 35.5816Z" fill="white"/>
<path d="M36.2511 17.2772C36.2697 16.7471 36.2875 16.2387 36.3007 15.8639C36.3138 15.489 36.3212 15.2784 36.3212 15.2784C36.3212 15.2784 36.3138 15.489 36.3007 15.8639C36.2875 16.2387 36.2697 16.7471 36.2511 17.2772C36.2577 17.0896 36.2643 16.902 36.2708 16.7144C36.2996 15.8939 36.3285 15.0725 36.3572 14.2533C36.3573 14.2501 36.3574 14.2481 36.3574 14.2474C36.3399 14.7474 36.3222 15.2507 36.3047 15.7509C36.3048 15.7464 36.305 15.742 36.3051 15.7375C36.3339 14.9168 36.3637 14.0952 36.3957 13.2742C36.2483 12.8571 36.8429 12.4695 37.1245 12.072C37.4399 11.676 37.6574 11.2757 37.6798 10.8743L37.6787 10.8915C37.6788 10.8903 37.6789 10.8892 37.679 10.888C37.705 10.4992 37.7313 10.1397 37.7716 9.77543C37.7901 9.60659 37.8111 9.43654 37.8341 9.26335C37.8736 8.97587 37.8094 8.67989 37.6439 8.43822C37.4786 8.19657 37.2275 8.02938 36.9434 7.97297C36.6594 7.91657 36.3634 7.97511 36.1183 8.13525C35.8731 8.29537 35.7006 8.54435 35.6272 8.82509C35.6272 8.82509 35.6272 8.82509 35.6272 8.82509C35.5771 9.02056 35.5318 9.21956 35.4927 9.42198C35.4074 9.85915 35.3569 10.3079 35.3289 10.7286C35.3288 10.7298 35.3287 10.7311 35.3286 10.7324L35.3276 10.7495C35.3068 11.1656 35.4871 11.5894 35.7672 12.0136C36.0135 12.4369 36.575 12.8701 36.3957 13.2742C36.3637 14.0952 36.3339 14.9168 36.3051 15.7375C36.305 15.742 36.3048 15.7464 36.3047 15.7509C36.3222 15.2507 36.3399 14.7474 36.3574 14.2474C36.3574 14.2481 36.3573 14.2501 36.3572 14.2533C36.3285 15.0725 36.2996 15.8939 36.2708 16.7144C36.2643 16.902 36.2577 17.0896 36.2511 17.2772Z" fill="white"/>
<path d="M46.4024 25.0306C46.8317 24.719 47.2434 24.4202 47.547 24.1999C47.8505 23.9796 48.021 23.8558 48.021 23.8558C48.021 23.8558 47.8505 23.9796 47.547 24.1999C47.2434 24.4202 46.8317 24.719 46.4024 25.0306C46.5675 24.9108 46.7327 24.7909 46.8978 24.6711C47.8282 23.9958 48.7593 23.32 49.6898 22.6446C49.6919 22.6431 49.6976 22.6389 49.698 22.6386C49.1541 23.0334 48.6067 23.4307 48.0626 23.8256C48.0665 23.8228 48.0705 23.8199 48.0744 23.8171C48.7929 23.2962 49.5199 22.7853 50.2546 22.2865C50.3464 22.2243 50.4378 22.1626 50.5307 22.1002C50.5768 22.0693 50.6224 22.0388 50.669 22.0077C50.7219 21.9861 50.8059 22.0149 50.8749 22.017C51.16 22.0464 51.4371 22.0681 51.6993 22.0731C52.2152 22.0891 52.7175 22.0052 52.9847 21.8759L52.954 21.8898C52.9545 21.8896 52.9551 21.8893 52.9557 21.8891C53.0042 21.8679 53.0499 21.8485 53.0925 21.8311C53.2317 21.7747 53.3163 21.7454 53.4911 21.7009C53.7654 21.633 54.0079 21.4658 54.1636 21.2275C54.3192 20.9894 54.3756 20.7011 54.32 20.4244C54.2643 20.1478 54.1008 19.9037 53.8652 19.7443C53.6295 19.5848 53.3412 19.5244 53.062 19.5678C53.062 19.5678 53.062 19.5678 53.062 19.5678C52.8364 19.6015 52.5259 19.6795 52.2862 19.7745C52.2107 19.8034 52.1403 19.8327 52.0725 19.8622C52.0717 19.8626 52.0709 19.8629 52.0701 19.8632L52.0394 19.8772C51.5141 20.1389 51.2651 20.5391 51.0313 21.0304C50.9195 21.275 50.8253 21.5395 50.7404 21.814C50.7153 21.8785 50.7092 21.9672 50.669 22.0077C50.6224 22.0388 50.5768 22.0693 50.5307 22.1002C50.4378 22.1626 50.3464 22.2243 50.2546 22.2865C49.5199 22.7853 48.7929 23.2962 48.0744 23.8171C48.0705 23.8199 48.0665 23.8228 48.0626 23.8256C48.6067 23.4307 49.1541 23.0334 49.698 22.6386C49.6976 22.6389 49.6919 22.6431 49.6898 22.6446C48.7593 23.32 47.8282 23.9958 46.8978 24.6711C46.7327 24.7909 46.5675 24.9108 46.4024 25.0306Z" fill="white"/>
<path d="M41.8369 38C42.199 38.3876 42.5463 38.7593 42.8024 39.0334C43.0584 39.3075 43.2023 39.4614 43.2023 39.4614C43.2023 39.4614 43.0584 39.3075 42.8024 39.0334C42.5463 38.7593 42.199 38.3876 41.8369 38C41.9761 38.149 42.1155 38.2982 42.2547 38.4472C43.0396 39.2873 43.825 40.128 44.61 40.9682C44.6117 40.97 44.6166 40.9752 44.6169 40.9756C44.1581 40.4845 43.6963 39.9903 43.2373 39.499C43.2407 39.5025 43.244 39.5061 43.2473 39.5096C43.8535 40.1578 44.4699 40.7978 45.0962 41.4272C45.1745 41.5058 45.2525 41.5838 45.3318 41.6627C45.3712 41.7019 45.4102 41.7405 45.45 41.7799C45.4978 41.8111 45.5858 41.7989 45.6539 41.8099C45.9393 41.8353 46.2155 41.8668 46.4739 41.9118C46.9834 41.9943 47.4606 42.1723 47.6982 42.3501L47.6707 42.3305C47.6712 42.3309 47.6717 42.3312 47.6723 42.3316C47.7159 42.3616 47.7571 42.3894 47.7955 42.4146C47.9214 42.4964 47.9989 42.5413 48.1621 42.6183C48.4184 42.7372 48.6247 42.9475 48.7321 43.211C48.8396 43.4744 48.8401 43.7682 48.7328 44.0292C48.6255 44.2902 48.4185 44.4987 48.1568 44.6103C47.8951 44.722 47.6006 44.7265 47.3348 44.6306C47.3348 44.6306 47.3348 44.6306 47.3348 44.6306C47.1197 44.5547 46.8297 44.419 46.6125 44.28C46.5439 44.2373 46.4803 44.1952 46.4194 44.1533C46.4187 44.1528 46.4179 44.1523 46.4172 44.1518L46.3897 44.1322C45.9238 43.7754 45.7556 43.335 45.6196 42.8083C45.5564 42.5469 45.5143 42.2692 45.4832 41.9836C45.4708 41.9154 45.4818 41.8273 45.45 41.7799C45.4102 41.7405 45.3712 41.7019 45.3318 41.6627C45.2525 41.5838 45.1745 41.5058 45.0962 41.4272C44.4699 40.7978 43.8535 40.1578 43.2473 39.5096C43.244 39.5061 43.2407 39.5025 43.2373 39.499C43.6963 39.9903 44.1581 40.4845 44.6169 40.9756C44.6166 40.9752 44.6117 40.97 44.61 40.9682C43.825 40.128 43.0396 39.2873 42.2547 38.4472C42.1155 38.2982 41.9761 38.149 41.8369 38Z" fill="white"/>
<path d="M25.3804 22.8724C25.0216 22.4818 24.6775 22.1071 24.4238 21.8308C24.1701 21.5546 24.0276 21.3994 24.0276 21.3994C24.0276 21.3994 24.1701 21.5546 24.4238 21.8308C24.6775 22.1071 25.0216 22.4818 25.3804 22.8724C25.173 22.6466 24.9657 22.4209 24.7583 22.195C23.3792 20.6934 22.0028 19.1946 20.6227 17.6919C20.6132 17.6815 20.6027 17.6701 20.5964 17.6633C21.3847 18.5216 22.1753 19.3824 22.9667 20.2442C22.9686 20.2462 22.9698 20.2476 22.9704 20.2483C22.3662 19.5902 21.761 18.9307 21.1562 18.2711C21.0804 18.1885 21.0051 18.1063 20.9293 18.0237C20.8539 17.9411 20.7688 17.8673 20.7828 17.7027C20.7649 17.4158 20.7381 17.1368 20.6939 16.8739C20.6064 16.3492 20.4466 15.8863 20.1495 15.5553C20.1463 15.5517 20.1431 15.5482 20.1399 15.5447C19.8003 15.1728 19.4605 14.8074 19.1186 14.4433C18.9086 14.2198 18.711 14.0096 18.4955 13.7792C18.3062 13.5789 18.047 13.4558 17.7703 13.441C17.4937 13.4261 17.2231 13.5201 17.0172 13.703C16.8112 13.8859 16.686 14.1435 16.6681 14.4199C16.6501 14.6964 16.7417 14.9684 16.9183 15.18C17.1073 15.4086 17.3188 15.6574 17.5195 15.8878C17.8529 16.271 18.1867 16.644 18.5278 17.0174C18.531 17.021 18.5342 17.0245 18.5375 17.028C18.8415 17.3548 19.289 17.5554 19.8042 17.6888C20.0623 17.756 20.338 17.807 20.6223 17.8499C20.7874 17.8502 20.8536 17.9414 20.9293 18.0237C21.0051 18.1063 21.0804 18.1885 21.1562 18.2711C21.761 18.9307 22.3662 19.5902 22.9704 20.2483C22.9698 20.2476 22.9686 20.2462 22.9667 20.2442C22.1753 19.3824 21.3847 18.5216 20.5964 17.6633C20.6027 17.6701 20.6132 17.6815 20.6227 17.6919C22.0028 19.1946 23.3792 20.6934 24.7583 22.195C24.9657 22.4209 25.173 22.6466 25.3804 22.8724Z" fill="white"/>
<path d="M44 33.724C44.5033 33.8914 44.986 34.0521 45.3419 34.1705C45.6978 34.2889 45.8977 34.3554 45.8977 34.3554C45.8977 34.3554 45.6978 34.2889 45.3419 34.1705C44.986 34.0521 44.5033 33.8914 44 33.724C44.2909 33.8208 44.5817 33.9175 44.8727 34.0143C46.8072 34.658 48.7381 35.3005 50.674 35.9446C50.6874 35.9491 50.702 35.954 50.7108 35.9569C49.6051 35.589 48.4961 35.22 47.3859 34.8506C47.3833 34.8497 47.3815 34.8491 47.3806 34.8488C48.2283 35.131 49.0775 35.4139 49.9265 35.6971C50.0328 35.7326 50.1386 35.7678 50.2449 35.8033C50.3509 35.8389 50.4611 35.8622 50.5287 36.0129C50.6837 36.255 50.8425 36.486 51.0087 36.6944C51.3399 37.1107 51.7043 37.4379 52.1246 37.5831C52.1291 37.5847 52.1337 37.5862 52.1382 37.5877C52.6156 37.748 53.09 37.9026 53.5656 38.0551C53.8577 38.1486 54.1325 38.2365 54.4328 38.3333C54.6955 38.4166 54.9819 38.3984 55.231 38.2771C55.48 38.1559 55.671 37.9424 55.7623 37.6825C55.8536 37.4227 55.8381 37.1366 55.7196 36.8862C55.6011 36.6358 55.389 36.4425 55.1319 36.3432C54.8557 36.235 54.5501 36.1201 54.2628 36.016C53.7854 35.8428 53.3124 35.6786 52.833 35.5176C52.8285 35.5161 52.8239 35.5146 52.8194 35.5131C52.3949 35.3749 51.9064 35.4167 51.3911 35.5501C51.1329 35.6166 50.867 35.7058 50.5977 35.8063C50.4531 35.8861 50.351 35.8386 50.2449 35.8033C50.1386 35.7678 50.0328 35.7326 49.9265 35.6971C49.0775 35.4139 48.2283 35.131 47.3806 34.8488C47.3815 34.8491 47.3833 34.8497 47.3859 34.8506C48.4961 35.22 49.6051 35.589 50.7108 35.9569C50.702 35.954 50.6874 35.9491 50.674 35.9446C48.7381 35.3005 46.8072 34.658 44.8727 34.0143C44.5817 33.9175 44.2909 33.8208 44 33.724Z" fill="white"/>
<path d="M25.7109 30C25.1861 30.0774 24.6829 30.1517 24.3118 30.2064C23.9407 30.2612 23.7323 30.2919 23.7323 30.2919C23.7323 30.2919 23.9407 30.2612 24.3118 30.2064C24.6829 30.1517 25.1861 30.0774 25.7109 30C25.425 30.0422 25.1391 30.0844 24.8533 30.1265C22.9883 30.4017 21.1275 30.6762 19.2609 30.9516C19.2484 30.9535 19.2342 30.9556 19.226 30.9568C20.2948 30.7991 21.3668 30.6409 22.4399 30.4826C22.442 30.4823 22.4433 30.4821 22.4441 30.482C21.6135 30.6046 20.7832 30.7273 19.9516 30.8504C19.8472 30.8659 19.744 30.8811 19.6397 30.8966C19.5871 30.8992 19.5384 30.9288 19.4817 30.9045C19.4227 30.8652 19.3639 30.8265 19.3052 30.7885C19.0703 30.6365 18.8373 30.4965 18.6075 30.3807C18.1496 30.1488 17.702 30.0138 17.2872 30.0712C17.2824 30.0719 17.2777 30.0726 17.2729 30.0733C16.7404 30.1528 16.2138 30.2316 15.6788 30.3137C15.3924 30.3577 15.0977 30.4038 14.809 30.4523C14.5049 30.503 14.2335 30.6724 14.0544 30.9232C13.8752 31.174 13.803 31.4857 13.8537 31.7897C13.9044 32.0937 14.0737 32.3651 14.3245 32.5443C14.5753 32.7234 14.887 32.7956 15.191 32.7449C15.191 32.7449 15.191 32.7449 15.191 32.7449C15.4715 32.6978 15.7474 32.6547 16.0319 32.6109C16.5592 32.53 17.0851 32.4513 17.616 32.3721C17.6207 32.3714 17.6254 32.3706 17.6302 32.3699C18.0426 32.3039 18.4312 32.0447 18.8018 31.6898C18.9879 31.5122 19.1702 31.3107 19.3509 31.0971C19.3961 31.0437 19.4411 30.9896 19.4862 30.9348C19.5334 30.8951 19.5886 30.9093 19.6397 30.8966C19.744 30.8811 19.8472 30.8659 19.9516 30.8504C20.7832 30.7273 21.6135 30.6046 22.4441 30.482C22.4433 30.4821 22.442 30.4823 22.4399 30.4826C21.3668 30.6409 20.2948 30.7991 19.226 30.9568C19.2342 30.9556 19.2484 30.9535 19.2609 30.9516C21.1275 30.6762 22.9883 30.4017 24.8533 30.1265C25.1391 30.0844 25.425 30.0422 25.7109 30Z" fill="white"/>
<path d="M44.8038 38.1394C44.7146 38.2286 44.6291 38.3141 44.566 38.3772C44.5029 38.4403 44.4675 38.4757 44.4675 38.4757C44.4675 38.4757 44.5029 38.4403 44.566 38.3772C44.6291 38.3141 44.7146 38.2286 44.8038 38.1394C44.8301 38.3513 44.9805 38.5407 45.0834 38.7297C45.8945 40.0519 46.792 41.3169 47.6974 42.5747C47.6983 42.576 47.6992 42.5772 47.7001 42.5784C47.2603 41.8229 46.7557 41.0957 46.2765 40.3619C46.2759 40.3609 46.2804 40.3678 46.281 40.3687C47.1322 41.6532 47.9832 42.9374 48.8341 44.2216C48.9563 44.4059 49.078 44.5895 49.2001 44.7738C48.9071 44.3316 48.6261 43.9075 48.4189 43.5949C48.2117 43.2822 48.0953 43.1066 48.0953 43.1066C48.0953 43.1066 48.2117 43.2822 48.4189 43.5949C48.6261 43.9075 48.9071 44.3316 49.2001 44.7738C49.078 44.5895 48.9563 44.4059 48.8341 44.2216C47.9832 42.9374 47.1322 41.6532 46.281 40.3687C46.2804 40.3678 46.2759 40.3609 46.2765 40.3619C46.7557 41.0957 47.2603 41.8229 47.7001 42.5784C47.6992 42.5772 47.6983 42.576 47.6974 42.5747C46.792 41.3169 45.8945 40.0519 45.0834 38.7297C44.9805 38.5407 44.8301 38.3513 44.8038 38.1394Z" fill="white"/>
<path d="M43.6848 42.216C43.624 42.0943 43.5656 41.9777 43.5226 41.8917C43.4796 41.8057 43.4555 41.7574 43.4555 41.7574C43.4555 41.7574 43.4796 41.8057 43.5226 41.8917C43.5656 41.9777 43.624 42.0943 43.6848 42.216C43.7177 42.218 43.7775 42.3034 43.8226 42.3505C44.1529 42.7321 44.4705 43.1245 44.7874 43.5176C44.7832 43.5168 44.7726 43.5031 44.7663 43.4965C44.5905 43.2948 44.419 43.0894 44.2471 42.8854C44.2557 42.8956 44.2665 42.9085 44.2753 42.9189C44.5925 43.2966 44.9084 43.6726 45.225 44.0496C45.2712 44.1046 45.3172 44.1593 45.3633 44.2142C45.0222 43.8081 44.695 43.4186 44.4537 43.1314C44.2125 42.8442 44.077 42.6828 44.077 42.6828C44.077 42.6828 44.2125 42.8442 44.4537 43.1314C44.695 43.4186 45.0222 43.8081 45.3633 44.2142C45.3172 44.1593 45.2712 44.1046 45.225 44.0496C44.9084 43.6726 44.5925 43.2966 44.2753 42.9189C44.2665 42.9085 44.2557 42.8956 44.2471 42.8854C44.419 43.0894 44.5905 43.2948 44.7663 43.4965C44.7726 43.5031 44.7832 43.5168 44.7874 43.5176C44.4705 43.1245 44.1529 42.7321 43.8226 42.3505C43.7775 42.3034 43.7177 42.218 43.6848 42.216Z" fill="white"/>
</svg>
