<svg width="72" height="72" viewBox="0 0 72 72" fill="none" xmlns="http://www.w3.org/2000/svg">
<path d="M24.3529 11.1477C24.5587 11.3536 24.8379 11.4692 25.129 11.4692C25.4202 11.4692 25.6993 11.3536 25.9052 11.1477C26.111 10.9419 26.2267 10.6627 26.2267 10.3716C26.2267 10.0804 26.111 9.80125 25.9052 9.5954C25.9005 9.59067 25.8958 9.58605 25.8913 9.5815C25.8893 9.57951 25.8866 9.57679 25.8847 9.57492C25.8839 9.57404 25.8827 9.57293 25.8819 9.57212C25.8816 9.57176 25.8814 9.57154 25.8815 9.57166C25.8819 9.57213 25.8803 9.57048 25.8834 9.5736C25.8936 9.58503 25.8591 9.54544 25.9344 9.62908C25.9444 9.64106 25.9552 9.6524 25.9881 9.6969C26.0057 9.72252 26.0274 9.74726 26.0781 9.84325C26.1028 9.89637 26.1417 9.95786 26.1797 10.1393C26.1955 10.2313 26.2163 10.363 26.1756 10.5682C26.1405 10.7665 25.9898 11.0617 25.7478 11.2307C25.2249 11.5651 24.9288 11.417 24.806 11.4009C24.6718 11.3615 24.62 11.3301 24.5767 11.3079C24.4969 11.2635 24.4732 11.2436 24.4504 11.2276C24.4099 11.1974 24.3987 11.1869 24.3874 11.1775C24.3515 11.1463 24.3527 11.1463 24.3463 11.1405C24.3372 11.1319 24.3407 11.1352 24.3385 11.1331C24.3253 11.1202 24.3496 11.1441 24.3549 11.1495C24.3744 11.1688 24.393 11.1873 24.4102 11.2045C24.4485 11.2426 24.483 11.277 24.523 11.3168C24.5979 11.3914 24.6693 11.4625 24.7465 11.5394C24.8943 11.6865 25.045 11.8367 25.1944 11.9855C25.49 12.2799 25.791 12.5798 26.0892 12.8768C26.6855 13.4708 27.2806 14.0637 27.8819 14.6627C28.0105 14.7908 28.1391 14.9189 28.2743 15.0536C28.3047 15.0839 28.3354 15.1144 28.3662 15.1452C32.5126 19.2758 36.7222 23.3318 40.871 27.4651C40.8784 27.4725 40.8833 27.4773 40.8855 27.4795C40.8861 27.4802 40.8865 27.4806 40.8868 27.4808C40.8869 27.4809 40.8869 27.4809 40.8869 27.4809C40.8869 27.4809 40.8869 27.4809 40.8869 27.4809C40.8869 27.4809 40.8869 27.4809 40.8869 27.4809C40.8869 27.4809 40.8869 27.4809 40.8869 27.4809C40.8869 27.4809 40.8868 27.4809 40.8868 27.4808C40.8867 27.4808 40.8867 27.4808 40.8865 27.4805C40.8862 27.4802 40.887 27.481 40.8846 27.4786C40.884 27.478 40.8837 27.4777 40.881 27.475C40.8783 27.4722 40.8812 27.4755 40.8639 27.4572C40.2334 28.3372 42.5094 24.8774 42.2472 26.0164C42.2885 26.053 42.2801 26.0465 42.2862 26.0521C42.3006 26.066 42.2948 26.0605 42.2968 26.0624C42.2977 26.0633 42.2977 26.0633 42.2979 26.0635C42.2991 26.0647 42.2983 26.0639 42.2985 26.0641C42.2985 26.0641 42.2985 26.0641 42.2985 26.0641C42.2985 26.0641 42.2984 26.064 42.2984 26.064C42.2981 26.0636 42.2969 26.0625 42.2951 26.0607C42.2919 26.0575 42.2823 26.048 42.2829 26.0485C42.2795 26.0452 42.2757 26.0414 42.2713 26.037C42.2626 26.0283 42.2519 26.0176 42.2391 26.0049C42.2124 25.9783 42.2024 25.9682 42.1802 25.9461C42.1353 25.9014 42.0976 25.8638 42.0577 25.8239C41.9659 25.7322 41.9012 25.6676 41.8095 25.5758C41.6539 25.4201 41.4885 25.2543 41.3231 25.0883C40.9948 24.7587 40.6777 24.4392 40.3517 24.1101C39.7028 23.455 39.0579 22.8008 38.4114 22.1448C37.7659 21.4899 37.1188 20.833 36.4724 20.1793C36.1515 19.8546 35.8227 19.5228 35.4992 19.1972C35.3407 19.0377 35.1821 18.8783 35.012 18.7076C34.9393 18.6347 34.8435 18.5388 34.7711 18.4663C34.7237 18.4189 34.6877 18.3828 34.6485 18.3436C34.6236 18.3188 34.6027 18.2978 34.5858 18.281C34.5802 18.2754 34.563 18.2582 34.5518 18.247C34.5462 18.2415 34.5419 18.2373 34.5381 18.2335C34.5372 18.2325 34.5362 18.2316 34.5351 18.2305C34.533 18.2284 34.5321 18.2275 34.5252 18.2208C34.5134 18.2107 34.5421 18.2331 34.4587 18.1619C34.4391 18.1472 34.429 18.134 34.3373 18.0763C34.2715 18.0524 34.2635 17.9792 33.8559 17.9238C33.8282 17.9214 33.7364 17.9182 33.6535 17.929C33.614 17.9326 33.4826 17.9557 33.3768 18.0008C33.3275 18.0178 33.1626 18.1037 33.0679 18.1939C33.015 18.236 32.8859 18.3848 32.8342 18.493C32.6249 18.9418 32.7305 19.1642 32.7499 19.2811C32.8216 19.5074 32.8594 19.5314 32.8839 19.5775C32.9084 19.6149 32.9222 19.6325 32.9332 19.6469C32.955 19.675 32.9637 19.6848 32.9716 19.694C32.9986 19.7248 33.0001 19.7254 33.0055 19.7313C33.0351 19.7619 33.0248 19.7511 33.037 19.7634C33.1585 19.8854 33.3 20.0268 33.4286 20.1552C38.1685 24.8848 42.9052 29.6066 47.6307 34.3323C47.7207 34.4223 47.8091 34.5108 47.8958 34.5976C48.697 35.3997 49.5152 36.22 50.3103 37.0298C50.7074 37.4349 51.1071 37.8448 51.4821 38.2457C51.669 38.446 51.8587 38.6534 52.0112 38.8379C52.085 38.9262 52.1577 39.0264 52.1648 39.0418C52.1719 39.0349 52.1269 39.0507 52.0903 38.7526C52.0722 38.603 52.1386 38.3315 52.2347 38.1981C52.326 38.062 52.3719 38.0381 52.3663 38.0397C52.3565 38.0488 52.2786 38.1051 52.1947 38.1599C50.8683 38.999 49.4498 39.8582 48.1195 40.7652C48.0373 40.8211 47.9537 40.8784 47.8688 40.937C43.8499 43.7246 39.8919 46.5552 35.9508 49.4453C35.9044 49.4795 35.8585 49.5135 35.8129 49.5471C33.734 51.0622 31.6274 52.7807 29.7354 54.3823L29.6814 54.4283C29.6591 54.4485 29.6363 54.4689 29.613 54.4897C28.2322 55.6982 26.6594 56.855 25.1082 57.9816C24.3654 58.5179 23.6161 59.0474 22.8622 59.5706L22.8472 59.5811C22.8411 59.5855 22.835 59.5899 22.8289 59.5943C22.2255 60.0353 21.7551 60.9472 21.46 61.7633C21.4275 61.8526 21.4331 61.9674 21.4622 62.0716C21.4921 62.1765 21.5431 62.2624 21.6174 62.3209C21.6916 62.3794 21.787 62.4089 21.896 62.4135C22.0042 62.4174 22.1171 62.3961 22.1963 62.3436C22.8074 61.9393 23.6187 61.9996 24.2283 61.5542C24.2341 61.55 24.2399 61.5459 24.2458 61.5417L24.2308 61.5523C24.9981 61.0249 25.7618 60.4911 26.5211 59.9485C28.1168 58.7992 29.6886 57.6628 31.2363 56.3106C31.2632 56.2866 31.2897 56.2629 31.3158 56.2393L31.2617 56.2853C33.2998 54.5623 35.1646 53.0005 37.2411 51.474C37.2858 51.4408 37.3309 51.4073 37.3764 51.3735C41.2748 48.4972 45.239 45.6555 49.214 42.8801C49.2978 42.8218 49.38 42.7645 49.4604 42.7082C50.7792 41.7836 52.0212 40.8673 53.4038 39.9782C53.513 39.9037 53.6253 39.8323 53.7912 39.6912C53.8402 39.6454 53.9392 39.5728 54.0693 39.3766C54.205 39.1829 54.2892 38.8398 54.266 38.6186C54.2182 38.1776 54.1047 38.0638 54.0396 37.9325C53.9005 37.7045 53.7933 37.5803 53.6845 37.4474C53.4715 37.1938 53.2666 36.9747 53.0638 36.7594C52.6612 36.3342 52.2542 35.9215 51.8497 35.5125C51.0417 34.697 50.2206 33.8785 49.4179 33.0758C49.331 32.9889 49.2425 32.9005 49.1524 32.8104C44.4225 28.0849 39.6855 23.3634 34.9431 18.6368C34.8151 18.5092 34.6708 18.3656 34.5534 18.2488C34.5494 18.245 34.5306 18.2255 34.5588 18.2546C34.5641 18.2604 34.5655 18.261 34.5925 18.2918C34.6003 18.301 34.6091 18.3107 34.6309 18.3388C34.6418 18.3532 34.6556 18.3709 34.6801 18.4083C34.7046 18.4544 34.7424 18.4784 34.8141 18.7046C34.8336 18.8215 34.9391 19.044 34.7299 19.4928C34.6782 19.601 34.549 19.7498 34.4962 19.7918C34.4014 19.882 34.2366 19.9679 34.1872 19.9849C34.0815 20.0301 33.9501 20.0531 33.9105 20.0568C33.8276 20.0676 33.7358 20.0643 33.7081 20.0619C33.3006 20.0066 33.2926 19.9334 33.2268 19.9094C33.135 19.8518 33.1249 19.8385 33.1054 19.8239C33.022 19.7527 33.0509 19.7753 33.0394 19.7654C33.033 19.7592 33.0331 19.7593 33.0325 19.7587C33.0323 19.7585 33.0324 19.7586 33.0327 19.7589C33.0339 19.7601 33.0376 19.7637 33.0425 19.7686C33.0526 19.7785 33.0697 19.7954 33.0752 19.8009C33.0918 19.8173 33.1127 19.838 33.1375 19.8626C33.1767 19.9013 33.2129 19.9371 33.2604 19.9842C33.3331 20.0561 33.4294 20.1514 33.5026 20.2237C33.6738 20.393 33.8339 20.5508 33.9941 20.7086C34.3209 21.0307 34.654 21.3581 34.98 21.6778C35.6362 22.3215 36.2955 22.966 36.953 23.6089C37.6114 24.2528 38.268 24.8953 38.9256 25.5416C39.2559 25.8663 39.5767 26.1822 39.9075 26.5092C40.0741 26.674 40.2406 26.8388 40.3968 26.9938C40.4889 27.0852 40.5538 27.1496 40.6459 27.2411C40.6859 27.2809 40.7236 27.3184 40.7685 27.3631C40.7907 27.3852 40.8008 27.3952 40.8276 27.4218C40.8403 27.4345 40.8511 27.4452 40.8598 27.4539C40.8641 27.4583 40.868 27.4621 40.8713 27.4654C40.8708 27.4648 40.8803 27.4744 40.8835 27.4776C40.8854 27.4794 40.8865 27.4805 40.8868 27.4809C40.8869 27.4809 40.8869 27.4809 40.8869 27.4809C40.8869 27.481 40.8869 27.481 40.8869 27.481C40.8871 27.4812 40.8863 27.4803 40.8876 27.4816C40.8877 27.4818 40.8878 27.4818 40.8887 27.4827C40.8906 27.4846 40.8849 27.479 40.8992 27.493C40.9054 27.4986 40.8969 27.492 40.9382 27.5286C40.676 28.6677 42.952 25.2079 42.3216 26.0878C42.3042 26.0695 42.3071 26.0728 42.3044 26.0701C42.3017 26.0673 42.3015 26.0671 42.3009 26.0665C42.2984 26.064 42.2993 26.0649 42.2989 26.0645C42.2987 26.0643 42.2987 26.0643 42.2987 26.0642C42.2986 26.0642 42.2986 26.0642 42.2986 26.0642C42.2985 26.0641 42.2985 26.0641 42.2985 26.0641C42.2985 26.0641 42.2985 26.0641 42.2985 26.0641C42.2985 26.0641 42.2985 26.0641 42.2985 26.0641C42.2985 26.0641 42.2984 26.064 42.2983 26.0639C42.2981 26.0637 42.2977 26.0633 42.2971 26.0627C42.2948 26.0604 42.29 26.0556 42.2826 26.0482C38.1338 21.915 34.062 17.7206 29.9156 13.5899C29.8847 13.5592 29.8541 13.5286 29.8237 13.4984C29.6884 13.3636 29.5599 13.2355 29.4313 13.1074C28.83 12.5084 28.2348 11.9155 27.6385 11.3215C27.3403 11.0245 27.0393 10.7246 26.7437 10.4301C26.5943 10.2813 26.4435 10.1311 26.2957 9.98392C26.2184 9.90695 26.147 9.83584 26.072 9.76115C26.0319 9.72127 25.9973 9.68682 25.9589 9.64853C25.9415 9.63128 25.9229 9.61273 25.9029 9.59283C25.891 9.58107 25.8936 9.58343 25.8642 9.55453C25.8619 9.55236 25.8654 9.55569 25.8562 9.5469C25.8498 9.5411 25.851 9.54109 25.815 9.50983C25.8037 9.5004 25.7925 9.48993 25.752 9.45976C25.7292 9.44371 25.7054 9.42385 25.6257 9.37941C25.5824 9.35727 25.5306 9.32579 25.3963 9.28644C25.2735 9.27033 24.9774 9.12222 24.4546 9.45667C24.2126 9.62561 24.0619 9.92086 24.0268 10.1191C23.9861 10.3243 24.0069 10.456 24.0227 10.5481C24.0607 10.7295 24.0996 10.791 24.1242 10.8441C24.175 10.9401 24.1967 10.9648 24.2143 10.9904C24.2472 11.0349 24.258 11.0463 24.268 11.0583C24.3433 11.142 24.3091 11.1027 24.3199 11.1147C24.3248 11.1196 24.3228 11.1176 24.3239 11.1187C24.3249 11.1197 24.3257 11.1206 24.3266 11.1214C24.3285 11.1233 24.3299 11.1247 24.331 11.1259C24.3334 11.1283 24.3364 11.1313 24.3386 11.1334C24.3434 11.1383 24.3481 11.143 24.3529 11.1477Z" fill="white"/>
</svg>
