<svg width="72" height="72" viewBox="0 0 72 72" fill="none" xmlns="http://www.w3.org/2000/svg">
<path d="M35.3275 67.889C35.3804 67.3612 35.4312 66.8551 35.4686 66.4819C35.5061 66.1087 35.5271 65.899 35.5271 65.899C35.5271 65.899 35.5061 66.1087 35.4686 66.4819C35.4312 66.8551 35.3804 67.3612 35.3275 67.889C35.3949 67.2168 35.4623 66.5445 35.5298 65.8722C35.57 65.4706 35.6107 65.0654 35.6509 64.664C35.6481 64.692 35.6449 64.7244 35.6419 64.7545C35.5914 65.2575 35.5408 65.762 35.4904 66.2644C35.4957 66.2119 35.501 66.1582 35.5063 66.1041C35.5541 65.6184 35.6003 65.1322 35.6451 64.646C35.4003 64.1339 36.4998 63.7422 36.6908 63.2635C36.7384 63.1748 36.7678 63.0848 36.7753 62.9924C36.9835 60.3483 37.0521 57.7576 37.1515 55.1447C37.1572 54.9817 37.1635 54.8134 37.1702 54.6408C37.471 47.3929 38.1866 40.1068 40.1383 33.1592C40.3211 32.5206 40.5168 31.8842 40.7257 31.2561C40.7895 31.0641 40.7773 30.8541 40.6891 30.6713C40.6009 30.4885 40.4445 30.3481 40.2538 30.2808C40.0631 30.2135 39.8532 30.2246 39.6699 30.3116C39.4865 30.3985 39.3451 30.5543 39.2743 30.7439C39.2743 30.7439 39.2743 30.7439 39.2743 30.7439C39.0346 31.3868 38.8097 32.0379 38.5994 32.6908C36.3519 39.7944 35.5093 47.2092 35.2029 54.5643C35.1961 54.7393 35.1898 54.91 35.184 55.0752C35.0855 57.6794 35.0169 60.2813 34.8168 62.8347C34.8095 62.9249 34.824 63.0167 34.8563 63.1106C34.9662 63.6049 35.9794 64.1853 35.6451 64.646C35.6003 65.1322 35.5541 65.6184 35.5063 66.1041C35.501 66.1582 35.4957 66.2119 35.4904 66.2644C35.5408 65.762 35.5914 65.2575 35.6419 64.7545C35.6449 64.7244 35.6481 64.692 35.6509 64.664C35.6107 65.0654 35.57 65.4706 35.5298 65.8722C35.4623 66.5445 35.3949 67.2168 35.3275 67.889Z" fill="black"/>
<path d="M36.1679 69C36.1156 68.4721 36.0655 67.9659 36.0285 67.5926C35.9915 67.2194 35.9707 67.0097 35.9707 67.0097C35.9707 67.0097 35.9915 67.2194 36.0285 67.5926C36.0655 67.9659 36.1156 68.4721 36.1679 69C36.1679 69 36.1679 69 36.1679 69C36.1266 68.583 36.0853 68.1659 36.044 67.7488C36.0133 67.4399 35.9825 67.1287 35.9519 66.8204C35.9429 66.7286 35.9339 66.638 35.925 66.5482C35.9521 66.8224 35.9795 67.0989 36.0068 67.374C36.0197 67.5037 36.0328 67.6359 36.0455 67.7649C36.0507 67.8209 36.0545 67.8546 36.0532 67.9044C36.0515 67.9881 36.0051 67.8721 35.9967 67.8501C35.9622 67.7609 35.936 67.6791 35.9074 67.5911C35.8528 67.421 35.7969 67.2377 35.7454 67.0694C35.6385 66.7194 35.5324 66.3712 35.424 66.0242C35.2071 65.3293 34.9813 64.637 34.7395 63.9476C34.3624 63.3125 34.5903 62.4521 34.524 61.6737C34.4857 60.8875 34.3306 60.1193 33.9722 59.4364C33.9685 59.4294 33.9648 59.4224 33.9611 59.4153L33.9258 59.3536C32.1399 56.4273 30.2071 53.5288 28.7213 50.5726L28.7394 50.6138C28.7201 50.5683 28.7013 50.5235 28.6828 50.4783C28.5716 50.2071 28.4586 49.9402 28.351 49.6674C28.2082 49.3071 28.0761 48.9324 27.9531 48.5304C27.8928 48.3346 27.752 48.1669 27.5688 48.0622C27.3853 47.9577 27.1744 47.9248 26.9755 47.9726C26.7765 48.0204 26.6036 48.1454 26.4876 48.322C26.372 48.4984 26.3227 48.7118 26.3579 48.9136C26.3579 48.9136 26.3579 48.9136 26.3579 48.9136C26.4298 49.3263 26.4973 49.7665 26.6022 50.2064C26.681 50.5388 26.7794 50.8692 26.9025 51.1866C26.923 51.2395 26.9437 51.2919 26.9649 51.3448L26.983 51.386C28.528 54.6105 30.3513 57.5021 32.1476 60.4515L32.1123 60.3897C32.1156 60.396 32.1189 60.4022 32.1222 60.4085C32.4397 61.0133 32.8866 61.577 33.405 62.1363C33.8948 62.7034 34.6357 63.2116 34.7395 63.9476C34.9813 64.637 35.2071 65.3293 35.424 66.0242C35.5324 66.3712 35.6385 66.7194 35.7454 67.0694C35.7969 67.2377 35.8528 67.421 35.9074 67.5911C35.936 67.6791 35.9622 67.7609 35.9967 67.8501C36.0051 67.8721 36.0515 67.9881 36.0532 67.9044C36.0545 67.8546 36.0507 67.8209 36.0455 67.7649C36.0328 67.6359 36.0197 67.5037 36.0068 67.374C35.9795 67.0989 35.9521 66.8224 35.925 66.5482C35.9339 66.638 35.9429 66.7286 35.9519 66.8204C35.9825 67.1287 36.0133 67.4399 36.044 67.7488C36.0853 68.1659 36.1266 68.583 36.1679 69Z" fill="black"/>
<path d="M27.2068 57.0577C27.4139 57.2234 27.6783 57.3 27.9419 57.2707C28.2055 57.2414 28.4467 57.1086 28.6124 56.9015C28.7781 56.6944 28.8547 56.43 28.8254 56.1664C28.7961 55.9028 28.6633 55.6616 28.4562 55.4959C28.4562 55.4959 28.4562 55.4959 28.4562 55.4959C28.2144 55.3025 27.9727 55.1091 27.7307 54.9156C27.7288 54.914 27.7264 54.9121 27.7243 54.9104C27.7243 54.9104 27.7242 54.9104 27.7242 54.9104C27.7242 54.9104 27.7242 54.9104 27.7242 54.9104C27.7242 54.9104 27.7242 54.9104 27.7242 54.9104C27.7242 54.9104 27.7242 54.9104 27.7243 54.9104C27.7243 54.9104 27.7243 54.9104 27.7243 54.9104C27.7243 54.9104 27.7243 54.9104 27.7246 54.9106C27.7248 54.9108 27.7243 54.9104 27.726 54.9118C27.7264 54.9121 27.7267 54.9123 27.7281 54.9135C27.7291 54.9143 27.7296 54.9146 27.7338 54.9181C27.7376 54.9213 27.7347 54.9185 27.7582 54.9388C27.7677 54.9477 27.7692 54.9465 27.8178 54.9955C28.5531 54.2837 26.2529 57.5392 26.5956 56.555C26.4747 56.4792 26.5137 56.4999 26.4967 56.4891C26.4629 56.463 26.4812 56.4771 26.4764 56.4733C26.4755 56.4727 26.4755 56.4726 26.4754 56.4725C26.475 56.4722 26.475 56.4723 26.475 56.4722C26.4747 56.472 26.4749 56.4721 26.4748 56.4721C26.4749 56.4721 26.4749 56.4722 26.475 56.4722C26.4752 56.4724 26.4755 56.4727 26.4755 56.4727C26.4757 56.4728 26.4759 56.4729 26.4761 56.4731C26.4765 56.4734 26.477 56.4738 26.4776 56.4743C26.4787 56.4752 26.4793 56.4756 26.4803 56.4764C26.4825 56.4782 26.484 56.4794 26.4859 56.4809C26.4901 56.4843 26.4932 56.4868 26.4973 56.49C26.5045 56.4958 26.5122 56.502 26.5196 56.5079C26.5346 56.5199 26.5496 56.5319 26.5645 56.5438C26.5946 56.5679 26.6243 56.5917 26.6543 56.6156C26.7141 56.6635 26.7739 56.7113 26.8338 56.7592C26.8354 56.7606 26.837 56.7618 26.8381 56.7627C26.8612 56.7808 26.8565 56.7783 26.9104 56.8183C26.9395 56.8371 26.8968 56.8159 27.0291 56.8935C27.0634 56.9108 27.101 56.9351 27.2171 56.9721C27.2781 56.989 27.3588 57.015 27.521 57.015C27.6708 57.0141 27.9862 56.9705 28.2449 56.6908C28.5028 56.4093 28.5203 56.0764 28.5036 55.9224C28.4857 55.7553 28.4492 55.6757 28.4247 55.6155C28.369 55.4944 28.3534 55.4835 28.3511 55.477C28.327 55.4393 28.311 55.4184 28.2981 55.4015C28.2728 55.369 28.2593 55.3541 28.248 55.3413C28.2011 55.2904 28.2121 55.3033 28.1972 55.2879C28.1611 55.2518 28.1416 55.2334 28.12 55.2126C28.0753 55.1698 28.0367 55.1331 27.9943 55.0926C27.9132 55.0154 27.8343 54.9398 27.7531 54.8615C26.8291 53.9692 25.9405 53.0369 25.1444 52.058C25.0905 51.9915 25.0369 51.9225 24.984 51.8515C24.0905 50.63 23.455 49.0721 22.9188 47.5301C22.8928 47.4544 22.8675 47.3791 22.8425 47.3031C22.3457 45.7927 22.0703 44.2069 22.0154 42.5985C22.0131 42.5328 22.0112 42.4679 22.0097 42.4022C21.9839 41.135 22.0679 39.8101 22.3965 38.713C22.4105 38.6681 22.4247 38.625 22.4395 38.5825C22.528 38.3256 22.6463 38.1051 22.7598 37.9761C22.8786 37.8447 22.9448 37.8176 23.0618 37.7881C23.0783 37.7844 23.0959 37.7812 23.1146 37.7786C23.3447 37.7375 23.786 37.8402 24.1911 38.0634C24.2135 38.0755 24.2369 38.0889 24.2611 38.1036C25.6366 39.0542 26.8327 41.2478 27.9389 43.1245C27.9513 43.146 27.9635 43.1674 27.9755 43.1887C28.4951 44.0884 28.7455 45.0331 28.9551 46.1807C28.9581 46.1968 28.9612 46.213 28.9642 46.2292C29.1773 47.3869 29.3561 48.5978 29.4931 49.7961C29.4938 49.8021 29.4944 49.8081 29.4951 49.8141C29.4952 49.8148 29.4952 49.8154 29.4953 49.8161C29.5749 50.4846 29.6673 51.1532 29.7942 51.8995C29.8338 52.1209 29.9651 52.323 30.1507 52.4623C30.3368 52.6015 30.562 52.6665 30.7854 52.642C31.0087 52.6175 31.2145 52.5053 31.366 52.329C31.517 52.1528 31.6015 51.9271 31.5921 51.7023C31.5921 51.7023 31.5921 51.7023 31.5921 51.7023C31.5683 51.0678 31.6241 50.3483 31.5732 49.6342C31.5732 49.6335 31.5731 49.6328 31.5731 49.6321C31.5727 49.6257 31.5723 49.6194 31.5718 49.613C31.4853 48.3483 31.3717 47.0993 31.1375 45.8229C31.1341 45.8049 31.1307 45.787 31.1274 45.7691C30.9215 44.6088 30.5696 43.2414 29.9012 42.1023C29.8859 42.0753 29.8705 42.0483 29.8549 42.0212C28.6243 40.048 27.7118 37.9805 25.3261 36.2918C25.2737 36.2614 25.2206 36.2322 25.1668 36.2043C24.5107 35.8765 23.7404 35.5808 22.7669 35.7337C22.6892 35.7474 22.6108 35.7649 22.5327 35.7863C21.3401 36.1 20.7952 37.2089 20.5543 37.9263C20.532 37.9904 20.5112 38.0535 20.4911 38.1178C20.0517 39.6129 19.9848 41.0197 19.9984 42.4436C19.9997 42.5166 20.0014 42.5887 20.0035 42.6616C20.0524 44.44 20.3274 46.2336 20.8903 47.9439C20.9186 48.0299 20.9473 48.1151 20.977 48.2007C21.5702 49.8694 22.2681 51.4999 23.3871 53.0427C23.455 53.1337 23.525 53.224 23.5971 53.3129C24.4633 54.3788 25.3961 55.3627 26.364 56.2997C26.4486 56.3816 26.5311 56.4607 26.6136 56.5395C26.6564 56.5803 26.696 56.618 26.7353 56.6557C26.7523 56.672 26.7749 56.6939 26.7801 56.6991C26.777 56.6957 26.7898 56.7101 26.7587 56.6763C26.7501 56.6665 26.7387 56.6541 26.7148 56.6235C26.7027 56.6076 26.6873 56.5875 26.6637 56.5505C26.6614 56.544 26.6462 56.5338 26.5908 56.4133C26.5665 56.3534 26.53 56.2742 26.5121 56.1072C26.4955 55.9535 26.5129 55.6207 26.7707 55.3393C27.0293 55.0597 27.3446 55.0161 27.4942 55.0152C27.6562 55.0152 27.7366 55.0412 27.7972 55.058C27.9127 55.0948 27.9494 55.1187 27.9826 55.1354C28.1076 55.2087 28.063 55.1859 28.0855 55.1999C28.1099 55.2181 28.0943 55.2066 28.0875 55.201C28.0864 55.2001 28.0848 55.1988 28.0832 55.1975C28.0233 55.1496 27.9635 55.1018 27.9037 55.0539C27.8737 55.0299 27.8439 55.0061 27.8139 54.9821C27.799 54.9702 27.784 54.9582 27.769 54.9462C27.7616 54.9402 27.7539 54.9341 27.7467 54.9283C27.7426 54.925 27.7395 54.9226 27.7353 54.9192C27.7333 54.9176 27.7318 54.9164 27.7297 54.9147C27.7287 54.9139 27.7281 54.9134 27.727 54.9126C27.7264 54.9121 27.7259 54.9117 27.7255 54.9113C27.7253 54.9112 27.7251 54.911 27.7249 54.9109C27.7249 54.9109 27.7246 54.9106 27.7244 54.9105C27.7243 54.9104 27.7242 54.9104 27.7242 54.9104C27.7242 54.9103 27.7244 54.9105 27.7241 54.9102C27.724 54.9102 27.7241 54.9102 27.7237 54.9099C27.7235 54.9098 27.7235 54.9098 27.7227 54.9091C27.7178 54.9054 27.7361 54.9194 27.7024 54.8934C27.6853 54.8825 27.7244 54.9032 27.6034 54.8275C27.9462 53.8433 25.6459 57.0988 26.3812 56.387C26.4299 56.4359 26.4313 56.4347 26.4408 56.4436C26.4644 56.464 26.4615 56.4611 26.4653 56.4643C26.4695 56.4678 26.47 56.4682 26.4709 56.4689C26.4724 56.4701 26.4727 56.4704 26.473 56.4706C26.4748 56.4721 26.4742 56.4716 26.4745 56.4718C26.4748 56.472 26.4747 56.472 26.4748 56.472C26.4748 56.4721 26.4748 56.4721 26.4748 56.4721C26.4748 56.4721 26.4748 56.4721 26.4748 56.4721C26.4748 56.4721 26.4748 56.4721 26.4748 56.4721C26.4748 56.4721 26.4748 56.4721 26.4748 56.4721C26.4749 56.4721 26.4749 56.4721 26.4749 56.4721C26.477 56.4738 26.4794 56.4758 26.4813 56.4773C26.7233 56.6708 26.965 56.8642 27.2068 57.0577Z" fill="black"/>
<path d="M39.9692 44.9084C39.8337 45.1384 39.6125 45.3051 39.3541 45.372C39.0957 45.4388 38.8213 45.4003 38.5914 45.2648C38.3614 45.1293 38.1946 44.9081 38.1278 44.6497C38.061 44.3913 38.0995 44.1169 38.235 43.887C38.235 43.887 38.235 43.887 38.235 43.887C38.7916 42.9442 39.2766 42.0098 39.6018 41.0367C39.6452 40.9076 39.6861 40.7778 39.7242 40.6474C39.7248 40.6455 39.7253 40.6436 39.7259 40.6417C41.1742 36.4086 43.1074 32.7013 44.7308 28.8131C44.7335 28.8066 44.7362 28.8002 44.7389 28.7938C45.4832 26.9754 46.3244 25.124 46.7357 23.3872C46.738 23.3774 46.7402 23.3676 46.7424 23.3578C47.1002 21.8168 46.9892 20.2655 46.5806 18.6705C46.5773 18.6575 46.574 18.6444 46.5707 18.6313C46.1436 16.8843 45.1807 14.9497 43.9715 14.3855C43.9639 14.3823 43.9564 14.3792 43.949 14.3762C42.9744 13.9344 41.6191 14.713 40.4083 15.7986C40.4014 15.8046 40.3946 15.8107 40.3878 15.8168C40.0677 16.0908 39.7522 16.7723 39.4133 17.4532C39.4072 17.4655 39.401 17.4778 39.3949 17.4902C38.6807 18.9246 38.1574 20.4784 37.7383 22.0775C37.7354 22.0885 37.7325 22.0995 37.7296 22.1105C37.1208 24.493 36.6649 26.9824 36.2863 29.4472C36.2853 29.4544 36.2842 29.4616 36.2831 29.4688C36.0379 31.1647 35.8173 32.9068 35.9846 34.4426L35.9807 34.4145C35.9814 34.4196 35.9822 34.4247 35.9829 34.4297C36.1972 35.9681 36.3009 37.4719 36.3522 38.9962C36.3728 39.7676 36.3905 40.5167 36.3315 41.3581L36.3294 41.3839C36.3293 41.3854 36.3291 41.3869 36.3289 41.3884C36.3239 41.7488 35.7986 42.4857 35.4208 42.6658C35.3281 42.7256 35.1924 42.7507 35.0638 42.7493C34.9339 42.7471 34.8216 42.7186 34.7315 42.6563C34.6414 42.594 34.5752 42.4989 34.5274 42.3782C34.4807 42.2582 34.4563 42.1225 34.4796 42.0146C34.4796 42.0146 34.4796 42.0146 34.4796 42.0146C34.5661 41.5951 34.231 41.5781 34.2748 41.1926C34.2749 41.1914 34.275 41.1902 34.2751 41.1889L34.273 41.2148C34.304 40.5611 34.2754 39.8072 34.2387 39.084C34.1589 37.6347 34.0266 36.1667 33.8047 34.7604C33.804 34.7558 33.8033 34.7512 33.8025 34.7466L33.7986 34.7186C33.5586 32.7377 33.785 30.9314 34.0259 29.1381C34.027 29.1305 34.0281 29.1229 34.0292 29.1154C34.4059 26.5702 34.8497 24.0606 35.4914 21.5292C35.4945 21.5174 35.4975 21.5056 35.5006 21.4939C35.9449 19.79 36.5115 18.0855 37.3204 16.4595C37.3274 16.4455 37.3343 16.4316 37.3412 16.4178C37.7194 15.7118 38.0689 14.9142 38.9406 14.1402C38.9579 14.1255 38.9753 14.111 38.9929 14.0967C40.2986 13.0453 42.3302 11.5124 44.7371 12.4364C44.7559 12.444 44.7747 12.4519 44.7934 12.4598C47.2863 13.7802 48.0544 16.0157 48.6595 18.1041C48.6632 18.1188 48.6669 18.1335 48.6706 18.1482C49.1352 19.9255 49.2638 21.9572 48.8154 23.8251C48.8129 23.8364 48.8103 23.8477 48.8077 23.8591C48.2862 25.9881 47.4505 27.758 46.6899 29.6161C46.6871 29.6227 46.6843 29.6293 46.6815 29.636C45.0183 33.5694 42.9549 37.4056 41.6579 41.2057C41.6573 41.2079 41.6566 41.2101 41.656 41.2124C41.6103 41.3687 41.5614 41.5241 41.5096 41.6781C41.1203 42.8423 40.5557 43.9146 39.9692 44.9084Z" fill="black"/>
</svg>
