<svg width="72" height="72" viewBox="0 0 72 72" fill="none" xmlns="http://www.w3.org/2000/svg">
<path d="M35.2751 11C34.7453 11.027 34.2373 11.0529 33.8627 11.072C33.4881 11.0911 33.2777 11.1018 33.2777 11.1018C33.2777 11.1018 33.4881 11.0911 33.8627 11.072C34.2373 11.0529 34.7453 11.027 35.2751 11C34.4904 11.04 33.7052 11.08 32.921 11.12C32.9078 11.1206 32.8947 11.1213 32.8836 11.1219C33.2654 11.1024 33.6493 11.0828 34.0321 11.0633C34.0449 11.0627 34.0591 11.062 34.0703 11.0614C34.1394 11.0625 34.2124 11.0408 34.2485 11.0799C33.2491 11.4324 32.2098 11.6644 31.2043 12.005C30.9518 12.0876 30.701 12.1731 30.4512 12.2632C30.3378 12.339 30.174 12.2778 30.0228 12.2573C29.8707 12.2311 29.7157 12.21 29.5635 12.1935C28.9496 12.1311 28.3333 12.1485 27.739 12.3798C27.5052 12.467 27.2895 12.5743 27.0844 12.7144C25.5261 13.7024 24.0594 15.4503 23.4131 17.1662C23.3007 17.4235 23.2215 17.6732 23.159 17.917C22.7038 19.9903 22.9358 21.7866 23.2356 23.6355C23.2774 23.8629 23.3317 24.0918 23.4004 24.3185C23.8084 25.6915 24.7185 26.719 25.5144 27.5647C25.6384 27.6954 25.7604 27.8243 25.886 27.9561C27.3047 29.6186 29.5589 31.0392 31.6476 31.712C31.8302 31.7778 32.0122 31.8301 32.192 31.8723C34.3651 32.2902 36.1386 31.9131 37.942 31.7319C38.0742 31.7156 38.2031 31.6978 38.3345 31.6778C40.17 31.3972 41.9856 30.7631 43.5697 29.6685C43.6597 29.606 43.7482 29.5424 43.836 29.477C46.3723 27.634 47.7439 24.571 48.0761 21.6531C48.0863 21.5707 48.0945 21.4884 48.1007 21.4061C48.1526 17.6736 45.8741 15.2543 43.9887 13.0128C43.9309 12.9484 43.8712 12.8873 43.813 12.8314C42.2086 11.5045 40.8691 11.1147 39.5829 10.3075L39.1131 10.1528C39.0717 10.1484 39.0304 10.1442 38.9891 10.14C37.2769 9.97136 35.5768 9.95178 33.8627 10.0614C33.4356 10.0898 33.0031 10.1275 32.5686 10.1812C32.3477 10.2087 32.1265 10.2398 31.8932 10.2817C31.778 10.3026 31.6538 10.3271 31.5237 10.3588C31.3691 10.4068 31.3 10.3841 30.9114 10.5908L30.8872 10.6058C30.8817 10.6093 30.876 10.613 30.8703 10.6167C30.3926 10.9273 30.224 11.429 29.9796 11.8105C29.8978 11.9432 29.8696 12.127 29.8841 12.3023C29.8995 12.4786 29.9564 12.632 30.0593 12.7479C30.1622 12.8639 30.3078 12.9385 30.4811 12.9747C30.6533 13.0099 30.8392 13.0036 30.9806 12.9381C31.3805 12.7547 31.8498 12.6783 32.0958 12.528C32.0999 12.5255 32.104 12.5229 32.1081 12.5203L32.084 12.5353C31.8693 12.6449 32.0086 12.572 32.0541 12.5698C32.1178 12.555 32.2034 12.5385 32.2875 12.5243C32.4598 12.4951 32.6473 12.4703 32.8378 12.4488C33.2147 12.4064 33.6102 12.376 34.0025 12.3543C35.5837 12.2702 37.1872 12.3052 38.7564 12.4604C38.7943 12.4642 38.8322 12.4681 38.8701 12.4721L38.4003 12.3174C39.7644 13.1399 41.4282 13.8112 42.2216 14.4958C42.244 14.5168 42.2638 14.5369 42.2796 14.5542C44.1073 16.5807 45.9743 19.025 45.8762 21.2434C45.873 21.2914 45.8686 21.339 45.8632 21.3862C45.5885 23.9112 44.5123 26.3045 42.5442 27.7409C42.4754 27.792 42.406 27.8419 42.3353 27.891C41.0838 28.7571 39.5691 29.2957 38.0074 29.5327C37.8955 29.5498 37.7854 29.5652 37.6723 29.5796C35.9124 29.7887 34.0584 30.125 32.671 29.8301C32.561 29.8043 32.4571 29.7739 32.3602 29.7387C30.3535 29.042 28.8527 28.0946 27.4401 26.484C27.3187 26.355 27.1986 26.2265 27.075 26.0945C26.3236 25.2926 25.7089 24.5268 25.4724 23.6942C25.4294 23.5502 25.3944 23.4016 25.3666 23.2473C25.0921 21.6371 24.9429 19.8406 25.271 18.4599C25.3107 18.3063 25.3584 18.1646 25.4113 18.0457C26.0498 16.489 26.952 15.4619 28.3298 14.5365C28.5064 14.4158 28.6664 14.2789 28.8256 14.1207C29.1292 13.795 29.4842 13.3676 29.8528 12.9019C29.9441 12.7858 30.0392 12.6662 30.1331 12.5459C30.2298 12.4308 30.3151 12.2773 30.4512 12.2632C30.701 12.1731 30.9518 12.0876 31.2043 12.005C32.2098 11.6644 33.2491 11.4324 34.2485 11.0799C34.2124 11.0408 34.1394 11.0625 34.0703 11.0614C34.0591 11.062 34.0449 11.0627 34.0321 11.0633C33.6493 11.0828 33.2654 11.1024 32.8836 11.1219C32.8947 11.1213 32.9078 11.1206 32.921 11.12C33.7052 11.08 34.4904 11.04 35.2751 11Z" fill="black"/>
<path d="M32.0897 29.7862C31.9264 30.2909 31.7698 30.7749 31.6544 31.1318C31.5389 31.4887 31.474 31.6891 31.474 31.6891C31.474 31.6891 31.5389 31.4887 31.6544 31.1318C31.7698 30.7749 31.9264 30.2909 32.0897 29.7862C31.8213 30.6126 31.5222 31.4282 31.2133 32.2429C30.54 34.0112 29.8182 35.7663 29.0829 37.5067C28.8704 38.0096 28.6563 38.5077 28.4459 39C28.7881 38.2283 29.1296 37.4428 29.4707 36.6635C29.9815 35.4935 30.4974 34.3172 31.0017 33.149C30.2878 33.8228 29.4603 34.4387 29.1791 35.2365C28.8559 36.0852 28.5147 36.9422 28.1328 37.6982C27.5363 39.0311 25.3717 39.2958 23.2863 39.5224C22.874 39.5689 22.4549 39.6164 22.0305 39.673C19.669 40.0173 17.2698 40.3437 14.9031 41.5431C13.7395 42.1358 12.5513 43.2484 12.0779 44.6242C11.5881 45.9823 11.5892 47.2626 11.5745 48.4585C11.5734 48.8137 11.5769 49.16 11.5808 49.5103C11.6035 51.2113 11.5619 52.884 11.526 54.626C11.5242 55.1332 11.4997 55.6057 11.5843 56.2565C11.5969 56.3402 11.613 56.4286 11.6367 56.5246L11.6168 56.4195C11.6432 56.6014 11.636 56.7476 11.5831 57.073C11.5409 57.3417 11.6078 57.6173 11.7676 57.8389C11.9276 58.0605 12.1673 58.21 12.4355 58.2547C12.7038 58.2994 12.979 58.2358 13.2022 58.078C13.4253 57.9202 13.5779 57.6812 13.6252 57.4133C13.6845 57.1028 13.7559 56.5973 13.6874 56.136L13.6675 56.0308C13.6641 56.0153 13.6587 55.9868 13.6538 55.9517C13.6116 55.6389 13.6194 55.1316 13.6297 54.6655C13.6797 52.9753 13.7413 51.2246 13.7235 49.4897C13.7207 49.1409 13.718 48.8024 13.719 48.465C12.9048 43.4017 17.7956 42.3739 22.3105 41.7411C22.7077 41.6864 23.1123 41.6388 23.5236 41.5909C25.493 41.2796 28.4599 41.375 29.9736 38.6348C30.4254 37.7309 30.7676 36.849 31.1025 35.9592C31.4284 35.1382 31.177 34.1136 31.0017 33.149C30.4974 34.3172 29.9815 35.4935 29.4707 36.6635C29.1296 37.4428 28.7881 38.2283 28.4459 39C28.6563 38.5077 28.8704 38.0096 29.0829 37.5067C29.8182 35.7663 30.54 34.0112 31.2133 32.2429C31.5222 31.4282 31.8213 30.6126 32.0897 29.7862Z" fill="black"/>
<path d="M40 30C40.1633 30.5047 40.3198 30.9887 40.4353 31.3455C40.5508 31.7024 40.6156 31.9029 40.6156 31.9029C40.6156 31.9029 40.5508 31.7024 40.4353 31.3455C40.3198 30.9887 40.1633 30.5047 40 30C40.2683 30.8263 40.5675 31.642 40.8764 32.4567C41.5497 34.2249 42.2714 35.98 43.0068 37.7205C43.2192 38.2233 43.4334 38.7215 43.6438 39.2138C43.3015 38.442 42.9601 37.6566 42.619 36.8773C42.1082 35.7072 41.5923 34.531 41.0879 33.3627C41.8019 34.0366 42.6294 34.6524 42.9106 35.4503C43.2337 36.299 43.575 37.156 43.9569 37.9119C44.5534 39.2448 46.7179 39.5095 48.8034 39.7361C49.2156 39.7827 49.6348 39.8302 50.0592 39.8867C52.4207 40.2311 54.8199 40.5574 57.1865 41.7568C58.3501 42.3495 59.5383 43.4621 60.0117 44.8379C60.5015 46.196 60.5005 47.4764 60.5152 48.6722C60.5162 49.0274 60.5128 49.3738 60.5089 49.724C60.4862 51.4251 60.5277 53.0978 60.5636 54.8397C60.5655 55.347 60.5899 55.8194 60.5053 56.4703C60.4927 56.554 60.4766 56.6423 60.4529 56.7384L60.4729 56.6332C60.4464 56.8151 60.4536 56.9614 60.5066 57.2867C60.5488 57.5554 60.4818 57.831 60.322 58.0526C60.1621 58.2743 59.9224 58.4238 59.6541 58.4685C59.3859 58.5132 59.1106 58.4495 58.8875 58.2917C58.6644 58.1339 58.5117 57.895 58.4645 57.6271C58.4052 57.3166 58.3338 56.811 58.4023 56.3498L58.4222 56.2446C58.4256 56.2291 58.4309 56.2006 58.4359 56.1655C58.478 55.8526 58.4702 55.3454 58.46 54.8792C58.4099 53.189 58.3483 51.4383 58.3662 49.7035C58.369 49.3547 58.3717 49.0162 58.3707 48.6787C59.1848 43.6154 54.294 42.5877 49.7791 41.9548C49.382 41.9001 48.9774 41.8525 48.5661 41.8046C46.5967 41.4934 43.6298 41.5888 42.1161 38.8486C41.6642 37.9446 41.322 37.0628 40.9872 36.173C40.6613 35.3519 40.9126 34.3274 41.0879 33.3627C41.5923 34.531 42.1082 35.7072 42.619 36.8773C42.9601 37.6566 43.3015 38.442 43.6438 39.2138C43.4334 38.7215 43.2192 38.2233 43.0068 37.7205C42.2714 35.98 41.5497 34.2249 40.8764 32.4567C40.5675 31.642 40.2683 30.8263 40 30Z" fill="black"/>
</svg>
