<svg width="72" height="72" viewBox="0 0 72 72" fill="none" xmlns="http://www.w3.org/2000/svg">
<path d="M35.8644 68.0293C35.9212 67.5019 35.9756 66.9962 36.0158 66.6232C36.0559 66.2503 36.0785 66.0408 36.0785 66.0408C36.0785 66.0408 36.0559 66.2503 36.0158 66.6232C35.9756 66.9962 35.9212 67.5019 35.8644 68.0293C35.9438 67.2913 36.0233 66.5535 36.1027 65.8157C36.1541 65.3392 36.2052 64.8641 36.2565 64.3878C36.2567 64.3862 36.2568 64.3851 36.2569 64.3846C36.1921 64.9861 36.1269 65.5915 36.0621 66.1933C36.0626 66.1885 36.0637 66.1784 36.0642 66.1734C36.1259 65.5956 36.185 65.0218 36.243 64.4446C36.2593 64.3013 36.2655 64.1554 36.2917 64.013C36.479 63.8862 36.6557 63.7573 36.8104 63.6267C37.1199 63.3648 37.342 63.0934 37.3868 62.8048C37.3891 62.7902 37.3909 62.7755 37.3923 62.7608C37.6724 59.6933 37.788 56.6684 37.9404 53.6259C37.9409 53.6153 37.9414 53.6047 37.9419 53.594C38.3166 45.5565 38.6143 37.5202 38.9118 29.4833C38.9392 28.7418 38.9665 28.0005 38.9938 27.2591C39.0012 27.0568 38.9302 26.8586 38.794 26.708C38.6578 26.5574 38.468 26.4668 38.2659 26.4561C38.0637 26.4453 37.8654 26.5153 37.714 26.6506C37.5626 26.7859 37.4709 26.9754 37.4569 27.1774C37.4054 27.9182 37.3549 28.659 37.3054 29.4C36.7677 37.4309 36.3497 45.4707 35.9754 53.5009C35.9749 53.5115 35.9744 53.5222 35.9739 53.5328C35.8221 56.5681 35.7069 59.5988 35.4356 62.5816C35.4343 62.5961 35.4334 62.6106 35.433 62.6252C35.4248 62.9134 35.5923 63.2183 35.846 63.5334C35.9729 63.6906 36.1213 63.8509 36.2803 64.0118C36.2782 64.1566 36.2555 64.3009 36.243 64.4446C36.185 65.0218 36.1259 65.5956 36.0642 66.1734C36.0637 66.1784 36.0626 66.1885 36.0621 66.1933C36.1269 65.5915 36.1921 64.9861 36.2569 64.3846C36.2568 64.3851 36.2567 64.3862 36.2565 64.3878C36.2052 64.8641 36.1541 65.3392 36.1027 65.8157C36.0233 66.5535 35.9438 67.2913 35.8644 68.0293Z" fill="white"/>
<path d="M36.7919 50.3221C36.7132 49.7975 36.6377 49.2944 36.5821 48.9235C36.5265 48.5526 36.4952 48.3442 36.4952 48.3442C36.4952 48.3442 36.5265 48.5526 36.5821 48.9235C36.6377 49.2944 36.7132 49.7975 36.7919 50.3221C36.7608 50.1145 36.7296 49.9069 36.6985 49.6993C36.6753 49.545 36.6523 49.3917 36.6291 49.2368C36.6274 49.2254 36.6254 49.2122 36.6237 49.2006C36.6491 49.3704 36.6747 49.5406 36.7002 49.7108C36.7025 49.7262 36.7049 49.7423 36.7071 49.7571C36.7218 49.8046 36.6984 49.8589 36.6723 49.7944C36.6487 49.7538 36.6302 49.7157 36.6098 49.6741C36.5712 49.5945 36.5323 49.5103 36.4952 49.4301C36.4192 49.2657 36.3439 49.1026 36.2672 48.9406C36.1139 48.6167 35.9536 48.2933 35.7844 47.9762C35.6995 47.8171 35.613 47.6607 35.5228 47.5042C35.5316 47.2929 35.6127 47.0307 35.6285 46.8005C35.6762 46.3306 35.6305 45.8803 35.4258 45.5212L35.3734 45.4605C35.3339 45.3998 35.2903 45.3434 35.2422 45.2919C34.0722 44.025 32.7876 42.7777 31.8169 41.5252L31.848 41.572C31.8425 41.5636 31.837 41.5552 31.8316 41.5469C31.7616 41.4387 31.6875 41.3398 31.6139 41.2375C31.5164 41.1026 31.4194 40.9561 31.3231 40.7665C31.2346 40.5942 31.0705 40.4578 30.8798 40.3826C30.6884 40.3076 30.4863 40.2999 30.3046 40.366C30.1229 40.432 29.9729 40.5678 29.8744 40.7482C29.7766 40.9283 29.7384 41.1383 29.7813 41.3272C29.8276 41.5322 29.8777 41.7794 29.9613 42.0232C30.0238 42.2074 30.1026 42.3869 30.1986 42.5491C30.206 42.5615 30.2134 42.574 30.221 42.5866L30.2521 42.6334C31.3597 44.178 32.5258 45.4252 33.7147 46.7182C33.7631 46.7699 33.8165 46.8175 33.8746 46.8612L33.8222 46.8005C34.0655 47.0032 34.4297 47.1459 34.861 47.2843C35.068 47.3575 35.3353 47.4052 35.5228 47.5042C35.613 47.6607 35.6995 47.8171 35.7844 47.9762C35.9536 48.2933 36.1139 48.6167 36.2672 48.9406C36.3439 49.1026 36.4192 49.2657 36.4952 49.4301C36.5323 49.5103 36.5712 49.5945 36.6098 49.6741C36.6302 49.7157 36.6487 49.7538 36.6723 49.7944C36.6984 49.8589 36.7218 49.8046 36.7071 49.7571C36.7049 49.7423 36.7025 49.7262 36.7002 49.7108C36.6747 49.5406 36.6491 49.3704 36.6237 49.2006C36.6254 49.2122 36.6274 49.2254 36.6291 49.2368C36.6523 49.3917 36.6753 49.545 36.6985 49.6993C36.7296 49.9069 36.7608 50.1145 36.7919 50.3221Z" fill="white"/>
<path d="M38.2253 40.2036C38.2875 40.0792 38.3472 39.9599 38.3912 39.8719C38.4351 39.784 38.4599 39.7346 38.4599 39.7346C38.4599 39.7346 38.4351 39.784 38.3912 39.8719C38.3472 39.9599 38.2875 40.0792 38.2253 40.2036C38.3214 40.0265 38.4291 39.8549 38.5341 39.6825C38.6233 39.5374 38.7132 39.3929 38.8039 39.2488C38.8214 39.221 38.839 39.1932 38.8565 39.1656C38.7729 39.3045 38.6869 39.4461 38.6023 39.5858C38.58 39.6226 38.5581 39.6589 38.536 39.6952C38.4951 39.7623 38.469 39.805 38.4301 39.8692C38.4012 39.9149 38.3431 40.0192 38.4078 39.9178C38.4809 39.8068 38.5532 39.6951 38.6268 39.5819C38.7715 39.3591 38.9165 39.1364 39.0623 38.9137C39.3518 38.4713 39.6461 38.0264 39.9432 37.585C40.0912 37.3651 40.2409 37.1447 40.3914 36.9257C40.6079 36.7514 40.9395 36.6598 41.196 36.5182C41.7296 36.2552 42.2104 35.9521 42.561 35.6232L42.6545 35.4886C42.7181 35.4031 42.7762 35.3154 42.8287 35.2246C43.312 34.399 43.8034 33.4275 44.2326 32.8014L44.2485 32.7813C44.2561 32.7709 44.2637 32.7606 44.2713 32.7501C44.2755 32.7444 44.2797 32.7386 44.2838 32.7328C44.4172 32.5488 44.5071 32.3429 44.5963 32.1683C44.6903 31.9844 44.706 31.7584 44.6514 31.5478C44.5963 31.3366 44.4753 31.1581 44.3038 31.0437C44.1323 30.9294 43.9209 30.8864 43.7048 30.9167C43.4894 30.9474 43.2869 31.0488 43.1532 31.2062C43.0256 31.3576 42.8968 31.4769 42.7934 31.6049C42.7901 31.6089 42.7869 31.613 42.7836 31.617C42.7777 31.6243 42.7718 31.6315 42.7658 31.6387L42.7817 31.6187C42.045 32.5804 41.6112 33.3527 41.0946 34.2223C41.0418 34.3135 40.9948 34.4079 40.9524 34.5059L41.0459 34.3713C40.7252 34.8601 40.5787 35.4244 40.4991 36.0245C40.4475 36.3179 40.4765 36.6614 40.3914 36.9257C40.2409 37.1447 40.0912 37.3651 39.9432 37.585C39.6461 38.0264 39.3518 38.4713 39.0623 38.9137C38.9165 39.1364 38.7715 39.3591 38.6268 39.5819C38.5532 39.6951 38.4809 39.8068 38.4078 39.9178C38.3431 40.0192 38.4012 39.9149 38.4301 39.8692C38.469 39.805 38.4951 39.7623 38.536 39.6952C38.5581 39.6589 38.58 39.6226 38.6023 39.5858C38.6869 39.4461 38.7729 39.3045 38.8565 39.1656C38.839 39.1932 38.8214 39.221 38.8039 39.2488C38.7132 39.3929 38.6233 39.5374 38.5341 39.6825C38.4291 39.8549 38.3214 40.0265 38.2253 40.2036Z" fill="white"/>
<path d="M33 33C32.8677 32.9634 32.7408 32.9284 32.6472 32.9025C32.5537 32.8767 32.5011 32.8622 32.5011 32.8622C32.5011 32.8622 32.5537 32.8767 32.6472 32.9025C32.7408 32.9284 32.8677 32.9634 33 33C32.4482 32.8475 31.8791 32.7638 31.307 32.7368C30.5725 32.7023 29.8354 32.7603 29.111 32.8848C28.4436 32.9997 27.7877 33.1706 27.1458 33.3842C25.5182 33.929 23.9826 34.7336 22.5822 35.7243C22.2342 35.9713 21.8916 36.2333 21.5616 36.507C21.1474 36.679 20.6992 36.8328 20.2933 37.0501C19.4723 37.4796 18.7214 38.0684 18.22 38.9062C18.0392 39.2105 17.8697 39.5436 17.7364 39.8917C17.2872 41.0285 17.0574 42.4159 17.3373 43.7005C17.3832 43.9296 17.4395 44.1516 17.5005 44.3647C17.8741 45.7102 18.717 46.8678 19.634 47.7599C19.7431 47.8673 19.8534 47.9721 19.9646 48.0746L20.0382 48.1354C22.2627 49.7436 25.027 50.2398 27.6504 49.7832C27.6819 49.7774 27.7134 49.7714 27.7448 49.7653L27.8193 49.7476C27.854 49.7377 27.8875 49.7279 27.9215 49.7175C28.2393 49.6188 28.594 49.4905 28.9544 49.2326C29.3229 48.9694 29.5548 48.6328 29.7079 48.423C29.8396 48.2415 29.9028 48.0163 29.8771 47.7916C29.8515 47.5669 29.7401 47.3621 29.5663 47.2211C29.3924 47.0801 29.169 47.0134 28.9439 47.0347C28.7187 47.0559 28.5113 47.1642 28.3609 47.3305C28.1546 47.5638 28.0322 47.6891 27.9247 47.7494C27.8135 47.8184 27.6245 47.8931 27.3952 47.9596C27.3711 47.9666 27.3468 47.9736 27.3211 47.9807L27.3956 47.9631C27.3701 47.9679 27.3446 47.9727 27.3191 47.9774C25.1982 48.3615 22.823 47.9168 21.121 46.6754L21.1946 46.7362C21.0964 46.6463 21.0003 46.5556 20.9066 46.4638C20.1137 45.693 19.5053 44.8409 19.2302 43.8683C19.1789 43.6905 19.1353 43.5178 19.1012 43.3474C18.9049 42.4186 19.0477 41.4902 19.416 40.5357C19.5047 40.3037 19.6275 40.0587 19.7667 39.8247C20.1498 39.1827 20.5176 38.4653 20.9196 37.6862C21.1227 37.304 21.315 36.8828 21.5616 36.507C21.8916 36.2333 22.2342 35.9713 22.5822 35.7243C23.9826 34.7336 25.5182 33.929 27.1458 33.3842C27.7877 33.1706 28.4436 32.9997 29.111 32.8848C29.8354 32.7603 30.5725 32.7023 31.307 32.7368C31.8791 32.7638 32.4482 32.8475 33 33Z" fill="white"/>
<path d="M40 33.273C40.1323 33.2365 40.2592 33.2014 40.3528 33.1756C40.4463 33.1497 40.4989 33.1352 40.4989 33.1352C40.4989 33.1352 40.4463 33.1497 40.3528 33.1756C40.2592 33.2014 40.1323 33.2365 40 33.273C40.5518 33.1206 41.1209 33.0368 41.693 33.0098C42.4275 32.9753 43.1647 33.0334 43.889 33.1578C44.5564 33.2727 45.2124 33.4436 45.8542 33.6572C47.4818 34.2021 49.0174 35.0066 50.4178 35.9974C50.7658 36.2443 51.1084 36.5064 51.4384 36.78C51.8526 36.952 52.3008 37.1058 52.7067 37.3231C53.5277 37.7526 54.2786 38.3414 54.78 39.1792C54.9608 39.4835 55.1303 39.8167 55.2637 40.1648C55.7128 41.3015 55.9426 42.6889 55.6627 43.9735C55.6168 44.2026 55.5605 44.4246 55.4995 44.6378C55.1259 45.9832 54.2831 47.1408 53.366 48.0329C53.257 48.1403 53.1466 48.2451 53.0354 48.3476L52.9618 48.4085C50.7374 50.0166 47.973 50.5128 45.3497 50.0562C45.3181 50.0504 45.2866 50.0444 45.2552 50.0383L45.1807 50.0206C45.146 50.0107 45.1125 50.0009 45.0785 49.9905C44.7607 49.8918 44.406 49.7635 44.0456 49.5056C43.6771 49.2424 43.4452 48.9058 43.2921 48.6961C43.1604 48.5146 43.0972 48.2893 43.1229 48.0646C43.1485 47.84 43.2599 47.6351 43.4338 47.4941C43.6076 47.3531 43.831 47.2864 44.0561 47.3077C44.2813 47.3289 44.4887 47.4372 44.6391 47.6035C44.8454 47.8368 44.9678 47.9621 45.0753 48.0224C45.1865 48.0914 45.3755 48.1661 45.6048 48.2326C45.6289 48.2397 45.6533 48.2466 45.6789 48.2538L45.6044 48.2361C45.6299 48.2409 45.6554 48.2457 45.6809 48.2504C47.8018 48.6345 50.177 48.1898 51.879 46.9484L51.8054 47.0093C51.9036 46.9193 51.9997 46.8286 52.0934 46.7369C52.8863 45.9661 53.4947 45.1139 53.7698 44.1413C53.8211 43.9635 53.8648 43.7908 53.8988 43.6205C54.0951 42.6916 53.9523 41.7632 53.584 40.8087C53.4953 40.5767 53.3725 40.3317 53.2334 40.0977C52.8502 39.4558 52.4824 38.7383 52.0804 37.9593C51.8773 37.577 51.685 37.1558 51.4384 36.78C51.1084 36.5064 50.7658 36.2443 50.4178 35.9974C49.0174 35.0066 47.4818 34.2021 45.8542 33.6572C45.2124 33.4436 44.5564 33.2727 43.889 33.1578C43.1647 33.0334 42.4275 32.9753 41.693 33.0098C41.1209 33.0368 40.5518 33.1206 40 33.273Z" fill="white"/>
<path d="M30.0649 24.8128C30.4113 25.2145 30.7436 25.5998 30.9885 25.8838C31.2335 26.1678 31.3711 26.3274 31.3711 26.3274C31.3711 26.3274 31.2335 26.1678 30.9885 25.8838C30.7436 25.5998 30.4113 25.2145 30.0649 24.8128C30.2334 25.0263 30.543 25.0868 30.7846 24.9731C31.0298 24.867 31.2197 24.6633 31.3491 24.4336C31.5563 24.0673 31.5977 23.6062 31.4304 23.218C31.2439 22.7721 30.8325 22.4593 30.4079 22.2577C30.1941 22.156 29.9807 22.0797 29.7487 22.0136C28.3269 21.5048 27.5102 20.0972 26.1867 19.4088C25.582 18.9211 24.6931 19.1496 24.0533 19.372C23.3953 19.6044 22.8171 19.8929 22.1968 20.1082C21.9642 20.1896 21.7463 20.2763 21.5108 20.3788C20.1971 20.9487 19.0755 21.7646 18.4917 22.8843C17.9317 23.9198 17.916 25.0346 17.8216 26.6419C17.8128 26.7201 17.8 26.8155 17.7836 26.9049L17.7848 26.5647C18.0837 28.393 19.0215 30.2741 20.3543 31.6132C20.4035 31.6611 20.4535 31.7081 20.5033 31.7531C20.5099 31.7591 20.5165 31.7651 20.5231 31.7711L20.5454 31.7904C20.8822 32.1092 21.1953 32.572 21.4204 32.9681C21.5024 33.1067 21.5256 33.282 21.4936 33.4488C21.4611 33.616 21.376 33.7611 21.2483 33.8587C21.1206 33.9564 20.9584 34.0005 20.7885 33.9881C20.6191 33.9753 20.456 33.907 20.3437 33.7916C20.0465 33.4781 19.7498 33.3001 19.4286 33.0331L19.4508 33.0525C19.4415 33.0452 19.4322 33.0378 19.4229 33.0303C19.3535 32.9746 19.2849 32.9171 19.2182 32.8594C17.4711 31.2817 16.2512 29.2516 15.8076 26.8978L15.8088 26.5576C15.8144 26.5234 15.8206 26.4744 15.8253 26.4272C15.8858 25.2332 15.8759 23.4129 16.6987 21.934C17.5811 20.2509 19.1802 19.1796 20.7436 18.5516C21.027 18.4367 21.2947 18.3398 21.5871 18.2486C22.363 18.0056 23.271 17.9985 24.0834 18.2721C24.931 18.5283 25.5016 19.169 26.1867 19.4088C27.5102 20.0972 28.3269 21.5048 29.7487 22.0136C29.9807 22.0797 30.1941 22.156 30.4079 22.2577C30.8325 22.4593 31.2439 22.7721 31.4304 23.218C31.5977 23.6062 31.5563 24.0673 31.3491 24.4336C31.2197 24.6633 31.0298 24.867 30.7846 24.9731C30.543 25.0868 30.2334 25.0263 30.0649 24.8128Z" fill="white"/>
<path d="M44.4198 25.8128C44.0734 26.2145 43.7412 26.5998 43.4962 26.8838C43.2512 27.1678 43.1136 27.3274 43.1136 27.3274C43.1136 27.3274 43.2512 27.1678 43.4962 26.8838C43.7412 26.5998 44.0734 26.2145 44.4198 25.8128C44.2513 26.0263 43.9418 26.0868 43.7001 25.9731C43.4549 25.867 43.2651 25.6633 43.1356 25.4336C42.9284 25.0673 42.887 24.6062 43.0543 24.218C43.2409 23.7721 43.6522 23.4593 44.0768 23.2577C44.2906 23.156 44.5041 23.0797 44.736 23.0136C46.1579 22.5048 46.9745 21.0972 48.298 20.4088C48.9027 19.9211 49.7917 20.1496 50.4314 20.372C51.0894 20.6044 51.6677 20.8929 52.2879 21.1082C52.5205 21.1896 52.7385 21.2763 52.9739 21.3788C54.2877 21.9487 55.4092 22.7646 55.993 23.8843C56.553 24.9198 56.5687 26.0346 56.6632 27.6419C56.6719 27.7201 56.6848 27.8155 56.7011 27.9049L56.6999 27.5647C56.401 29.393 55.4632 31.2741 54.1304 32.6132C54.0813 32.6611 54.0312 32.7081 53.9815 32.7531C53.9748 32.7591 53.9682 32.7651 53.9616 32.7711L53.9394 32.7904C53.6026 33.1092 53.2894 33.572 53.0643 33.9681C52.9823 34.1067 52.9591 34.282 52.9911 34.4488C53.0236 34.616 53.1087 34.7611 53.2364 34.8587C53.3641 34.9564 53.5264 35.0005 53.6962 34.9881C53.8656 34.9753 54.0287 34.907 54.141 34.7916C54.4382 34.4781 54.7349 34.3001 55.0562 34.0331L55.0339 34.0525C55.0432 34.0452 55.0525 34.0378 55.0618 34.0303C55.1312 33.9746 55.1998 33.9171 55.2665 33.8594C57.0137 32.2817 58.2336 30.2516 58.6772 27.8978L58.6759 27.5576C58.6704 27.5234 58.6641 27.4744 58.6595 27.4272C58.5989 26.2332 58.6089 24.4129 57.786 22.934C56.9036 21.2509 55.3045 20.1796 53.7411 19.5516C53.4577 19.4367 53.1901 19.3398 52.8976 19.2486C52.1217 19.0056 51.2137 18.9985 50.4014 19.2721C49.5537 19.5283 48.9831 20.169 48.298 20.4088C46.9745 21.0972 46.1579 22.5048 44.736 23.0136C44.5041 23.0797 44.2906 23.156 44.0768 23.2577C43.6522 23.4593 43.2409 23.7721 43.0543 24.218C42.887 24.6062 42.9284 25.0673 43.1356 25.4336C43.2651 25.6633 43.4549 25.867 43.7001 25.9731C43.9418 26.0868 44.2513 26.0263 44.4198 25.8128Z" fill="white"/>
<path d="M32.2386 21.3159C31.8747 20.9299 31.5257 20.5598 31.2684 20.2869C31.0111 20.014 30.8666 19.8607 30.8666 19.8607C30.8666 19.8607 31.0111 20.014 31.2684 20.2869C31.5257 20.5598 31.8747 20.9299 32.2386 21.3159C31.6861 20.7299 31.1335 20.1438 30.5808 19.5577C30.5287 19.5023 30.477 19.4475 30.4245 19.3918C30.4138 19.3804 30.3987 19.3645 30.3882 19.3533C30.6798 19.6626 30.9725 19.9731 31.265 20.2833C31.2791 20.2982 31.2935 20.3135 31.3064 20.3272C30.9429 19.2068 28.7073 16.916 29.4934 14.8166C29.5063 14.6193 29.5131 14.4303 29.5042 14.2386C29.4413 12.4517 30.4208 10.4775 31.4327 8.63065C31.5163 8.4799 31.6027 8.33711 31.6934 8.20315C32.2723 7.31377 33.1812 6.79017 34.3457 6.42745C34.4865 6.38319 34.6336 6.34107 34.7796 6.30264C36.9394 5.76013 39.3772 5.583 41.5187 6.2324C41.6216 6.26472 41.7227 6.29894 41.8242 6.3359C43.7677 7.04318 45.3713 8.55447 46.5675 10.267C46.6079 10.325 46.646 10.3807 46.685 10.4386C47.4426 11.5506 47.8111 12.6142 47.6258 13.8221C47.6211 13.8579 47.616 13.8941 47.6105 13.9306C47.425 15.1074 46.9754 16.3738 46.404 17.5453C46.3763 17.6016 46.3478 17.6585 46.3197 17.7135C46.3134 17.7259 46.3071 17.7382 46.3008 17.7504C45.9777 18.3767 45.6779 18.8721 45.2193 19.3846C45.0649 19.5647 44.9884 19.7988 45.0066 20.0353C45.0248 20.2719 45.1362 20.4915 45.3163 20.6459C45.4965 20.8003 45.7305 20.8768 45.9671 20.8586C46.2036 20.8404 46.4233 20.729 46.5777 20.5489C47.0914 19.9835 47.5569 19.2319 47.8915 18.5692C47.8984 18.5557 47.9054 18.5421 47.9124 18.5284C47.9436 18.4676 47.9753 18.4052 48.0063 18.3436C48.6404 17.0572 49.2413 15.7509 49.4917 14.2135C49.4989 14.1652 49.5057 14.117 49.512 14.0687C49.7992 12.4118 49.0788 10.5961 48.1696 9.40581C48.1221 9.33946 48.0759 9.27634 48.0272 9.21116C46.5912 7.30074 44.6494 5.72908 42.3508 4.88976C42.2305 4.84593 42.1108 4.80461 41.9888 4.76484C39.4772 3.98528 36.8832 3.8791 34.3208 4.41623C34.1463 4.45572 33.9681 4.50023 33.7935 4.54871C32.4394 4.90049 30.8717 5.70304 30.0064 7.06133C29.8758 7.25433 29.7582 7.45006 29.6506 7.64504C28.6128 9.60894 27.4478 11.71 27.5587 14.3584C27.579 14.6439 27.6501 14.9302 27.7668 15.2C28.0352 15.8119 28.4841 16.2364 28.975 16.6039C29.0987 16.6958 29.2255 16.7825 29.3554 16.8669C29.4262 16.9806 29.4804 17.1026 29.5447 17.2195C29.6698 17.4547 29.7999 17.6885 29.9323 17.9191C30.1983 18.3822 30.4772 18.8388 30.7592 19.2887C30.9005 19.5143 31.0448 19.7411 31.1856 19.965C31.2595 20.0828 31.3273 20.1907 31.3947 20.3061C31.422 20.3635 31.4928 20.4434 31.4538 20.4668C31.3989 20.4277 31.3595 20.382 31.3064 20.3272C31.2935 20.3135 31.2791 20.2982 31.265 20.2833C30.9725 19.9731 30.6798 19.6626 30.3882 19.3533C30.3987 19.3645 30.4138 19.3804 30.4245 19.3918C30.477 19.4475 30.5287 19.5023 30.5808 19.5577C31.1335 20.1438 31.6861 20.7299 32.2386 21.3159Z" fill="white"/>
</svg>
