<svg width="72" height="72" viewBox="0 0 72 72" fill="none" xmlns="http://www.w3.org/2000/svg">
<path d="M35.8644 68.0293C35.9212 67.5019 35.9756 66.9962 36.0158 66.6232C36.0559 66.2503 36.0785 66.0408 36.0785 66.0408C36.0785 66.0408 36.0559 66.2503 36.0158 66.6232C35.9756 66.9962 35.9212 67.5019 35.8644 68.0293C35.9438 67.2913 36.0233 66.5535 36.1027 65.8157C36.1541 65.3392 36.2052 64.8641 36.2565 64.3878C36.2567 64.3862 36.2568 64.3851 36.2569 64.3846C36.1921 64.9861 36.1269 65.5915 36.0621 66.1933C36.0626 66.1885 36.0637 66.1784 36.0642 66.1734C36.1259 65.5956 36.185 65.0218 36.243 64.4446C36.2593 64.3013 36.2655 64.1554 36.2917 64.013C36.479 63.8862 36.6557 63.7573 36.8104 63.6267C37.1199 63.3648 37.342 63.0934 37.3868 62.8048C37.3891 62.7902 37.3909 62.7755 37.3923 62.7608C37.6724 59.6933 37.788 56.6684 37.9404 53.6259C37.9409 53.6153 37.9414 53.6047 37.9419 53.594C38.3166 45.5565 38.6143 37.5202 38.9118 29.4833C38.9392 28.7418 38.9665 28.0005 38.9938 27.2591C39.0012 27.0568 38.9302 26.8586 38.794 26.708C38.6578 26.5574 38.468 26.4668 38.2659 26.4561C38.0637 26.4453 37.8654 26.5153 37.714 26.6506C37.5626 26.7859 37.4709 26.9754 37.4569 27.1774C37.4054 27.9182 37.3549 28.659 37.3054 29.4C36.7677 37.4309 36.3497 45.4707 35.9754 53.5009C35.9749 53.5115 35.9744 53.5222 35.9739 53.5328C35.8221 56.5681 35.7069 59.5988 35.4356 62.5816C35.4343 62.5961 35.4334 62.6106 35.433 62.6252C35.4248 62.9134 35.5923 63.2183 35.846 63.5334C35.9729 63.6906 36.1213 63.8509 36.2803 64.0118C36.2782 64.1566 36.2555 64.3009 36.243 64.4446C36.185 65.0218 36.1259 65.5956 36.0642 66.1734C36.0637 66.1784 36.0626 66.1885 36.0621 66.1933C36.1269 65.5915 36.1921 64.9861 36.2569 64.3846C36.2568 64.3851 36.2567 64.3862 36.2565 64.3878C36.2052 64.8641 36.1541 65.3392 36.1027 65.8157C36.0233 66.5535 35.9438 67.2913 35.8644 68.0293Z" fill="white"/>
<path d="M36.7919 50.3221C36.7132 49.7975 36.6377 49.2944 36.5821 48.9235C36.5265 48.5526 36.4952 48.3442 36.4952 48.3442C36.4952 48.3442 36.5265 48.5526 36.5821 48.9235C36.6377 49.2944 36.7132 49.7975 36.7919 50.3221C36.7608 50.1145 36.7296 49.9069 36.6985 49.6993C36.6753 49.545 36.6523 49.3917 36.6291 49.2368C36.6274 49.2254 36.6254 49.2122 36.6237 49.2006C36.6491 49.3704 36.6747 49.5406 36.7002 49.7108C36.7025 49.7262 36.7049 49.7423 36.7071 49.7571C36.7218 49.8046 36.6984 49.8589 36.6723 49.7944C36.6487 49.7538 36.6302 49.7157 36.6098 49.6741C36.5712 49.5945 36.5323 49.5103 36.4952 49.4301C36.4192 49.2657 36.3439 49.1026 36.2672 48.9406C36.1139 48.6167 35.9536 48.2933 35.7844 47.9762C35.6995 47.8171 35.613 47.6607 35.5228 47.5042C35.5316 47.2929 35.6127 47.0307 35.6285 46.8005C35.6762 46.3306 35.6305 45.8803 35.4258 45.5212L35.3734 45.4605C35.3339 45.3998 35.2903 45.3434 35.2422 45.2919C34.0722 44.025 32.7876 42.7777 31.8169 41.5252L31.848 41.572C31.8425 41.5636 31.837 41.5552 31.8316 41.5469C31.7616 41.4387 31.6875 41.3398 31.6139 41.2375C31.5164 41.1026 31.4194 40.9561 31.3231 40.7665C31.2346 40.5942 31.0705 40.4578 30.8798 40.3826C30.6884 40.3076 30.4863 40.2999 30.3046 40.366C30.1229 40.432 29.9729 40.5678 29.8744 40.7482C29.7766 40.9283 29.7384 41.1383 29.7813 41.3272C29.8276 41.5322 29.8777 41.7794 29.9613 42.0232C30.0238 42.2074 30.1026 42.3869 30.1986 42.5491C30.206 42.5615 30.2134 42.574 30.221 42.5866L30.2521 42.6334C31.3597 44.178 32.5258 45.4252 33.7147 46.7182C33.7631 46.7699 33.8165 46.8175 33.8746 46.8612L33.8222 46.8005C34.0655 47.0032 34.4297 47.1459 34.861 47.2843C35.068 47.3575 35.3353 47.4052 35.5228 47.5042C35.613 47.6607 35.6995 47.8171 35.7844 47.9762C35.9536 48.2933 36.1139 48.6167 36.2672 48.9406C36.3439 49.1026 36.4192 49.2657 36.4952 49.4301C36.5323 49.5103 36.5712 49.5945 36.6098 49.6741C36.6302 49.7157 36.6487 49.7538 36.6723 49.7944C36.6984 49.8589 36.7218 49.8046 36.7071 49.7571C36.7049 49.7423 36.7025 49.7262 36.7002 49.7108C36.6747 49.5406 36.6491 49.3704 36.6237 49.2006C36.6254 49.2122 36.6274 49.2254 36.6291 49.2368C36.6523 49.3917 36.6753 49.545 36.6985 49.6993C36.7296 49.9069 36.7608 50.1145 36.7919 50.3221Z" fill="white"/>
<path d="M38.2253 40.2036C38.2875 40.0792 38.3472 39.9599 38.3912 39.8719C38.4351 39.784 38.4599 39.7346 38.4599 39.7346C38.4599 39.7346 38.4351 39.784 38.3912 39.8719C38.3472 39.9599 38.2875 40.0792 38.2253 40.2036C38.3214 40.0265 38.4291 39.8549 38.5341 39.6825C38.6233 39.5374 38.7132 39.3929 38.8039 39.2488C38.8214 39.221 38.839 39.1932 38.8565 39.1656C38.7729 39.3045 38.6869 39.4461 38.6023 39.5858C38.58 39.6226 38.5581 39.6589 38.536 39.6952C38.4951 39.7623 38.469 39.805 38.4301 39.8692C38.4012 39.9149 38.3431 40.0192 38.4078 39.9178C38.4809 39.8068 38.5532 39.6951 38.6268 39.5819C38.7715 39.3591 38.9165 39.1364 39.0623 38.9137C39.3518 38.4713 39.6461 38.0264 39.9432 37.585C40.0912 37.3651 40.2409 37.1447 40.3914 36.9257C40.6079 36.7514 40.9395 36.6598 41.196 36.5182C41.7296 36.2552 42.2104 35.9521 42.561 35.6232L42.6545 35.4886C42.7181 35.4031 42.7762 35.3154 42.8287 35.2246C43.312 34.399 43.8034 33.4275 44.2326 32.8014L44.2485 32.7813C44.2561 32.7709 44.2637 32.7606 44.2713 32.7501C44.2755 32.7444 44.2797 32.7386 44.2838 32.7328C44.4172 32.5488 44.5071 32.3429 44.5963 32.1683C44.6903 31.9844 44.706 31.7584 44.6514 31.5478C44.5963 31.3366 44.4753 31.1581 44.3038 31.0437C44.1323 30.9294 43.9209 30.8864 43.7048 30.9167C43.4894 30.9474 43.2869 31.0488 43.1532 31.2062C43.0256 31.3576 42.8968 31.4769 42.7934 31.6049C42.7901 31.6089 42.7869 31.613 42.7836 31.617C42.7777 31.6243 42.7718 31.6315 42.7658 31.6387L42.7817 31.6187C42.045 32.5804 41.6112 33.3527 41.0946 34.2223C41.0418 34.3135 40.9948 34.4079 40.9524 34.5059L41.0459 34.3713C40.7252 34.8601 40.5787 35.4244 40.4991 36.0245C40.4475 36.3179 40.4765 36.6614 40.3914 36.9257C40.2409 37.1447 40.0912 37.3651 39.9432 37.585C39.6461 38.0264 39.3518 38.4713 39.0623 38.9137C38.9165 39.1364 38.7715 39.3591 38.6268 39.5819C38.5532 39.6951 38.4809 39.8068 38.4078 39.9178C38.3431 40.0192 38.4012 39.9149 38.4301 39.8692C38.469 39.805 38.4951 39.7623 38.536 39.6952C38.5581 39.6589 38.58 39.6226 38.6023 39.5858C38.6869 39.4461 38.7729 39.3045 38.8565 39.1656C38.839 39.1932 38.8214 39.221 38.8039 39.2488C38.7132 39.3929 38.6233 39.5374 38.5341 39.6825C38.4291 39.8549 38.3214 40.0265 38.2253 40.2036Z" fill="white"/>
<path d="M33 33C32.8677 32.9634 32.7408 32.9284 32.6472 32.9025C32.5537 32.8767 32.5011 32.8622 32.5011 32.8622C32.5011 32.8622 32.5537 32.8767 32.6472 32.9025C32.7408 32.9284 32.8677 32.9634 33 33C32.4482 32.8475 31.8791 32.7638 31.307 32.7368C30.5725 32.7023 29.8354 32.7603 29.111 32.8848C28.4436 32.9997 27.7877 33.1706 27.1458 33.3842C25.5182 33.929 23.9826 34.7336 22.5822 35.7243C22.2342 35.9713 21.8916 36.2333 21.5616 36.507C21.1474 36.679 20.6992 36.8328 20.2933 37.0501C19.4723 37.4796 18.7214 38.0684 18.22 38.9062C18.0392 39.2105 17.8697 39.5436 17.7364 39.8917C17.2872 41.0285 17.0574 42.4159 17.3373 43.7005C17.3832 43.9296 17.4395 44.1516 17.5005 44.3647C17.8741 45.7102 18.717 46.8678 19.634 47.7599C19.7431 47.8673 19.8534 47.9721 19.9646 48.0746L20.0382 48.1354C22.2627 49.7436 25.027 50.2398 27.6504 49.7832C27.6819 49.7774 27.7134 49.7714 27.7448 49.7653L27.8193 49.7476C27.854 49.7377 27.8875 49.7279 27.9215 49.7175C28.2393 49.6188 28.594 49.4905 28.9544 49.2326C29.3229 48.9694 29.5548 48.6328 29.7079 48.423C29.8396 48.2415 29.9028 48.0163 29.8771 47.7916C29.8515 47.5669 29.7401 47.3621 29.5663 47.2211C29.3924 47.0801 29.169 47.0134 28.9439 47.0347C28.7187 47.0559 28.5113 47.1642 28.3609 47.3305C28.1546 47.5638 28.0322 47.6891 27.9247 47.7494C27.8135 47.8184 27.6245 47.8931 27.3952 47.9596C27.3711 47.9666 27.3468 47.9736 27.3211 47.9807L27.3956 47.9631C27.3701 47.9679 27.3446 47.9727 27.3191 47.9774C25.1982 48.3615 22.823 47.9168 21.121 46.6754L21.1946 46.7362C21.0964 46.6463 21.0003 46.5556 20.9066 46.4638C20.1137 45.693 19.5053 44.8409 19.2302 43.8683C19.1789 43.6905 19.1353 43.5178 19.1012 43.3474C18.9049 42.4186 19.0477 41.4902 19.416 40.5357C19.5047 40.3037 19.6275 40.0587 19.7667 39.8247C20.1498 39.1827 20.5176 38.4653 20.9196 37.6862C21.1227 37.304 21.315 36.8828 21.5616 36.507C21.8916 36.2333 22.2342 35.9713 22.5822 35.7243C23.9826 34.7336 25.5182 33.929 27.1458 33.3842C27.7877 33.1706 28.4436 32.9997 29.111 32.8848C29.8354 32.7603 30.5725 32.7023 31.307 32.7368C31.8791 32.7638 32.4482 32.8475 33 33Z" fill="white"/>
<path d="M40 33.273C40.1323 33.2365 40.2592 33.2014 40.3528 33.1756C40.4463 33.1497 40.4989 33.1352 40.4989 33.1352C40.4989 33.1352 40.4463 33.1497 40.3528 33.1756C40.2592 33.2014 40.1323 33.2365 40 33.273C40.5518 33.1206 41.1209 33.0368 41.693 33.0098C42.4275 32.9753 43.1646 33.0334 43.889 33.1578C44.5564 33.2727 45.2124 33.4436 45.8542 33.6572C47.4818 34.2021 49.0174 35.0066 50.4178 35.9974C50.7658 36.2443 51.1084 36.5064 51.4384 36.78C51.8526 36.952 52.3008 37.1058 52.7067 37.3231C53.5277 37.7526 54.2786 38.3414 54.78 39.1792C54.9608 39.4835 55.1303 39.8167 55.2637 40.1648C55.7128 41.3015 55.9426 42.6889 55.6627 43.9735C55.6168 44.2026 55.5605 44.4246 55.4995 44.6378C55.1259 45.9832 54.283 47.1408 53.366 48.0329C53.257 48.1403 53.1466 48.2451 53.0354 48.3476L52.9618 48.4085C50.7374 50.0166 47.973 50.5128 45.3497 50.0562C45.3181 50.0504 45.2866 50.0444 45.2552 50.0383L45.1807 50.0206C45.146 50.0107 45.1125 50.0009 45.0785 49.9905C44.7607 49.8918 44.406 49.7635 44.0456 49.5056C43.6771 49.2424 43.4452 48.9058 43.2921 48.6961C43.1604 48.5146 43.0972 48.2893 43.1229 48.0646C43.1485 47.84 43.2599 47.6351 43.4338 47.4941C43.6076 47.3531 43.831 47.2864 44.0561 47.3077C44.2813 47.3289 44.4887 47.4372 44.6391 47.6035C44.8454 47.8368 44.9678 47.9621 45.0753 48.0224C45.1865 48.0914 45.3755 48.1661 45.6048 48.2326C45.6289 48.2397 45.6533 48.2466 45.6789 48.2538L45.6044 48.2361C45.6299 48.2409 45.6554 48.2457 45.6809 48.2504C47.8018 48.6345 50.177 48.1898 51.879 46.9484L51.8054 47.0093C51.9036 46.9193 51.9997 46.8286 52.0934 46.7369C52.8863 45.9661 53.4947 45.1139 53.7698 44.1413C53.8211 43.9635 53.8648 43.7908 53.8988 43.6205C54.0951 42.6916 53.9523 41.7632 53.584 40.8087C53.4953 40.5767 53.3725 40.3317 53.2333 40.0977C52.8502 39.4558 52.4824 38.7383 52.0804 37.9593C51.8773 37.577 51.685 37.1558 51.4384 36.78C51.1084 36.5064 50.7658 36.2443 50.4178 35.9974C49.0174 35.0066 47.4818 34.2021 45.8542 33.6572C45.2124 33.4436 44.5564 33.2727 43.889 33.1578C43.1646 33.0334 42.4275 32.9753 41.693 33.0098C41.1209 33.0368 40.5518 33.1206 40 33.273Z" fill="white"/>
<path d="M30.0649 24.8128C30.4113 25.2145 30.7436 25.5998 30.9885 25.8838C31.2335 26.1678 31.3711 26.3274 31.3711 26.3274C31.3711 26.3274 31.2335 26.1678 30.9885 25.8838C30.7436 25.5998 30.4113 25.2145 30.0649 24.8128C30.2334 25.0263 30.543 25.0868 30.7846 24.9731C31.0298 24.867 31.2197 24.6633 31.3491 24.4336C31.5563 24.0673 31.5977 23.6062 31.4304 23.218C31.2439 22.7721 30.8325 22.4593 30.4079 22.2577C30.1941 22.156 29.9807 22.0797 29.7487 22.0136C28.3269 21.5048 27.5102 20.0972 26.1867 19.4088C25.582 18.9211 24.6931 19.1496 24.0533 19.372C23.3953 19.6044 22.8171 19.8929 22.1968 20.1082C21.9642 20.1896 21.7463 20.2763 21.5108 20.3788C20.1971 20.9487 19.0755 21.7646 18.4917 22.8843C17.9317 23.9198 17.916 25.0346 17.8216 26.6419C17.8128 26.7201 17.8 26.8155 17.7836 26.9049L17.7848 26.5647C18.0837 28.393 19.0215 30.2741 20.3543 31.6132C20.4035 31.6611 20.4535 31.7081 20.5033 31.7531C20.5099 31.7591 20.5165 31.7651 20.5231 31.7711L20.5454 31.7904C20.8822 32.1092 21.1953 32.572 21.4204 32.9681C21.5024 33.1067 21.5256 33.282 21.4936 33.4488C21.4611 33.616 21.376 33.7611 21.2483 33.8587C21.1206 33.9564 20.9584 34.0005 20.7885 33.9881C20.6191 33.9753 20.456 33.907 20.3437 33.7916C20.0465 33.4781 19.7498 33.3001 19.4286 33.0331L19.4508 33.0525C19.4415 33.0452 19.4322 33.0378 19.4229 33.0303C19.3535 32.9746 19.2849 32.9171 19.2182 32.8594C17.4711 31.2817 16.2512 29.2516 15.8076 26.8978L15.8088 26.5576C15.8144 26.5234 15.8206 26.4744 15.8253 26.4272C15.8858 25.2332 15.8759 23.4129 16.6987 21.934C17.5811 20.2509 19.1802 19.1796 20.7436 18.5516C21.027 18.4367 21.2947 18.3398 21.5871 18.2486C22.363 18.0056 23.271 17.9985 24.0834 18.2721C24.931 18.5283 25.5016 19.169 26.1867 19.4088C27.5102 20.0972 28.3269 21.5048 29.7487 22.0136C29.9807 22.0797 30.1941 22.156 30.4079 22.2577C30.8325 22.4593 31.2439 22.7721 31.4304 23.218C31.5977 23.6062 31.5563 24.0673 31.3491 24.4336C31.2197 24.6633 31.0298 24.867 30.7846 24.9731C30.543 25.0868 30.2334 25.0263 30.0649 24.8128Z" fill="white"/>
<path d="M44.4198 25.8128C44.0734 26.2145 43.7412 26.5998 43.4962 26.8838C43.2512 27.1678 43.1136 27.3274 43.1136 27.3274C43.1136 27.3274 43.2512 27.1678 43.4962 26.8838C43.7412 26.5998 44.0734 26.2145 44.4198 25.8128C44.2513 26.0263 43.9418 26.0868 43.7001 25.9731C43.4549 25.867 43.2651 25.6633 43.1356 25.4336C42.9284 25.0673 42.887 24.6062 43.0543 24.218C43.2409 23.7721 43.6522 23.4593 44.0768 23.2577C44.2906 23.156 44.5041 23.0797 44.736 23.0136C46.1579 22.5048 46.9745 21.0972 48.298 20.4088C48.9027 19.9211 49.7917 20.1496 50.4314 20.372C51.0894 20.6044 51.6677 20.8929 52.2879 21.1082C52.5205 21.1896 52.7385 21.2763 52.9739 21.3788C54.2877 21.9487 55.4092 22.7646 55.993 23.8843C56.553 24.9198 56.5687 26.0346 56.6632 27.6419C56.6719 27.7201 56.6848 27.8155 56.7011 27.9049L56.6999 27.5647C56.401 29.393 55.4632 31.2741 54.1304 32.6132C54.0813 32.6611 54.0312 32.7081 53.9815 32.7531C53.9748 32.7591 53.9682 32.7651 53.9616 32.7711L53.9394 32.7904C53.6026 33.1092 53.2894 33.572 53.0643 33.9681C52.9823 34.1067 52.9591 34.282 52.9911 34.4488C53.0236 34.616 53.1087 34.7611 53.2364 34.8587C53.3641 34.9564 53.5264 35.0005 53.6962 34.9881C53.8656 34.9753 54.0287 34.907 54.141 34.7916C54.4382 34.4781 54.7349 34.3001 55.0562 34.0331L55.0339 34.0525C55.0432 34.0452 55.0525 34.0378 55.0618 34.0303C55.1312 33.9746 55.1998 33.9171 55.2665 33.8594C57.0137 32.2817 58.2336 30.2516 58.6772 27.8978L58.6759 27.5576C58.6704 27.5234 58.6641 27.4744 58.6595 27.4272C58.5989 26.2332 58.6089 24.4129 57.786 22.934C56.9036 21.2509 55.3045 20.1796 53.7411 19.5516C53.4577 19.4367 53.1901 19.3398 52.8976 19.2486C52.1217 19.0056 51.2137 18.9985 50.4013 19.2721C49.5537 19.5283 48.9831 20.169 48.298 20.4088C46.9745 21.0972 46.1579 22.5048 44.736 23.0136C44.5041 23.0797 44.2906 23.156 44.0768 23.2577C43.6522 23.4593 43.2409 23.7721 43.0543 24.218C42.887 24.6062 42.9284 25.0673 43.1356 25.4336C43.2651 25.6633 43.4549 25.867 43.7001 25.9731C43.9418 26.0868 44.2513 26.0263 44.4198 25.8128Z" fill="white"/>
<path d="M32.2386 21.3159C31.8747 20.9299 31.5257 20.5598 31.2684 20.2869C31.0111 20.014 30.8666 19.8607 30.8666 19.8607C30.8666 19.8607 31.0111 20.014 31.2684 20.2869C31.5257 20.5598 31.8747 20.9299 32.2386 21.3159C31.6861 20.7299 31.1335 20.1438 30.5808 19.5577C30.5287 19.5023 30.477 19.4475 30.4245 19.3918C30.4138 19.3804 30.3987 19.3645 30.3882 19.3533C30.6798 19.6626 30.9725 19.9731 31.265 20.2833C31.2791 20.2982 31.2935 20.3135 31.3064 20.3272C30.9429 19.2068 28.7073 16.916 29.4934 14.8166C29.5063 14.6193 29.5131 14.4303 29.5042 14.2386C29.4413 12.4517 30.4208 10.4775 31.4327 8.63065C31.5163 8.4799 31.6027 8.33711 31.6934 8.20315C32.2723 7.31377 33.1812 6.79017 34.3457 6.42745C34.4865 6.38319 34.6336 6.34107 34.7796 6.30264C36.9394 5.76013 39.3772 5.583 41.5187 6.2324C41.6216 6.26472 41.7227 6.29894 41.8242 6.3359C43.7677 7.04318 45.3713 8.55447 46.5675 10.267C46.6079 10.325 46.646 10.3807 46.685 10.4386C47.4426 11.5506 47.8111 12.6142 47.6258 13.8221C47.6211 13.8579 47.616 13.8941 47.6105 13.9306C47.425 15.1074 46.9754 16.3738 46.404 17.5453C46.3763 17.6016 46.3478 17.6585 46.3197 17.7135C46.3134 17.7259 46.3071 17.7382 46.3008 17.7504C45.9777 18.3767 45.6779 18.8721 45.2193 19.3846C45.0649 19.5647 44.9884 19.7988 45.0066 20.0353C45.0248 20.2719 45.1362 20.4915 45.3163 20.6459C45.4965 20.8003 45.7305 20.8768 45.9671 20.8586C46.2036 20.8404 46.4233 20.729 46.5777 20.5489C47.0914 19.9835 47.5569 19.2319 47.8915 18.5692C47.8984 18.5557 47.9054 18.5421 47.9124 18.5284C47.9436 18.4676 47.9753 18.4052 48.0063 18.3436C48.6404 17.0572 49.2413 15.7509 49.4917 14.2135C49.4989 14.1652 49.5057 14.117 49.512 14.0687C49.7992 12.4118 49.0788 10.5961 48.1696 9.40581C48.1221 9.33946 48.0759 9.27634 48.0272 9.21116C46.5912 7.30074 44.6494 5.72908 42.3508 4.88976C42.2305 4.84593 42.1108 4.80461 41.9888 4.76484C39.4772 3.98528 36.8832 3.8791 34.3208 4.41623C34.1463 4.45572 33.9681 4.50023 33.7935 4.54871C32.4394 4.90049 30.8717 5.70304 30.0064 7.06133C29.8758 7.25433 29.7582 7.45006 29.6506 7.64504C28.6128 9.60894 27.4478 11.71 27.5587 14.3584C27.579 14.6439 27.6501 14.9302 27.7668 15.2C28.0352 15.8119 28.4841 16.2364 28.975 16.6039C29.0987 16.6958 29.2255 16.7825 29.3554 16.8669C29.4262 16.9806 29.4804 17.1026 29.5447 17.2195C29.6698 17.4547 29.7999 17.6885 29.9323 17.9191C30.1983 18.3822 30.4772 18.8388 30.7592 19.2887C30.9005 19.5143 31.0448 19.7411 31.1856 19.965C31.2595 20.0828 31.3273 20.1907 31.3947 20.3061C31.422 20.3635 31.4928 20.4434 31.4538 20.4668C31.3989 20.4277 31.3595 20.382 31.3064 20.3272C31.2935 20.3135 31.2791 20.2982 31.265 20.2833C30.9725 19.9731 30.6798 19.6626 30.3882 19.3533C30.3987 19.3645 30.4138 19.3804 30.4245 19.3918C30.477 19.4475 30.5287 19.5023 30.5808 19.5577C31.1335 20.1438 31.6861 20.7299 32.2386 21.3159Z" fill="white"/>
<path d="M24.723 61.9865C24.7711 61.4582 24.8171 60.9516 24.8511 60.5781C24.885 60.2046 24.9041 59.9947 24.9041 59.9947C24.9041 59.9947 24.885 60.2046 24.8511 60.5781C24.8171 60.9516 24.7711 61.4582 24.723 61.9865C24.7402 61.798 24.7573 61.6095 24.7745 61.4209C24.7756 61.4084 24.7767 61.396 24.7779 61.3834C24.7782 61.38 24.7786 61.3752 24.7789 61.3719C24.7701 61.469 24.7612 61.5664 24.7524 61.6639C24.752 61.6681 24.7515 61.6729 24.7512 61.6769C24.7497 61.6932 24.7485 61.7057 24.7477 61.7196C24.7494 61.7123 24.7511 61.6936 24.7527 61.6806C24.7559 61.6519 24.7588 61.6243 24.7616 61.5973C24.7674 61.5424 24.7734 61.4839 24.7788 61.4301C24.7901 61.3181 24.801 61.2064 24.8118 61.0953C24.8332 60.8733 24.8541 60.6495 24.8743 60.4266C24.8844 60.3147 24.8943 60.2038 24.9041 60.092C24.8807 60.0338 24.9824 59.9865 25.0657 59.9373C25.1497 59.889 25.2308 59.8384 25.3073 59.7893C25.6137 59.59 25.8504 59.3827 25.9396 59.163L25.9415 59.1334C25.9594 59.0854 25.9703 59.0372 25.9735 58.9889C26.1189 57.0174 26.2407 54.7595 26.5552 53.1559L26.5674 53.1128C26.5701 53.1024 26.5728 53.092 26.5755 53.0816C26.6585 52.7578 26.7172 52.4405 26.7638 52.1322C26.794 51.9323 26.819 51.7356 26.8409 51.54C26.8708 51.2705 26.7973 50.998 26.6316 50.7819C26.466 50.5657 26.2226 50.4237 25.9542 50.3869C25.6857 50.3501 25.4131 50.4214 25.1954 50.585C24.9777 50.7486 24.8335 50.9912 24.7898 51.2588C24.7602 51.4387 24.7301 51.616 24.6983 51.7896C24.6492 52.0579 24.5964 52.3155 24.5341 52.558C24.5321 52.5659 24.5301 52.5737 24.5281 52.5815L24.5403 52.5383C24.0592 54.9374 24.1156 56.7962 24.0169 58.8934C24.0154 58.9423 24.0216 58.9918 24.0348 59.0419L24.0366 59.0123C24.0905 59.2393 24.2904 59.4788 24.5588 59.7256C24.626 59.7865 24.6972 59.85 24.7718 59.9119C24.8453 59.9745 24.9373 60.0387 24.9041 60.092C24.8943 60.2038 24.8844 60.3147 24.8743 60.4266C24.8541 60.6495 24.8332 60.8733 24.8118 61.0953C24.801 61.2064 24.7901 61.3181 24.7788 61.4301C24.7734 61.4839 24.7674 61.5424 24.7616 61.5973C24.7588 61.6243 24.7559 61.6519 24.7527 61.6806C24.7511 61.6936 24.7494 61.7123 24.7477 61.7196C24.7485 61.7057 24.7497 61.6932 24.7512 61.6769C24.7515 61.6729 24.752 61.6681 24.7524 61.6639C24.7612 61.5664 24.7701 61.469 24.7789 61.3719C24.7786 61.3752 24.7782 61.38 24.7779 61.3834C24.7767 61.396 24.7756 61.4084 24.7745 61.4209C24.7573 61.6095 24.7402 61.798 24.723 61.9865Z" fill="white"/>
<path d="M53.0923 61.5871C53.0443 61.0589 52.9982 60.5523 52.9643 60.1787C52.9303 59.8052 52.9112 59.5953 52.9112 59.5953C52.9112 59.5953 52.9303 59.8052 52.9643 60.1787C52.9982 60.5523 53.0443 61.0589 53.0923 61.5871C53.0752 61.3986 53.0581 61.2102 53.0409 61.0215C53.0398 61.0091 53.0386 60.9967 53.0375 60.9841C53.0372 60.9807 53.0367 60.9758 53.0364 60.9725C53.0453 61.0696 53.0541 61.167 53.063 61.2645C53.0634 61.2688 53.0638 61.2736 53.0642 61.2775C53.0656 61.2938 53.0669 61.3064 53.0677 61.3202C53.0659 61.313 53.0642 61.2942 53.0627 61.2812C53.0595 61.2526 53.0566 61.2249 53.0537 61.198C53.0479 61.143 53.042 61.0845 53.0366 61.0308C53.0253 60.9187 53.0143 60.807 53.0036 60.6959C52.9822 60.474 52.9613 60.2501 52.9411 60.0273C52.9309 59.9154 52.921 59.8044 52.9112 59.6926C52.9346 59.6344 52.8329 59.5872 52.7497 59.538C52.6656 59.4897 52.5845 59.439 52.508 59.3899C52.2016 59.1907 51.965 58.9833 51.8757 58.7636L51.8739 58.734C51.856 58.686 51.845 58.6379 51.8418 58.5895C51.6965 56.618 51.5747 54.3601 51.2602 52.7565L51.2479 52.7134C51.2452 52.703 51.2426 52.6926 51.2399 52.6822C51.1569 52.3584 51.0981 52.0411 51.0515 51.7329C51.0214 51.533 50.9964 51.3363 50.9744 51.1406C50.9446 50.8711 51.0181 50.5987 51.1838 50.3825C51.3494 50.1664 51.5927 50.0243 51.8612 49.9875C52.1297 49.9507 52.4023 50.022 52.6199 50.1856C52.8377 50.3492 52.9818 50.5918 53.0256 50.8594C53.0551 51.0393 53.0853 51.2166 53.1171 51.3903C53.1662 51.6585 53.219 51.9162 53.2812 52.1587C53.2833 52.1665 53.2853 52.1743 53.2873 52.1821L53.2751 52.139C53.7561 54.5381 53.6997 56.3969 53.7985 58.494C53.8 58.543 53.7938 58.5925 53.7806 58.6425L53.7787 58.6129C53.7248 58.8399 53.525 59.0794 53.2566 59.3262C53.1894 59.3872 53.1181 59.4507 53.0436 59.5125C52.97 59.5752 52.878 59.6394 52.9112 59.6926C52.921 59.8044 52.9309 59.9154 52.9411 60.0273C52.9613 60.2501 52.9822 60.474 53.0036 60.6959C53.0143 60.807 53.0253 60.9187 53.0366 61.0308C53.042 61.0845 53.0479 61.143 53.0537 61.198C53.0566 61.2249 53.0595 61.2526 53.0627 61.2812C53.0642 61.2942 53.0659 61.313 53.0677 61.3202C53.0669 61.3064 53.0656 61.2938 53.0642 61.2775C53.0638 61.2736 53.0634 61.2688 53.063 61.2645C53.0541 61.167 53.0453 61.0696 53.0364 60.9725C53.0367 60.9758 53.0372 60.9807 53.0375 60.9841C53.0386 60.9967 53.0398 61.0091 53.0409 61.0215C53.0581 61.2102 53.0752 61.3986 53.0923 61.5871Z" fill="white"/>
<path d="M23.3428 48.5676C23.395 48.7205 23.4451 48.8672 23.482 48.9754C23.519 49.0835 23.5397 49.1443 23.5397 49.1443C23.5397 49.1443 23.519 49.0835 23.482 48.9754C23.4451 48.8672 23.395 48.7205 23.3428 48.5676C23.1545 48.8604 22.8595 49.0768 22.5969 49.308C22.5956 49.309 22.5943 49.3101 22.593 49.3112C22.6643 49.237 22.7372 49.1639 22.8095 49.0904C22.8606 49.0386 22.9116 48.9869 22.9627 48.9354C22.9628 48.9353 22.963 48.9351 22.9631 48.935C23.0108 48.8883 23.0466 48.8518 23.0824 48.8036C23.1221 48.7625 23.1342 48.6733 23.0578 48.6801C22.939 48.6775 22.8252 48.7135 22.7148 48.7424C22.4885 48.8063 22.2671 48.882 22.0466 48.9567C21.6055 49.1074 21.1638 49.2617 20.7182 49.4042C20.4963 49.4752 20.2723 49.5439 20.048 49.608C19.9354 49.6401 19.8233 49.6709 19.7099 49.7006C19.6533 49.7154 19.5968 49.7298 19.5404 49.7438C19.481 49.7478 19.4112 49.7085 19.3479 49.6907C18.8353 49.5165 18.3457 49.3495 17.9916 49.2049C17.7397 49.1264 17.4914 49.0778 17.2483 49.0651C15.222 49.0594 13.8348 48.2436 12.4006 46.8153C12.1602 46.5779 11.8439 45.9583 11.626 45.3894C11.2055 44.2895 10.8613 42.9712 10.8277 41.9454L10.8007 42.1835C10.8077 42.1538 10.8146 42.1241 10.8216 42.0947C11.1221 40.8352 11.5833 39.5823 12.3243 38.875L12.2485 38.9391C12.2572 38.9323 12.2661 38.9255 12.2749 38.9187C12.6195 38.6532 12.9982 38.4207 13.4067 38.2197C13.7686 38.0417 14.1517 37.8892 14.5497 37.7618C14.7891 37.6856 14.9897 37.5154 15.1083 37.2914C15.2269 37.0672 15.2537 36.8076 15.182 36.5669C15.1104 36.3262 14.9459 36.1234 14.7241 36.0006C14.5023 35.8779 14.2412 35.8452 13.9992 35.9123C13.52 36.0461 13.0427 36.2084 12.5733 36.414C12.0442 36.6457 11.5254 36.9338 11.0454 37.292C11.0331 37.3012 11.0208 37.3104 11.0087 37.3196L10.9329 37.3837C9.62959 38.6396 9.15877 40.1773 8.79455 41.6111C8.78655 41.6446 8.77862 41.6783 8.77077 41.7121L8.74377 41.9502C8.81249 43.552 9.19336 44.8024 9.70712 46.1508C10.0099 46.852 10.2658 47.5352 10.9981 48.284C12.4619 49.8076 15.0246 51.0683 17.2068 50.8586C17.4681 50.8575 17.7244 50.8133 17.9782 50.7393C18.555 50.5981 18.9965 50.261 19.3916 49.8788C19.4417 49.8348 19.4861 49.768 19.5404 49.7438C19.5968 49.7298 19.6533 49.7154 19.7099 49.7006C19.8233 49.6709 19.9354 49.6401 20.048 49.608C20.2723 49.5439 20.4963 49.4752 20.7182 49.4042C21.1638 49.2617 21.6055 49.1074 22.0466 48.9567C22.2671 48.882 22.4885 48.8063 22.7148 48.7424C22.8252 48.7135 22.939 48.6775 23.0578 48.6801C23.1342 48.6733 23.1221 48.7625 23.0824 48.8036C23.0466 48.8518 23.0108 48.8883 22.9631 48.935C22.963 48.9351 22.9628 48.9353 22.9627 48.9354C22.9116 48.9869 22.8606 49.0386 22.8095 49.0904C22.7372 49.1639 22.6643 49.237 22.593 49.3112C22.5943 49.3101 22.5956 49.309 22.5969 49.308C22.8595 49.0768 23.1545 48.8604 23.3428 48.5676Z" fill="white"/>
<path d="M52.1491 49.2869C52.0969 49.4398 52.0468 49.5865 52.0099 49.6946C51.9729 49.8028 51.9522 49.8635 51.9522 49.8635C51.9522 49.8635 51.9729 49.8028 52.0099 49.6946C52.0468 49.5865 52.0969 49.4398 52.1491 49.2869C52.3374 49.5796 52.6323 49.796 52.895 50.0272C52.8963 50.0283 52.8976 50.0294 52.8989 50.0304C52.8276 49.9563 52.7547 49.8832 52.6824 49.8097C52.6313 49.7579 52.5802 49.7061 52.5292 49.6546C52.529 49.6545 52.5289 49.6544 52.5288 49.6542C52.4811 49.6076 52.4453 49.571 52.4095 49.5229C52.3698 49.4818 52.3577 49.3925 52.4341 49.3994C52.5529 49.3967 52.6667 49.4328 52.7771 49.4616C53.0034 49.5256 53.2248 49.6013 53.4453 49.676C53.8864 49.8266 54.328 49.9809 54.7737 50.1234C54.9956 50.1944 55.2196 50.2632 55.4439 50.3272C55.5565 50.3594 55.6686 50.3902 55.782 50.4198C55.8386 50.4347 55.8951 50.4491 55.9515 50.463C56.0109 50.467 56.0807 50.4277 56.144 50.41C56.6566 50.2358 57.1462 50.0687 57.5003 49.9242C57.7522 49.8457 58.0005 49.797 58.2436 49.7843C60.2699 49.7786 61.6571 48.9628 63.0913 47.5345C63.3317 47.2971 63.648 46.6776 63.8659 46.1086C64.2864 45.0087 64.6306 43.6904 64.6642 42.6647L64.6912 42.9028C64.6842 42.873 64.6773 42.8434 64.6702 42.8139C64.3698 41.5544 63.9086 40.3015 63.1676 39.5943L63.2434 39.6584C63.2347 39.6516 63.2258 39.6447 63.2169 39.6379C62.8724 39.3724 62.4937 39.1399 62.0851 38.9389C61.7233 38.7609 61.3402 38.6085 60.9421 38.481C60.7028 38.4048 60.5021 38.2347 60.3835 38.0106C60.265 37.7865 60.2382 37.5268 60.3099 37.2861C60.3815 37.0454 60.546 36.8427 60.7678 36.7199C60.9896 36.5972 61.2507 36.5645 61.4927 36.6316C61.9719 36.7654 62.4492 36.9277 62.9186 37.1333C63.4477 37.3649 63.9665 37.653 64.4465 38.0112C64.4588 38.0204 64.4711 38.0296 64.4832 38.0388L64.559 38.1029C65.8623 39.3589 66.3331 40.8965 66.6973 42.3303C66.7053 42.3639 66.7133 42.3976 66.7211 42.4314L66.7481 42.6695C66.6794 44.2712 66.2985 45.5216 65.7848 46.8701C65.482 47.5712 65.2261 48.2545 64.4938 49.0032C63.03 50.5268 60.4672 51.7876 58.2851 51.5778C58.0238 51.5767 57.7674 51.5325 57.5137 51.4585C56.9369 51.3174 56.4954 50.9803 56.1003 50.5981C56.0502 50.554 56.0058 50.4873 55.9515 50.463C55.8951 50.4491 55.8386 50.4347 55.782 50.4198C55.6686 50.3902 55.5565 50.3594 55.4439 50.3272C55.2196 50.2632 54.9956 50.1944 54.7737 50.1234C54.328 49.9809 53.8864 49.8266 53.4453 49.676C53.2248 49.6013 53.0034 49.5256 52.7771 49.4616C52.6667 49.4328 52.5529 49.3967 52.4341 49.3994C52.3577 49.3925 52.3698 49.4818 52.4095 49.5229C52.4453 49.571 52.4811 49.6076 52.5288 49.6542C52.5289 49.6544 52.529 49.6545 52.5292 49.6546C52.5802 49.7061 52.6313 49.7579 52.6824 49.8097C52.7547 49.8832 52.8276 49.9563 52.8989 50.0304C52.8976 50.0294 52.8963 50.0283 52.895 50.0272C52.6323 49.796 52.3374 49.5796 52.1491 49.2869Z" fill="white"/>
<path d="M15.9844 32.9979C15.8405 33.0459 15.7024 33.0919 15.6006 33.1259C15.4987 33.1598 15.4415 33.1789 15.4415 33.1789C15.4415 33.1789 15.4987 33.1598 15.6006 33.1259C15.7024 33.0919 15.8405 33.0459 15.9844 32.9979C15.4737 33.0127 14.9642 32.9074 14.457 32.8375C13.9257 32.7554 13.3964 32.6642 12.8684 32.5652C12.8918 32.5678 12.9217 32.5719 12.9452 32.5749C13.4428 32.6402 13.9401 32.7064 14.4363 32.7727C14.4869 32.7801 14.5314 32.7879 14.5768 32.7974C14.6738 32.8184 14.7664 32.8433 14.8515 32.8893C14.9408 32.9253 15.0049 33.0506 14.9112 33.1164C14.7593 33.2384 14.5558 33.2697 14.3673 33.2975C13.9824 33.3448 13.5919 33.3201 13.2086 33.2641C12.8271 33.2073 12.4476 33.1138 12.0788 32.9949C11.897 32.9362 11.7142 32.8701 11.5328 32.7977C11.4376 32.7797 11.3707 32.6833 11.3061 32.5908C11.243 32.5001 11.1798 32.4097 11.1161 32.3198C10.7058 31.7202 10.4223 31.1857 10.0506 30.7862C9.00238 29.6641 8.54954 28.0994 8.58013 26.5C8.5882 25.8417 8.59552 25.2194 8.65397 24.6334C8.76185 23.4812 9.11064 22.5029 9.81098 21.7266C10.0221 21.4897 10.2442 21.2694 10.4774 21.0691C11.625 20.0621 13.0553 19.5516 14.6794 19.6704C14.8883 19.6837 15.0992 19.7057 15.3121 19.7353C15.318 19.7362 15.3239 19.7368 15.3298 19.7373L15.2242 19.7108C15.4382 19.751 15.7368 19.5104 16.0747 19.501C16.1308 19.4975 16.2004 19.4665 16.2594 19.4303C16.3188 19.3932 16.3627 19.354 16.3903 19.3057C16.4179 19.2575 16.4294 19.1997 16.4312 19.1296C16.4324 19.0605 16.4238 18.9848 16.3983 18.9346C16.2642 18.6459 16.0633 18.1713 15.7524 18.0493L15.6467 18.0228C15.64 18.021 15.6333 18.0193 15.6266 18.0178C15.3825 17.9638 15.1339 17.916 14.881 17.8773C12.9493 17.5253 10.6197 18.033 9.06846 19.4162C8.75264 19.684 8.46033 19.9718 8.18902 20.2734C7.12947 21.414 6.59609 23.0068 6.47811 24.4177C6.40635 25.1437 6.41142 25.8413 6.41986 26.5C6.42452 28.5132 7.16559 30.6868 8.74678 32.1146C9.3072 32.6309 10.1126 32.8519 10.8839 32.8106C10.9987 32.8051 11.112 32.7949 11.2233 32.7804C11.3374 32.7659 11.4517 32.7452 11.5328 32.7977C11.7142 32.8701 11.897 32.9362 12.0788 32.9949C12.4476 33.1138 12.8271 33.2073 13.2086 33.2641C13.5919 33.3201 13.9824 33.3448 14.3673 33.2975C14.5558 33.2697 14.7593 33.2384 14.9112 33.1164C15.0049 33.0506 14.9408 32.9253 14.8515 32.8893C14.7664 32.8433 14.6738 32.8184 14.5768 32.7974C14.5314 32.7879 14.4869 32.7801 14.4363 32.7727C13.9401 32.7064 13.4428 32.6402 12.9452 32.5749C12.9217 32.5719 12.8918 32.5678 12.8684 32.5652C13.3964 32.6642 13.9257 32.7554 14.457 32.8375C14.9642 32.9074 15.4737 33.0127 15.9844 32.9979Z" fill="white"/>
<path d="M59.2521 33.276C59.3961 33.324 59.5341 33.37 59.636 33.404C59.7378 33.4379 59.795 33.457 59.795 33.457C59.795 33.457 59.7378 33.4379 59.636 33.404C59.5341 33.37 59.3961 33.324 59.2521 33.276C59.7628 33.2908 60.2723 33.1855 60.7795 33.1156C61.3108 33.0335 61.8401 32.9423 62.3681 32.8433C62.3448 32.8459 62.3149 32.85 62.2913 32.853C61.7937 32.9183 61.2964 32.9845 60.8002 33.0508C60.7496 33.0582 60.7051 33.066 60.6597 33.0755C60.5627 33.0965 60.4702 33.1214 60.385 33.1674C60.2957 33.2034 60.2316 33.3287 60.3254 33.3945C60.4773 33.5165 60.6807 33.5479 60.8692 33.5756C61.2541 33.6229 61.6446 33.5982 62.0279 33.5422C62.4094 33.4854 62.7889 33.392 63.1577 33.273C63.3396 33.2143 63.5224 33.1482 63.7037 33.0758C63.799 33.0578 63.8658 32.9614 63.9304 32.8689C63.9935 32.7782 64.0567 32.6878 64.1204 32.5979C64.5307 31.9983 64.8142 31.4638 65.1859 31.0643C66.2341 29.9422 66.687 28.3775 66.6564 26.7781C66.6483 26.1198 66.641 25.4975 66.5826 24.9115C66.4747 23.7593 66.1259 22.781 65.4255 22.0048C65.2144 21.7678 64.9923 21.5475 64.7591 21.3472C63.6115 20.3402 62.1812 19.8297 60.5571 19.9485C60.3482 19.9618 60.1373 19.9838 59.9244 20.0135C59.9185 20.0143 59.9126 20.0149 59.9067 20.0154L60.0124 19.9889C59.7983 20.0291 59.4997 19.7885 59.1618 19.7791C59.1057 19.7756 59.0361 19.7446 58.9772 19.7084C58.9177 19.6713 58.8738 19.6321 58.8462 19.5838C58.8186 19.5356 58.8071 19.4778 58.8054 19.4078C58.8041 19.3386 58.8127 19.2629 58.8382 19.2127C58.9723 18.924 59.1732 18.4494 59.4841 18.3274L59.5898 18.3009C59.5965 18.2991 59.6032 18.2974 59.6099 18.2959C59.854 18.2419 60.1026 18.1941 60.3556 18.1554C62.2872 17.8034 64.6168 18.3111 66.1681 19.6943C66.4839 19.9621 66.7762 20.2499 67.0475 20.5515C68.1071 21.6921 68.6404 23.285 68.7584 24.6958C68.8302 25.4218 68.8251 26.1194 68.8167 26.7781C68.812 28.7913 68.0709 30.9649 66.4897 32.3927C65.9293 32.909 65.1239 33.1301 64.3526 33.0887C64.2378 33.0832 64.1245 33.073 64.0132 33.0585C63.8991 33.044 63.7848 33.0233 63.7037 33.0758C63.5224 33.1482 63.3396 33.2143 63.1577 33.273C62.7889 33.392 62.4094 33.4854 62.0279 33.5422C61.6446 33.5982 61.2541 33.6229 60.8692 33.5756C60.6807 33.5479 60.4773 33.5165 60.3254 33.3945C60.2316 33.3287 60.2957 33.2034 60.385 33.1674C60.4702 33.1214 60.5627 33.0965 60.6597 33.0755C60.7051 33.066 60.7496 33.0582 60.8002 33.0508C61.2964 32.9845 61.7937 32.9183 62.2913 32.853C62.3149 32.85 62.3448 32.8459 62.3681 32.8433C61.8401 32.9423 61.3108 33.0335 60.7795 33.1156C60.2723 33.1855 59.7628 33.2908 59.2521 33.276Z" fill="white"/>
<path d="M19.9324 16.4711C20.0078 16.5885 20.0802 16.7011 20.1336 16.7842C20.187 16.8672 20.217 16.9138 20.217 16.9138C20.217 16.9138 20.187 16.8672 20.1336 16.7842C20.0802 16.7011 20.0078 16.5885 19.9324 16.4711C20.0555 16.6194 20.0064 16.8624 19.8178 16.9169C19.648 16.9873 19.4597 16.997 19.2788 16.9954C19.2676 16.9953 19.2554 16.995 19.2451 16.9947C19.071 16.9894 18.8985 16.9683 18.726 16.9365C17.7399 16.7373 16.423 16.1789 16.5 15C16.5129 14.8801 16.5288 14.7566 16.5464 14.6347C16.5754 14.5164 16.5401 14.3847 16.6814 14.2836C16.8848 14.071 17.0824 13.8659 17.2643 13.6649C17.6278 13.2646 17.9274 12.8807 18.097 12.4702C18.5465 11.3736 19.1794 10.3732 19.9729 9.94124C19.9815 9.93644 19.9902 9.9317 19.9989 9.92702C20.8433 9.47283 21.6783 9.14267 22.5279 9.06817C22.824 9.03829 23.1308 9.04222 23.5509 9.02031L23.3661 9.01276C24.5802 9.16411 25.7951 9.3812 26.5598 9.94973C26.6021 9.98034 26.6474 10.0106 26.6961 10.041L26.6159 9.96677C26.7603 10.0765 26.9437 10.1977 27.1368 10.3284C27.4236 10.5226 27.7349 10.7409 27.993 11.0021C28.0502 11.0606 28.1395 11.0978 28.2301 11.1118C28.3214 11.1255 28.4064 11.1147 28.4779 11.0759C28.5494 11.037 28.6046 10.9713 28.6426 10.8873C28.6801 10.8036 28.6973 10.7083 28.6792 10.6286C28.588 10.2488 28.5211 9.84087 28.3851 9.44019C28.2927 9.17034 28.171 8.90427 27.975 8.65921L27.8948 8.58493C27.8429 8.53254 27.7853 8.4804 27.7239 8.43152C26.4057 7.41253 24.9558 7.20387 23.6339 6.98724L23.4491 6.97969C23.1651 6.98909 22.7632 6.9772 22.3571 7.00884C21.1255 7.09323 19.9834 7.54423 19.0011 8.07298C18.9844 8.08199 18.9677 8.0911 18.9511 8.1003C17.4171 8.9807 16.6863 10.4487 16.2362 11.7924C16.0698 12.3048 16.0954 12.8728 16.2381 13.4279C16.3091 13.7071 16.4089 13.9851 16.5278 14.2568C16.6265 14.4003 16.5523 14.5122 16.5464 14.6347C16.5288 14.7566 16.5129 14.8801 16.5 15C16.423 16.1789 17.7399 16.7373 18.726 16.9365C18.8985 16.9683 19.071 16.9894 19.2451 16.9947C19.2554 16.995 19.2676 16.9953 19.2788 16.9954C19.4597 16.997 19.648 16.9873 19.8178 16.9169C20.0064 16.8624 20.0555 16.6194 19.9324 16.4711Z" fill="white"/>
<path d="M57.4037 17.4711C57.3283 17.5885 57.2559 17.7011 57.2025 17.7842C57.1491 17.8672 57.1191 17.9138 57.1191 17.9138C57.1191 17.9138 57.1491 17.8672 57.2025 17.7842C57.2559 17.7011 57.3283 17.5885 57.4037 17.4711C57.2806 17.6194 57.3297 17.8624 57.5183 17.9169C57.6881 17.9873 57.8764 17.997 58.0573 17.9954C58.0685 17.9953 58.0807 17.995 58.091 17.9947C58.2651 17.9894 58.4376 17.9683 58.6101 17.9365C59.5962 17.7373 60.9131 17.1789 60.8361 16C60.8232 15.8801 60.8073 15.7566 60.7897 15.6347C60.7607 15.5164 60.796 15.3847 60.6547 15.2836C60.4513 15.071 60.2537 14.8659 60.0718 14.6649C59.7083 14.2646 59.4087 13.8807 59.2391 13.4702C58.7896 12.3736 58.1567 11.3732 57.3632 10.9412C57.3546 10.9364 57.3459 10.9317 57.3372 10.927C56.4928 10.4728 55.6578 10.1427 54.8082 10.0682C54.5121 10.0383 54.2053 10.0422 53.7852 10.0203L53.97 10.0128C52.7559 10.1641 51.541 10.3812 50.7763 10.9497C50.734 10.9803 50.6887 11.0106 50.64 11.041L50.7202 10.9668C50.5758 11.0765 50.3924 11.1977 50.1993 11.3284C49.9125 11.5226 49.6012 11.7409 49.3431 12.0021C49.2859 12.0606 49.1966 12.0978 49.106 12.1118C49.0148 12.1255 48.9297 12.1147 48.8582 12.0759C48.7867 12.037 48.7315 11.9713 48.6935 11.8873C48.656 11.8036 48.6388 11.7083 48.6569 11.6286C48.7481 11.2488 48.815 10.8409 48.951 10.4402C49.0434 10.1703 49.1651 9.90427 49.3611 9.65921L49.4413 9.58493C49.4932 9.53254 49.5508 9.4804 49.6122 9.43152C50.9304 8.41253 52.3803 8.20387 53.7022 7.98724L53.887 7.97969C54.171 7.98909 54.5729 7.9772 54.979 8.00884C56.2106 8.09323 57.3527 8.54423 58.335 9.07298C58.3517 9.08199 58.3684 9.0911 58.385 9.1003C59.919 9.9807 60.6498 11.4487 61.0999 12.7924C61.2663 13.3048 61.2407 13.8728 61.098 14.4279C61.027 14.7071 60.9273 14.9851 60.8083 15.2568C60.7096 15.4003 60.7838 15.5122 60.7897 15.6347C60.8073 15.7566 60.8232 15.8801 60.8361 16C60.9131 17.1789 59.5962 17.7373 58.6101 17.9365C58.4376 17.9683 58.2651 17.9894 58.091 17.9947C58.0807 17.995 58.0685 17.9953 58.0573 17.9954C57.8764 17.997 57.6881 17.9873 57.5183 17.9169C57.3297 17.8624 57.2806 17.6194 57.4037 17.4711Z" fill="white"/>
</svg>
